G04 start of page 8 for group -4062 idx -4062 *
G04 Title: (unknown), soldermask *
G04 Creator: pcb 20140316 *
G04 CreationDate: Mon 21 Nov 2016 03:27:11 AM GMT UTC *
G04 For: ndholmes *
G04 Format: Gerber/RS-274X *
G04 PCB-Dimensions (mil): 3500.00 1750.00 *
G04 PCB-Coordinate-Origin: lower left *
%MOIN*%
%FSLAX25Y25*%
%LNBOTTOMMASK*%
%ADD87C,0.0490*%
%ADD86C,0.0900*%
%ADD85C,0.0710*%
%ADD84C,0.0860*%
%ADD83C,0.0001*%
%ADD82C,0.2997*%
G54D82*X333000Y17000D03*
G54D83*G36*
X303700Y48000D02*Y39400D01*
X312300D01*
Y48000D01*
X303700D01*
G37*
G54D84*X298000Y43700D03*
X288000D03*
X278000D03*
X268000D03*
X258000D03*
X248000D03*
X238000D03*
X228000D03*
G54D82*X333000Y158000D03*
G54D84*X308000Y130300D03*
X298000D03*
X288000D03*
X278000D03*
X268000D03*
X258000D03*
X248000D03*
X238000D03*
X228000D03*
G54D83*G36*
X169450Y125550D02*Y118450D01*
X176550D01*
Y125550D01*
X169450D01*
G37*
G54D85*X183000Y122000D03*
G54D82*X17000Y17000D03*
Y158000D03*
G54D83*G36*
X16700Y124300D02*Y115700D01*
X25300D01*
Y124300D01*
X16700D01*
G37*
G54D84*X21000Y100000D03*
G54D83*G36*
X16700Y84300D02*Y75700D01*
X25300D01*
Y84300D01*
X16700D01*
G37*
G54D84*X21000Y60000D03*
G54D83*G36*
X169450Y56050D02*Y48950D01*
X176550D01*
Y56050D01*
X169450D01*
G37*
G54D85*X183000Y52500D03*
G54D83*G36*
X119700Y48000D02*Y39400D01*
X128300D01*
Y48000D01*
X119700D01*
G37*
G54D84*X114000Y43700D03*
X104000D03*
X94000D03*
X84000D03*
X74000D03*
G54D86*X75500Y63000D03*
G54D84*X64000Y43700D03*
X54000D03*
X44000D03*
G54D86*X65500Y63000D03*
G54D83*G36*
X51000Y67500D02*Y58500D01*
X60000D01*
Y67500D01*
X51000D01*
G37*
G54D87*X102000Y160000D03*
X82000Y156000D03*
Y164000D03*
G54D84*X124000Y130300D03*
X114000D03*
X104000D03*
X94000D03*
X84000D03*
X74000D03*
X64000D03*
X54000D03*
X44000D03*
M02*
