M48
INCH
T61C0.020
T60C0.045
T59C0.043
T58C0.048
T57C0.129
%
T61
X004850Y016000
X005750Y016000
X006300Y003100
X006550Y008700
X006550Y008150
X006550Y007600
X007400Y015100
X007400Y014150
X008300Y011350
X008600Y006750
X008600Y006250
X008700Y016800
X009200Y016800
X009200Y015100
X009500Y007700
X010000Y009200
X010150Y010450
X010350Y010950
X010950Y015700
X011050Y007800
X011050Y007200
X011500Y015700
X011650Y007800
X011650Y007200
X011700Y010100
X011700Y009600
X012000Y006050
X013300Y003850
X013400Y008850
X013400Y008350
X013850Y013400
X013850Y012900
X013850Y012400
X013970Y002510
X014750Y004100
X014750Y002800
X014950Y005800
X015250Y003550
X015250Y002800
X015600Y009400
X015650Y010200
X015750Y002800
X015950Y009800
X015950Y003550
X016400Y004100
X016950Y003600
X017150Y009300
X017150Y008800
X017150Y008300
X017950Y003000
X018050Y001400
X018450Y003000
X018550Y007270
X018650Y001400
X019100Y003900
X020150Y010404
X020500Y006700
X020500Y006000
X020750Y004250
X020750Y001250
X021100Y013300
X021100Y012750
X021100Y012200
X021150Y006700
X021150Y006000
X021450Y003350
X021450Y002250
X021700Y009300
X022100Y003550
X022100Y002400
X022250Y009350
X022600Y009850
X023200Y011450
X023200Y010750
X023200Y009000
X023200Y006300
X023200Y005750
X023600Y008600
X024500Y007300
X024500Y006700
X025100Y007300
X025100Y006700
X025450Y008950
X025700Y015000
X025700Y014450
X026150Y005400
X026250Y015000
X026250Y014450
X026800Y015000
X026800Y014450
X026850Y009850
X029800Y009100
X031350Y010950
X031750Y013300
X031750Y012800
X031850Y010950
X034250Y013300
X034250Y012800
X034250Y012250
X034400Y010550
X034400Y010050
T59
X017300Y012200
X017300Y005250
X018300Y012200
X018300Y005250
T60
X005550Y006300
X006550Y006300
X007550Y006300
T58
X002100Y012000
X002100Y010000
X002100Y008000
X002100Y006000
X004400Y013030
X004400Y004370
X005400Y013030
X005400Y004370
X006400Y013030
X006400Y004370
X007400Y013030
X007400Y004370
X008400Y013030
X008400Y004370
X009400Y013030
X009400Y004370
X010400Y013030
X010400Y004370
X011400Y013030
X011400Y004370
X012400Y013030
X012400Y004370
X022800Y013030
X022800Y004370
X023800Y013030
X023800Y004370
X024800Y013030
X024800Y004370
X025800Y013030
X025800Y004370
X026800Y013030
X026800Y004370
X027800Y013030
X027800Y004370
X028800Y013030
X028800Y004370
X029800Y013030
X029800Y004370
X030800Y013030
X030800Y004370
T57
X001700Y015800
X001700Y001700
X033300Y015800
X033300Y001700
M30
