G04 start of page 11 for group -4015 idx -4015 *
G04 Title: (unknown), toppaste *
G04 Creator: pcb 20140316 *
G04 CreationDate: Mon 21 Nov 2016 03:27:11 AM GMT UTC *
G04 For: ndholmes *
G04 Format: Gerber/RS-274X *
G04 PCB-Dimensions (mil): 3500.00 1750.00 *
G04 PCB-Coordinate-Origin: lower left *
%MOIN*%
%FSLAX25Y25*%
%LNTOPPASTE*%
%ADD104R,0.0350X0.0350*%
%ADD103R,0.0157X0.0157*%
%ADD102R,0.0787X0.0787*%
%ADD101R,0.0550X0.0550*%
%ADD100R,0.0630X0.0630*%
%ADD99R,0.0091X0.0091*%
%ADD98R,0.0200X0.0200*%
%ADD97R,0.0110X0.0110*%
%ADD96C,0.0001*%
%ADD95R,0.0945X0.0945*%
%ADD94R,0.0378X0.0378*%
%ADD93R,0.0167X0.0167*%
%ADD92R,0.0512X0.0512*%
G54D92*X98043Y113936D02*Y113150D01*
X90957Y113936D02*Y113150D01*
X94607Y96957D02*X95393D01*
X94607Y104043D02*X95393D01*
X218107Y74543D02*X218893D01*
X218107Y67457D02*X218893D01*
X142607Y64543D02*X143393D01*
X142607Y57457D02*X143393D01*
X140107Y48500D02*X140893D01*
X140107Y41414D02*X140893D01*
X189457Y109393D02*Y108607D01*
X196543Y109393D02*Y108607D01*
X218000Y59893D02*Y59107D01*
X225086Y59893D02*Y59107D01*
X56957Y8393D02*Y7607D01*
X64043Y8393D02*Y7607D01*
X130107Y25043D02*X130893D01*
X130107Y17957D02*X130893D01*
G54D93*X141217Y14575D02*X143087D01*
X141217Y11425D02*X143087D01*
X147913D02*X149783D01*
X147913Y14575D02*X149783D01*
G54D94*X324094Y115610D02*Y111516D01*
X330000Y123326D02*Y111516D01*
G54D95*Y126950D02*Y125060D01*
G54D96*G36*
X326695Y121755D02*X329535Y118915D01*
X328115Y117495D01*
X325275Y120335D01*
X326695Y121755D01*
G37*
G36*
X330465Y118915D02*X333305Y121755D01*
X334725Y120335D01*
X331885Y117495D01*
X330465Y118915D01*
G37*
G54D94*X335906Y115610D02*Y111516D01*
G54D92*X314607Y122086D02*X315393D01*
X314607Y115000D02*X315393D01*
G54D97*X178169Y18563D02*X180413D01*
X178169Y20531D02*X180413D01*
X178169Y22500D02*X180413D01*
X178169Y24469D02*X180413D01*
X178169Y26437D02*X180413D01*
X175453Y30413D02*Y28169D01*
X169547Y30413D02*Y28169D01*
X164587Y26437D02*X166831D01*
X164587Y24469D02*X166831D01*
X164587Y22500D02*X166831D01*
X164587Y20531D02*X166831D01*
X164587Y18563D02*X166831D01*
X169547Y16831D02*Y14587D01*
X175453Y16831D02*Y14587D01*
G54D96*G36*
X173091Y21909D02*Y18681D01*
X176319D01*
Y21909D01*
X173091D01*
G37*
G36*
X168681D02*Y18681D01*
X171909D01*
Y21909D01*
X168681D01*
G37*
G36*
X173091Y26319D02*Y23091D01*
X176319D01*
Y26319D01*
X173091D01*
G37*
G36*
X168681D02*Y23091D01*
X171909D01*
Y26319D01*
X168681D01*
G37*
G54D93*X176869Y42500D02*X178739D01*
X176869Y39350D02*X178739D01*
X183565D02*X185435D01*
X183565Y42500D02*X185435D01*
G54D92*X111107Y25000D02*X111893D01*
X111107Y17914D02*X111893D01*
G54D98*X67500Y17000D02*X74000D01*
X67500Y22000D02*X74000D01*
X67500Y27000D02*X74000D01*
X67500Y32000D02*X74000D01*
X47000D02*X53500D01*
X47000Y27000D02*X53500D01*
X47000Y22000D02*X53500D01*
X47000Y17000D02*X53500D01*
G54D99*X106610Y66280D02*Y64626D01*
X108579Y66280D02*Y64626D01*
X110547Y66280D02*Y64626D01*
X112516Y66280D02*Y64626D01*
X114484Y66280D02*Y64626D01*
X116453Y66280D02*Y64626D01*
X118421Y66280D02*Y64626D01*
X120390Y66280D02*Y64626D01*
X122220Y68110D02*X123874D01*
X122220Y70079D02*X123874D01*
X122220Y72047D02*X123874D01*
X122220Y74016D02*X123874D01*
X122220Y75984D02*X123874D01*
X122220Y77953D02*X123874D01*
X122220Y79921D02*X123874D01*
X122220Y81890D02*X123874D01*
X120390Y85374D02*Y83720D01*
X118421Y85374D02*Y83720D01*
X116453Y85374D02*Y83720D01*
X114484Y85374D02*Y83720D01*
X112516Y85374D02*Y83720D01*
X110547Y85374D02*Y83720D01*
X108579Y85374D02*Y83720D01*
X106610Y85374D02*Y83720D01*
X103126Y81890D02*X104780D01*
X103126Y79921D02*X104780D01*
X103126Y77953D02*X104780D01*
X103126Y75984D02*X104780D01*
X103126Y74016D02*X104780D01*
X103126Y72047D02*X104780D01*
X103126Y70079D02*X104780D01*
X103126Y68110D02*X104780D01*
G54D96*G36*
X108185Y80315D02*Y69685D01*
X118815D01*
Y80315D01*
X108185D01*
G37*
G54D99*X241110Y61280D02*Y59626D01*
X243079Y61280D02*Y59626D01*
X245047Y61280D02*Y59626D01*
X247016Y61280D02*Y59626D01*
X248984Y61280D02*Y59626D01*
X250953Y61280D02*Y59626D01*
X252921Y61280D02*Y59626D01*
X254890Y61280D02*Y59626D01*
X256720Y63110D02*X258374D01*
X256720Y65079D02*X258374D01*
X256720Y67047D02*X258374D01*
X256720Y69016D02*X258374D01*
X256720Y70984D02*X258374D01*
X256720Y72953D02*X258374D01*
X256720Y74921D02*X258374D01*
X256720Y76890D02*X258374D01*
X254890Y80374D02*Y78720D01*
X252921Y80374D02*Y78720D01*
X250953Y80374D02*Y78720D01*
X248984Y80374D02*Y78720D01*
X247016Y80374D02*Y78720D01*
X245047Y80374D02*Y78720D01*
X243079Y80374D02*Y78720D01*
X241110Y80374D02*Y78720D01*
X237626Y76890D02*X239280D01*
X237626Y74921D02*X239280D01*
X237626Y72953D02*X239280D01*
X237626Y70984D02*X239280D01*
X237626Y69016D02*X239280D01*
X237626Y67047D02*X239280D01*
X237626Y65079D02*X239280D01*
X237626Y63110D02*X239280D01*
G54D96*G36*
X242685Y75315D02*Y64685D01*
X253315D01*
Y75315D01*
X242685D01*
G37*
G54D92*X102107Y25043D02*X102893D01*
X102107Y17957D02*X102893D01*
G54D93*X82413Y6425D02*X84283D01*
X82413Y9575D02*X84283D01*
X75717D02*X77587D01*
X75717Y6425D02*X77587D01*
G54D92*X120607Y25086D02*X121393D01*
X120607Y18000D02*X121393D01*
G54D93*X58776Y145087D02*Y143217D01*
X61925Y145087D02*Y143217D01*
X65075Y145087D02*Y143217D01*
X68224Y145087D02*Y143217D01*
Y151783D02*Y149913D01*
X65075Y151783D02*Y149913D01*
X61925Y151783D02*Y149913D01*
X58776Y151783D02*Y149913D01*
G54D100*X59008Y104500D02*X65307D01*
X78693D02*X84992D01*
G54D101*X44500Y114500D02*X46500D01*
X44500Y101500D02*X46500D01*
G54D92*X94607Y71043D02*X95393D01*
X94607Y63957D02*X95393D01*
G54D102*X203843Y140500D02*X219591D01*
X168409D02*X184157D01*
G54D92*X203543Y117393D02*Y116607D01*
X196457Y117393D02*Y116607D01*
G54D103*X177566Y78977D02*X181992D01*
X177566Y82126D02*X181992D01*
X177566Y85276D02*X181992D01*
X177566Y88425D02*X181992D01*
X177566Y91575D02*X181992D01*
X177566Y94725D02*X181992D01*
X177566Y97874D02*X181992D01*
X177566Y101024D02*X181992D01*
X172023Y110992D02*Y106566D01*
X168874Y110992D02*Y106566D01*
X165724Y110992D02*Y106566D01*
X162575Y110992D02*Y106566D01*
X159425Y110992D02*Y106566D01*
X156275Y110992D02*Y106566D01*
X153126Y110992D02*Y106566D01*
X149976Y110992D02*Y106566D01*
X140008Y101023D02*X144434D01*
X140008Y97874D02*X144434D01*
X140008Y94724D02*X144434D01*
X140008Y91575D02*X144434D01*
X140008Y88425D02*X144434D01*
X140008Y85275D02*X144434D01*
X140008Y82126D02*X144434D01*
X140008Y78976D02*X144434D01*
X149977Y73434D02*Y69008D01*
X153126Y73434D02*Y69008D01*
X156276Y73434D02*Y69008D01*
X159425Y73434D02*Y69008D01*
X162575Y73434D02*Y69008D01*
X165725Y73434D02*Y69008D01*
X168874Y73434D02*Y69008D01*
X172024Y73434D02*Y69008D01*
G54D92*X193107Y79043D02*X193893D01*
X193107Y71957D02*X193893D01*
X304957Y95893D02*Y95107D01*
X312043Y95893D02*Y95107D01*
X334607Y88457D02*X335393D01*
X334607Y95543D02*X335393D01*
G54D104*X302933Y113055D02*Y107543D01*
X287185Y113055D02*Y107543D01*
X271437Y113055D02*Y107543D01*
X255689Y113055D02*Y107543D01*
X239941Y113055D02*Y107543D01*
X232067Y102071D02*Y96559D01*
X247815Y102071D02*Y96559D01*
X263563Y102071D02*Y96559D01*
X279311Y102071D02*Y96559D01*
X295059Y102071D02*Y96559D01*
X302933Y26441D02*Y20929D01*
X287185Y26441D02*Y20929D01*
X271437Y26441D02*Y20929D01*
X255689Y26441D02*Y20929D01*
X239941Y26441D02*Y20929D01*
X232067Y15457D02*Y9945D01*
X247815Y15457D02*Y9945D01*
X263563Y15457D02*Y9945D01*
X279311Y15457D02*Y9945D01*
X295059Y15457D02*Y9945D01*
G54D92*X331043Y104393D02*Y103607D01*
X323957Y104393D02*Y103607D01*
X193607Y93586D02*X194393D01*
X193607Y86500D02*X194393D01*
X200043Y14393D02*Y13607D01*
X192957Y14393D02*Y13607D01*
X200543Y30393D02*Y29607D01*
X193457Y30393D02*Y29607D01*
G54D93*X216925Y109087D02*Y107217D01*
X220075Y109087D02*Y107217D01*
Y115783D02*Y113913D01*
X216925Y115783D02*Y113913D01*
M02*
