G04 start of page 3 for group 1 idx 1 *
G04 Title: (unknown), solder *
G04 Creator: pcb 20140316 *
G04 CreationDate: Wed 29 Apr 2020 12:19:48 AM GMT UTC *
G04 For: railfan *
G04 Format: Gerber/RS-274X *
G04 PCB-Dimensions (mil): 3500.00 1750.00 *
G04 PCB-Coordinate-Origin: lower left *
%MOIN*%
%FSLAX25Y25*%
%LNBOTTOM*%
%ADD70C,0.1280*%
%ADD69C,0.0300*%
%ADD68C,0.0390*%
%ADD67C,0.0935*%
%ADD66C,0.0430*%
%ADD65C,0.0450*%
%ADD64C,0.0480*%
%ADD63C,0.1285*%
%ADD62C,0.0120*%
%ADD61C,0.0200*%
%ADD60C,0.0240*%
%ADD59C,0.0400*%
%ADD58C,0.1440*%
%ADD57C,0.0700*%
%ADD56C,0.0650*%
%ADD55C,0.0787*%
%ADD54C,0.2937*%
%ADD53C,0.0800*%
%ADD52C,0.0250*%
%ADD51C,0.0550*%
%ADD50C,0.0350*%
%ADD49C,0.0100*%
%ADD48C,0.0001*%
G54D48*G36*
X146500Y114500D02*Y154000D01*
X164500D01*
Y114500D01*
X146500D01*
G37*
G36*
X188000Y173000D02*Y119000D01*
X186832D01*
Y119670D01*
X186943Y119704D01*
X187050Y119756D01*
X187146Y119823D01*
X187231Y119905D01*
X187302Y120000D01*
X187356Y120105D01*
X187515Y120508D01*
X187632Y120925D01*
X187711Y121352D01*
X187750Y121783D01*
Y122217D01*
X187711Y122648D01*
X187632Y123075D01*
X187515Y123492D01*
X187360Y123897D01*
X187305Y124002D01*
X187234Y124097D01*
X187148Y124179D01*
X187051Y124247D01*
X186945Y124299D01*
X186832Y124334D01*
Y173000D01*
X188000D01*
G37*
G36*
X186832Y119000D02*X184945D01*
X184873Y119035D01*
X184759Y119070D01*
X184642Y119086D01*
X184523Y119084D01*
X184406Y119064D01*
X184295Y119023D01*
X184237Y119000D01*
X182998D01*
Y125247D01*
X183148D01*
X183443Y125220D01*
X183735Y125166D01*
X184020Y125086D01*
X184297Y124980D01*
X184407Y124940D01*
X184524Y124919D01*
X184642Y124917D01*
X184759Y124933D01*
X184871Y124968D01*
X184978Y125020D01*
X185074Y125087D01*
X185159Y125169D01*
X185230Y125263D01*
X185286Y125368D01*
X185324Y125479D01*
X185345Y125596D01*
X185347Y125714D01*
X185330Y125830D01*
X185296Y125943D01*
X185244Y126050D01*
X185177Y126146D01*
X185095Y126231D01*
X185000Y126302D01*
X184895Y126356D01*
X184492Y126515D01*
X184075Y126632D01*
X183648Y126711D01*
X183217Y126750D01*
X182998D01*
Y173000D01*
X186832D01*
Y124334D01*
X186831Y124334D01*
X186714Y124350D01*
X186595Y124348D01*
X186478Y124327D01*
X186366Y124289D01*
X186262Y124233D01*
X186167Y124162D01*
X186085Y124076D01*
X186017Y123979D01*
X185965Y123873D01*
X185930Y123759D01*
X185914Y123642D01*
X185916Y123523D01*
X185936Y123407D01*
X185977Y123295D01*
X186086Y123020D01*
X186166Y122735D01*
X186220Y122443D01*
X186247Y122148D01*
Y121852D01*
X186220Y121557D01*
X186166Y121265D01*
X186086Y120980D01*
X185980Y120703D01*
X185940Y120593D01*
X185919Y120476D01*
X185917Y120358D01*
X185933Y120241D01*
X185968Y120129D01*
X186020Y120022D01*
X186087Y119926D01*
X186169Y119841D01*
X186263Y119770D01*
X186368Y119714D01*
X186479Y119676D01*
X186596Y119655D01*
X186714Y119653D01*
X186830Y119670D01*
X186832Y119670D01*
Y119000D01*
G37*
G36*
X182998D02*X181755D01*
X181703Y119020D01*
X181593Y119060D01*
X181476Y119081D01*
X181358Y119083D01*
X181241Y119067D01*
X181129Y119032D01*
X181063Y119000D01*
X179168D01*
Y119666D01*
X179169Y119666D01*
X179286Y119650D01*
X179405Y119652D01*
X179522Y119673D01*
X179634Y119711D01*
X179738Y119767D01*
X179833Y119838D01*
X179915Y119924D01*
X179983Y120021D01*
X180035Y120127D01*
X180070Y120241D01*
X180086Y120358D01*
X180084Y120477D01*
X180064Y120594D01*
X180023Y120705D01*
X179914Y120980D01*
X179834Y121265D01*
X179780Y121557D01*
X179753Y121852D01*
Y122148D01*
X179780Y122443D01*
X179834Y122735D01*
X179914Y123020D01*
X180020Y123297D01*
X180060Y123407D01*
X180081Y123524D01*
X180083Y123642D01*
X180067Y123759D01*
X180032Y123871D01*
X179980Y123978D01*
X179913Y124074D01*
X179831Y124159D01*
X179737Y124230D01*
X179632Y124286D01*
X179521Y124324D01*
X179404Y124345D01*
X179286Y124347D01*
X179170Y124330D01*
X179168Y124330D01*
Y173000D01*
X182998D01*
Y126750D01*
X182783D01*
X182352Y126711D01*
X181925Y126632D01*
X181508Y126515D01*
X181103Y126360D01*
X180998Y126305D01*
X180903Y126234D01*
X180821Y126148D01*
X180753Y126051D01*
X180701Y125945D01*
X180666Y125831D01*
X180650Y125714D01*
X180652Y125595D01*
X180673Y125478D01*
X180711Y125366D01*
X180767Y125262D01*
X180838Y125167D01*
X180924Y125085D01*
X181021Y125017D01*
X181127Y124965D01*
X181241Y124930D01*
X181358Y124914D01*
X181477Y124916D01*
X181593Y124936D01*
X181705Y124977D01*
X181980Y125086D01*
X182265Y125166D01*
X182557Y125220D01*
X182852Y125247D01*
X182998D01*
Y119000D01*
G37*
G36*
X179168D02*X177749D01*
X177736Y125485D01*
X177681Y125715D01*
X177591Y125933D01*
X177467Y126134D01*
X177314Y126314D01*
X177134Y126467D01*
X176933Y126591D01*
X176715Y126681D01*
X176485Y126736D01*
X176250Y126750D01*
X169515Y126736D01*
X169285Y126681D01*
X169067Y126591D01*
X168866Y126467D01*
X168686Y126314D01*
X168533Y126134D01*
X168409Y125933D01*
X168319Y125715D01*
X168264Y125485D01*
X168250Y125250D01*
X168263Y119000D01*
X166500D01*
Y173000D01*
X179168D01*
Y124330D01*
X179057Y124296D01*
X178950Y124244D01*
X178854Y124177D01*
X178769Y124095D01*
X178698Y124000D01*
X178644Y123895D01*
X178485Y123492D01*
X178368Y123075D01*
X178289Y122648D01*
X178250Y122217D01*
Y121783D01*
X178289Y121352D01*
X178368Y120925D01*
X178485Y120508D01*
X178640Y120103D01*
X178695Y119998D01*
X178766Y119903D01*
X178852Y119821D01*
X178949Y119753D01*
X179055Y119701D01*
X179168Y119666D01*
Y119000D01*
G37*
G36*
X188000Y155000D02*X127000D01*
Y173000D01*
X188000D01*
Y155000D01*
G37*
G36*
X101995Y173000D02*X144500D01*
Y119000D01*
X101995D01*
Y125177D01*
X102295Y125053D01*
X103137Y124851D01*
X104000Y124783D01*
X104863Y124851D01*
X105705Y125053D01*
X106505Y125384D01*
X107243Y125837D01*
X107901Y126399D01*
X108463Y127057D01*
X108916Y127795D01*
X109000Y127999D01*
X109084Y127795D01*
X109537Y127057D01*
X110099Y126399D01*
X110757Y125837D01*
X111495Y125384D01*
X112295Y125053D01*
X113137Y124851D01*
X114000Y124783D01*
X114863Y124851D01*
X115705Y125053D01*
X116505Y125384D01*
X117243Y125837D01*
X117901Y126399D01*
X118463Y127057D01*
X118916Y127795D01*
X119000Y127999D01*
X119084Y127795D01*
X119537Y127057D01*
X120099Y126399D01*
X120757Y125837D01*
X121495Y125384D01*
X122295Y125053D01*
X123137Y124851D01*
X124000Y124783D01*
X124863Y124851D01*
X125705Y125053D01*
X126505Y125384D01*
X127243Y125837D01*
X127901Y126399D01*
X128463Y127057D01*
X128916Y127795D01*
X129247Y128595D01*
X129449Y129437D01*
X129500Y130300D01*
X129449Y131163D01*
X129247Y132005D01*
X128916Y132805D01*
X128463Y133543D01*
X127901Y134201D01*
X127243Y134763D01*
X126505Y135216D01*
X125705Y135547D01*
X124863Y135749D01*
X124000Y135817D01*
X123137Y135749D01*
X122295Y135547D01*
X121495Y135216D01*
X120757Y134763D01*
X120099Y134201D01*
X119537Y133543D01*
X119084Y132805D01*
X119000Y132601D01*
X118916Y132805D01*
X118463Y133543D01*
X117901Y134201D01*
X117243Y134763D01*
X116505Y135216D01*
X115705Y135547D01*
X114863Y135749D01*
X114000Y135817D01*
X113137Y135749D01*
X112295Y135547D01*
X111495Y135216D01*
X110757Y134763D01*
X110099Y134201D01*
X109537Y133543D01*
X109084Y132805D01*
X109000Y132601D01*
X108916Y132805D01*
X108463Y133543D01*
X107901Y134201D01*
X107243Y134763D01*
X106505Y135216D01*
X105705Y135547D01*
X104863Y135749D01*
X104000Y135817D01*
X103137Y135749D01*
X102295Y135547D01*
X101995Y135423D01*
Y152423D01*
X102000Y152500D01*
X101995Y152577D01*
Y157041D01*
X102000Y157041D01*
X102463Y157077D01*
X102914Y157186D01*
X103343Y157363D01*
X103739Y157606D01*
X104092Y157908D01*
X104394Y158261D01*
X104637Y158657D01*
X104814Y159086D01*
X104923Y159537D01*
X104950Y160000D01*
X104923Y160463D01*
X104814Y160914D01*
X104637Y161343D01*
X104394Y161739D01*
X104092Y162092D01*
X103739Y162394D01*
X103343Y162637D01*
X102914Y162814D01*
X102463Y162923D01*
X102000Y162959D01*
X101995Y162959D01*
Y173000D01*
G37*
G36*
Y135423D02*X101495Y135216D01*
X100757Y134763D01*
X100099Y134201D01*
X99537Y133543D01*
X99084Y132805D01*
X99000Y132601D01*
X98916Y132805D01*
X98463Y133543D01*
X97901Y134201D01*
X97243Y134763D01*
X96505Y135216D01*
X95705Y135547D01*
X94863Y135749D01*
X94000Y135817D01*
X93495Y135777D01*
Y145750D01*
X94412D01*
X94500Y145743D01*
X94853Y145771D01*
X94853Y145771D01*
X95197Y145854D01*
X95525Y145989D01*
X95827Y146174D01*
X96096Y146404D01*
X96153Y146471D01*
X99187Y149506D01*
X99471Y149528D01*
X99930Y149638D01*
X100366Y149819D01*
X100769Y150065D01*
X101128Y150372D01*
X101435Y150731D01*
X101681Y151134D01*
X101862Y151570D01*
X101972Y152029D01*
X101995Y152423D01*
Y135423D01*
G37*
G36*
Y119000D02*X93495D01*
Y124823D01*
X94000Y124783D01*
X94863Y124851D01*
X95705Y125053D01*
X96505Y125384D01*
X97243Y125837D01*
X97901Y126399D01*
X98463Y127057D01*
X98916Y127795D01*
X99000Y127999D01*
X99084Y127795D01*
X99537Y127057D01*
X100099Y126399D01*
X100757Y125837D01*
X101495Y125384D01*
X101995Y125177D01*
Y119000D01*
G37*
G36*
X93495Y173000D02*X101995D01*
Y162959D01*
X101537Y162923D01*
X101086Y162814D01*
X100657Y162637D01*
X100261Y162394D01*
X99908Y162092D01*
X99606Y161739D01*
X99363Y161343D01*
X99186Y160914D01*
X99077Y160463D01*
X99041Y160000D01*
X99077Y159537D01*
X99186Y159086D01*
X99363Y158657D01*
X99606Y158261D01*
X99908Y157908D01*
X100261Y157606D01*
X100657Y157363D01*
X101086Y157186D01*
X101537Y157077D01*
X101995Y157041D01*
Y152577D01*
X101972Y152971D01*
X101862Y153430D01*
X101681Y153866D01*
X101435Y154269D01*
X101128Y154628D01*
X100769Y154935D01*
X100366Y155181D01*
X99930Y155362D01*
X99471Y155472D01*
X99000Y155509D01*
X98529Y155472D01*
X98070Y155362D01*
X97634Y155181D01*
X97231Y154935D01*
X96872Y154628D01*
X96565Y154269D01*
X96319Y153866D01*
X96138Y153430D01*
X96028Y152971D01*
X96006Y152687D01*
X94843Y151525D01*
X94862Y151570D01*
X94972Y152029D01*
X95000Y152500D01*
X94972Y152971D01*
X94862Y153430D01*
X94681Y153866D01*
X94435Y154269D01*
X94128Y154628D01*
X93769Y154935D01*
X93500Y155099D01*
Y165401D01*
X93769Y165565D01*
X94128Y165872D01*
X94435Y166231D01*
X94681Y166634D01*
X94862Y167070D01*
X94972Y167529D01*
X95000Y168000D01*
X94972Y168471D01*
X94862Y168930D01*
X94681Y169366D01*
X94435Y169769D01*
X94128Y170128D01*
X93769Y170435D01*
X93495Y170602D01*
Y173000D01*
G37*
G36*
X87000D02*X93495D01*
Y170602D01*
X93366Y170681D01*
X92930Y170862D01*
X92471Y170972D01*
X92000Y171009D01*
X91529Y170972D01*
X91070Y170862D01*
X90634Y170681D01*
X90231Y170435D01*
X89872Y170128D01*
X89565Y169769D01*
X89319Y169366D01*
X89138Y168930D01*
X89028Y168471D01*
X88991Y168000D01*
X89028Y167529D01*
X89138Y167070D01*
X89319Y166634D01*
X89565Y166231D01*
X89872Y165872D01*
X90231Y165565D01*
X90500Y165401D01*
Y155099D01*
X90231Y154935D01*
X89872Y154628D01*
X89565Y154269D01*
X89319Y153866D01*
X89138Y153430D01*
X89028Y152971D01*
X88991Y152500D01*
X89028Y152029D01*
X89138Y151570D01*
X89319Y151134D01*
X89565Y150731D01*
X89872Y150372D01*
X90015Y150250D01*
X89985D01*
X89769Y150435D01*
X89366Y150681D01*
X88930Y150862D01*
X88471Y150972D01*
X88000Y151009D01*
X87529Y150972D01*
X87070Y150862D01*
X86634Y150681D01*
X86231Y150435D01*
X85872Y150128D01*
X85565Y149769D01*
X85319Y149366D01*
X85138Y148930D01*
X85028Y148471D01*
X84991Y148000D01*
X85028Y147529D01*
X85138Y147070D01*
X85319Y146634D01*
X85565Y146231D01*
X85872Y145872D01*
X86231Y145565D01*
X86634Y145319D01*
X87070Y145138D01*
X87529Y145028D01*
X88000Y144991D01*
X88471Y145028D01*
X88930Y145138D01*
X89366Y145319D01*
X89769Y145565D01*
X89985Y145750D01*
X93495D01*
Y135777D01*
X93137Y135749D01*
X92295Y135547D01*
X91495Y135216D01*
X90757Y134763D01*
X90099Y134201D01*
X89537Y133543D01*
X89084Y132805D01*
X88998Y132596D01*
X88910Y132792D01*
X88849Y132893D01*
X88772Y132984D01*
X88682Y133061D01*
X88580Y133123D01*
X88471Y133169D01*
X88355Y133197D01*
X88237Y133206D01*
X88119Y133197D01*
X88003Y133170D01*
X87893Y133124D01*
X87792Y133062D01*
X87702Y132986D01*
X87624Y132895D01*
X87562Y132794D01*
X87516Y132685D01*
X87489Y132569D01*
X87479Y132451D01*
X87488Y132332D01*
X87516Y132217D01*
X87563Y132108D01*
X87721Y131768D01*
X87842Y131412D01*
X87930Y131047D01*
X87982Y130675D01*
X88000Y130300D01*
X87982Y129925D01*
X87930Y129553D01*
X87842Y129188D01*
X87721Y128832D01*
X87567Y128490D01*
X87520Y128382D01*
X87493Y128267D01*
X87483Y128149D01*
X87493Y128032D01*
X87521Y127917D01*
X87566Y127808D01*
X87628Y127707D01*
X87705Y127618D01*
X87795Y127541D01*
X87895Y127480D01*
X88004Y127435D01*
X88119Y127407D01*
X88237Y127398D01*
X88355Y127408D01*
X88469Y127435D01*
X88578Y127481D01*
X88679Y127543D01*
X88769Y127619D01*
X88845Y127709D01*
X88905Y127811D01*
X88996Y128008D01*
X89084Y127795D01*
X89537Y127057D01*
X90099Y126399D01*
X90757Y125837D01*
X91495Y125384D01*
X92295Y125053D01*
X93137Y124851D01*
X93495Y124823D01*
Y119000D01*
X84002D01*
Y124794D01*
X84516Y124818D01*
X85028Y124891D01*
X85531Y125011D01*
X86020Y125178D01*
X86492Y125390D01*
X86593Y125451D01*
X86684Y125528D01*
X86761Y125618D01*
X86823Y125720D01*
X86869Y125829D01*
X86897Y125945D01*
X86906Y126063D01*
X86897Y126181D01*
X86870Y126297D01*
X86824Y126407D01*
X86762Y126508D01*
X86686Y126598D01*
X86595Y126676D01*
X86494Y126738D01*
X86385Y126784D01*
X86269Y126811D01*
X86151Y126821D01*
X86032Y126812D01*
X85917Y126784D01*
X85808Y126737D01*
X85468Y126579D01*
X85112Y126458D01*
X84747Y126370D01*
X84375Y126318D01*
X84002Y126300D01*
Y134300D01*
X84375Y134282D01*
X84747Y134230D01*
X85112Y134142D01*
X85468Y134021D01*
X85810Y133867D01*
X85918Y133820D01*
X86033Y133793D01*
X86151Y133783D01*
X86268Y133793D01*
X86383Y133821D01*
X86492Y133866D01*
X86593Y133928D01*
X86682Y134005D01*
X86759Y134095D01*
X86820Y134195D01*
X86865Y134304D01*
X86893Y134419D01*
X86902Y134537D01*
X86892Y134655D01*
X86865Y134769D01*
X86819Y134878D01*
X86757Y134979D01*
X86681Y135069D01*
X86591Y135145D01*
X86489Y135205D01*
X86020Y135422D01*
X85531Y135589D01*
X85028Y135709D01*
X84516Y135782D01*
X84002Y135806D01*
Y153831D01*
X84092Y153908D01*
X84394Y154261D01*
X84637Y154657D01*
X84814Y155086D01*
X84923Y155537D01*
X84950Y156000D01*
X87000D01*
Y173000D01*
G37*
G36*
X84002Y119000D02*X79000D01*
Y128008D01*
X79090Y127808D01*
X79151Y127707D01*
X79228Y127616D01*
X79318Y127539D01*
X79420Y127477D01*
X79529Y127431D01*
X79645Y127403D01*
X79763Y127394D01*
X79881Y127403D01*
X79997Y127430D01*
X80107Y127476D01*
X80208Y127538D01*
X80298Y127614D01*
X80376Y127705D01*
X80438Y127806D01*
X80484Y127915D01*
X80511Y128031D01*
X80521Y128149D01*
X80512Y128268D01*
X80484Y128383D01*
X80437Y128492D01*
X80279Y128832D01*
X80158Y129188D01*
X80070Y129553D01*
X80018Y129925D01*
X80000Y130300D01*
X80018Y130675D01*
X80070Y131047D01*
X80158Y131412D01*
X80279Y131768D01*
X80433Y132110D01*
X80480Y132218D01*
X80507Y132333D01*
X80517Y132451D01*
X80507Y132568D01*
X80479Y132683D01*
X80434Y132792D01*
X80372Y132893D01*
X80295Y132982D01*
X80205Y133059D01*
X80105Y133120D01*
X79996Y133165D01*
X79881Y133193D01*
X79763Y133202D01*
X79645Y133192D01*
X79531Y133165D01*
X79422Y133119D01*
X79321Y133057D01*
X79231Y132981D01*
X79155Y132891D01*
X79095Y132789D01*
X79002Y132587D01*
X79000Y132592D01*
Y156000D01*
X79041D01*
X79077Y155537D01*
X79186Y155086D01*
X79363Y154657D01*
X79606Y154261D01*
X79908Y153908D01*
X80261Y153606D01*
X80657Y153363D01*
X81086Y153186D01*
X81537Y153077D01*
X82000Y153041D01*
X82463Y153077D01*
X82914Y153186D01*
X83343Y153363D01*
X83739Y153606D01*
X84002Y153831D01*
Y135806D01*
X84000Y135806D01*
X83484Y135782D01*
X82972Y135709D01*
X82469Y135589D01*
X81980Y135422D01*
X81508Y135210D01*
X81407Y135149D01*
X81316Y135072D01*
X81239Y134982D01*
X81177Y134880D01*
X81131Y134771D01*
X81103Y134655D01*
X81094Y134537D01*
X81103Y134419D01*
X81130Y134303D01*
X81176Y134193D01*
X81238Y134092D01*
X81314Y134002D01*
X81405Y133924D01*
X81506Y133862D01*
X81615Y133816D01*
X81731Y133789D01*
X81849Y133779D01*
X81968Y133788D01*
X82083Y133816D01*
X82192Y133863D01*
X82532Y134021D01*
X82888Y134142D01*
X83253Y134230D01*
X83625Y134282D01*
X84000Y134300D01*
X84002Y134300D01*
Y126300D01*
X84000Y126300D01*
X83625Y126318D01*
X83253Y126370D01*
X82888Y126458D01*
X82532Y126579D01*
X82190Y126733D01*
X82082Y126780D01*
X81967Y126807D01*
X81849Y126817D01*
X81732Y126807D01*
X81617Y126779D01*
X81508Y126734D01*
X81407Y126672D01*
X81318Y126595D01*
X81241Y126505D01*
X81180Y126405D01*
X81135Y126296D01*
X81107Y126181D01*
X81098Y126063D01*
X81108Y125945D01*
X81135Y125831D01*
X81181Y125722D01*
X81243Y125621D01*
X81319Y125531D01*
X81409Y125455D01*
X81511Y125395D01*
X81980Y125178D01*
X82469Y125011D01*
X82972Y124891D01*
X83484Y124818D01*
X84000Y124794D01*
X84002Y124794D01*
Y119000D01*
G37*
G36*
X79000D02*X74002D01*
Y124794D01*
X74516Y124818D01*
X75028Y124891D01*
X75531Y125011D01*
X76020Y125178D01*
X76492Y125390D01*
X76593Y125451D01*
X76684Y125528D01*
X76761Y125618D01*
X76823Y125720D01*
X76869Y125829D01*
X76897Y125945D01*
X76906Y126063D01*
X76897Y126181D01*
X76870Y126297D01*
X76824Y126407D01*
X76762Y126508D01*
X76686Y126598D01*
X76595Y126676D01*
X76494Y126738D01*
X76385Y126784D01*
X76269Y126811D01*
X76151Y126821D01*
X76032Y126812D01*
X75917Y126784D01*
X75808Y126737D01*
X75468Y126579D01*
X75112Y126458D01*
X74747Y126370D01*
X74375Y126318D01*
X74002Y126300D01*
Y134300D01*
X74375Y134282D01*
X74747Y134230D01*
X75112Y134142D01*
X75468Y134021D01*
X75810Y133867D01*
X75918Y133820D01*
X76033Y133793D01*
X76151Y133783D01*
X76268Y133793D01*
X76383Y133821D01*
X76492Y133866D01*
X76593Y133928D01*
X76682Y134005D01*
X76759Y134095D01*
X76820Y134195D01*
X76865Y134304D01*
X76893Y134419D01*
X76902Y134537D01*
X76892Y134655D01*
X76865Y134769D01*
X76819Y134878D01*
X76757Y134979D01*
X76681Y135069D01*
X76591Y135145D01*
X76489Y135205D01*
X76020Y135422D01*
X75531Y135589D01*
X75028Y135709D01*
X74516Y135782D01*
X74002Y135806D01*
Y156000D01*
X79000D01*
Y132592D01*
X78910Y132792D01*
X78849Y132893D01*
X78772Y132984D01*
X78682Y133061D01*
X78580Y133123D01*
X78471Y133169D01*
X78355Y133197D01*
X78237Y133206D01*
X78119Y133197D01*
X78003Y133170D01*
X77893Y133124D01*
X77792Y133062D01*
X77702Y132986D01*
X77624Y132895D01*
X77562Y132794D01*
X77516Y132685D01*
X77489Y132569D01*
X77479Y132451D01*
X77488Y132332D01*
X77516Y132217D01*
X77563Y132108D01*
X77721Y131768D01*
X77842Y131412D01*
X77930Y131047D01*
X77982Y130675D01*
X78000Y130300D01*
X77982Y129925D01*
X77930Y129553D01*
X77842Y129188D01*
X77721Y128832D01*
X77567Y128490D01*
X77520Y128382D01*
X77493Y128267D01*
X77483Y128149D01*
X77493Y128032D01*
X77521Y127917D01*
X77566Y127808D01*
X77628Y127707D01*
X77705Y127618D01*
X77795Y127541D01*
X77895Y127480D01*
X78004Y127435D01*
X78119Y127407D01*
X78237Y127398D01*
X78355Y127408D01*
X78469Y127435D01*
X78578Y127481D01*
X78679Y127543D01*
X78769Y127619D01*
X78845Y127709D01*
X78905Y127811D01*
X78998Y128013D01*
X79000Y128008D01*
Y119000D01*
G37*
G36*
X74002D02*X64500D01*
Y124822D01*
X64863Y124851D01*
X65705Y125053D01*
X66505Y125384D01*
X67243Y125837D01*
X67901Y126399D01*
X68463Y127057D01*
X68916Y127795D01*
X69002Y128004D01*
X69090Y127808D01*
X69151Y127707D01*
X69228Y127616D01*
X69318Y127539D01*
X69420Y127477D01*
X69529Y127431D01*
X69645Y127403D01*
X69763Y127394D01*
X69881Y127403D01*
X69997Y127430D01*
X70107Y127476D01*
X70208Y127538D01*
X70298Y127614D01*
X70376Y127705D01*
X70438Y127806D01*
X70484Y127915D01*
X70511Y128031D01*
X70521Y128149D01*
X70512Y128268D01*
X70484Y128383D01*
X70437Y128492D01*
X70279Y128832D01*
X70158Y129188D01*
X70070Y129553D01*
X70018Y129925D01*
X70000Y130300D01*
X70018Y130675D01*
X70070Y131047D01*
X70158Y131412D01*
X70279Y131768D01*
X70433Y132110D01*
X70480Y132218D01*
X70507Y132333D01*
X70517Y132451D01*
X70507Y132568D01*
X70479Y132683D01*
X70434Y132792D01*
X70372Y132893D01*
X70295Y132982D01*
X70205Y133059D01*
X70105Y133120D01*
X69996Y133165D01*
X69881Y133193D01*
X69763Y133202D01*
X69645Y133192D01*
X69531Y133165D01*
X69422Y133119D01*
X69321Y133057D01*
X69231Y132981D01*
X69155Y132891D01*
X69095Y132789D01*
X69004Y132592D01*
X68916Y132805D01*
X68463Y133543D01*
X67901Y134201D01*
X67243Y134763D01*
X66505Y135216D01*
X65705Y135547D01*
X64863Y135749D01*
X64500Y135778D01*
Y156000D01*
X74002D01*
Y135806D01*
X74000Y135806D01*
X73484Y135782D01*
X72972Y135709D01*
X72469Y135589D01*
X71980Y135422D01*
X71508Y135210D01*
X71407Y135149D01*
X71316Y135072D01*
X71239Y134982D01*
X71177Y134880D01*
X71131Y134771D01*
X71103Y134655D01*
X71094Y134537D01*
X71103Y134419D01*
X71130Y134303D01*
X71176Y134193D01*
X71238Y134092D01*
X71314Y134002D01*
X71405Y133924D01*
X71506Y133862D01*
X71615Y133816D01*
X71731Y133789D01*
X71849Y133779D01*
X71968Y133788D01*
X72083Y133816D01*
X72192Y133863D01*
X72532Y134021D01*
X72888Y134142D01*
X73253Y134230D01*
X73625Y134282D01*
X74000Y134300D01*
X74002Y134300D01*
Y126300D01*
X74000Y126300D01*
X73625Y126318D01*
X73253Y126370D01*
X72888Y126458D01*
X72532Y126579D01*
X72190Y126733D01*
X72082Y126780D01*
X71967Y126807D01*
X71849Y126817D01*
X71732Y126807D01*
X71617Y126779D01*
X71508Y126734D01*
X71407Y126672D01*
X71318Y126595D01*
X71241Y126505D01*
X71180Y126405D01*
X71135Y126296D01*
X71107Y126181D01*
X71098Y126063D01*
X71108Y125945D01*
X71135Y125831D01*
X71181Y125722D01*
X71243Y125621D01*
X71319Y125531D01*
X71409Y125455D01*
X71511Y125395D01*
X71980Y125178D01*
X72469Y125011D01*
X72972Y124891D01*
X73484Y124818D01*
X74000Y124794D01*
X74002Y124794D01*
Y119000D01*
G37*
G36*
X83992Y57500D02*X84264D01*
X84660Y57336D01*
X85568Y57118D01*
X86500Y57045D01*
X87432Y57118D01*
X88340Y57336D01*
X88736Y57500D01*
X138500D01*
Y39237D01*
X138372Y39128D01*
X138065Y38769D01*
X137819Y38366D01*
X137638Y37930D01*
X137528Y37471D01*
X137491Y37000D01*
X137528Y36529D01*
X137638Y36070D01*
X137819Y35634D01*
X138065Y35231D01*
X138372Y34872D01*
X138500Y34763D01*
Y2000D01*
X83992D01*
Y38184D01*
X84000Y38183D01*
X84863Y38251D01*
X85705Y38453D01*
X86505Y38784D01*
X87243Y39237D01*
X87901Y39799D01*
X88463Y40457D01*
X88916Y41195D01*
X89000Y41399D01*
X89084Y41195D01*
X89537Y40457D01*
X90099Y39799D01*
X90757Y39237D01*
X91495Y38784D01*
X92295Y38453D01*
X93137Y38251D01*
X94000Y38183D01*
X94863Y38251D01*
X95705Y38453D01*
X96505Y38784D01*
X97243Y39237D01*
X97901Y39799D01*
X98463Y40457D01*
X98916Y41195D01*
X99000Y41399D01*
X99084Y41195D01*
X99537Y40457D01*
X100099Y39799D01*
X100757Y39237D01*
X101495Y38784D01*
X102295Y38453D01*
X103137Y38251D01*
X104000Y38183D01*
X104863Y38251D01*
X105705Y38453D01*
X106505Y38784D01*
X107243Y39237D01*
X107901Y39799D01*
X108463Y40457D01*
X108916Y41195D01*
X109000Y41399D01*
X109084Y41195D01*
X109537Y40457D01*
X110099Y39799D01*
X110757Y39237D01*
X111495Y38784D01*
X112295Y38453D01*
X113137Y38251D01*
X114000Y38183D01*
X114863Y38251D01*
X115705Y38453D01*
X116505Y38784D01*
X117243Y39237D01*
X117901Y39799D01*
X118463Y40457D01*
X118512Y40537D01*
X118514Y39465D01*
X118569Y39235D01*
X118659Y39017D01*
X118783Y38816D01*
X118936Y38636D01*
X119116Y38483D01*
X119317Y38359D01*
X119535Y38269D01*
X119765Y38214D01*
X120000Y38200D01*
X128235Y38214D01*
X128465Y38269D01*
X128683Y38359D01*
X128884Y38483D01*
X129064Y38636D01*
X129217Y38816D01*
X129341Y39017D01*
X129431Y39235D01*
X129486Y39465D01*
X129500Y39700D01*
X129486Y47935D01*
X129431Y48165D01*
X129341Y48383D01*
X129217Y48584D01*
X129064Y48764D01*
X128884Y48917D01*
X128683Y49041D01*
X128465Y49131D01*
X128235Y49186D01*
X128000Y49200D01*
X119765Y49186D01*
X119535Y49131D01*
X119317Y49041D01*
X119116Y48917D01*
X118936Y48764D01*
X118783Y48584D01*
X118659Y48383D01*
X118569Y48165D01*
X118514Y47935D01*
X118500Y47700D01*
X118501Y46881D01*
X118463Y46943D01*
X117901Y47601D01*
X117243Y48163D01*
X116505Y48616D01*
X115705Y48947D01*
X114863Y49149D01*
X114000Y49217D01*
X113137Y49149D01*
X112295Y48947D01*
X111495Y48616D01*
X110757Y48163D01*
X110099Y47601D01*
X109537Y46943D01*
X109084Y46205D01*
X109000Y46001D01*
X108916Y46205D01*
X108463Y46943D01*
X107901Y47601D01*
X107243Y48163D01*
X106505Y48616D01*
X105705Y48947D01*
X104863Y49149D01*
X104000Y49217D01*
X103137Y49149D01*
X102295Y48947D01*
X101495Y48616D01*
X100757Y48163D01*
X100099Y47601D01*
X99537Y46943D01*
X99084Y46205D01*
X99000Y46001D01*
X98916Y46205D01*
X98463Y46943D01*
X97901Y47601D01*
X97243Y48163D01*
X96505Y48616D01*
X95705Y48947D01*
X94863Y49149D01*
X94000Y49217D01*
X93137Y49149D01*
X92295Y48947D01*
X91495Y48616D01*
X90757Y48163D01*
X90099Y47601D01*
X89537Y46943D01*
X89084Y46205D01*
X89000Y46001D01*
X88916Y46205D01*
X88463Y46943D01*
X87901Y47601D01*
X87243Y48163D01*
X86505Y48616D01*
X85705Y48947D01*
X84863Y49149D01*
X84000Y49217D01*
X83992Y49216D01*
Y57500D01*
G37*
G36*
X38000D02*X61314D01*
X61384Y57440D01*
X61652Y57275D01*
X61943Y57155D01*
X62249Y57082D01*
X62563Y57063D01*
X70751Y57082D01*
X71057Y57155D01*
X71348Y57275D01*
X71616Y57440D01*
X71686Y57500D01*
X74269D01*
X74296Y57487D01*
X74828Y57296D01*
X75377Y57163D01*
X75936Y57083D01*
X76500Y57056D01*
X77064Y57083D01*
X77623Y57163D01*
X78172Y57296D01*
X78706Y57481D01*
X78745Y57500D01*
X83992D01*
Y49216D01*
X83137Y49149D01*
X82295Y48947D01*
X81495Y48616D01*
X80757Y48163D01*
X80099Y47601D01*
X79537Y46943D01*
X79084Y46205D01*
X79000Y46001D01*
X78916Y46205D01*
X78463Y46943D01*
X77901Y47601D01*
X77243Y48163D01*
X76505Y48616D01*
X75705Y48947D01*
X74863Y49149D01*
X74000Y49217D01*
X73137Y49149D01*
X72295Y48947D01*
X71495Y48616D01*
X70757Y48163D01*
X70099Y47601D01*
X69537Y46943D01*
X69084Y46205D01*
X69000Y46001D01*
X68916Y46205D01*
X68463Y46943D01*
X67901Y47601D01*
X67243Y48163D01*
X66505Y48616D01*
X65705Y48947D01*
X64863Y49149D01*
X64000Y49217D01*
X63137Y49149D01*
X62295Y48947D01*
X61495Y48616D01*
X60757Y48163D01*
X60099Y47601D01*
X59537Y46943D01*
X59084Y46205D01*
X59000Y46001D01*
X58916Y46205D01*
X58463Y46943D01*
X57901Y47601D01*
X57243Y48163D01*
X56505Y48616D01*
X55705Y48947D01*
X54863Y49149D01*
X54000Y49217D01*
X53137Y49149D01*
X52295Y48947D01*
X51495Y48616D01*
X50757Y48163D01*
X50099Y47601D01*
X49537Y46943D01*
X49084Y46205D01*
X49000Y46001D01*
X48916Y46205D01*
X48463Y46943D01*
X47901Y47601D01*
X47243Y48163D01*
X46505Y48616D01*
X45705Y48947D01*
X44863Y49149D01*
X44000Y49217D01*
X43137Y49149D01*
X42295Y48947D01*
X41495Y48616D01*
X40757Y48163D01*
X40099Y47601D01*
X39537Y46943D01*
X39084Y46205D01*
X38753Y45405D01*
X38551Y44563D01*
X38483Y43700D01*
X38551Y42837D01*
X38753Y41995D01*
X39084Y41195D01*
X39537Y40457D01*
X40099Y39799D01*
X40757Y39237D01*
X41495Y38784D01*
X42295Y38453D01*
X43137Y38251D01*
X44000Y38183D01*
X44863Y38251D01*
X45705Y38453D01*
X46505Y38784D01*
X47243Y39237D01*
X47901Y39799D01*
X48463Y40457D01*
X48916Y41195D01*
X49000Y41399D01*
X49084Y41195D01*
X49537Y40457D01*
X50099Y39799D01*
X50757Y39237D01*
X51495Y38784D01*
X52295Y38453D01*
X53137Y38251D01*
X54000Y38183D01*
X54863Y38251D01*
X55705Y38453D01*
X56505Y38784D01*
X57243Y39237D01*
X57901Y39799D01*
X58463Y40457D01*
X58916Y41195D01*
X59000Y41399D01*
X59084Y41195D01*
X59537Y40457D01*
X60099Y39799D01*
X60757Y39237D01*
X61495Y38784D01*
X62295Y38453D01*
X63137Y38251D01*
X64000Y38183D01*
X64863Y38251D01*
X65705Y38453D01*
X66505Y38784D01*
X67243Y39237D01*
X67901Y39799D01*
X68463Y40457D01*
X68916Y41195D01*
X69000Y41399D01*
X69084Y41195D01*
X69537Y40457D01*
X70099Y39799D01*
X70757Y39237D01*
X71495Y38784D01*
X72295Y38453D01*
X73137Y38251D01*
X74000Y38183D01*
X74863Y38251D01*
X75705Y38453D01*
X76505Y38784D01*
X77243Y39237D01*
X77901Y39799D01*
X78463Y40457D01*
X78916Y41195D01*
X79000Y41399D01*
X79084Y41195D01*
X79537Y40457D01*
X80099Y39799D01*
X80757Y39237D01*
X81495Y38784D01*
X82295Y38453D01*
X83137Y38251D01*
X83992Y38184D01*
Y2000D01*
X38000D01*
Y57500D01*
G37*
G36*
X240875Y117500D02*X295158D01*
X294805Y117472D01*
X294346Y117362D01*
X293910Y117181D01*
X293507Y116935D01*
X293148Y116628D01*
X292841Y116269D01*
X292595Y115866D01*
X292414Y115430D01*
X292304Y114971D01*
X292267Y114500D01*
X292304Y114029D01*
X292414Y113570D01*
X292595Y113134D01*
X292841Y112731D01*
X293148Y112372D01*
X293473Y112095D01*
X292879Y111500D01*
X263059D01*
X263000Y111505D01*
X262765Y111486D01*
X262535Y111431D01*
X262317Y111341D01*
X262116Y111217D01*
X262115Y111217D01*
X261936Y111064D01*
X261898Y111019D01*
X256481Y105602D01*
X256436Y105564D01*
X256283Y105384D01*
X256159Y105183D01*
X256069Y104965D01*
X256014Y104735D01*
X256014Y104735D01*
X255995Y104500D01*
X256000Y104441D01*
Y101599D01*
X255731Y101435D01*
X255372Y101128D01*
X255065Y100769D01*
X254819Y100366D01*
X254638Y99930D01*
X254528Y99471D01*
X254491Y99000D01*
X254528Y98529D01*
X254638Y98070D01*
X254819Y97634D01*
X255065Y97231D01*
X255372Y96872D01*
X255731Y96565D01*
X256134Y96319D01*
X256570Y96138D01*
X257029Y96028D01*
X257500Y95991D01*
X257971Y96028D01*
X258430Y96138D01*
X258866Y96319D01*
X259269Y96565D01*
X259628Y96872D01*
X259935Y97231D01*
X260181Y97634D01*
X260362Y98070D01*
X260472Y98529D01*
X260500Y99000D01*
X260472Y99471D01*
X260454Y99546D01*
X260529Y99528D01*
X261000Y99491D01*
X261471Y99528D01*
X261546Y99546D01*
X261528Y99471D01*
X261491Y99000D01*
X261528Y98529D01*
X261638Y98070D01*
X261819Y97634D01*
X262065Y97231D01*
X262372Y96872D01*
X262731Y96565D01*
X263134Y96319D01*
X263570Y96138D01*
X264029Y96028D01*
X264500Y95991D01*
X264971Y96028D01*
X265430Y96138D01*
X265866Y96319D01*
X266269Y96565D01*
X266628Y96872D01*
X266935Y97231D01*
X267181Y97634D01*
X267362Y98070D01*
X267472Y98529D01*
X267500Y99000D01*
X267472Y99471D01*
X267454Y99546D01*
X267529Y99528D01*
X268000Y99491D01*
X268471Y99528D01*
X268930Y99638D01*
X269366Y99819D01*
X269769Y100065D01*
X270128Y100372D01*
X270435Y100731D01*
X270599Y101000D01*
X270941D01*
X271000Y100995D01*
X271235Y101014D01*
X271235Y101014D01*
X271465Y101069D01*
X271683Y101159D01*
X271884Y101283D01*
X272064Y101436D01*
X272102Y101481D01*
X273121Y102500D01*
X309941D01*
X310000Y102495D01*
X310235Y102514D01*
X310235Y102514D01*
X310465Y102569D01*
X310683Y102659D01*
X310884Y102783D01*
X311064Y102936D01*
X311102Y102981D01*
X315019Y106898D01*
X315064Y106936D01*
X315217Y107115D01*
X315217Y107116D01*
X315341Y107317D01*
X315431Y107535D01*
X315486Y107765D01*
X315505Y108000D01*
X315500Y108059D01*
Y115901D01*
X315769Y116065D01*
X316128Y116372D01*
X316435Y116731D01*
X316681Y117134D01*
X316833Y117500D01*
X328062D01*
X327955Y117435D01*
X327596Y117128D01*
X327289Y116769D01*
X327043Y116366D01*
X326862Y115930D01*
X326752Y115471D01*
X326715Y115000D01*
X326752Y114529D01*
X326862Y114070D01*
X327043Y113634D01*
X327289Y113231D01*
X327596Y112872D01*
X327955Y112565D01*
X328358Y112319D01*
X328794Y112138D01*
X329253Y112028D01*
X329724Y111991D01*
X330195Y112028D01*
X330501Y112101D01*
X331000Y111603D01*
Y47112D01*
X330940Y47060D01*
X330715Y46797D01*
X330534Y46502D01*
X330401Y46182D01*
X330320Y45845D01*
X330293Y45500D01*
X330320Y45155D01*
X330401Y44818D01*
X330534Y44498D01*
X330715Y44203D01*
X330940Y43940D01*
X331203Y43715D01*
X331498Y43534D01*
X331818Y43401D01*
X332155Y43320D01*
X332500Y43293D01*
X332845Y43320D01*
X333000Y43358D01*
Y33334D01*
X330445Y33133D01*
X327952Y32535D01*
X325584Y31554D01*
X323399Y30215D01*
X321450Y28550D01*
X319785Y26601D01*
X318446Y24416D01*
X317465Y22048D01*
X316867Y19555D01*
X316666Y17000D01*
X316867Y14445D01*
X317465Y11952D01*
X318446Y9584D01*
X319785Y7399D01*
X321450Y5450D01*
X323399Y3785D01*
X325584Y2446D01*
X326661Y2000D01*
X266621D01*
X268019Y3398D01*
X268064Y3436D01*
X268217Y3615D01*
X268217Y3616D01*
X268341Y3817D01*
X268431Y4035D01*
X268486Y4265D01*
X268505Y4500D01*
X268500Y4559D01*
Y6177D01*
X268769Y6341D01*
X269128Y6648D01*
X269435Y7007D01*
X269681Y7410D01*
X269862Y7846D01*
X269972Y8305D01*
X270000Y8776D01*
X269972Y9247D01*
X269862Y9706D01*
X269681Y10142D01*
X269435Y10545D01*
X269128Y10904D01*
X268769Y11211D01*
X268366Y11457D01*
X267930Y11638D01*
X267471Y11748D01*
X267000Y11785D01*
X266529Y11748D01*
X266070Y11638D01*
X265634Y11457D01*
X265231Y11211D01*
X264872Y10904D01*
X264565Y10545D01*
X264319Y10142D01*
X264138Y9706D01*
X264028Y9247D01*
X263991Y8776D01*
X264028Y8305D01*
X264138Y7846D01*
X264319Y7410D01*
X264565Y7007D01*
X264872Y6648D01*
X265231Y6341D01*
X265500Y6177D01*
Y5121D01*
X264379Y4000D01*
X240875D01*
Y39011D01*
X241243Y39237D01*
X241901Y39799D01*
X242463Y40457D01*
X242916Y41195D01*
X243000Y41399D01*
X243084Y41195D01*
X243537Y40457D01*
X244099Y39799D01*
X244757Y39237D01*
X245495Y38784D01*
X246295Y38453D01*
X247137Y38251D01*
X248000Y38183D01*
X248863Y38251D01*
X249705Y38453D01*
X250505Y38784D01*
X251243Y39237D01*
X251901Y39799D01*
X252463Y40457D01*
X252916Y41195D01*
X253000Y41399D01*
X253084Y41195D01*
X253537Y40457D01*
X254099Y39799D01*
X254757Y39237D01*
X255495Y38784D01*
X256295Y38453D01*
X257137Y38251D01*
X258000Y38183D01*
X258863Y38251D01*
X259705Y38453D01*
X260505Y38784D01*
X261243Y39237D01*
X261901Y39799D01*
X262463Y40457D01*
X262916Y41195D01*
X263000Y41399D01*
X263084Y41195D01*
X263537Y40457D01*
X264099Y39799D01*
X264757Y39237D01*
X265495Y38784D01*
X266295Y38453D01*
X267137Y38251D01*
X268000Y38183D01*
X268863Y38251D01*
X269705Y38453D01*
X270505Y38784D01*
X271243Y39237D01*
X271901Y39799D01*
X272463Y40457D01*
X272916Y41195D01*
X273000Y41399D01*
X273084Y41195D01*
X273537Y40457D01*
X274099Y39799D01*
X274757Y39237D01*
X275495Y38784D01*
X276295Y38453D01*
X277137Y38251D01*
X278000Y38183D01*
X278863Y38251D01*
X279705Y38453D01*
X280505Y38784D01*
X281243Y39237D01*
X281901Y39799D01*
X282463Y40457D01*
X282916Y41195D01*
X283000Y41399D01*
X283084Y41195D01*
X283537Y40457D01*
X284099Y39799D01*
X284757Y39237D01*
X285495Y38784D01*
X286295Y38453D01*
X287137Y38251D01*
X288000Y38183D01*
X288863Y38251D01*
X289705Y38453D01*
X290505Y38784D01*
X291243Y39237D01*
X291901Y39799D01*
X292463Y40457D01*
X292916Y41195D01*
X293000Y41399D01*
X293084Y41195D01*
X293537Y40457D01*
X294099Y39799D01*
X294757Y39237D01*
X295495Y38784D01*
X296295Y38453D01*
X297137Y38251D01*
X298000Y38183D01*
X298863Y38251D01*
X299705Y38453D01*
X300505Y38784D01*
X301243Y39237D01*
X301901Y39799D01*
X302463Y40457D01*
X302512Y40537D01*
X302514Y39465D01*
X302569Y39235D01*
X302659Y39017D01*
X302783Y38816D01*
X302936Y38636D01*
X303116Y38483D01*
X303317Y38359D01*
X303535Y38269D01*
X303765Y38214D01*
X304000Y38200D01*
X312235Y38214D01*
X312465Y38269D01*
X312683Y38359D01*
X312884Y38483D01*
X313064Y38636D01*
X313217Y38816D01*
X313341Y39017D01*
X313431Y39235D01*
X313486Y39465D01*
X313500Y39700D01*
X313486Y47935D01*
X313431Y48165D01*
X313341Y48383D01*
X313217Y48584D01*
X313064Y48764D01*
X312884Y48917D01*
X312683Y49041D01*
X312465Y49131D01*
X312235Y49186D01*
X312000Y49200D01*
X303765Y49186D01*
X303535Y49131D01*
X303317Y49041D01*
X303116Y48917D01*
X302936Y48764D01*
X302783Y48584D01*
X302659Y48383D01*
X302569Y48165D01*
X302514Y47935D01*
X302500Y47700D01*
X302501Y46881D01*
X302463Y46943D01*
X301901Y47601D01*
X301243Y48163D01*
X300505Y48616D01*
X299705Y48947D01*
X298863Y49149D01*
X298000Y49217D01*
X297137Y49149D01*
X296295Y48947D01*
X295495Y48616D01*
X294757Y48163D01*
X294099Y47601D01*
X293537Y46943D01*
X293084Y46205D01*
X293000Y46001D01*
X292916Y46205D01*
X292463Y46943D01*
X291901Y47601D01*
X291243Y48163D01*
X290505Y48616D01*
X289705Y48947D01*
X288863Y49149D01*
X288000Y49217D01*
X287137Y49149D01*
X286295Y48947D01*
X285495Y48616D01*
X284757Y48163D01*
X284099Y47601D01*
X283537Y46943D01*
X283084Y46205D01*
X283000Y46001D01*
X282916Y46205D01*
X282463Y46943D01*
X281901Y47601D01*
X281243Y48163D01*
X280505Y48616D01*
X279705Y48947D01*
X278863Y49149D01*
X278000Y49217D01*
X277137Y49149D01*
X276295Y48947D01*
X275495Y48616D01*
X274757Y48163D01*
X274099Y47601D01*
X273537Y46943D01*
X273084Y46205D01*
X273000Y46001D01*
X272916Y46205D01*
X272463Y46943D01*
X271901Y47601D01*
X271243Y48163D01*
X270505Y48616D01*
X269705Y48947D01*
X268863Y49149D01*
X268000Y49217D01*
X267137Y49149D01*
X266655Y49033D01*
X269019Y51398D01*
X269064Y51436D01*
X269217Y51615D01*
X269217Y51616D01*
X269341Y51817D01*
X269431Y52035D01*
X269486Y52265D01*
X269505Y52500D01*
X269500Y52559D01*
Y56401D01*
X269769Y56565D01*
X270128Y56872D01*
X270435Y57231D01*
X270681Y57634D01*
X270862Y58070D01*
X270972Y58529D01*
X271000Y59000D01*
X270972Y59471D01*
X270862Y59930D01*
X270681Y60366D01*
X270435Y60769D01*
X270128Y61128D01*
X269769Y61435D01*
X269366Y61681D01*
X268930Y61862D01*
X268471Y61972D01*
X268000Y62009D01*
X267529Y61972D01*
X267454Y61954D01*
X267472Y62029D01*
X267500Y62500D01*
X267472Y62971D01*
X267362Y63430D01*
X267181Y63866D01*
X266935Y64269D01*
X266628Y64628D01*
X266269Y64935D01*
X265866Y65181D01*
X265430Y65362D01*
X264971Y65472D01*
X264500Y65509D01*
X264029Y65472D01*
X263570Y65362D01*
X263134Y65181D01*
X262731Y64935D01*
X262372Y64628D01*
X262065Y64269D01*
X261819Y63866D01*
X261638Y63430D01*
X261528Y62971D01*
X261491Y62500D01*
X261528Y62029D01*
X261546Y61954D01*
X261471Y61972D01*
X261000Y62009D01*
X260529Y61972D01*
X260454Y61954D01*
X260472Y62029D01*
X260500Y62500D01*
X260472Y62971D01*
X260362Y63430D01*
X260181Y63866D01*
X259935Y64269D01*
X259628Y64628D01*
X259269Y64935D01*
X258866Y65181D01*
X258430Y65362D01*
X257971Y65472D01*
X257500Y65509D01*
X257029Y65472D01*
X256570Y65362D01*
X256134Y65181D01*
X255731Y64935D01*
X255372Y64628D01*
X255065Y64269D01*
X254819Y63866D01*
X254638Y63430D01*
X254528Y62971D01*
X254491Y62500D01*
X254528Y62029D01*
X254638Y61570D01*
X254819Y61134D01*
X255065Y60731D01*
X255372Y60372D01*
X255731Y60065D01*
X256000Y59901D01*
Y57121D01*
X255379Y56500D01*
X248737D01*
X248935Y56731D01*
X249181Y57134D01*
X249362Y57570D01*
X249472Y58029D01*
X249500Y58500D01*
X249472Y58971D01*
X249362Y59430D01*
X249181Y59866D01*
X248935Y60269D01*
X248628Y60628D01*
X248269Y60935D01*
X247866Y61181D01*
X247430Y61362D01*
X246971Y61472D01*
X246500Y61509D01*
X246029Y61472D01*
X245570Y61362D01*
X245134Y61181D01*
X244731Y60935D01*
X244372Y60628D01*
X244065Y60269D01*
X243901Y60000D01*
X242059D01*
X242000Y60005D01*
X241765Y59986D01*
X241535Y59931D01*
X241317Y59841D01*
X241116Y59717D01*
X241115Y59717D01*
X240936Y59564D01*
X240898Y59519D01*
X240875Y59496D01*
Y117500D01*
G37*
G36*
X201991Y24808D02*X202000Y24807D01*
X202891Y24878D01*
X203759Y25086D01*
X204584Y25428D01*
X205346Y25895D01*
X206025Y26475D01*
X206605Y27154D01*
X207072Y27916D01*
X207414Y28741D01*
X207622Y29609D01*
X207675Y30500D01*
X207622Y31391D01*
X207414Y32259D01*
X207072Y33084D01*
X206605Y33846D01*
X206025Y34525D01*
X205346Y35105D01*
X204584Y35572D01*
X203759Y35914D01*
X202891Y36122D01*
X202000Y36193D01*
X201991Y36192D01*
Y36500D01*
X208901D01*
X209065Y36231D01*
X209372Y35872D01*
X209731Y35565D01*
X210134Y35319D01*
X210570Y35138D01*
X211029Y35028D01*
X211500Y34991D01*
X211971Y35028D01*
X212430Y35138D01*
X212500Y35167D01*
Y17621D01*
X211277Y16399D01*
X210971Y16472D01*
X210500Y16509D01*
X210029Y16472D01*
X209570Y16362D01*
X209134Y16181D01*
X208731Y15935D01*
X208372Y15628D01*
X208065Y15269D01*
X207819Y14866D01*
X207638Y14430D01*
X207528Y13971D01*
X207491Y13500D01*
X207528Y13029D01*
X207638Y12570D01*
X207819Y12134D01*
X208065Y11731D01*
X208372Y11372D01*
X208731Y11065D01*
X209134Y10819D01*
X209570Y10638D01*
X210029Y10528D01*
X210500Y10491D01*
X210971Y10528D01*
X211430Y10638D01*
X211866Y10819D01*
X212269Y11065D01*
X212628Y11372D01*
X212935Y11731D01*
X213181Y12134D01*
X213362Y12570D01*
X213472Y13029D01*
X213500Y13500D01*
X213472Y13971D01*
X213399Y14277D01*
X215019Y15898D01*
X215064Y15936D01*
X215217Y16115D01*
X215217Y16116D01*
X215341Y16317D01*
X215431Y16535D01*
X215486Y16765D01*
X215505Y17000D01*
X215500Y17059D01*
Y18263D01*
X215731Y18065D01*
X216134Y17819D01*
X216570Y17638D01*
X217029Y17528D01*
X217500Y17491D01*
X217971Y17528D01*
X218430Y17638D01*
X218866Y17819D01*
X219269Y18065D01*
X219628Y18372D01*
X219935Y18731D01*
X220181Y19134D01*
X220362Y19570D01*
X220472Y20029D01*
X220500Y20500D01*
X220472Y20971D01*
X220362Y21430D01*
X220181Y21866D01*
X219935Y22269D01*
X219628Y22628D01*
X219269Y22935D01*
X219000Y23099D01*
Y28263D01*
X219231Y28065D01*
X219634Y27819D01*
X220070Y27638D01*
X220529Y27528D01*
X221000Y27491D01*
X221471Y27528D01*
X221930Y27638D01*
X222366Y27819D01*
X222769Y28065D01*
X223128Y28372D01*
X223435Y28731D01*
X223681Y29134D01*
X223862Y29570D01*
X223972Y30029D01*
X224000Y30500D01*
X223972Y30971D01*
X223862Y31430D01*
X223681Y31866D01*
X223435Y32269D01*
X223128Y32628D01*
X222769Y32935D01*
X222500Y33099D01*
Y43484D01*
X222551Y42837D01*
X222753Y41995D01*
X223084Y41195D01*
X223537Y40457D01*
X224099Y39799D01*
X224757Y39237D01*
X225495Y38784D01*
X226295Y38453D01*
X227137Y38251D01*
X228000Y38183D01*
X228863Y38251D01*
X229705Y38453D01*
X230505Y38784D01*
X231243Y39237D01*
X231901Y39799D01*
X232463Y40457D01*
X232916Y41195D01*
X233000Y41399D01*
X233084Y41195D01*
X233537Y40457D01*
X234099Y39799D01*
X234757Y39237D01*
X235495Y38784D01*
X236295Y38453D01*
X237137Y38251D01*
X238000Y38183D01*
X238863Y38251D01*
X239705Y38453D01*
X240505Y38784D01*
X240875Y39011D01*
Y4000D01*
X201991D01*
Y4808D01*
X202000Y4807D01*
X202891Y4878D01*
X203759Y5086D01*
X204584Y5428D01*
X205346Y5895D01*
X206025Y6475D01*
X206605Y7154D01*
X207072Y7916D01*
X207414Y8741D01*
X207622Y9609D01*
X207675Y10500D01*
X207622Y11391D01*
X207414Y12259D01*
X207072Y13084D01*
X206605Y13846D01*
X206025Y14525D01*
X205346Y15105D01*
X204584Y15572D01*
X203759Y15914D01*
X202891Y16122D01*
X202000Y16193D01*
X201991Y16192D01*
Y17542D01*
X202000Y17541D01*
X202463Y17577D01*
X202914Y17686D01*
X203343Y17863D01*
X203739Y18106D01*
X204092Y18408D01*
X204394Y18761D01*
X204637Y19157D01*
X204814Y19586D01*
X204923Y20037D01*
X204950Y20500D01*
X204923Y20963D01*
X204814Y21414D01*
X204637Y21843D01*
X204394Y22239D01*
X204092Y22592D01*
X203739Y22894D01*
X203343Y23137D01*
X202914Y23314D01*
X202463Y23423D01*
X202000Y23459D01*
X201991Y23458D01*
Y24808D01*
G37*
G36*
Y55500D02*X217379D01*
X209481Y47602D01*
X209436Y47564D01*
X209283Y47384D01*
X209159Y47183D01*
X209069Y46965D01*
X209014Y46735D01*
X209014Y46735D01*
X208995Y46500D01*
X209000Y46441D01*
Y42559D01*
X208995Y42500D01*
X209014Y42265D01*
X209069Y42035D01*
X209159Y41817D01*
X209283Y41616D01*
X209283Y41615D01*
X209436Y41436D01*
X209481Y41398D01*
X210179Y40700D01*
X210134Y40681D01*
X209731Y40435D01*
X209372Y40128D01*
X209065Y39769D01*
X208901Y39500D01*
X201991D01*
Y55500D01*
G37*
G36*
Y95000D02*X214379D01*
X215398Y93981D01*
X215436Y93936D01*
X215616Y93783D01*
X215817Y93659D01*
X216035Y93569D01*
X216265Y93514D01*
X216399Y93503D01*
X216565Y93231D01*
X216872Y92872D01*
X217231Y92565D01*
X217634Y92319D01*
X218070Y92138D01*
X218529Y92028D01*
X219000Y91991D01*
X219471Y92028D01*
X219930Y92138D01*
X220366Y92319D01*
X220769Y92565D01*
X221128Y92872D01*
X221435Y93231D01*
X221681Y93634D01*
X221862Y94070D01*
X221972Y94529D01*
X222000Y95000D01*
X221972Y95471D01*
X221954Y95546D01*
X222029Y95528D01*
X222500Y95491D01*
X222971Y95528D01*
X223430Y95638D01*
X223866Y95819D01*
X224269Y96065D01*
X224628Y96372D01*
X224935Y96731D01*
X225181Y97134D01*
X225362Y97570D01*
X225472Y98029D01*
X225500Y98500D01*
X225472Y98971D01*
X225454Y99046D01*
X225529Y99028D01*
X226000Y98991D01*
X226471Y99028D01*
X226930Y99138D01*
X227366Y99319D01*
X227769Y99565D01*
X228128Y99872D01*
X228435Y100231D01*
X228681Y100634D01*
X228862Y101070D01*
X228972Y101529D01*
X229000Y102000D01*
X228972Y102471D01*
X228862Y102930D01*
X228681Y103366D01*
X228435Y103769D01*
X228128Y104128D01*
X227769Y104435D01*
X227366Y104681D01*
X226930Y104862D01*
X226471Y104972D01*
X226000Y105009D01*
X225529Y104972D01*
X225070Y104862D01*
X224634Y104681D01*
X224231Y104435D01*
X223872Y104128D01*
X223565Y103769D01*
X223401Y103500D01*
X221059D01*
X221000Y103505D01*
X220765Y103486D01*
X220535Y103431D01*
X220317Y103341D01*
X220116Y103217D01*
X220115Y103217D01*
X219936Y103064D01*
X219898Y103019D01*
X218879Y102000D01*
X201991D01*
Y117500D01*
X240875D01*
Y59496D01*
X239879Y58500D01*
X201991D01*
Y95000D01*
G37*
G36*
Y36192D02*X201109Y36122D01*
X200628Y36007D01*
X201121Y36500D01*
X201991D01*
Y36192D01*
G37*
G36*
Y102000D02*X168142D01*
X168180Y102155D01*
X168200Y102500D01*
X168180Y102845D01*
X168099Y103182D01*
X167966Y103502D01*
X167785Y103797D01*
X167560Y104060D01*
X167297Y104285D01*
X167002Y104466D01*
X166682Y104599D01*
X166345Y104680D01*
X166000Y104707D01*
X165655Y104680D01*
X165318Y104599D01*
X164998Y104466D01*
X164703Y104285D01*
X164440Y104060D01*
X164215Y103797D01*
X164034Y103502D01*
X163901Y103182D01*
X163820Y102845D01*
X163793Y102500D01*
X163799Y102421D01*
X158500Y97121D01*
Y99941D01*
X158505Y100000D01*
X158486Y100235D01*
X158486Y100235D01*
X158431Y100465D01*
X158341Y100683D01*
X158217Y100884D01*
X158064Y101064D01*
X158019Y101102D01*
X153602Y105519D01*
X153564Y105564D01*
X153495Y105622D01*
Y117500D01*
X168919D01*
X169067Y117409D01*
X169285Y117319D01*
X169515Y117264D01*
X169750Y117250D01*
X176485Y117264D01*
X176715Y117319D01*
X176933Y117409D01*
X177081Y117500D01*
X181471D01*
X181508Y117485D01*
X181925Y117368D01*
X182352Y117289D01*
X182783Y117250D01*
X183217D01*
X183648Y117289D01*
X184075Y117368D01*
X184492Y117485D01*
X184531Y117500D01*
X201991D01*
Y102000D01*
G37*
G36*
X189491Y55500D02*X201991D01*
Y39500D01*
X200559D01*
X200500Y39505D01*
X200265Y39486D01*
X200035Y39431D01*
X199817Y39341D01*
X199616Y39217D01*
X199615Y39217D01*
X199436Y39064D01*
X199398Y39019D01*
X198879Y38500D01*
X198349D01*
X198185Y38769D01*
X197878Y39128D01*
X197519Y39435D01*
X197116Y39681D01*
X196680Y39862D01*
X196221Y39972D01*
X195750Y40009D01*
X195279Y39972D01*
X194820Y39862D01*
X194384Y39681D01*
X193981Y39435D01*
X193622Y39128D01*
X193315Y38769D01*
X193069Y38366D01*
X192888Y37930D01*
X192778Y37471D01*
X192741Y37000D01*
X192778Y36529D01*
X192888Y36070D01*
X193069Y35634D01*
X193315Y35231D01*
X193622Y34872D01*
X193981Y34565D01*
X194384Y34319D01*
X194820Y34138D01*
X195279Y34028D01*
X195750Y33991D01*
X196221Y34028D01*
X196680Y34138D01*
X197116Y34319D01*
X197519Y34565D01*
X197878Y34872D01*
X198185Y35231D01*
X198349Y35500D01*
X199298D01*
X198654Y35105D01*
X197975Y34525D01*
X197395Y33846D01*
X196928Y33084D01*
X196586Y32259D01*
X196378Y31391D01*
X196307Y30500D01*
X196378Y29609D01*
X196586Y28741D01*
X196928Y27916D01*
X197395Y27154D01*
X197975Y26475D01*
X198654Y25895D01*
X199416Y25428D01*
X200241Y25086D01*
X201109Y24878D01*
X201991Y24808D01*
Y23458D01*
X201537Y23423D01*
X201086Y23314D01*
X200657Y23137D01*
X200261Y22894D01*
X199908Y22592D01*
X199606Y22239D01*
X199363Y21843D01*
X199186Y21414D01*
X199077Y20963D01*
X199041Y20500D01*
X199077Y20037D01*
X199186Y19586D01*
X199363Y19157D01*
X199606Y18761D01*
X199908Y18408D01*
X200261Y18106D01*
X200657Y17863D01*
X201086Y17686D01*
X201537Y17577D01*
X201991Y17542D01*
Y16192D01*
X201109Y16122D01*
X200241Y15914D01*
X199416Y15572D01*
X198654Y15105D01*
X197975Y14525D01*
X197395Y13846D01*
X196928Y13084D01*
X196586Y12259D01*
X196378Y11391D01*
X196307Y10500D01*
X196378Y9609D01*
X196586Y8741D01*
X196928Y7916D01*
X197395Y7154D01*
X197975Y6475D01*
X198654Y5895D01*
X199416Y5428D01*
X200241Y5086D01*
X201109Y4878D01*
X201991Y4808D01*
Y4000D01*
X189491D01*
Y4808D01*
X189500Y4807D01*
X190391Y4878D01*
X191259Y5086D01*
X192084Y5428D01*
X192846Y5895D01*
X193525Y6475D01*
X194105Y7154D01*
X194572Y7916D01*
X194914Y8741D01*
X195122Y9609D01*
X195175Y10500D01*
X195122Y11391D01*
X194914Y12259D01*
X194572Y13084D01*
X194105Y13846D01*
X193525Y14525D01*
X192846Y15105D01*
X192084Y15572D01*
X191259Y15914D01*
X190391Y16122D01*
X189500Y16193D01*
X189491Y16192D01*
Y24808D01*
X189500Y24807D01*
X190391Y24878D01*
X191259Y25086D01*
X192084Y25428D01*
X192846Y25895D01*
X193525Y26475D01*
X194105Y27154D01*
X194572Y27916D01*
X194914Y28741D01*
X195122Y29609D01*
X195175Y30500D01*
X195122Y31391D01*
X194914Y32259D01*
X194572Y33084D01*
X194105Y33846D01*
X193525Y34525D01*
X192846Y35105D01*
X192084Y35572D01*
X191259Y35914D01*
X190391Y36122D01*
X189500Y36193D01*
X189491Y36192D01*
Y55500D01*
G37*
G36*
Y95000D02*X201991D01*
Y58500D01*
X189491D01*
Y95000D01*
G37*
G36*
X181995Y47856D02*X182255Y47794D01*
X183000Y47735D01*
X183745Y47794D01*
X184472Y47969D01*
X185163Y48255D01*
X185801Y48645D01*
X186369Y49131D01*
X186855Y49699D01*
X187245Y50337D01*
X187531Y51028D01*
X187706Y51755D01*
X187750Y52500D01*
X187706Y53245D01*
X187531Y53972D01*
X187245Y54663D01*
X186855Y55301D01*
X186684Y55500D01*
X189491D01*
Y36192D01*
X188609Y36122D01*
X187741Y35914D01*
X186916Y35572D01*
X186154Y35105D01*
X185475Y34525D01*
X184895Y33846D01*
X184428Y33084D01*
X184086Y32259D01*
X183878Y31391D01*
X183807Y30500D01*
X183878Y29609D01*
X184086Y28741D01*
X184428Y27916D01*
X184895Y27154D01*
X185475Y26475D01*
X186154Y25895D01*
X186916Y25428D01*
X187741Y25086D01*
X188609Y24878D01*
X189491Y24808D01*
Y16192D01*
X188609Y16122D01*
X187741Y15914D01*
X186916Y15572D01*
X186154Y15105D01*
X185475Y14525D01*
X184895Y13846D01*
X184428Y13084D01*
X184086Y12259D01*
X183878Y11391D01*
X183807Y10500D01*
X183878Y9609D01*
X184086Y8741D01*
X184428Y7916D01*
X184895Y7154D01*
X185475Y6475D01*
X186154Y5895D01*
X186916Y5428D01*
X187741Y5086D01*
X188609Y4878D01*
X189491Y4808D01*
Y4000D01*
X181995D01*
Y13541D01*
X182000Y13541D01*
X182463Y13577D01*
X182914Y13686D01*
X183343Y13863D01*
X183739Y14106D01*
X184092Y14408D01*
X184394Y14761D01*
X184637Y15157D01*
X184814Y15586D01*
X184923Y16037D01*
X184950Y16500D01*
X184923Y16963D01*
X184814Y17414D01*
X184637Y17843D01*
X184394Y18239D01*
X184092Y18592D01*
X183739Y18894D01*
X183343Y19137D01*
X182914Y19314D01*
X182463Y19423D01*
X182000Y19459D01*
X181995Y19459D01*
Y21541D01*
X182000Y21541D01*
X182463Y21577D01*
X182914Y21686D01*
X183343Y21863D01*
X183739Y22106D01*
X184092Y22408D01*
X184394Y22761D01*
X184637Y23157D01*
X184814Y23586D01*
X184923Y24037D01*
X184950Y24500D01*
X184923Y24963D01*
X184814Y25414D01*
X184637Y25843D01*
X184394Y26239D01*
X184092Y26592D01*
X183739Y26894D01*
X183343Y27137D01*
X182914Y27314D01*
X182463Y27423D01*
X182000Y27459D01*
X181995Y27459D01*
Y47856D01*
G37*
G36*
Y95000D02*X189491D01*
Y58500D01*
X186121D01*
X186102Y58519D01*
X186064Y58564D01*
X185884Y58717D01*
X185683Y58841D01*
X185465Y58931D01*
X185235Y58986D01*
X185235Y58986D01*
X185000Y59005D01*
X184941Y59000D01*
X181995D01*
Y95000D01*
G37*
G36*
X166000Y85379D02*X168019Y87398D01*
X168064Y87436D01*
X168217Y87615D01*
X168217Y87616D01*
X168341Y87817D01*
X168431Y88035D01*
X168486Y88265D01*
X168505Y88500D01*
X168500Y88559D01*
Y92879D01*
X170621Y95000D01*
X181995D01*
Y59000D01*
X173559D01*
X173500Y59005D01*
X173265Y58986D01*
X173035Y58931D01*
X172817Y58841D01*
X172616Y58717D01*
X172615Y58717D01*
X172436Y58564D01*
X172398Y58519D01*
X171981Y58102D01*
X171936Y58064D01*
X171783Y57884D01*
X171659Y57683D01*
X171569Y57465D01*
X171515Y57240D01*
X169515Y57236D01*
X169285Y57181D01*
X169067Y57091D01*
X168866Y56967D01*
X168686Y56814D01*
X168533Y56634D01*
X168409Y56433D01*
X168319Y56215D01*
X168264Y55985D01*
X168250Y55750D01*
X168264Y49015D01*
X168319Y48785D01*
X168409Y48567D01*
X168533Y48366D01*
X168686Y48186D01*
X168866Y48033D01*
X169067Y47909D01*
X169285Y47819D01*
X169515Y47764D01*
X169750Y47750D01*
X176485Y47764D01*
X176715Y47819D01*
X176933Y47909D01*
X177134Y48033D01*
X177314Y48186D01*
X177467Y48366D01*
X177591Y48567D01*
X177681Y48785D01*
X177736Y49015D01*
X177750Y49250D01*
X177736Y55985D01*
X177733Y56000D01*
X179784D01*
X179631Y55869D01*
X179145Y55301D01*
X178755Y54663D01*
X178469Y53972D01*
X178294Y53245D01*
X178235Y52500D01*
X178294Y51755D01*
X178469Y51028D01*
X178755Y50337D01*
X179145Y49699D01*
X179631Y49131D01*
X180199Y48645D01*
X180837Y48255D01*
X181528Y47969D01*
X181995Y47856D01*
Y27459D01*
X181537Y27423D01*
X181086Y27314D01*
X180657Y27137D01*
X180261Y26894D01*
X179908Y26592D01*
X179606Y26239D01*
X179363Y25843D01*
X179186Y25414D01*
X179077Y24963D01*
X179041Y24500D01*
X179077Y24037D01*
X179186Y23586D01*
X179363Y23157D01*
X179606Y22761D01*
X179908Y22408D01*
X180261Y22106D01*
X180657Y21863D01*
X181086Y21686D01*
X181537Y21577D01*
X181995Y21541D01*
Y19459D01*
X181537Y19423D01*
X181086Y19314D01*
X180657Y19137D01*
X180261Y18894D01*
X179908Y18592D01*
X179606Y18239D01*
X179363Y17843D01*
X179186Y17414D01*
X179077Y16963D01*
X179041Y16500D01*
X179077Y16037D01*
X179186Y15586D01*
X179363Y15157D01*
X179606Y14761D01*
X179908Y14408D01*
X180261Y14106D01*
X180657Y13863D01*
X181086Y13686D01*
X181537Y13577D01*
X181995Y13541D01*
Y4000D01*
X181121D01*
X179899Y5223D01*
X179972Y5529D01*
X180000Y6000D01*
X179972Y6471D01*
X179862Y6930D01*
X179681Y7366D01*
X179435Y7769D01*
X179128Y8128D01*
X178769Y8435D01*
X178366Y8681D01*
X177930Y8862D01*
X177471Y8972D01*
X177000Y9009D01*
X176529Y8972D01*
X176070Y8862D01*
X175634Y8681D01*
X175231Y8435D01*
X174872Y8128D01*
X174565Y7769D01*
X174319Y7366D01*
X174138Y6930D01*
X174028Y6471D01*
X173991Y6000D01*
X174028Y5529D01*
X174138Y5070D01*
X174319Y4634D01*
X174565Y4231D01*
X174872Y3872D01*
X175231Y3565D01*
X175634Y3319D01*
X176070Y3138D01*
X176529Y3028D01*
X177000Y2991D01*
X177471Y3028D01*
X177777Y3101D01*
X178879Y2000D01*
X153495D01*
Y18169D01*
X153570Y18138D01*
X154029Y18028D01*
X154500Y17991D01*
X154971Y18028D01*
X155430Y18138D01*
X155866Y18319D01*
X156269Y18565D01*
X156628Y18872D01*
X156832Y19112D01*
X157065Y18731D01*
X157372Y18372D01*
X157731Y18065D01*
X158134Y17819D01*
X158570Y17638D01*
X159029Y17528D01*
X159500Y17491D01*
X159971Y17528D01*
X160430Y17638D01*
X160866Y17819D01*
X161269Y18065D01*
X161628Y18372D01*
X161935Y18731D01*
X162181Y19134D01*
X162362Y19570D01*
X162472Y20029D01*
X162500Y20500D01*
X162472Y20971D01*
X162454Y21046D01*
X162529Y21028D01*
X163000Y20991D01*
X163471Y21028D01*
X163930Y21138D01*
X164366Y21319D01*
X164769Y21565D01*
X165128Y21872D01*
X165435Y22231D01*
X165681Y22634D01*
X165862Y23070D01*
X165972Y23529D01*
X166000Y24000D01*
X165972Y24471D01*
X165954Y24546D01*
X166029Y24528D01*
X166500Y24491D01*
X166971Y24528D01*
X167430Y24638D01*
X167866Y24819D01*
X168269Y25065D01*
X168628Y25372D01*
X168935Y25731D01*
X169181Y26134D01*
X169362Y26570D01*
X169472Y27029D01*
X169500Y27500D01*
X169472Y27971D01*
X169362Y28430D01*
X169181Y28866D01*
X168935Y29269D01*
X168628Y29628D01*
X168269Y29935D01*
X168000Y30099D01*
Y42941D01*
X168005Y43000D01*
X167986Y43235D01*
X167986Y43235D01*
X167931Y43465D01*
X167841Y43683D01*
X167717Y43884D01*
X167564Y44064D01*
X167519Y44102D01*
X162102Y49519D01*
X162064Y49564D01*
X161884Y49717D01*
X161683Y49841D01*
X161465Y49931D01*
X161235Y49986D01*
X161235Y49986D01*
X161000Y50005D01*
X160941Y50000D01*
X158059D01*
X158000Y50005D01*
X157765Y49986D01*
X157535Y49931D01*
X157317Y49841D01*
X157116Y49717D01*
X157115Y49717D01*
X156936Y49564D01*
X156898Y49519D01*
X155379Y48000D01*
X153495D01*
Y82883D01*
X156398Y79981D01*
X156436Y79936D01*
X156615Y79783D01*
X156616Y79783D01*
X156817Y79659D01*
X157035Y79569D01*
X157265Y79514D01*
X157500Y79495D01*
X157559Y79500D01*
X158664D01*
X158716Y79440D01*
X158979Y79215D01*
X159274Y79034D01*
X159594Y78901D01*
X159931Y78820D01*
X160276Y78793D01*
X160621Y78820D01*
X160958Y78901D01*
X161278Y79034D01*
X161573Y79215D01*
X161836Y79440D01*
X161888Y79500D01*
X162441D01*
X162500Y79495D01*
X162735Y79514D01*
X162735Y79514D01*
X162965Y79569D01*
X163183Y79659D01*
X163384Y79783D01*
X163564Y79936D01*
X163602Y79981D01*
X165519Y81898D01*
X165564Y81936D01*
X165717Y82115D01*
X165717Y82116D01*
X165841Y82317D01*
X165931Y82535D01*
X165986Y82765D01*
X166005Y83000D01*
X166000Y83059D01*
Y85379D01*
G37*
G36*
X153495Y2000D02*X81500D01*
Y38782D01*
X82295Y38453D01*
X83137Y38251D01*
X84000Y38183D01*
X84863Y38251D01*
X85705Y38453D01*
X86505Y38784D01*
X87243Y39237D01*
X87901Y39799D01*
X88463Y40457D01*
X88916Y41195D01*
X89000Y41399D01*
X89084Y41195D01*
X89537Y40457D01*
X90099Y39799D01*
X90757Y39237D01*
X91495Y38784D01*
X92295Y38453D01*
X93137Y38251D01*
X94000Y38183D01*
X94863Y38251D01*
X95705Y38453D01*
X96505Y38784D01*
X97243Y39237D01*
X97901Y39799D01*
X98463Y40457D01*
X98916Y41195D01*
X99000Y41399D01*
X99084Y41195D01*
X99537Y40457D01*
X100099Y39799D01*
X100757Y39237D01*
X101495Y38784D01*
X102295Y38453D01*
X103137Y38251D01*
X104000Y38183D01*
X104863Y38251D01*
X105705Y38453D01*
X106505Y38784D01*
X107243Y39237D01*
X107901Y39799D01*
X108463Y40457D01*
X108916Y41195D01*
X109000Y41399D01*
X109084Y41195D01*
X109537Y40457D01*
X110099Y39799D01*
X110757Y39237D01*
X111495Y38784D01*
X112295Y38453D01*
X113137Y38251D01*
X114000Y38183D01*
X114863Y38251D01*
X115705Y38453D01*
X116505Y38784D01*
X117243Y39237D01*
X117901Y39799D01*
X118463Y40457D01*
X118512Y40537D01*
X118514Y39465D01*
X118569Y39235D01*
X118659Y39017D01*
X118783Y38816D01*
X118936Y38636D01*
X119116Y38483D01*
X119317Y38359D01*
X119535Y38269D01*
X119765Y38214D01*
X120000Y38200D01*
X128235Y38214D01*
X128465Y38269D01*
X128683Y38359D01*
X128884Y38483D01*
X129064Y38636D01*
X129217Y38816D01*
X129341Y39017D01*
X129431Y39235D01*
X129486Y39465D01*
X129500Y39700D01*
X129486Y47935D01*
X129431Y48165D01*
X129341Y48383D01*
X129217Y48584D01*
X129064Y48764D01*
X128884Y48917D01*
X128683Y49041D01*
X128465Y49131D01*
X128235Y49186D01*
X128000Y49200D01*
X119765Y49186D01*
X119535Y49131D01*
X119317Y49041D01*
X119116Y48917D01*
X118936Y48764D01*
X118783Y48584D01*
X118659Y48383D01*
X118569Y48165D01*
X118514Y47935D01*
X118500Y47700D01*
X118501Y46881D01*
X118463Y46943D01*
X117901Y47601D01*
X117243Y48163D01*
X116505Y48616D01*
X115705Y48947D01*
X114863Y49149D01*
X114000Y49217D01*
X113137Y49149D01*
X112295Y48947D01*
X111495Y48616D01*
X110757Y48163D01*
X110099Y47601D01*
X109537Y46943D01*
X109084Y46205D01*
X109000Y46001D01*
X108916Y46205D01*
X108463Y46943D01*
X107901Y47601D01*
X107243Y48163D01*
X106505Y48616D01*
X105705Y48947D01*
X104863Y49149D01*
X104000Y49217D01*
X103137Y49149D01*
X102295Y48947D01*
X101495Y48616D01*
X100757Y48163D01*
X100099Y47601D01*
X99537Y46943D01*
X99084Y46205D01*
X99000Y46001D01*
X98916Y46205D01*
X98463Y46943D01*
X97901Y47601D01*
X97243Y48163D01*
X96505Y48616D01*
X95705Y48947D01*
X94863Y49149D01*
X94000Y49217D01*
X93137Y49149D01*
X92295Y48947D01*
X91495Y48616D01*
X90757Y48163D01*
X90099Y47601D01*
X89537Y46943D01*
X89084Y46205D01*
X89000Y46001D01*
X88916Y46205D01*
X88463Y46943D01*
X87901Y47601D01*
X87243Y48163D01*
X86505Y48616D01*
X85705Y48947D01*
X84863Y49149D01*
X84000Y49217D01*
X83137Y49149D01*
X82295Y48947D01*
X81500Y48618D01*
Y57500D01*
X84264D01*
X84660Y57336D01*
X85568Y57118D01*
X86500Y57045D01*
X87432Y57118D01*
X88340Y57336D01*
X88736Y57500D01*
X91500D01*
Y59797D01*
X91806Y60296D01*
X92164Y61160D01*
X92382Y62068D01*
X92437Y63000D01*
X92382Y63932D01*
X92164Y64840D01*
X91806Y65704D01*
X91500Y66203D01*
Y80379D01*
X93398Y78481D01*
X93436Y78436D01*
X93616Y78283D01*
X93817Y78159D01*
X94035Y78069D01*
X94265Y78014D01*
X94500Y77995D01*
X94559Y78000D01*
X97379D01*
X98000Y77379D01*
Y76599D01*
X97731Y76435D01*
X97372Y76128D01*
X97065Y75769D01*
X96819Y75366D01*
X96638Y74930D01*
X96528Y74471D01*
X96491Y74000D01*
X96528Y73529D01*
X96638Y73070D01*
X96819Y72634D01*
X97065Y72231D01*
X97372Y71872D01*
X97731Y71565D01*
X98134Y71319D01*
X98570Y71138D01*
X99029Y71028D01*
X99500Y70991D01*
X99971Y71028D01*
X100430Y71138D01*
X100866Y71319D01*
X101269Y71565D01*
X101628Y71872D01*
X101935Y72231D01*
X102181Y72634D01*
X102362Y73070D01*
X102472Y73529D01*
X102500Y74000D01*
X102472Y74471D01*
X102362Y74930D01*
X102181Y75366D01*
X101935Y75769D01*
X101628Y76128D01*
X101269Y76435D01*
X101000Y76599D01*
Y77941D01*
X101005Y78000D01*
X100986Y78235D01*
X100931Y78465D01*
X100841Y78683D01*
X100717Y78884D01*
X100564Y79064D01*
X100519Y79102D01*
X99371Y80250D01*
X101853D01*
X102000Y80238D01*
X102588Y80285D01*
X102588Y80285D01*
X103162Y80423D01*
X103708Y80648D01*
X104211Y80957D01*
X104660Y81340D01*
X104756Y81452D01*
X113553Y90250D01*
X139892D01*
X140000Y90242D01*
X140431Y90275D01*
X140432Y90275D01*
X140852Y90377D01*
X141252Y90542D01*
X141621Y90768D01*
X141951Y91049D01*
X142232Y91379D01*
X142458Y91748D01*
X142623Y92148D01*
X142725Y92568D01*
X142758Y93000D01*
X142750Y93108D01*
Y93853D01*
X142762Y94000D01*
X142750Y94147D01*
Y96500D01*
X142725Y96932D01*
X142623Y97352D01*
X142458Y97752D01*
X142232Y98121D01*
X141951Y98451D01*
X141893Y98500D01*
X150379D01*
X151500Y97379D01*
Y85559D01*
X151495Y85500D01*
X151514Y85265D01*
X151569Y85035D01*
X151659Y84817D01*
X151783Y84616D01*
X151936Y84436D01*
X151981Y84398D01*
X153495Y82883D01*
Y48000D01*
X151099D01*
X150935Y48269D01*
X150628Y48628D01*
X150269Y48935D01*
X149866Y49181D01*
X149430Y49362D01*
X148971Y49472D01*
X148500Y49509D01*
X148029Y49472D01*
X147570Y49362D01*
X147134Y49181D01*
X146731Y48935D01*
X146372Y48628D01*
X146065Y48269D01*
X145819Y47866D01*
X145638Y47430D01*
X145528Y46971D01*
X145491Y46500D01*
X145528Y46029D01*
X145601Y45723D01*
X143981Y44102D01*
X143936Y44064D01*
X143783Y43884D01*
X143659Y43683D01*
X143569Y43465D01*
X143514Y43235D01*
X143514Y43235D01*
X143495Y43000D01*
X143500Y42941D01*
Y42121D01*
X141277Y39899D01*
X140971Y39972D01*
X140500Y40009D01*
X140029Y39972D01*
X139570Y39862D01*
X139134Y39681D01*
X138731Y39435D01*
X138372Y39128D01*
X138065Y38769D01*
X137819Y38366D01*
X137638Y37930D01*
X137528Y37471D01*
X137491Y37000D01*
X137528Y36529D01*
X137638Y36070D01*
X137819Y35634D01*
X138065Y35231D01*
X138372Y34872D01*
X138731Y34565D01*
X139134Y34319D01*
X139570Y34138D01*
X140029Y34028D01*
X140500Y33991D01*
X140971Y34028D01*
X141430Y34138D01*
X141866Y34319D01*
X142269Y34565D01*
X142628Y34872D01*
X142935Y35231D01*
X143000Y35338D01*
X143065Y35231D01*
X143372Y34872D01*
X143731Y34565D01*
X144000Y34401D01*
Y30599D01*
X143731Y30435D01*
X143372Y30128D01*
X143065Y29769D01*
X142819Y29366D01*
X142638Y28930D01*
X142528Y28471D01*
X142491Y28000D01*
X142528Y27529D01*
X142638Y27070D01*
X142819Y26634D01*
X143065Y26231D01*
X143372Y25872D01*
X143731Y25565D01*
X144134Y25319D01*
X144570Y25138D01*
X145029Y25028D01*
X145500Y24991D01*
X145971Y25028D01*
X146046Y25046D01*
X146028Y24971D01*
X145991Y24500D01*
X146028Y24029D01*
X146138Y23570D01*
X146319Y23134D01*
X146565Y22731D01*
X146872Y22372D01*
X147231Y22065D01*
X147634Y21819D01*
X148070Y21638D01*
X148529Y21528D01*
X149000Y21491D01*
X149471Y21528D01*
X149930Y21638D01*
X150366Y21819D01*
X150769Y22065D01*
X151128Y22372D01*
X151435Y22731D01*
X151681Y23134D01*
X151862Y23570D01*
X151972Y24029D01*
X152000Y24500D01*
X151972Y24971D01*
X151954Y25046D01*
X152029Y25028D01*
X152500Y24991D01*
X152971Y25028D01*
X153109Y25061D01*
X153069Y24965D01*
X153014Y24735D01*
X153014Y24735D01*
X152995Y24500D01*
X153000Y24441D01*
Y23599D01*
X152731Y23435D01*
X152372Y23128D01*
X152065Y22769D01*
X151819Y22366D01*
X151638Y21930D01*
X151528Y21471D01*
X151491Y21000D01*
X151528Y20529D01*
X151638Y20070D01*
X151819Y19634D01*
X152065Y19231D01*
X152372Y18872D01*
X152731Y18565D01*
X153134Y18319D01*
X153495Y18169D01*
Y2000D01*
G37*
G36*
Y105622D02*X153384Y105717D01*
X153183Y105841D01*
X152965Y105931D01*
X152735Y105986D01*
X152735Y105986D01*
X152500Y106005D01*
X152441Y106000D01*
X116621D01*
X115399Y107223D01*
X115472Y107529D01*
X115500Y108000D01*
X115472Y108471D01*
X115362Y108930D01*
X115181Y109366D01*
X114935Y109769D01*
X114628Y110128D01*
X114269Y110435D01*
X113866Y110681D01*
X113430Y110862D01*
X112971Y110972D01*
X112500Y111009D01*
X112029Y110972D01*
X111570Y110862D01*
X111134Y110681D01*
X110731Y110435D01*
X110372Y110128D01*
X110065Y109769D01*
X109819Y109366D01*
X109638Y108930D01*
X109576Y108672D01*
X109269Y108935D01*
X108866Y109181D01*
X108430Y109362D01*
X107971Y109472D01*
X107500Y109509D01*
X107029Y109472D01*
X106570Y109362D01*
X106134Y109181D01*
X105731Y108935D01*
X105372Y108628D01*
X105065Y108269D01*
X104819Y107866D01*
X104638Y107430D01*
X104528Y106971D01*
X104491Y106500D01*
X104528Y106029D01*
X104638Y105570D01*
X104819Y105134D01*
X105065Y104731D01*
X105372Y104372D01*
X105642Y104142D01*
X105569Y103965D01*
X105514Y103735D01*
X105514Y103735D01*
X105495Y103500D01*
X105500Y103441D01*
Y102621D01*
X103481Y100602D01*
X103436Y100564D01*
X103283Y100384D01*
X103159Y100183D01*
X103069Y99965D01*
X103014Y99735D01*
X103014Y99735D01*
X102995Y99500D01*
X103000Y99441D01*
Y93121D01*
X99879Y90000D01*
X94559D01*
X94500Y90005D01*
X94265Y89986D01*
X94035Y89931D01*
X93817Y89841D01*
X93616Y89717D01*
X93615Y89717D01*
X93436Y89564D01*
X93398Y89519D01*
X91500Y87621D01*
Y117500D01*
X153495D01*
Y105622D01*
G37*
G36*
X336500Y115000D02*X332724D01*
X332696Y115471D01*
X332586Y115930D01*
X332405Y116366D01*
X332159Y116769D01*
X331852Y117128D01*
X331493Y117435D01*
X331090Y117681D01*
X330654Y117862D01*
X330195Y117972D01*
X329724Y118009D01*
X329253Y117972D01*
X328794Y117862D01*
X328358Y117681D01*
X327955Y117435D01*
X327596Y117128D01*
X327289Y116769D01*
X327043Y116366D01*
X326862Y115930D01*
X326752Y115471D01*
X326715Y115000D01*
X315500D01*
Y115901D01*
X315769Y116065D01*
X316128Y116372D01*
X316435Y116731D01*
X316681Y117134D01*
X316862Y117570D01*
X316972Y118029D01*
X317000Y118500D01*
X316972Y118971D01*
X316862Y119430D01*
X316681Y119866D01*
X316435Y120269D01*
X316128Y120628D01*
X315769Y120935D01*
X315366Y121181D01*
X314930Y121362D01*
X314471Y121472D01*
X314000Y121509D01*
X313529Y121472D01*
X313070Y121362D01*
X312634Y121181D01*
X312231Y120935D01*
X311872Y120628D01*
X311565Y120269D01*
X311319Y119866D01*
X311138Y119430D01*
X311028Y118971D01*
X310991Y118500D01*
X311028Y118029D01*
X311083Y117798D01*
X310930Y117862D01*
X310471Y117972D01*
X310000Y118009D01*
X309529Y117972D01*
X309070Y117862D01*
X308634Y117681D01*
X308231Y117435D01*
X307872Y117128D01*
X307565Y116769D01*
X307559Y116758D01*
X307553Y116769D01*
X307246Y117128D01*
X306887Y117435D01*
X306484Y117681D01*
X306048Y117862D01*
X305589Y117972D01*
X305118Y118009D01*
X304647Y117972D01*
X304188Y117862D01*
X303752Y117681D01*
X303349Y117435D01*
X302990Y117128D01*
X302684Y116769D01*
X302437Y116366D01*
X302256Y115930D01*
X302146Y115471D01*
X302109Y115000D01*
X298241D01*
X298138Y115430D01*
X297957Y115866D01*
X297711Y116269D01*
X297404Y116628D01*
X297045Y116935D01*
X296642Y117181D01*
X296206Y117362D01*
X295747Y117472D01*
X295276Y117509D01*
X294805Y117472D01*
X294346Y117362D01*
X293910Y117181D01*
X293507Y116935D01*
X293148Y116628D01*
X292841Y116269D01*
X292595Y115866D01*
X292414Y115430D01*
X292311Y115000D01*
X274500D01*
Y126056D01*
X274757Y125837D01*
X275495Y125384D01*
X276295Y125053D01*
X277137Y124851D01*
X278000Y124783D01*
X278863Y124851D01*
X279705Y125053D01*
X280505Y125384D01*
X281243Y125837D01*
X281901Y126399D01*
X282463Y127057D01*
X282916Y127795D01*
X283000Y127999D01*
X283084Y127795D01*
X283537Y127057D01*
X284099Y126399D01*
X284757Y125837D01*
X285495Y125384D01*
X286295Y125053D01*
X287137Y124851D01*
X288000Y124783D01*
X288863Y124851D01*
X289705Y125053D01*
X290505Y125384D01*
X291243Y125837D01*
X291901Y126399D01*
X292463Y127057D01*
X292916Y127795D01*
X293000Y127999D01*
X293084Y127795D01*
X293537Y127057D01*
X294099Y126399D01*
X294757Y125837D01*
X295495Y125384D01*
X296295Y125053D01*
X297137Y124851D01*
X298000Y124783D01*
X298863Y124851D01*
X299705Y125053D01*
X300505Y125384D01*
X301243Y125837D01*
X301901Y126399D01*
X302463Y127057D01*
X302916Y127795D01*
X303000Y127999D01*
X303084Y127795D01*
X303537Y127057D01*
X304099Y126399D01*
X304757Y125837D01*
X305495Y125384D01*
X306295Y125053D01*
X307137Y124851D01*
X308000Y124783D01*
X308863Y124851D01*
X309705Y125053D01*
X310505Y125384D01*
X311243Y125837D01*
X311901Y126399D01*
X312463Y127057D01*
X312916Y127795D01*
X313247Y128595D01*
X313449Y129437D01*
X313500Y130300D01*
X313449Y131163D01*
X313247Y132005D01*
X312916Y132805D01*
X312463Y133543D01*
X311901Y134201D01*
X311243Y134763D01*
X310505Y135216D01*
X309705Y135547D01*
X308863Y135749D01*
X308000Y135817D01*
X307137Y135749D01*
X306295Y135547D01*
X305495Y135216D01*
X304757Y134763D01*
X304099Y134201D01*
X303537Y133543D01*
X303084Y132805D01*
X303000Y132601D01*
X302916Y132805D01*
X302463Y133543D01*
X301901Y134201D01*
X301243Y134763D01*
X300505Y135216D01*
X299705Y135547D01*
X298863Y135749D01*
X298000Y135817D01*
X297137Y135749D01*
X296295Y135547D01*
X295495Y135216D01*
X294757Y134763D01*
X294099Y134201D01*
X293537Y133543D01*
X293084Y132805D01*
X293000Y132601D01*
X292916Y132805D01*
X292463Y133543D01*
X291901Y134201D01*
X291243Y134763D01*
X290505Y135216D01*
X289705Y135547D01*
X288863Y135749D01*
X288000Y135817D01*
X287137Y135749D01*
X286295Y135547D01*
X285495Y135216D01*
X284757Y134763D01*
X284099Y134201D01*
X283537Y133543D01*
X283084Y132805D01*
X283000Y132601D01*
X282916Y132805D01*
X282463Y133543D01*
X281901Y134201D01*
X281243Y134763D01*
X280505Y135216D01*
X279705Y135547D01*
X278863Y135749D01*
X278000Y135817D01*
X277137Y135749D01*
X276295Y135547D01*
X275495Y135216D01*
X274757Y134763D01*
X274500Y134544D01*
Y139000D01*
X336500D01*
Y115000D01*
G37*
G36*
X189500Y173000D02*X316500D01*
Y152000D01*
X189500D01*
Y173000D01*
G37*
G36*
X268002Y150000D02*X273000D01*
Y132601D01*
X272998Y132596D01*
X272910Y132792D01*
X272849Y132893D01*
X272772Y132984D01*
X272682Y133061D01*
X272580Y133123D01*
X272471Y133169D01*
X272355Y133197D01*
X272237Y133206D01*
X272119Y133197D01*
X272003Y133170D01*
X271893Y133124D01*
X271792Y133062D01*
X271702Y132986D01*
X271624Y132895D01*
X271562Y132794D01*
X271516Y132685D01*
X271489Y132569D01*
X271479Y132451D01*
X271488Y132332D01*
X271516Y132217D01*
X271563Y132108D01*
X271721Y131768D01*
X271842Y131412D01*
X271930Y131047D01*
X271982Y130675D01*
X272000Y130300D01*
X271982Y129925D01*
X271930Y129553D01*
X271842Y129188D01*
X271721Y128832D01*
X271567Y128490D01*
X271520Y128382D01*
X271493Y128267D01*
X271483Y128149D01*
X271493Y128032D01*
X271521Y127917D01*
X271566Y127808D01*
X271628Y127707D01*
X271705Y127618D01*
X271795Y127541D01*
X271895Y127480D01*
X272004Y127435D01*
X272119Y127407D01*
X272237Y127398D01*
X272355Y127408D01*
X272469Y127435D01*
X272578Y127481D01*
X272679Y127543D01*
X272769Y127619D01*
X272845Y127709D01*
X272905Y127811D01*
X272996Y128008D01*
X273000Y127999D01*
Y124500D01*
X268002Y119502D01*
Y124794D01*
X268516Y124818D01*
X269028Y124891D01*
X269531Y125011D01*
X270020Y125178D01*
X270492Y125390D01*
X270593Y125451D01*
X270684Y125528D01*
X270761Y125618D01*
X270823Y125720D01*
X270869Y125829D01*
X270897Y125945D01*
X270906Y126063D01*
X270897Y126181D01*
X270870Y126297D01*
X270824Y126407D01*
X270762Y126508D01*
X270686Y126598D01*
X270595Y126676D01*
X270494Y126738D01*
X270385Y126784D01*
X270269Y126811D01*
X270151Y126821D01*
X270032Y126812D01*
X269917Y126784D01*
X269808Y126737D01*
X269468Y126579D01*
X269112Y126458D01*
X268747Y126370D01*
X268375Y126318D01*
X268002Y126300D01*
Y134300D01*
X268375Y134282D01*
X268747Y134230D01*
X269112Y134142D01*
X269468Y134021D01*
X269810Y133867D01*
X269918Y133820D01*
X270033Y133793D01*
X270151Y133783D01*
X270268Y133793D01*
X270383Y133821D01*
X270492Y133866D01*
X270593Y133928D01*
X270682Y134005D01*
X270759Y134095D01*
X270820Y134195D01*
X270865Y134304D01*
X270893Y134419D01*
X270902Y134537D01*
X270892Y134655D01*
X270865Y134769D01*
X270819Y134878D01*
X270757Y134979D01*
X270681Y135069D01*
X270591Y135145D01*
X270489Y135205D01*
X270020Y135422D01*
X269531Y135589D01*
X269028Y135709D01*
X268516Y135782D01*
X268002Y135806D01*
Y150000D01*
G37*
G36*
X263000D02*X268002D01*
Y135806D01*
X268000Y135806D01*
X267484Y135782D01*
X266972Y135709D01*
X266469Y135589D01*
X265980Y135422D01*
X265508Y135210D01*
X265407Y135149D01*
X265316Y135072D01*
X265239Y134982D01*
X265177Y134880D01*
X265131Y134771D01*
X265103Y134655D01*
X265094Y134537D01*
X265103Y134419D01*
X265130Y134303D01*
X265176Y134193D01*
X265238Y134092D01*
X265314Y134002D01*
X265405Y133924D01*
X265506Y133862D01*
X265615Y133816D01*
X265731Y133789D01*
X265849Y133779D01*
X265968Y133788D01*
X266083Y133816D01*
X266192Y133863D01*
X266532Y134021D01*
X266888Y134142D01*
X267253Y134230D01*
X267625Y134282D01*
X268000Y134300D01*
X268002Y134300D01*
Y126300D01*
X268000Y126300D01*
X267625Y126318D01*
X267253Y126370D01*
X266888Y126458D01*
X266532Y126579D01*
X266190Y126733D01*
X266082Y126780D01*
X265967Y126807D01*
X265849Y126817D01*
X265732Y126807D01*
X265617Y126779D01*
X265508Y126734D01*
X265407Y126672D01*
X265318Y126595D01*
X265241Y126505D01*
X265180Y126405D01*
X265135Y126296D01*
X265107Y126181D01*
X265098Y126063D01*
X265108Y125945D01*
X265135Y125831D01*
X265181Y125722D01*
X265243Y125621D01*
X265319Y125531D01*
X265409Y125455D01*
X265511Y125395D01*
X265980Y125178D01*
X266469Y125011D01*
X266972Y124891D01*
X267484Y124818D01*
X268000Y124794D01*
X268002Y124794D01*
Y119502D01*
X267500Y119000D01*
X263000D01*
Y128008D01*
X263090Y127808D01*
X263151Y127707D01*
X263228Y127616D01*
X263318Y127539D01*
X263420Y127477D01*
X263529Y127431D01*
X263645Y127403D01*
X263763Y127394D01*
X263881Y127403D01*
X263997Y127430D01*
X264107Y127476D01*
X264208Y127538D01*
X264298Y127614D01*
X264376Y127705D01*
X264438Y127806D01*
X264484Y127915D01*
X264511Y128031D01*
X264521Y128149D01*
X264512Y128268D01*
X264484Y128383D01*
X264437Y128492D01*
X264279Y128832D01*
X264158Y129188D01*
X264070Y129553D01*
X264018Y129925D01*
X264000Y130300D01*
X264018Y130675D01*
X264070Y131047D01*
X264158Y131412D01*
X264279Y131768D01*
X264433Y132110D01*
X264480Y132218D01*
X264507Y132333D01*
X264517Y132451D01*
X264507Y132568D01*
X264479Y132683D01*
X264434Y132792D01*
X264372Y132893D01*
X264295Y132982D01*
X264205Y133059D01*
X264105Y133120D01*
X263996Y133165D01*
X263881Y133193D01*
X263763Y133202D01*
X263645Y133192D01*
X263531Y133165D01*
X263422Y133119D01*
X263321Y133057D01*
X263231Y132981D01*
X263155Y132891D01*
X263095Y132789D01*
X263002Y132587D01*
X263000Y132592D01*
Y150000D01*
G37*
G36*
X258002D02*X263000D01*
Y132592D01*
X262910Y132792D01*
X262849Y132893D01*
X262772Y132984D01*
X262682Y133061D01*
X262580Y133123D01*
X262471Y133169D01*
X262355Y133197D01*
X262237Y133206D01*
X262119Y133197D01*
X262003Y133170D01*
X261893Y133124D01*
X261792Y133062D01*
X261702Y132986D01*
X261624Y132895D01*
X261562Y132794D01*
X261516Y132685D01*
X261489Y132569D01*
X261479Y132451D01*
X261488Y132332D01*
X261516Y132217D01*
X261563Y132108D01*
X261721Y131768D01*
X261842Y131412D01*
X261930Y131047D01*
X261982Y130675D01*
X262000Y130300D01*
X261982Y129925D01*
X261930Y129553D01*
X261842Y129188D01*
X261721Y128832D01*
X261567Y128490D01*
X261520Y128382D01*
X261493Y128267D01*
X261483Y128149D01*
X261493Y128032D01*
X261521Y127917D01*
X261566Y127808D01*
X261628Y127707D01*
X261705Y127618D01*
X261795Y127541D01*
X261895Y127480D01*
X262004Y127435D01*
X262119Y127407D01*
X262237Y127398D01*
X262355Y127408D01*
X262469Y127435D01*
X262578Y127481D01*
X262679Y127543D01*
X262769Y127619D01*
X262845Y127709D01*
X262905Y127811D01*
X262998Y128013D01*
X263000Y128008D01*
Y119000D01*
X258002D01*
Y124794D01*
X258516Y124818D01*
X259028Y124891D01*
X259531Y125011D01*
X260020Y125178D01*
X260492Y125390D01*
X260593Y125451D01*
X260684Y125528D01*
X260761Y125618D01*
X260823Y125720D01*
X260869Y125829D01*
X260897Y125945D01*
X260906Y126063D01*
X260897Y126181D01*
X260870Y126297D01*
X260824Y126407D01*
X260762Y126508D01*
X260686Y126598D01*
X260595Y126676D01*
X260494Y126738D01*
X260385Y126784D01*
X260269Y126811D01*
X260151Y126821D01*
X260032Y126812D01*
X259917Y126784D01*
X259808Y126737D01*
X259468Y126579D01*
X259112Y126458D01*
X258747Y126370D01*
X258375Y126318D01*
X258002Y126300D01*
Y134300D01*
X258375Y134282D01*
X258747Y134230D01*
X259112Y134142D01*
X259468Y134021D01*
X259810Y133867D01*
X259918Y133820D01*
X260033Y133793D01*
X260151Y133783D01*
X260268Y133793D01*
X260383Y133821D01*
X260492Y133866D01*
X260593Y133928D01*
X260682Y134005D01*
X260759Y134095D01*
X260820Y134195D01*
X260865Y134304D01*
X260893Y134419D01*
X260902Y134537D01*
X260892Y134655D01*
X260865Y134769D01*
X260819Y134878D01*
X260757Y134979D01*
X260681Y135069D01*
X260591Y135145D01*
X260489Y135205D01*
X260020Y135422D01*
X259531Y135589D01*
X259028Y135709D01*
X258516Y135782D01*
X258002Y135806D01*
Y150000D01*
G37*
G36*
X238753D02*X258002D01*
Y135806D01*
X258000Y135806D01*
X257484Y135782D01*
X256972Y135709D01*
X256469Y135589D01*
X255980Y135422D01*
X255508Y135210D01*
X255407Y135149D01*
X255316Y135072D01*
X255239Y134982D01*
X255177Y134880D01*
X255131Y134771D01*
X255103Y134655D01*
X255094Y134537D01*
X255103Y134419D01*
X255130Y134303D01*
X255176Y134193D01*
X255238Y134092D01*
X255314Y134002D01*
X255405Y133924D01*
X255506Y133862D01*
X255615Y133816D01*
X255731Y133789D01*
X255849Y133779D01*
X255968Y133788D01*
X256083Y133816D01*
X256192Y133863D01*
X256532Y134021D01*
X256888Y134142D01*
X257253Y134230D01*
X257625Y134282D01*
X258000Y134300D01*
X258002Y134300D01*
Y126300D01*
X258000Y126300D01*
X257625Y126318D01*
X257253Y126370D01*
X256888Y126458D01*
X256532Y126579D01*
X256190Y126733D01*
X256082Y126780D01*
X255967Y126807D01*
X255849Y126817D01*
X255732Y126807D01*
X255617Y126779D01*
X255508Y126734D01*
X255407Y126672D01*
X255318Y126595D01*
X255241Y126505D01*
X255180Y126405D01*
X255135Y126296D01*
X255107Y126181D01*
X255098Y126063D01*
X255108Y125945D01*
X255135Y125831D01*
X255181Y125722D01*
X255243Y125621D01*
X255319Y125531D01*
X255409Y125455D01*
X255511Y125395D01*
X255980Y125178D01*
X256469Y125011D01*
X256972Y124891D01*
X257484Y124818D01*
X258000Y124794D01*
X258002Y124794D01*
Y119000D01*
X238753D01*
Y124842D01*
X238863Y124851D01*
X239705Y125053D01*
X240505Y125384D01*
X241243Y125837D01*
X241901Y126399D01*
X242463Y127057D01*
X242916Y127795D01*
X243000Y127999D01*
X243084Y127795D01*
X243537Y127057D01*
X244099Y126399D01*
X244757Y125837D01*
X245495Y125384D01*
X246295Y125053D01*
X247137Y124851D01*
X248000Y124783D01*
X248863Y124851D01*
X249705Y125053D01*
X250505Y125384D01*
X251243Y125837D01*
X251901Y126399D01*
X252463Y127057D01*
X252916Y127795D01*
X253002Y128004D01*
X253090Y127808D01*
X253151Y127707D01*
X253228Y127616D01*
X253318Y127539D01*
X253420Y127477D01*
X253529Y127431D01*
X253645Y127403D01*
X253763Y127394D01*
X253881Y127403D01*
X253997Y127430D01*
X254107Y127476D01*
X254208Y127538D01*
X254298Y127614D01*
X254376Y127705D01*
X254438Y127806D01*
X254484Y127915D01*
X254511Y128031D01*
X254521Y128149D01*
X254512Y128268D01*
X254484Y128383D01*
X254437Y128492D01*
X254279Y128832D01*
X254158Y129188D01*
X254070Y129553D01*
X254018Y129925D01*
X254000Y130300D01*
X254018Y130675D01*
X254070Y131047D01*
X254158Y131412D01*
X254279Y131768D01*
X254433Y132110D01*
X254480Y132218D01*
X254507Y132333D01*
X254517Y132451D01*
X254507Y132568D01*
X254479Y132683D01*
X254434Y132792D01*
X254372Y132893D01*
X254295Y132982D01*
X254205Y133059D01*
X254105Y133120D01*
X253996Y133165D01*
X253881Y133193D01*
X253763Y133202D01*
X253645Y133192D01*
X253531Y133165D01*
X253422Y133119D01*
X253321Y133057D01*
X253231Y132981D01*
X253155Y132891D01*
X253095Y132789D01*
X253004Y132592D01*
X252916Y132805D01*
X252463Y133543D01*
X251901Y134201D01*
X251243Y134763D01*
X250505Y135216D01*
X249705Y135547D01*
X248863Y135749D01*
X248000Y135817D01*
X247137Y135749D01*
X246295Y135547D01*
X245495Y135216D01*
X244757Y134763D01*
X244099Y134201D01*
X243537Y133543D01*
X243084Y132805D01*
X243000Y132601D01*
X242916Y132805D01*
X242463Y133543D01*
X241901Y134201D01*
X241243Y134763D01*
X240505Y135216D01*
X239705Y135547D01*
X238863Y135749D01*
X238753Y135758D01*
Y150000D01*
G37*
G36*
X219099Y145500D02*X220901D01*
X221065Y145231D01*
X221372Y144872D01*
X221731Y144565D01*
X222134Y144319D01*
X222570Y144138D01*
X223029Y144028D01*
X223500Y143991D01*
X223971Y144028D01*
X224430Y144138D01*
X224866Y144319D01*
X225269Y144565D01*
X225628Y144872D01*
X225935Y145231D01*
X226181Y145634D01*
X226362Y146070D01*
X226472Y146529D01*
X226500Y147000D01*
X226472Y147471D01*
X226362Y147930D01*
X226181Y148366D01*
X225935Y148769D01*
X225628Y149128D01*
X225269Y149435D01*
X224866Y149681D01*
X224430Y149862D01*
X223971Y149972D01*
X223618Y150000D01*
X238753D01*
Y135758D01*
X238000Y135817D01*
X237137Y135749D01*
X236295Y135547D01*
X235495Y135216D01*
X234757Y134763D01*
X234099Y134201D01*
X233537Y133543D01*
X233084Y132805D01*
X232753Y132005D01*
X232736Y131933D01*
X232469Y132577D01*
X232058Y133248D01*
X231546Y133846D01*
X230948Y134358D01*
X230277Y134769D01*
X229550Y135070D01*
X228785Y135254D01*
X228000Y135315D01*
X227215Y135254D01*
X226450Y135070D01*
X225723Y134769D01*
X225052Y134358D01*
X224454Y133846D01*
X223942Y133248D01*
X223531Y132577D01*
X223230Y131850D01*
X223046Y131085D01*
X222985Y130300D01*
X223046Y129515D01*
X223230Y128750D01*
X223531Y128023D01*
X223942Y127352D01*
X224454Y126754D01*
X225052Y126242D01*
X225723Y125831D01*
X226450Y125530D01*
X227215Y125346D01*
X228000Y125285D01*
X228785Y125346D01*
X229550Y125530D01*
X230277Y125831D01*
X230948Y126242D01*
X231546Y126754D01*
X232058Y127352D01*
X232469Y128023D01*
X232736Y128667D01*
X232753Y128595D01*
X233084Y127795D01*
X233537Y127057D01*
X234099Y126399D01*
X234757Y125837D01*
X235495Y125384D01*
X236295Y125053D01*
X237137Y124851D01*
X238000Y124783D01*
X238753Y124842D01*
Y119000D01*
X186832D01*
Y119670D01*
X186943Y119704D01*
X187050Y119756D01*
X187146Y119823D01*
X187231Y119905D01*
X187302Y120000D01*
X187356Y120105D01*
X187515Y120508D01*
X187632Y120925D01*
X187711Y121352D01*
X187750Y121783D01*
Y122217D01*
X187711Y122648D01*
X187632Y123075D01*
X187515Y123492D01*
X187360Y123897D01*
X187305Y124002D01*
X187234Y124097D01*
X187148Y124179D01*
X187051Y124247D01*
X186945Y124299D01*
X186832Y124334D01*
Y150000D01*
X216382D01*
X216029Y149972D01*
X215570Y149862D01*
X215134Y149681D01*
X214731Y149435D01*
X214372Y149128D01*
X214065Y148769D01*
X213819Y148366D01*
X213638Y147930D01*
X213528Y147471D01*
X213491Y147000D01*
X213528Y146529D01*
X213638Y146070D01*
X213819Y145634D01*
X214065Y145231D01*
X214372Y144872D01*
X214731Y144565D01*
X215134Y144319D01*
X215570Y144138D01*
X216029Y144028D01*
X216500Y143991D01*
X216971Y144028D01*
X217430Y144138D01*
X217866Y144319D01*
X218269Y144565D01*
X218628Y144872D01*
X218935Y145231D01*
X219099Y145500D01*
G37*
G36*
X186832Y119000D02*X184945D01*
X184873Y119035D01*
X184759Y119070D01*
X184642Y119086D01*
X184523Y119084D01*
X184406Y119064D01*
X184295Y119023D01*
X184237Y119000D01*
X182998D01*
Y125247D01*
X183148D01*
X183443Y125220D01*
X183735Y125166D01*
X184020Y125086D01*
X184297Y124980D01*
X184407Y124940D01*
X184524Y124919D01*
X184642Y124917D01*
X184759Y124933D01*
X184871Y124968D01*
X184978Y125020D01*
X185074Y125087D01*
X185159Y125169D01*
X185230Y125263D01*
X185286Y125368D01*
X185324Y125479D01*
X185345Y125596D01*
X185347Y125714D01*
X185330Y125830D01*
X185296Y125943D01*
X185244Y126050D01*
X185177Y126146D01*
X185095Y126231D01*
X185000Y126302D01*
X184895Y126356D01*
X184492Y126515D01*
X184075Y126632D01*
X183648Y126711D01*
X183217Y126750D01*
X182998D01*
Y150000D01*
X186832D01*
Y124334D01*
X186831Y124334D01*
X186714Y124350D01*
X186595Y124348D01*
X186478Y124327D01*
X186366Y124289D01*
X186262Y124233D01*
X186167Y124162D01*
X186085Y124076D01*
X186017Y123979D01*
X185965Y123873D01*
X185930Y123759D01*
X185914Y123642D01*
X185916Y123523D01*
X185936Y123407D01*
X185977Y123295D01*
X186086Y123020D01*
X186166Y122735D01*
X186220Y122443D01*
X186247Y122148D01*
Y121852D01*
X186220Y121557D01*
X186166Y121265D01*
X186086Y120980D01*
X185980Y120703D01*
X185940Y120593D01*
X185919Y120476D01*
X185917Y120358D01*
X185933Y120241D01*
X185968Y120129D01*
X186020Y120022D01*
X186087Y119926D01*
X186169Y119841D01*
X186263Y119770D01*
X186368Y119714D01*
X186479Y119676D01*
X186596Y119655D01*
X186714Y119653D01*
X186830Y119670D01*
X186832Y119670D01*
Y119000D01*
G37*
G36*
X182998D02*X181755D01*
X181703Y119020D01*
X181593Y119060D01*
X181476Y119081D01*
X181358Y119083D01*
X181241Y119067D01*
X181129Y119032D01*
X181063Y119000D01*
X179168D01*
Y119666D01*
X179169Y119666D01*
X179286Y119650D01*
X179405Y119652D01*
X179522Y119673D01*
X179634Y119711D01*
X179738Y119767D01*
X179833Y119838D01*
X179915Y119924D01*
X179983Y120021D01*
X180035Y120127D01*
X180070Y120241D01*
X180086Y120358D01*
X180084Y120477D01*
X180064Y120594D01*
X180023Y120705D01*
X179914Y120980D01*
X179834Y121265D01*
X179780Y121557D01*
X179753Y121852D01*
Y122148D01*
X179780Y122443D01*
X179834Y122735D01*
X179914Y123020D01*
X180020Y123297D01*
X180060Y123407D01*
X180081Y123524D01*
X180083Y123642D01*
X180067Y123759D01*
X180032Y123871D01*
X179980Y123978D01*
X179913Y124074D01*
X179831Y124159D01*
X179737Y124230D01*
X179632Y124286D01*
X179521Y124324D01*
X179404Y124345D01*
X179286Y124347D01*
X179170Y124330D01*
X179168Y124330D01*
Y150000D01*
X182998D01*
Y126750D01*
X182783D01*
X182352Y126711D01*
X181925Y126632D01*
X181508Y126515D01*
X181103Y126360D01*
X180998Y126305D01*
X180903Y126234D01*
X180821Y126148D01*
X180753Y126051D01*
X180701Y125945D01*
X180666Y125831D01*
X180650Y125714D01*
X180652Y125595D01*
X180673Y125478D01*
X180711Y125366D01*
X180767Y125262D01*
X180838Y125167D01*
X180924Y125085D01*
X181021Y125017D01*
X181127Y124965D01*
X181241Y124930D01*
X181358Y124914D01*
X181477Y124916D01*
X181593Y124936D01*
X181705Y124977D01*
X181980Y125086D01*
X182265Y125166D01*
X182557Y125220D01*
X182852Y125247D01*
X182998D01*
Y119000D01*
G37*
G36*
X179168D02*X177749D01*
X177736Y125485D01*
X177681Y125715D01*
X177591Y125933D01*
X177467Y126134D01*
X177314Y126314D01*
X177134Y126467D01*
X176933Y126591D01*
X176715Y126681D01*
X176485Y126736D01*
X176250Y126750D01*
X169515Y126736D01*
X169285Y126681D01*
X169067Y126591D01*
X168866Y126467D01*
X168686Y126314D01*
X168533Y126134D01*
X168409Y125933D01*
X168319Y125715D01*
X168264Y125485D01*
X168250Y125250D01*
X168263Y119000D01*
X166500D01*
Y150000D01*
X179168D01*
Y124330D01*
X179057Y124296D01*
X178950Y124244D01*
X178854Y124177D01*
X178769Y124095D01*
X178698Y124000D01*
X178644Y123895D01*
X178485Y123492D01*
X178368Y123075D01*
X178289Y122648D01*
X178250Y122217D01*
Y121783D01*
X178289Y121352D01*
X178368Y120925D01*
X178485Y120508D01*
X178640Y120103D01*
X178695Y119998D01*
X178766Y119903D01*
X178852Y119821D01*
X178949Y119753D01*
X179055Y119701D01*
X179168Y119666D01*
Y119000D01*
G37*
G36*
X274500Y124000D02*X276000D01*
Y116000D01*
X268000D01*
Y117500D01*
X274500Y124000D01*
G37*
G36*
X316500Y173000D02*Y140500D01*
X274500D01*
Y173000D01*
X316500D01*
G37*
G36*
X78500Y119000D02*Y124500D01*
X95500D01*
Y119000D01*
X78500D01*
G37*
G36*
X91500Y115000D02*Y118000D01*
X153500D01*
Y115000D01*
X91500D01*
G37*
G36*
X36000Y173000D02*X62157D01*
Y135490D01*
X61495Y135216D01*
X60757Y134763D01*
X60099Y134201D01*
X59537Y133543D01*
X59084Y132805D01*
X59000Y132601D01*
X58916Y132805D01*
X58463Y133543D01*
X57901Y134201D01*
X57243Y134763D01*
X56505Y135216D01*
X55705Y135547D01*
X54863Y135749D01*
X54000Y135817D01*
X53137Y135749D01*
X52295Y135547D01*
X51495Y135216D01*
X50757Y134763D01*
X50099Y134201D01*
X49537Y133543D01*
X49084Y132805D01*
X49000Y132601D01*
X48916Y132805D01*
X48463Y133543D01*
X47901Y134201D01*
X47243Y134763D01*
X46505Y135216D01*
X45705Y135547D01*
X44863Y135749D01*
X44000Y135817D01*
X43137Y135749D01*
X42295Y135547D01*
X41495Y135216D01*
X40757Y134763D01*
X40099Y134201D01*
X39537Y133543D01*
X39084Y132805D01*
X38753Y132005D01*
X38551Y131163D01*
X38483Y130300D01*
X38551Y129437D01*
X38753Y128595D01*
X39084Y127795D01*
X39537Y127057D01*
X40099Y126399D01*
X40757Y125837D01*
X41495Y125384D01*
X42295Y125053D01*
X43137Y124851D01*
X44000Y124783D01*
X44863Y124851D01*
X45705Y125053D01*
X46505Y125384D01*
X47243Y125837D01*
X47901Y126399D01*
X48463Y127057D01*
X48916Y127795D01*
X49000Y127999D01*
X49084Y127795D01*
X49537Y127057D01*
X50099Y126399D01*
X50757Y125837D01*
X51495Y125384D01*
X52295Y125053D01*
X53137Y124851D01*
X54000Y124783D01*
X54863Y124851D01*
X55705Y125053D01*
X56505Y125384D01*
X57243Y125837D01*
X57901Y126399D01*
X58463Y127057D01*
X58916Y127795D01*
X59000Y127999D01*
X59084Y127795D01*
X59537Y127057D01*
X60099Y126399D01*
X60757Y125837D01*
X61495Y125384D01*
X62157Y125110D01*
Y104500D01*
X50042D01*
X50022Y104549D01*
X49652Y105153D01*
X49192Y105692D01*
X48653Y106152D01*
X48049Y106522D01*
X47395Y106793D01*
X46706Y106958D01*
X46000Y107014D01*
X45294Y106958D01*
X44605Y106793D01*
X43951Y106522D01*
X43347Y106152D01*
X42808Y105692D01*
X42348Y105153D01*
X41978Y104549D01*
X41958Y104500D01*
X36000D01*
Y173000D01*
G37*
G36*
X36002D02*X40000D01*
Y134085D01*
X39537Y133543D01*
X39084Y132805D01*
X38753Y132005D01*
X38551Y131163D01*
X38483Y130300D01*
X38551Y129437D01*
X38753Y128595D01*
X39084Y127795D01*
X39537Y127057D01*
X40000Y126515D01*
Y99563D01*
X39874Y99798D01*
X39829Y99863D01*
X39774Y99920D01*
X39710Y99968D01*
X39640Y100004D01*
X39565Y100030D01*
X39487Y100044D01*
X39408Y100045D01*
X39329Y100033D01*
X39254Y100010D01*
X39183Y99975D01*
X39118Y99929D01*
X39061Y99874D01*
X39013Y99811D01*
X38976Y99741D01*
X38951Y99666D01*
X38937Y99588D01*
X38936Y99508D01*
X38948Y99430D01*
X38971Y99354D01*
X39007Y99284D01*
X39157Y99010D01*
X39279Y98723D01*
X39375Y98426D01*
X39444Y98121D01*
X39486Y97812D01*
X39500Y97500D01*
X39486Y97188D01*
X39444Y96879D01*
X39375Y96574D01*
X39279Y96277D01*
X39157Y95990D01*
X39010Y95714D01*
X38974Y95645D01*
X38951Y95569D01*
X38940Y95491D01*
X38941Y95413D01*
X38954Y95335D01*
X38980Y95261D01*
X39016Y95191D01*
X39064Y95128D01*
X39120Y95073D01*
X39184Y95028D01*
X39255Y94993D01*
X39330Y94970D01*
X39408Y94959D01*
X39487Y94960D01*
X39564Y94973D01*
X39639Y94999D01*
X39708Y95035D01*
X39771Y95083D01*
X39826Y95139D01*
X39870Y95204D01*
X40000Y95441D01*
Y89585D01*
X39652Y90153D01*
X39192Y90692D01*
X38653Y91152D01*
X38049Y91522D01*
X37395Y91793D01*
X36706Y91958D01*
X36002Y92014D01*
Y92996D01*
X36401Y93013D01*
X36800Y93067D01*
X37191Y93156D01*
X37574Y93279D01*
X37944Y93436D01*
X38298Y93626D01*
X38363Y93671D01*
X38420Y93726D01*
X38468Y93790D01*
X38504Y93860D01*
X38530Y93935D01*
X38544Y94013D01*
X38545Y94092D01*
X38533Y94171D01*
X38510Y94246D01*
X38475Y94317D01*
X38429Y94382D01*
X38374Y94439D01*
X38311Y94487D01*
X38241Y94524D01*
X38166Y94549D01*
X38088Y94563D01*
X38008Y94564D01*
X37930Y94552D01*
X37854Y94529D01*
X37784Y94493D01*
X37510Y94343D01*
X37223Y94221D01*
X36926Y94125D01*
X36621Y94056D01*
X36312Y94014D01*
X36002Y94000D01*
Y101000D01*
X36312Y100986D01*
X36621Y100944D01*
X36926Y100875D01*
X37223Y100779D01*
X37510Y100657D01*
X37786Y100510D01*
X37855Y100474D01*
X37931Y100451D01*
X38009Y100440D01*
X38087Y100441D01*
X38165Y100454D01*
X38239Y100480D01*
X38309Y100516D01*
X38372Y100564D01*
X38427Y100620D01*
X38472Y100684D01*
X38507Y100755D01*
X38530Y100830D01*
X38541Y100908D01*
X38540Y100987D01*
X38527Y101064D01*
X38501Y101139D01*
X38465Y101208D01*
X38417Y101271D01*
X38361Y101326D01*
X38296Y101370D01*
X37944Y101564D01*
X37574Y101721D01*
X37191Y101844D01*
X36800Y101933D01*
X36401Y101987D01*
X36002Y102004D01*
Y173000D01*
G37*
G36*
Y72986D02*X36706Y73042D01*
X37395Y73207D01*
X38049Y73478D01*
X38653Y73848D01*
X39192Y74308D01*
X39652Y74847D01*
X40000Y75415D01*
Y47485D01*
X39537Y46943D01*
X39084Y46205D01*
X38753Y45405D01*
X38551Y44563D01*
X38483Y43700D01*
X38551Y42837D01*
X38753Y41995D01*
X39084Y41195D01*
X39537Y40457D01*
X40000Y39915D01*
Y2000D01*
X36002D01*
Y72986D01*
G37*
G36*
X32280Y152336D02*X32535Y152952D01*
X33133Y155445D01*
X33284Y158000D01*
X33133Y160555D01*
X32535Y163048D01*
X32280Y163664D01*
Y173000D01*
X36002D01*
Y102004D01*
X36000Y102004D01*
X35599Y101987D01*
X35200Y101933D01*
X34809Y101844D01*
X34426Y101721D01*
X34056Y101564D01*
X33702Y101374D01*
X33637Y101329D01*
X33580Y101274D01*
X33532Y101210D01*
X33496Y101140D01*
X33470Y101065D01*
X33456Y100987D01*
X33455Y100908D01*
X33467Y100829D01*
X33490Y100754D01*
X33525Y100683D01*
X33571Y100618D01*
X33626Y100561D01*
X33689Y100513D01*
X33759Y100476D01*
X33834Y100451D01*
X33912Y100437D01*
X33992Y100436D01*
X34070Y100448D01*
X34146Y100471D01*
X34216Y100507D01*
X34490Y100657D01*
X34777Y100779D01*
X35074Y100875D01*
X35379Y100944D01*
X35688Y100986D01*
X36000Y101000D01*
X36002Y101000D01*
Y94000D01*
X36000Y94000D01*
X35688Y94014D01*
X35379Y94056D01*
X35074Y94125D01*
X34777Y94221D01*
X34490Y94343D01*
X34214Y94490D01*
X34145Y94526D01*
X34069Y94549D01*
X33991Y94560D01*
X33913Y94559D01*
X33835Y94546D01*
X33761Y94520D01*
X33691Y94484D01*
X33628Y94436D01*
X33573Y94380D01*
X33528Y94316D01*
X33493Y94245D01*
X33470Y94170D01*
X33459Y94092D01*
X33460Y94013D01*
X33473Y93936D01*
X33499Y93861D01*
X33535Y93792D01*
X33583Y93729D01*
X33639Y93674D01*
X33704Y93630D01*
X34056Y93436D01*
X34426Y93279D01*
X34809Y93156D01*
X35200Y93067D01*
X35599Y93013D01*
X36000Y92996D01*
X36002Y92996D01*
Y92014D01*
X36000Y92014D01*
X35294Y91958D01*
X34605Y91793D01*
X33951Y91522D01*
X33347Y91152D01*
X32808Y90692D01*
X32348Y90153D01*
X32280Y90041D01*
Y95040D01*
X32290Y95032D01*
X32360Y94996D01*
X32435Y94970D01*
X32513Y94956D01*
X32592Y94955D01*
X32671Y94967D01*
X32746Y94990D01*
X32817Y95025D01*
X32882Y95071D01*
X32939Y95126D01*
X32987Y95189D01*
X33024Y95259D01*
X33049Y95334D01*
X33063Y95412D01*
X33064Y95492D01*
X33052Y95570D01*
X33029Y95646D01*
X32993Y95716D01*
X32843Y95990D01*
X32721Y96277D01*
X32625Y96574D01*
X32556Y96879D01*
X32514Y97188D01*
X32500Y97500D01*
X32514Y97812D01*
X32556Y98121D01*
X32625Y98426D01*
X32721Y98723D01*
X32843Y99010D01*
X32990Y99286D01*
X33026Y99355D01*
X33049Y99431D01*
X33060Y99509D01*
X33059Y99587D01*
X33046Y99665D01*
X33020Y99739D01*
X32984Y99809D01*
X32936Y99872D01*
X32880Y99927D01*
X32816Y99972D01*
X32745Y100007D01*
X32670Y100030D01*
X32592Y100041D01*
X32513Y100040D01*
X32436Y100027D01*
X32361Y100001D01*
X32292Y99965D01*
X32280Y99956D01*
Y152336D01*
G37*
G36*
Y74959D02*X32348Y74847D01*
X32808Y74308D01*
X33347Y73848D01*
X33951Y73478D01*
X34605Y73207D01*
X35294Y73042D01*
X36000Y72986D01*
X36002Y72986D01*
Y2000D01*
X32280D01*
Y11075D01*
X32630Y11921D01*
X33232Y14429D01*
X33384Y17000D01*
X33232Y19571D01*
X32630Y22079D01*
X32280Y22925D01*
Y74959D01*
G37*
G36*
Y163664D02*X31554Y165416D01*
X30215Y167601D01*
X28550Y169550D01*
X26601Y171215D01*
X24416Y172554D01*
X23339Y173000D01*
X32280D01*
Y163664D01*
G37*
G36*
Y2000D02*X23600D01*
X24461Y2357D01*
X26660Y3704D01*
X28621Y5379D01*
X30296Y7340D01*
X31643Y9539D01*
X32280Y11075D01*
Y2000D01*
G37*
G36*
X20992Y54484D02*X21000Y54483D01*
X21863Y54551D01*
X22705Y54753D01*
X23505Y55084D01*
X24243Y55537D01*
X24901Y56099D01*
X25463Y56757D01*
X25916Y57495D01*
X26247Y58295D01*
X26449Y59137D01*
X26500Y60000D01*
X26449Y60863D01*
X26247Y61705D01*
X25916Y62505D01*
X25463Y63243D01*
X24901Y63901D01*
X24243Y64463D01*
X23505Y64916D01*
X22705Y65247D01*
X22500Y65296D01*
Y68879D01*
X31517Y77896D01*
X31486Y77500D01*
X31542Y76794D01*
X31707Y76105D01*
X31978Y75451D01*
X32280Y74959D01*
Y22925D01*
X31643Y24461D01*
X30296Y26660D01*
X28621Y28621D01*
X26660Y30296D01*
X24461Y31643D01*
X22079Y32630D01*
X20992Y32891D01*
Y54484D01*
G37*
G36*
X31751Y89000D02*X28559D01*
X28500Y89005D01*
X28265Y88986D01*
X28035Y88931D01*
X27817Y88841D01*
X27616Y88717D01*
X27615Y88717D01*
X27436Y88564D01*
X27398Y88519D01*
X25493Y86614D01*
Y97145D01*
X25578Y97181D01*
X25679Y97243D01*
X25769Y97319D01*
X25845Y97409D01*
X25905Y97511D01*
X26122Y97980D01*
X26289Y98469D01*
X26409Y98972D01*
X26482Y99484D01*
X26506Y100000D01*
X26482Y100516D01*
X26409Y101028D01*
X26289Y101531D01*
X26122Y102020D01*
X25910Y102492D01*
X25849Y102593D01*
X25772Y102684D01*
X25682Y102761D01*
X25580Y102823D01*
X25493Y102860D01*
Y116805D01*
X25916Y117495D01*
X26247Y118295D01*
X26449Y119137D01*
X26500Y120000D01*
X26449Y120863D01*
X26247Y121705D01*
X25916Y122505D01*
X25493Y123195D01*
Y144106D01*
X26601Y144785D01*
X28550Y146450D01*
X30215Y148399D01*
X31554Y150584D01*
X32280Y152336D01*
Y99956D01*
X32229Y99917D01*
X32174Y99861D01*
X32130Y99796D01*
X31936Y99444D01*
X31779Y99074D01*
X31656Y98691D01*
X31567Y98300D01*
X31513Y97901D01*
X31496Y97500D01*
X31513Y97099D01*
X31567Y96700D01*
X31656Y96309D01*
X31779Y95926D01*
X31936Y95556D01*
X32126Y95202D01*
X32171Y95137D01*
X32226Y95080D01*
X32280Y95040D01*
Y90041D01*
X31978Y89549D01*
X31751Y89000D01*
G37*
G36*
X25493Y123195D02*X25463Y123243D01*
X24901Y123901D01*
X24243Y124463D01*
X23505Y124916D01*
X22705Y125247D01*
X21863Y125449D01*
X21000Y125517D01*
X20992Y125516D01*
Y142212D01*
X22048Y142465D01*
X24416Y143446D01*
X25493Y144106D01*
Y123195D01*
G37*
G36*
Y86614D02*X23684Y84806D01*
X23505Y84916D01*
X22705Y85247D01*
X21863Y85449D01*
X21000Y85517D01*
X20992Y85516D01*
Y94494D01*
X21000Y94494D01*
X21516Y94518D01*
X22028Y94591D01*
X22531Y94711D01*
X23020Y94878D01*
X23492Y95090D01*
X23593Y95151D01*
X23684Y95228D01*
X23761Y95318D01*
X23823Y95420D01*
X23869Y95529D01*
X23897Y95645D01*
X23906Y95763D01*
X23897Y95881D01*
X23870Y95997D01*
X23824Y96107D01*
X23762Y96208D01*
X23686Y96298D01*
X23595Y96376D01*
X23494Y96438D01*
X23385Y96484D01*
X23269Y96511D01*
X23151Y96521D01*
X23032Y96512D01*
X22917Y96484D01*
X22808Y96437D01*
X22468Y96279D01*
X22112Y96158D01*
X21747Y96070D01*
X21375Y96018D01*
X21000Y96000D01*
X20992Y96000D01*
Y104000D01*
X21000Y104000D01*
X21375Y103982D01*
X21747Y103930D01*
X22112Y103842D01*
X22468Y103721D01*
X22810Y103567D01*
X22918Y103520D01*
X23033Y103493D01*
X23151Y103483D01*
X23268Y103493D01*
X23383Y103521D01*
X23492Y103566D01*
X23593Y103628D01*
X23682Y103705D01*
X23759Y103795D01*
X23820Y103895D01*
X23865Y104004D01*
X23893Y104119D01*
X23902Y104237D01*
X23892Y104355D01*
X23865Y104469D01*
X23819Y104578D01*
X23757Y104679D01*
X23681Y104769D01*
X23591Y104845D01*
X23489Y104905D01*
X23020Y105122D01*
X22531Y105289D01*
X22028Y105409D01*
X21516Y105482D01*
X21000Y105506D01*
X20992Y105506D01*
Y114484D01*
X21000Y114483D01*
X21863Y114551D01*
X22705Y114753D01*
X23505Y115084D01*
X24243Y115537D01*
X24901Y116099D01*
X25463Y116757D01*
X25493Y116805D01*
Y102860D01*
X25471Y102869D01*
X25355Y102897D01*
X25237Y102906D01*
X25119Y102897D01*
X25003Y102870D01*
X24893Y102824D01*
X24792Y102762D01*
X24702Y102686D01*
X24624Y102595D01*
X24562Y102494D01*
X24516Y102385D01*
X24489Y102269D01*
X24479Y102151D01*
X24488Y102032D01*
X24516Y101917D01*
X24563Y101808D01*
X24721Y101468D01*
X24842Y101112D01*
X24930Y100747D01*
X24982Y100375D01*
X25000Y100000D01*
X24982Y99625D01*
X24930Y99253D01*
X24842Y98888D01*
X24721Y98532D01*
X24567Y98190D01*
X24520Y98082D01*
X24493Y97967D01*
X24483Y97849D01*
X24493Y97732D01*
X24521Y97617D01*
X24566Y97508D01*
X24628Y97407D01*
X24705Y97318D01*
X24795Y97241D01*
X24895Y97180D01*
X25004Y97135D01*
X25119Y97107D01*
X25237Y97098D01*
X25355Y97108D01*
X25469Y97135D01*
X25493Y97145D01*
Y86614D01*
G37*
G36*
X16507Y141705D02*X17000Y141666D01*
X19555Y141867D01*
X20992Y142212D01*
Y125516D01*
X20137Y125449D01*
X19295Y125247D01*
X18495Y124916D01*
X17757Y124463D01*
X17099Y123901D01*
X16537Y123243D01*
X16507Y123195D01*
Y141705D01*
G37*
G36*
Y56805D02*X16537Y56757D01*
X17099Y56099D01*
X17757Y55537D01*
X18495Y55084D01*
X19295Y54753D01*
X20137Y54551D01*
X20992Y54484D01*
Y32891D01*
X19571Y33232D01*
X17000Y33435D01*
X16507Y33396D01*
Y56805D01*
G37*
G36*
Y63920D02*X16816Y64184D01*
X17099Y63901D01*
X16537Y63243D01*
X16507Y63195D01*
Y63920D01*
G37*
G36*
Y76805D02*X16537Y76757D01*
X17099Y76099D01*
X16816Y75816D01*
X16507Y76080D01*
Y76805D01*
G37*
G36*
X20992Y85516D02*X20137Y85449D01*
X19295Y85247D01*
X18495Y84916D01*
X17757Y84463D01*
X17099Y83901D01*
X16537Y83243D01*
X16507Y83195D01*
Y97140D01*
X16529Y97131D01*
X16645Y97103D01*
X16763Y97094D01*
X16881Y97103D01*
X16997Y97130D01*
X17107Y97176D01*
X17208Y97238D01*
X17298Y97314D01*
X17376Y97405D01*
X17438Y97506D01*
X17484Y97615D01*
X17511Y97731D01*
X17521Y97849D01*
X17512Y97968D01*
X17484Y98083D01*
X17437Y98192D01*
X17279Y98532D01*
X17158Y98888D01*
X17070Y99253D01*
X17018Y99625D01*
X17000Y100000D01*
X17018Y100375D01*
X17070Y100747D01*
X17158Y101112D01*
X17279Y101468D01*
X17433Y101810D01*
X17480Y101918D01*
X17507Y102033D01*
X17517Y102151D01*
X17507Y102268D01*
X17479Y102383D01*
X17434Y102492D01*
X17372Y102593D01*
X17295Y102682D01*
X17205Y102759D01*
X17105Y102820D01*
X16996Y102865D01*
X16881Y102893D01*
X16763Y102902D01*
X16645Y102892D01*
X16531Y102865D01*
X16507Y102855D01*
Y103920D01*
X16816Y104184D01*
X17654Y105165D01*
X18329Y106266D01*
X18823Y107458D01*
X19124Y108713D01*
X19200Y110000D01*
X19124Y111287D01*
X18823Y112542D01*
X18329Y113734D01*
X17654Y114835D01*
X16816Y115816D01*
X16507Y116080D01*
Y116805D01*
X16537Y116757D01*
X17099Y116099D01*
X17757Y115537D01*
X18495Y115084D01*
X19295Y114753D01*
X20137Y114551D01*
X20992Y114484D01*
Y105506D01*
X20484Y105482D01*
X19972Y105409D01*
X19469Y105289D01*
X18980Y105122D01*
X18508Y104910D01*
X18407Y104849D01*
X18316Y104772D01*
X18239Y104682D01*
X18177Y104580D01*
X18131Y104471D01*
X18103Y104355D01*
X18094Y104237D01*
X18103Y104119D01*
X18130Y104003D01*
X18176Y103893D01*
X18238Y103792D01*
X18314Y103702D01*
X18405Y103624D01*
X18506Y103562D01*
X18615Y103516D01*
X18731Y103489D01*
X18849Y103479D01*
X18968Y103488D01*
X19083Y103516D01*
X19192Y103563D01*
X19532Y103721D01*
X19888Y103842D01*
X20253Y103930D01*
X20625Y103982D01*
X20992Y104000D01*
Y96000D01*
X20625Y96018D01*
X20253Y96070D01*
X19888Y96158D01*
X19532Y96279D01*
X19190Y96433D01*
X19082Y96480D01*
X18967Y96507D01*
X18849Y96517D01*
X18732Y96507D01*
X18617Y96479D01*
X18508Y96434D01*
X18407Y96372D01*
X18318Y96295D01*
X18241Y96205D01*
X18180Y96105D01*
X18135Y95996D01*
X18107Y95881D01*
X18098Y95763D01*
X18108Y95645D01*
X18135Y95531D01*
X18181Y95422D01*
X18243Y95321D01*
X18319Y95231D01*
X18409Y95155D01*
X18511Y95095D01*
X18980Y94878D01*
X19469Y94711D01*
X19972Y94591D01*
X20484Y94518D01*
X20992Y94494D01*
Y85516D01*
G37*
G36*
X16507Y83195D02*X16084Y82505D01*
X15753Y81705D01*
X15551Y80863D01*
X15483Y80000D01*
X15551Y79137D01*
X15753Y78295D01*
X16084Y77495D01*
X16507Y76805D01*
Y76080D01*
X15835Y76654D01*
X14734Y77329D01*
X13542Y77823D01*
X12287Y78124D01*
X11000Y78225D01*
X9713Y78124D01*
X8458Y77823D01*
X7266Y77329D01*
X6165Y76654D01*
X5184Y75816D01*
X4346Y74835D01*
X3671Y73734D01*
X3177Y72542D01*
X2876Y71287D01*
X2775Y70000D01*
X2876Y68713D01*
X3177Y67458D01*
X3671Y66266D01*
X4346Y65165D01*
X5184Y64184D01*
X6165Y63346D01*
X7266Y62671D01*
X8458Y62177D01*
X9713Y61876D01*
X11000Y61775D01*
X12287Y61876D01*
X13542Y62177D01*
X14734Y62671D01*
X15835Y63346D01*
X16507Y63920D01*
Y63195D01*
X16084Y62505D01*
X15753Y61705D01*
X15551Y60863D01*
X15483Y60000D01*
X15551Y59137D01*
X15753Y58295D01*
X16084Y57495D01*
X16507Y56805D01*
Y33396D01*
X14429Y33232D01*
X11921Y32630D01*
X9539Y31643D01*
X7340Y30296D01*
X5379Y28621D01*
X3704Y26660D01*
X2357Y24461D01*
X2000Y23600D01*
Y151661D01*
X2446Y150584D01*
X3785Y148399D01*
X5450Y146450D01*
X7399Y144785D01*
X9584Y143446D01*
X11952Y142465D01*
X14445Y141867D01*
X16507Y141705D01*
Y123195D01*
X16084Y122505D01*
X15753Y121705D01*
X15551Y120863D01*
X15483Y120000D01*
X15551Y119137D01*
X15753Y118295D01*
X16084Y117495D01*
X16507Y116805D01*
Y116080D01*
X15835Y116654D01*
X14734Y117329D01*
X13542Y117823D01*
X12287Y118124D01*
X11000Y118225D01*
X9713Y118124D01*
X8458Y117823D01*
X7266Y117329D01*
X6165Y116654D01*
X5184Y115816D01*
X4346Y114835D01*
X3671Y113734D01*
X3177Y112542D01*
X2876Y111287D01*
X2775Y110000D01*
X2876Y108713D01*
X3177Y107458D01*
X3671Y106266D01*
X4346Y105165D01*
X5184Y104184D01*
X6165Y103346D01*
X7266Y102671D01*
X8458Y102177D01*
X9713Y101876D01*
X11000Y101775D01*
X12287Y101876D01*
X13542Y102177D01*
X14734Y102671D01*
X15835Y103346D01*
X16507Y103920D01*
Y102855D01*
X16422Y102819D01*
X16321Y102757D01*
X16231Y102681D01*
X16155Y102591D01*
X16095Y102489D01*
X15878Y102020D01*
X15711Y101531D01*
X15591Y101028D01*
X15518Y100516D01*
X15494Y100000D01*
X15518Y99484D01*
X15591Y98972D01*
X15711Y98469D01*
X15878Y97980D01*
X16090Y97508D01*
X16151Y97407D01*
X16228Y97316D01*
X16318Y97239D01*
X16420Y97177D01*
X16507Y97140D01*
Y83195D01*
G37*
G36*
X81500Y53000D02*X76502D01*
Y57056D01*
X77064Y57083D01*
X77623Y57163D01*
X78172Y57296D01*
X78706Y57481D01*
X78848Y57550D01*
X78977Y57642D01*
X79091Y57752D01*
X79185Y57879D01*
X79259Y58019D01*
X79309Y58168D01*
X79336Y58324D01*
X79338Y58482D01*
X79315Y58639D01*
X79268Y58790D01*
X79198Y58931D01*
X79107Y59061D01*
X78996Y59174D01*
X78870Y59268D01*
X78730Y59342D01*
X78580Y59392D01*
X78424Y59419D01*
X78266Y59421D01*
X78110Y59398D01*
X77960Y59348D01*
X77608Y59222D01*
X77244Y59134D01*
X76874Y59081D01*
X76502Y59063D01*
Y66937D01*
X76874Y66919D01*
X77244Y66866D01*
X77608Y66778D01*
X77961Y66656D01*
X78111Y66606D01*
X78266Y66583D01*
X78424Y66585D01*
X78579Y66612D01*
X78728Y66662D01*
X78867Y66736D01*
X78993Y66830D01*
X79103Y66942D01*
X79194Y67071D01*
X79264Y67212D01*
X79311Y67362D01*
X79333Y67518D01*
X79332Y67675D01*
X79305Y67831D01*
X79254Y67980D01*
X79181Y68119D01*
X79087Y68245D01*
X78975Y68355D01*
X78846Y68446D01*
X78704Y68513D01*
X78172Y68704D01*
X77623Y68837D01*
X77064Y68917D01*
X76502Y68944D01*
Y118000D01*
X81500D01*
Y66203D01*
X81265Y65821D01*
X81176Y65836D01*
X81018Y65838D01*
X80861Y65815D01*
X80710Y65768D01*
X80569Y65698D01*
X80439Y65607D01*
X80326Y65496D01*
X80232Y65370D01*
X80158Y65230D01*
X80108Y65080D01*
X80081Y64924D01*
X80079Y64766D01*
X80102Y64610D01*
X80152Y64460D01*
X80278Y64108D01*
X80366Y63744D01*
X80419Y63374D01*
X80437Y63000D01*
X80419Y62626D01*
X80366Y62256D01*
X80278Y61892D01*
X80156Y61539D01*
X80106Y61389D01*
X80083Y61234D01*
X80085Y61076D01*
X80112Y60921D01*
X80162Y60772D01*
X80236Y60633D01*
X80330Y60507D01*
X80442Y60397D01*
X80571Y60306D01*
X80712Y60236D01*
X80862Y60189D01*
X81018Y60167D01*
X81175Y60168D01*
X81263Y60183D01*
X81500Y59797D01*
Y53000D01*
G37*
G36*
X76502D02*X66742D01*
Y57072D01*
X70751Y57082D01*
X71057Y57155D01*
X71348Y57275D01*
X71616Y57440D01*
X71856Y57644D01*
X72060Y57884D01*
X72225Y58152D01*
X72345Y58443D01*
X72418Y58749D01*
X72437Y59063D01*
X72434Y60304D01*
X72561Y60393D01*
X72674Y60504D01*
X72768Y60630D01*
X72842Y60770D01*
X72892Y60920D01*
X72919Y61076D01*
X72921Y61234D01*
X72898Y61390D01*
X72848Y61540D01*
X72722Y61892D01*
X72634Y62256D01*
X72581Y62626D01*
X72563Y63000D01*
X72581Y63374D01*
X72634Y63744D01*
X72722Y64108D01*
X72844Y64461D01*
X72894Y64611D01*
X72917Y64766D01*
X72915Y64924D01*
X72888Y65079D01*
X72838Y65228D01*
X72764Y65367D01*
X72670Y65493D01*
X72558Y65603D01*
X72429Y65694D01*
X72422Y65698D01*
X72418Y67251D01*
X72345Y67557D01*
X72225Y67848D01*
X72060Y68116D01*
X71856Y68356D01*
X71616Y68560D01*
X71348Y68725D01*
X71057Y68845D01*
X70751Y68918D01*
X70437Y68937D01*
X66742Y68929D01*
Y118000D01*
X76502D01*
Y68944D01*
X76500Y68944D01*
X75936Y68917D01*
X75377Y68837D01*
X74828Y68704D01*
X74294Y68519D01*
X74152Y68450D01*
X74023Y68358D01*
X73909Y68248D01*
X73815Y68121D01*
X73741Y67981D01*
X73691Y67832D01*
X73664Y67676D01*
X73662Y67518D01*
X73685Y67361D01*
X73732Y67210D01*
X73802Y67069D01*
X73893Y66939D01*
X74004Y66826D01*
X74130Y66732D01*
X74270Y66658D01*
X74420Y66608D01*
X74576Y66581D01*
X74734Y66579D01*
X74890Y66602D01*
X75040Y66652D01*
X75392Y66778D01*
X75756Y66866D01*
X76126Y66919D01*
X76500Y66937D01*
X76502Y66937D01*
Y59063D01*
X76500Y59063D01*
X76126Y59081D01*
X75756Y59134D01*
X75392Y59222D01*
X75039Y59344D01*
X74889Y59394D01*
X74734Y59417D01*
X74576Y59415D01*
X74421Y59388D01*
X74272Y59338D01*
X74133Y59264D01*
X74007Y59170D01*
X73897Y59058D01*
X73806Y58929D01*
X73736Y58788D01*
X73689Y58638D01*
X73667Y58482D01*
X73668Y58325D01*
X73695Y58169D01*
X73746Y58020D01*
X73819Y57881D01*
X73913Y57755D01*
X74025Y57645D01*
X74154Y57554D01*
X74296Y57487D01*
X74828Y57296D01*
X75377Y57163D01*
X75936Y57083D01*
X76500Y57056D01*
X76502Y57056D01*
Y53000D01*
G37*
G36*
X66742D02*X45993D01*
Y77987D01*
X46000Y77986D01*
X46706Y78042D01*
X47395Y78207D01*
X48049Y78478D01*
X48653Y78848D01*
X49192Y79308D01*
X49652Y79847D01*
X50022Y80451D01*
X50293Y81105D01*
X50458Y81794D01*
X50500Y82500D01*
X50458Y83206D01*
X50293Y83895D01*
X50022Y84549D01*
X49652Y85153D01*
X49192Y85692D01*
X48653Y86152D01*
X48049Y86522D01*
X47395Y86793D01*
X46706Y86958D01*
X46000Y87014D01*
X45993Y87013D01*
Y87987D01*
X46000Y87986D01*
X46706Y88042D01*
X47395Y88207D01*
X48049Y88478D01*
X48653Y88848D01*
X49192Y89308D01*
X49652Y89847D01*
X50022Y90451D01*
X50293Y91105D01*
X50458Y91794D01*
X50500Y92500D01*
X50458Y93206D01*
X50293Y93895D01*
X50022Y94549D01*
X49652Y95153D01*
X49192Y95692D01*
X48653Y96152D01*
X48049Y96522D01*
X47395Y96793D01*
X46706Y96958D01*
X46000Y97014D01*
X45993Y97013D01*
Y97987D01*
X46000Y97986D01*
X46706Y98042D01*
X47395Y98207D01*
X48049Y98478D01*
X48653Y98848D01*
X49192Y99308D01*
X49652Y99847D01*
X50022Y100451D01*
X50293Y101105D01*
X50458Y101794D01*
X50500Y102500D01*
X50458Y103206D01*
X50293Y103895D01*
X50022Y104549D01*
X49652Y105153D01*
X49192Y105692D01*
X48653Y106152D01*
X48049Y106522D01*
X47395Y106793D01*
X46706Y106958D01*
X46000Y107014D01*
X45993Y107013D01*
Y118000D01*
X66742D01*
Y68929D01*
X62249Y68918D01*
X61943Y68845D01*
X61652Y68725D01*
X61384Y68560D01*
X61144Y68356D01*
X60940Y68116D01*
X60775Y67848D01*
X60655Y67557D01*
X60582Y67251D01*
X60563Y66937D01*
X60582Y58749D01*
X60655Y58443D01*
X60775Y58152D01*
X60940Y57884D01*
X61144Y57644D01*
X61384Y57440D01*
X61652Y57275D01*
X61943Y57155D01*
X62249Y57082D01*
X62563Y57063D01*
X66742Y57072D01*
Y53000D01*
G37*
G36*
X45993Y97013D02*X45294Y96958D01*
X44605Y96793D01*
X43951Y96522D01*
X43347Y96152D01*
X42808Y95692D01*
X42348Y95153D01*
X41978Y94549D01*
X41707Y93895D01*
X41542Y93206D01*
X41486Y92500D01*
X41542Y91794D01*
X41707Y91105D01*
X41978Y90451D01*
X42348Y89847D01*
X42757Y89368D01*
X42267Y88389D01*
X40391Y86512D01*
X40458Y86794D01*
X40500Y87500D01*
X40458Y88206D01*
X40293Y88895D01*
X40022Y89549D01*
X39720Y90041D01*
Y95044D01*
X39771Y95083D01*
X39826Y95139D01*
X39870Y95204D01*
X40064Y95556D01*
X40221Y95926D01*
X40344Y96309D01*
X40433Y96700D01*
X40487Y97099D01*
X40504Y97500D01*
X40487Y97901D01*
X40433Y98300D01*
X40344Y98691D01*
X40221Y99074D01*
X40064Y99444D01*
X39874Y99798D01*
X39829Y99863D01*
X39774Y99920D01*
X39720Y99960D01*
Y118000D01*
X45993D01*
Y107013D01*
X45294Y106958D01*
X44605Y106793D01*
X43951Y106522D01*
X43347Y106152D01*
X42808Y105692D01*
X42348Y105153D01*
X41978Y104549D01*
X41707Y103895D01*
X41542Y103206D01*
X41486Y102500D01*
X41542Y101794D01*
X41707Y101105D01*
X41978Y100451D01*
X42348Y99847D01*
X42808Y99308D01*
X43347Y98848D01*
X43951Y98478D01*
X44605Y98207D01*
X45294Y98042D01*
X45993Y97987D01*
Y97013D01*
G37*
G36*
X39720Y90041D02*X39652Y90153D01*
X39192Y90692D01*
X38653Y91152D01*
X38049Y91522D01*
X37395Y91793D01*
X36706Y91958D01*
X36002Y92014D01*
Y92996D01*
X36401Y93013D01*
X36800Y93067D01*
X37191Y93156D01*
X37574Y93279D01*
X37944Y93436D01*
X38298Y93626D01*
X38363Y93671D01*
X38420Y93726D01*
X38468Y93790D01*
X38504Y93860D01*
X38530Y93935D01*
X38544Y94013D01*
X38545Y94092D01*
X38533Y94171D01*
X38510Y94246D01*
X38475Y94317D01*
X38429Y94382D01*
X38374Y94439D01*
X38311Y94487D01*
X38241Y94524D01*
X38166Y94549D01*
X38088Y94563D01*
X38008Y94564D01*
X37930Y94552D01*
X37854Y94529D01*
X37784Y94493D01*
X37510Y94343D01*
X37223Y94221D01*
X36926Y94125D01*
X36621Y94056D01*
X36312Y94014D01*
X36002Y94000D01*
Y101000D01*
X36312Y100986D01*
X36621Y100944D01*
X36926Y100875D01*
X37223Y100779D01*
X37510Y100657D01*
X37786Y100510D01*
X37855Y100474D01*
X37931Y100451D01*
X38009Y100440D01*
X38087Y100441D01*
X38165Y100454D01*
X38239Y100480D01*
X38309Y100516D01*
X38372Y100564D01*
X38427Y100620D01*
X38472Y100684D01*
X38507Y100755D01*
X38530Y100830D01*
X38541Y100908D01*
X38540Y100987D01*
X38527Y101064D01*
X38501Y101139D01*
X38465Y101208D01*
X38417Y101271D01*
X38361Y101326D01*
X38296Y101370D01*
X37944Y101564D01*
X37574Y101721D01*
X37191Y101844D01*
X36800Y101933D01*
X36401Y101987D01*
X36002Y102004D01*
Y118000D01*
X39720D01*
Y99960D01*
X39710Y99968D01*
X39640Y100004D01*
X39565Y100030D01*
X39487Y100044D01*
X39408Y100045D01*
X39329Y100033D01*
X39254Y100010D01*
X39183Y99975D01*
X39118Y99929D01*
X39061Y99874D01*
X39013Y99811D01*
X38976Y99741D01*
X38951Y99666D01*
X38937Y99588D01*
X38936Y99508D01*
X38948Y99430D01*
X38971Y99354D01*
X39007Y99284D01*
X39157Y99010D01*
X39279Y98723D01*
X39375Y98426D01*
X39444Y98121D01*
X39486Y97812D01*
X39500Y97500D01*
X39486Y97188D01*
X39444Y96879D01*
X39375Y96574D01*
X39279Y96277D01*
X39157Y95990D01*
X39010Y95714D01*
X38974Y95645D01*
X38951Y95569D01*
X38940Y95491D01*
X38941Y95413D01*
X38954Y95335D01*
X38980Y95261D01*
X39016Y95191D01*
X39064Y95128D01*
X39120Y95073D01*
X39184Y95028D01*
X39255Y94993D01*
X39330Y94970D01*
X39408Y94959D01*
X39487Y94960D01*
X39564Y94973D01*
X39639Y94999D01*
X39708Y95035D01*
X39720Y95044D01*
Y90041D01*
G37*
G36*
X36002Y92014D02*X36000Y92014D01*
X35294Y91958D01*
X34605Y91793D01*
X33951Y91522D01*
X33347Y91152D01*
X32808Y90692D01*
X32348Y90153D01*
X32000Y89585D01*
Y95437D01*
X32126Y95202D01*
X32171Y95137D01*
X32226Y95080D01*
X32290Y95032D01*
X32360Y94996D01*
X32435Y94970D01*
X32513Y94956D01*
X32592Y94955D01*
X32671Y94967D01*
X32746Y94990D01*
X32817Y95025D01*
X32882Y95071D01*
X32939Y95126D01*
X32987Y95189D01*
X33024Y95259D01*
X33049Y95334D01*
X33063Y95412D01*
X33064Y95492D01*
X33052Y95570D01*
X33029Y95646D01*
X32993Y95716D01*
X32843Y95990D01*
X32721Y96277D01*
X32625Y96574D01*
X32556Y96879D01*
X32514Y97188D01*
X32500Y97500D01*
X32514Y97812D01*
X32556Y98121D01*
X32625Y98426D01*
X32721Y98723D01*
X32843Y99010D01*
X32990Y99286D01*
X33026Y99355D01*
X33049Y99431D01*
X33060Y99509D01*
X33059Y99587D01*
X33046Y99665D01*
X33020Y99739D01*
X32984Y99809D01*
X32936Y99872D01*
X32880Y99927D01*
X32816Y99972D01*
X32745Y100007D01*
X32670Y100030D01*
X32592Y100041D01*
X32513Y100040D01*
X32436Y100027D01*
X32361Y100001D01*
X32292Y99965D01*
X32229Y99917D01*
X32174Y99861D01*
X32130Y99796D01*
X32000Y99559D01*
Y118000D01*
X36002D01*
Y102004D01*
X36000Y102004D01*
X35599Y101987D01*
X35200Y101933D01*
X34809Y101844D01*
X34426Y101721D01*
X34056Y101564D01*
X33702Y101374D01*
X33637Y101329D01*
X33580Y101274D01*
X33532Y101210D01*
X33496Y101140D01*
X33470Y101065D01*
X33456Y100987D01*
X33455Y100908D01*
X33467Y100829D01*
X33490Y100754D01*
X33525Y100683D01*
X33571Y100618D01*
X33626Y100561D01*
X33689Y100513D01*
X33759Y100476D01*
X33834Y100451D01*
X33912Y100437D01*
X33992Y100436D01*
X34070Y100448D01*
X34146Y100471D01*
X34216Y100507D01*
X34490Y100657D01*
X34777Y100779D01*
X35074Y100875D01*
X35379Y100944D01*
X35688Y100986D01*
X36000Y101000D01*
X36002Y101000D01*
Y94000D01*
X36000Y94000D01*
X35688Y94014D01*
X35379Y94056D01*
X35074Y94125D01*
X34777Y94221D01*
X34490Y94343D01*
X34214Y94490D01*
X34145Y94526D01*
X34069Y94549D01*
X33991Y94560D01*
X33913Y94559D01*
X33835Y94546D01*
X33761Y94520D01*
X33691Y94484D01*
X33628Y94436D01*
X33573Y94380D01*
X33528Y94316D01*
X33493Y94245D01*
X33470Y94170D01*
X33459Y94092D01*
X33460Y94013D01*
X33473Y93936D01*
X33499Y93861D01*
X33535Y93792D01*
X33583Y93729D01*
X33639Y93674D01*
X33704Y93630D01*
X34056Y93436D01*
X34426Y93279D01*
X34809Y93156D01*
X35200Y93067D01*
X35599Y93013D01*
X36000Y92996D01*
X36002Y92996D01*
Y92014D01*
G37*
G36*
X45993Y87013D02*X45294Y86958D01*
X44856Y86853D01*
X44865Y86877D01*
X45442Y88030D01*
X45993Y87987D01*
Y87013D01*
G37*
G36*
Y53000D02*X32000D01*
Y75415D01*
X32348Y74847D01*
X32808Y74308D01*
X33347Y73848D01*
X33951Y73478D01*
X34605Y73207D01*
X35294Y73042D01*
X36000Y72986D01*
X36706Y73042D01*
X37395Y73207D01*
X38049Y73478D01*
X38653Y73848D01*
X39192Y74308D01*
X39652Y74847D01*
X40022Y75451D01*
X40293Y76105D01*
X40458Y76794D01*
X40500Y77500D01*
X40458Y78206D01*
X40293Y78895D01*
X40022Y79549D01*
X39652Y80153D01*
X39192Y80692D01*
X38797Y81029D01*
X38965Y81069D01*
X39183Y81159D01*
X39384Y81283D01*
X39564Y81436D01*
X39602Y81481D01*
X41609Y83488D01*
X41542Y83206D01*
X41486Y82500D01*
X41542Y81794D01*
X41707Y81105D01*
X41978Y80451D01*
X42348Y79847D01*
X42808Y79308D01*
X43347Y78848D01*
X43951Y78478D01*
X44605Y78207D01*
X45294Y78042D01*
X45993Y77987D01*
Y53000D01*
G37*
G36*
X81995Y173000D02*X85500D01*
Y157500D01*
X84541D01*
X84394Y157739D01*
X84092Y158092D01*
X83739Y158394D01*
X83343Y158637D01*
X82914Y158814D01*
X82463Y158923D01*
X82000Y158959D01*
X81995Y158959D01*
Y161041D01*
X82000Y161041D01*
X82463Y161077D01*
X82914Y161186D01*
X83343Y161363D01*
X83739Y161606D01*
X84092Y161908D01*
X84394Y162261D01*
X84637Y162657D01*
X84814Y163086D01*
X84923Y163537D01*
X84950Y164000D01*
X84923Y164463D01*
X84814Y164914D01*
X84637Y165343D01*
X84394Y165739D01*
X84092Y166092D01*
X83739Y166394D01*
X83343Y166637D01*
X82914Y166814D01*
X82463Y166923D01*
X82000Y166959D01*
X81995Y166959D01*
Y173000D01*
G37*
G36*
X56000D02*X81995D01*
Y166959D01*
X81537Y166923D01*
X81086Y166814D01*
X80657Y166637D01*
X80261Y166394D01*
X79908Y166092D01*
X79606Y165739D01*
X79363Y165343D01*
X79186Y164914D01*
X79077Y164463D01*
X79041Y164000D01*
X79077Y163537D01*
X79186Y163086D01*
X79363Y162657D01*
X79606Y162261D01*
X79908Y161908D01*
X80261Y161606D01*
X80657Y161363D01*
X81086Y161186D01*
X81537Y161077D01*
X81995Y161041D01*
Y158959D01*
X81537Y158923D01*
X81086Y158814D01*
X80657Y158637D01*
X80261Y158394D01*
X79908Y158092D01*
X79606Y157739D01*
X79459Y157500D01*
X56000D01*
Y173000D01*
G37*
G54D49*X152500Y35000D02*Y28000D01*
X159500Y45000D02*Y20500D01*
X156000Y40500D02*Y26000D01*
X154500Y24500D01*
Y21000D01*
X163000Y40500D02*Y24000D01*
X161000Y48500D02*X166500Y43000D01*
X161000Y48500D02*X158000D01*
X156000Y46500D01*
X148500D01*
X145000Y43000D02*X148500Y46500D01*
X166500Y43000D02*Y27500D01*
X149000Y41500D02*Y24500D01*
X145500Y28000D02*Y37000D01*
X140500D02*X145000Y41500D01*
Y43000D01*
X264500Y52500D02*X263000Y51000D01*
X261000Y59000D02*Y54500D01*
X240500Y57000D02*X242000Y58500D01*
X246500D01*
X261000Y54500D02*X259500Y53000D01*
X257500Y62500D02*Y56500D01*
X256000Y55000D01*
X264500Y49000D02*X224000D01*
X263000Y51000D02*X223000D01*
X259500Y53000D02*X222000D01*
X256000Y55000D02*X219000D01*
X240500Y57000D02*X185500D01*
X185000Y57500D01*
X173500D01*
X173000Y57000D01*
Y52500D01*
X21000Y60000D02*Y69500D01*
X36000Y87500D02*X28500D01*
X21000Y80000D01*
X38500Y82500D02*X43500Y87500D01*
X34000Y82500D02*X38500D01*
X43500Y87500D02*X46000Y92500D01*
X21000Y69500D02*X34000Y82500D01*
G54D50*X140000Y93000D02*Y96500D01*
G54D51*X112000Y94000D02*X139000D01*
G54D49*X151000Y100000D02*X153000Y98000D01*
X155000Y99000D02*Y86500D01*
X157000Y88500D02*Y100000D01*
X111000Y98000D02*X113000Y100000D01*
X151000D02*X113000D01*
X104500Y99500D02*X107000Y102000D01*
X104500Y99500D02*Y92500D01*
X100500Y88500D01*
G54D51*X102000Y84000D02*X112000Y94000D01*
X96500Y84000D02*X102000D01*
G54D49*X100500Y88500D02*X94500D01*
X92000Y86000D02*Y82000D01*
X94500Y79500D01*
X98000D01*
X94500Y88500D02*X92000Y86000D01*
X99500Y78000D02*X98000Y79500D01*
X108000Y98000D02*X111000D01*
X216500Y147000D02*X223500D01*
X219000Y95000D02*X216500D01*
X215000Y96500D01*
X268000Y59000D02*Y52500D01*
X264500Y49000D01*
Y62500D02*Y52500D01*
X267000Y8776D02*Y4500D01*
X265000Y2500D01*
X295276Y111776D02*X293500Y110000D01*
X308500Y106000D02*X266000D01*
X264500Y104500D01*
Y99000D01*
X303500Y108000D02*X264000D01*
X272500Y104000D02*X271000Y102500D01*
X268000D01*
X264000Y108000D02*X261000Y105000D01*
X263000Y110000D02*X257500Y104500D01*
X261000Y105000D02*Y102500D01*
X257500Y104500D02*Y99000D01*
X293500Y110000D02*X263000D01*
X224000Y49000D02*X221000Y46000D01*
X223000Y51000D02*X217500Y45500D01*
X221000Y46000D02*Y30500D01*
X217500Y45500D02*Y20500D01*
X214000Y41500D02*X215000Y40500D01*
Y36500D01*
X214000Y35500D01*
Y17000D02*X210500Y13500D01*
X199500Y37000D02*X195750D01*
X214000Y35500D02*Y17000D01*
X180500Y2500D02*X265000D01*
X180500D02*X177000Y6000D01*
X199500Y37000D02*X200500Y38000D01*
X211500D01*
X210500Y42500D02*X211500Y41500D01*
X214000D01*
Y45000D02*X222000Y53000D01*
X210500Y42500D02*Y46500D01*
X219000Y55000D01*
X314000Y118500D02*Y108000D01*
X310000Y115000D02*Y107500D01*
X308500Y106000D01*
X332500Y112224D02*Y45500D01*
X305118Y115000D02*Y109618D01*
X329724Y115000D02*X332500Y112224D01*
X305118Y109618D02*X303500Y108000D01*
X295276Y114500D02*Y111776D01*
X226000Y102000D02*X221000D01*
X219500Y100500D01*
X314000Y108000D02*X310000Y104000D01*
X272500D01*
X92000Y168000D02*Y152500D01*
G54D52*X99000D02*X94500Y148000D01*
X88000D01*
G54D50*X140000Y93000D02*X112500D01*
G54D49*X116000Y104500D02*X112500Y108000D01*
X107500Y106500D02*Y104000D01*
X107000Y103500D01*
Y102000D01*
G54D53*X86500Y63000D02*Y121000D01*
G54D49*X99500Y74000D02*Y78000D01*
X169000Y98500D02*X222500D01*
X168000Y100500D02*X219500D01*
X170000Y96500D02*X215000D01*
X110500Y102500D02*X151500D01*
X155000Y99000D01*
X152500Y104500D02*X116000D01*
X165000Y89500D02*X161500Y86000D01*
X165000Y89500D02*Y94500D01*
X163000Y90500D02*Y95500D01*
X164500Y86000D02*X167000Y88500D01*
Y93500D01*
X159500Y96000D02*Y91000D01*
X161500Y86000D02*Y84000D01*
X160500Y81000D02*X162500D01*
X164500Y83000D01*
Y86000D01*
X159000Y86500D02*X163000Y90500D01*
X157000Y88500D02*X159000Y86500D01*
X153000Y98000D02*Y85500D01*
X157000Y100000D02*X152500Y104500D01*
X165000Y94500D02*X169000Y98500D01*
X163000Y95500D02*X168000Y100500D01*
X167000Y93500D02*X170000Y96500D01*
X166000Y102500D02*X159500Y96000D01*
X155000Y86500D02*X157500Y84000D01*
X161500D01*
X153000Y85500D02*X157500Y81000D01*
X160276D01*
G54D54*X17000Y17000D03*
G54D53*X21000Y60000D03*
G54D48*G36*
X120000Y47700D02*Y39700D01*
X128000D01*
Y47700D01*
X120000D01*
G37*
G54D53*X114000Y43700D03*
X104000D03*
X94000D03*
X84000D03*
X74000D03*
X64000D03*
X54000D03*
X44000D03*
G54D55*X86500Y63000D03*
X76500D03*
G54D48*G36*
X62563Y66937D02*Y59063D01*
X70437D01*
Y66937D01*
X62563D01*
G37*
G54D54*X333000Y17000D03*
G54D48*G36*
X304000Y47700D02*Y39700D01*
X312000D01*
Y47700D01*
X304000D01*
G37*
G54D53*X298000Y43700D03*
X288000D03*
X278000D03*
X268000D03*
G54D48*G36*
X169750Y55750D02*Y49250D01*
X176250D01*
Y55750D01*
X169750D01*
G37*
G54D56*X183000Y52500D03*
G54D53*X258000Y43700D03*
X248000D03*
X238000D03*
X228000D03*
G54D48*G36*
X169750Y125250D02*Y118750D01*
X176250D01*
Y125250D01*
X169750D01*
G37*
G54D56*X183000Y122000D03*
G54D54*X333000Y158000D03*
G54D53*X308000Y130300D03*
X298000D03*
X288000D03*
X278000D03*
X268000D03*
X258000D03*
X248000D03*
X238000D03*
X228000D03*
X124000D03*
X114000D03*
X104000D03*
X94000D03*
X84000D03*
X74000D03*
X64000D03*
X54000D03*
X44000D03*
G54D57*X46000Y102500D03*
X36000Y97500D03*
X46000Y92500D03*
Y82500D03*
X36000Y87500D03*
Y77500D03*
G54D54*X17000Y158000D03*
G54D53*X21000Y80000D03*
Y120000D03*
Y100000D03*
G54D58*X11000Y110000D03*
Y70000D03*
G54D59*X201500Y71500D03*
Y66500D03*
Y61500D03*
X195750Y37000D03*
X231000Y68000D03*
X237000D03*
X246500Y58500D03*
X221000Y30500D03*
X214000Y45000D03*
X217500Y34000D03*
X211500Y38000D03*
X280512Y114500D03*
X290354D03*
X295276D03*
X305118Y115000D03*
X310000D03*
X268000Y102500D03*
X264500Y99000D03*
X261000Y102500D03*
X257500Y99000D03*
X273000Y57000D03*
X257500Y62500D03*
X261000Y59000D03*
X264500Y62500D03*
X268000Y59000D03*
G54D60*X332500Y45500D03*
G54D59*X328000Y52000D03*
X323500D03*
X231000Y74000D03*
X237000D03*
X216500Y147000D03*
X223500D03*
X222500Y98500D03*
X226000Y102000D03*
X219000Y95000D03*
X226500Y114500D03*
X196500Y114000D03*
X226500Y110000D03*
X314000Y118500D03*
G54D60*X315500Y129500D03*
X319000D03*
G54D59*X329724Y115000D03*
G54D60*X334646Y120000D03*
Y116854D03*
G54D59*X292000Y149500D03*
X297000D03*
X302000D03*
X307000D03*
X312000D03*
Y159500D03*
Y164500D03*
Y169500D03*
X292000Y164500D03*
Y169500D03*
X297000Y164500D03*
Y169500D03*
X302000Y164500D03*
Y169500D03*
X307000Y164500D03*
Y169500D03*
X217500Y20500D03*
X210500Y13500D03*
X232000Y11000D03*
Y16000D03*
X267000Y8776D03*
G54D60*X248000Y15075D03*
G54D59*X180500Y10000D03*
X177000Y6000D03*
G54D60*X170500Y4500D03*
X166500D03*
G54D59*X92000Y168000D03*
Y152500D03*
X99000D03*
X130500Y157000D03*
X135000Y154000D03*
Y148000D03*
X125500Y157000D03*
Y151000D03*
X155500Y152000D03*
Y147000D03*
X160500D03*
Y152000D03*
X88000Y148000D03*
G54D60*X84000Y160000D03*
X80000D03*
G54D59*X193000Y170000D03*
Y165000D03*
Y160000D03*
Y155000D03*
X198000Y170000D03*
X203000D03*
X198000Y165000D03*
X203000D03*
X198000Y160000D03*
X203000D03*
X198000Y155000D03*
X203000D03*
X130500Y151000D03*
X135000Y83500D03*
Y79000D03*
X112500Y108000D03*
X110500Y102500D03*
X108000Y98000D03*
X110500Y72000D03*
Y78000D03*
X99500Y74000D03*
X96500Y84000D03*
X86000Y96500D03*
X94500Y115000D03*
Y110500D03*
X107500Y106500D03*
X86000Y91500D03*
Y86500D03*
Y81500D03*
Y76500D03*
X76500D03*
Y81500D03*
Y86500D03*
Y91500D03*
Y96500D03*
X78500Y115000D03*
Y110500D03*
X175500Y83000D03*
Y93000D03*
Y88000D03*
G54D60*X166000Y102500D03*
X160276Y81000D03*
X161500Y84000D03*
X159000Y86500D03*
X159500Y91000D03*
X152500Y81000D03*
Y77500D03*
X140000Y93000D03*
Y96500D03*
G54D59*X120000Y60500D03*
X116500Y78000D03*
Y72000D03*
X163000Y40500D03*
X166500Y27500D03*
X163000Y24000D03*
X159500Y20500D03*
X154500Y21000D03*
X159500Y45000D03*
X156000Y40500D03*
X137000Y25100D03*
X152500Y28000D03*
X149000Y24500D03*
X145500Y28000D03*
X152500Y35000D03*
X149000Y41500D03*
X148500Y46500D03*
X145500Y37000D03*
X140500D03*
X138000Y51000D03*
Y46500D03*
X62000Y29500D03*
Y24500D03*
Y19500D03*
G54D61*G54D62*G54D61*G54D62*G54D61*G54D62*G54D61*G54D62*G54D61*G54D62*G54D61*G54D62*G54D61*G54D62*G54D61*G54D63*G54D64*G54D65*G54D63*G54D64*G54D66*G54D67*G54D68*G54D64*G54D66*G54D63*G54D64*G54D68*G54D64*G54D68*G54D64*G54D68*G54D64*G54D69*G54D63*G54D64*G54D70*M02*
