G04 start of page 2 for group 0 idx 0 *
G04 Title: (unknown), component *
G04 Creator: pcb 20140316 *
G04 CreationDate: Wed 29 Apr 2020 12:19:48 AM GMT UTC *
G04 For: railfan *
G04 Format: Gerber/RS-274X *
G04 PCB-Dimensions (mil): 3500.00 1750.00 *
G04 PCB-Coordinate-Origin: lower left *
%MOIN*%
%FSLAX25Y25*%
%LNTOP*%
%ADD47C,0.1280*%
%ADD46C,0.0390*%
%ADD45C,0.0935*%
%ADD44C,0.0430*%
%ADD43C,0.0450*%
%ADD42C,0.0480*%
%ADD41C,0.1285*%
%ADD40C,0.0120*%
%ADD39C,0.0240*%
%ADD38R,0.0157X0.0157*%
%ADD37R,0.0630X0.0630*%
%ADD36R,0.0550X0.0550*%
%ADD35R,0.0945X0.0945*%
%ADD34R,0.0378X0.0378*%
%ADD33C,0.0310*%
%ADD32R,0.0240X0.0240*%
%ADD31R,0.0200X0.0200*%
%ADD30R,0.0091X0.0091*%
%ADD29R,0.0472X0.0472*%
%ADD28R,0.0787X0.0787*%
%ADD27R,0.0236X0.0236*%
%ADD26R,0.0167X0.0167*%
%ADD25R,0.0512X0.0512*%
%ADD24R,0.0330X0.0330*%
%ADD23C,0.1440*%
%ADD22C,0.0700*%
%ADD21C,0.0650*%
%ADD20C,0.0787*%
%ADD19C,0.2937*%
%ADD18C,0.0300*%
%ADD17C,0.0250*%
%ADD16C,0.0200*%
%ADD15C,0.0500*%
%ADD14C,0.0400*%
%ADD13C,0.0100*%
%ADD12C,0.0800*%
%ADD11C,0.0001*%
G54D11*G36*
X25500Y115500D02*X17500D01*
X16500Y116500D01*
Y140500D01*
X25500D01*
Y115500D01*
G37*
G36*
X29000Y116950D02*Y130000D01*
X38507D01*
X38551Y129437D01*
X38753Y128595D01*
X39084Y127795D01*
X39537Y127057D01*
X40099Y126399D01*
X40757Y125837D01*
X41495Y125384D01*
X42295Y125053D01*
X43137Y124851D01*
X44000Y124783D01*
X44863Y124851D01*
X45705Y125053D01*
X46505Y125384D01*
X46684Y125494D01*
X52698Y119481D01*
X52736Y119436D01*
X52915Y119283D01*
X52916Y119283D01*
X53117Y119159D01*
X53335Y119069D01*
X53565Y119014D01*
X53800Y118995D01*
X53859Y119000D01*
X70500D01*
Y101000D01*
X50249D01*
X50293Y101105D01*
X50458Y101794D01*
X50500Y102500D01*
X50458Y103206D01*
X50293Y103895D01*
X50022Y104549D01*
X49652Y105153D01*
X49192Y105692D01*
X48653Y106152D01*
X48049Y106522D01*
X47395Y106793D01*
X46706Y106958D01*
X46000Y107014D01*
X45294Y106958D01*
X44605Y106793D01*
X43951Y106522D01*
X43347Y106152D01*
X42808Y105692D01*
X42348Y105153D01*
X41978Y104549D01*
X41707Y103895D01*
X41542Y103206D01*
X41486Y102500D01*
X41525Y102000D01*
X36176D01*
X36000Y102014D01*
X35824Y102000D01*
X32500D01*
Y111863D01*
X32511Y112000D01*
X32468Y112549D01*
X32468Y112549D01*
X32339Y113085D01*
X32128Y113594D01*
X31840Y114064D01*
X31483Y114483D01*
X31378Y114572D01*
X29000Y116950D01*
G37*
G36*
Y126500D02*Y140500D01*
X38500D01*
Y130516D01*
X38483Y130300D01*
X38500Y130084D01*
Y126500D01*
X29000D01*
G37*
G36*
X100500Y77000D02*X99618D01*
X99500Y77009D01*
X99382Y77000D01*
X93000D01*
Y88500D01*
X100495D01*
X100500Y88441D01*
Y84621D01*
X99981Y84102D01*
X99936Y84064D01*
X99783Y83884D01*
X99659Y83683D01*
X99569Y83465D01*
X99514Y83235D01*
X99514Y83235D01*
X99495Y83000D01*
X99500Y82941D01*
Y81059D01*
X99495Y81000D01*
X99514Y80765D01*
X99514Y80765D01*
X99514Y80765D01*
X99514Y80765D01*
X99560Y80572D01*
X99569Y80535D01*
X99569Y80535D01*
X99569Y80535D01*
X99641Y80361D01*
X99659Y80317D01*
X99659Y80317D01*
X99659Y80317D01*
X99761Y80151D01*
X99783Y80116D01*
X99783Y80116D01*
X99783Y80116D01*
X99783Y80115D01*
X99936Y79936D01*
X99981Y79898D01*
X100500Y79379D01*
Y77000D01*
G37*
G36*
X70441Y65000D02*X67000D01*
Y66937D01*
X68437D01*
X68594Y66946D01*
X68747Y66983D01*
X68892Y67043D01*
X69027Y67125D01*
X69146Y67228D01*
X69249Y67347D01*
X69331Y67482D01*
X69391Y67627D01*
X69428Y67780D01*
X69440Y67937D01*
X69428Y68094D01*
X69391Y68247D01*
X69331Y68392D01*
X69249Y68527D01*
X69146Y68646D01*
X69027Y68749D01*
X68892Y68831D01*
X68747Y68891D01*
X68594Y68928D01*
X68437Y68937D01*
X67000D01*
Y119000D01*
X71500D01*
Y65935D01*
X71437Y65940D01*
X71280Y65928D01*
X71127Y65891D01*
X70982Y65831D01*
X70847Y65749D01*
X70728Y65646D01*
X70625Y65527D01*
X70543Y65392D01*
X70483Y65247D01*
X70446Y65094D01*
X70441Y65000D01*
G37*
G36*
X72500Y119000D02*X93879D01*
X94500Y118379D01*
Y101000D01*
X72500D01*
Y119000D01*
G37*
G36*
X90000D02*X93879D01*
X95398Y117481D01*
X95436Y117436D01*
X95616Y117283D01*
X95817Y117159D01*
X96035Y117069D01*
X96265Y117014D01*
X96500Y116995D01*
Y107000D01*
X90000D01*
Y119000D01*
G37*
G36*
X82500Y100000D02*X95000D01*
Y94500D01*
X90000Y89500D01*
X82500D01*
Y100000D01*
G37*
G36*
X66500Y110000D02*X70500D01*
Y65288D01*
X70483Y65247D01*
X70446Y65094D01*
X70437Y64937D01*
Y63000D01*
X66500D01*
Y66937D01*
X68437D01*
X68594Y66946D01*
X68747Y66983D01*
X68892Y67043D01*
X69027Y67125D01*
X69146Y67228D01*
X69249Y67347D01*
X69331Y67482D01*
X69391Y67627D01*
X69428Y67780D01*
X69440Y67937D01*
X69428Y68094D01*
X69391Y68247D01*
X69331Y68392D01*
X69249Y68527D01*
X69146Y68646D01*
X69027Y68749D01*
X68892Y68831D01*
X68747Y68891D01*
X68594Y68928D01*
X68437Y68937D01*
X66500D01*
Y110000D01*
G37*
G36*
X61563D02*X66500D01*
Y68937D01*
X64563D01*
X64406Y68928D01*
X64253Y68891D01*
X64108Y68831D01*
X63973Y68749D01*
X63854Y68646D01*
X63751Y68527D01*
X63669Y68392D01*
X63609Y68247D01*
X63572Y68094D01*
X63560Y67937D01*
X63572Y67780D01*
X63609Y67627D01*
X63669Y67482D01*
X63751Y67347D01*
X63854Y67228D01*
X63973Y67125D01*
X64108Y67043D01*
X64253Y66983D01*
X64406Y66946D01*
X64563Y66937D01*
X66500D01*
Y63000D01*
X64500D01*
Y59059D01*
X64406Y59054D01*
X64253Y59017D01*
X64108Y58957D01*
X63973Y58875D01*
X63854Y58772D01*
X63751Y58653D01*
X63669Y58518D01*
X63609Y58373D01*
X63572Y58220D01*
X63560Y58063D01*
X63572Y57906D01*
X63609Y57753D01*
X63669Y57608D01*
X63751Y57473D01*
X63854Y57354D01*
X63973Y57251D01*
X64108Y57169D01*
X64253Y57109D01*
X64406Y57072D01*
X64500Y57067D01*
Y56328D01*
X64172Y56000D01*
X61563D01*
Y60060D01*
X61720Y60072D01*
X61873Y60109D01*
X62018Y60169D01*
X62153Y60251D01*
X62272Y60354D01*
X62375Y60473D01*
X62457Y60608D01*
X62517Y60753D01*
X62554Y60906D01*
X62563Y61063D01*
Y64937D01*
X62554Y65094D01*
X62517Y65247D01*
X62457Y65392D01*
X62375Y65527D01*
X62272Y65646D01*
X62153Y65749D01*
X62018Y65831D01*
X61873Y65891D01*
X61720Y65928D01*
X61563Y65940D01*
Y110000D01*
G37*
G36*
X50500Y56000D02*Y110000D01*
X61563D01*
Y65940D01*
X61406Y65928D01*
X61253Y65891D01*
X61108Y65831D01*
X60973Y65749D01*
X60854Y65646D01*
X60751Y65527D01*
X60669Y65392D01*
X60609Y65247D01*
X60572Y65094D01*
X60563Y64937D01*
Y61063D01*
X60572Y60906D01*
X60609Y60753D01*
X60669Y60608D01*
X60751Y60473D01*
X60854Y60354D01*
X60973Y60251D01*
X61108Y60169D01*
X61253Y60109D01*
X61406Y60072D01*
X61563Y60060D01*
Y56000D01*
X50500D01*
G37*
G36*
X103500Y107000D02*X92500D01*
Y119000D01*
X93879D01*
X95398Y117481D01*
X95436Y117436D01*
X95616Y117283D01*
X95817Y117159D01*
X96035Y117069D01*
X96265Y117014D01*
X96500Y116995D01*
X96559Y117000D01*
X102879D01*
X103500Y116379D01*
Y115637D01*
X103493Y115609D01*
X103484Y115452D01*
X103493Y109391D01*
X103500Y109363D01*
Y107000D01*
G37*
G36*
Y101000D02*X90000D01*
Y108000D01*
X103500D01*
Y101000D01*
G37*
G36*
X93000Y87000D02*Y90500D01*
X96500Y94000D01*
Y100000D01*
X103500D01*
Y93331D01*
X103445Y93266D01*
X103338Y93092D01*
X103260Y92903D01*
X103212Y92704D01*
X103212Y92704D01*
X103196Y92500D01*
X103200Y92449D01*
Y91821D01*
X100981Y89602D01*
X100936Y89564D01*
X100783Y89384D01*
X100659Y89183D01*
X100569Y88965D01*
X100514Y88735D01*
X100514Y88735D01*
X100495Y88500D01*
X100500Y88441D01*
Y87000D01*
X93000D01*
G37*
G36*
X98000Y100000D02*X104500D01*
Y94338D01*
X103617Y93455D01*
X103578Y93422D01*
X103445Y93266D01*
X103338Y93092D01*
X103300Y93000D01*
X98000D01*
Y100000D01*
G37*
G36*
X101500Y101000D02*Y110000D01*
X104500Y107000D01*
Y106618D01*
X104491Y106500D01*
X104500Y106382D01*
Y101000D01*
X101500D01*
G37*
G36*
X210500Y58500D02*X207059D01*
X207000Y58505D01*
X206941Y58500D01*
X198500D01*
Y74500D01*
X210500D01*
Y58500D01*
G37*
G36*
X198500Y96000D02*X215500D01*
Y93059D01*
X215495Y93000D01*
X215500Y92941D01*
Y78559D01*
X215495Y78500D01*
X215500Y78441D01*
Y75500D01*
X198500D01*
Y96000D01*
G37*
G36*
X206500Y123000D02*X215500D01*
Y114731D01*
X215487Y114723D01*
X215367Y114621D01*
X215328Y114575D01*
X215133D01*
X215075Y114580D01*
X214840Y114561D01*
X214839Y114561D01*
X214839Y114561D01*
X214839Y114561D01*
X214719Y114532D01*
X214610Y114506D01*
X214610Y114506D01*
X214610Y114506D01*
X214503Y114462D01*
X214392Y114416D01*
X214392Y114416D01*
X214391Y114416D01*
X214291Y114354D01*
X214190Y114292D01*
X214190Y114292D01*
X214190Y114292D01*
X214189Y114291D01*
X214011Y114139D01*
X213972Y114094D01*
X213481Y113602D01*
X213436Y113564D01*
X213283Y113384D01*
X213283Y113384D01*
X213283Y113384D01*
X213234Y113306D01*
X213159Y113183D01*
X213159Y113183D01*
X213159Y113183D01*
X213132Y113116D01*
X213069Y112965D01*
X213069Y112965D01*
X213069Y112965D01*
X213054Y112904D01*
X213014Y112735D01*
X213014Y112735D01*
X213014Y112735D01*
X212995Y112500D01*
X213000Y112441D01*
Y107559D01*
X212995Y107500D01*
X213014Y107265D01*
X213069Y107035D01*
X213159Y106817D01*
X213283Y106616D01*
X213436Y106436D01*
X213481Y106398D01*
X215500Y104379D01*
Y93059D01*
X215495Y93000D01*
X215500Y92941D01*
Y91000D01*
X206500D01*
Y98941D01*
X206505Y99000D01*
X206500Y99059D01*
Y115130D01*
X206557Y115154D01*
X206692Y115236D01*
X206811Y115339D01*
X206914Y115458D01*
X206996Y115593D01*
X207056Y115738D01*
X207093Y115891D01*
X207102Y116048D01*
X207093Y122109D01*
X207056Y122262D01*
X206996Y122407D01*
X206914Y122542D01*
X206811Y122661D01*
X206692Y122764D01*
X206557Y122846D01*
X206500Y122870D01*
Y123000D01*
G37*
G36*
X188500Y75500D02*Y94000D01*
X203000D01*
Y75500D01*
X188500D01*
G37*
G36*
Y91500D02*Y96374D01*
X193374D01*
X193374Y96374D01*
X203815D01*
X203874Y96369D01*
X204109Y96388D01*
X204109Y96388D01*
X204339Y96443D01*
X204557Y96533D01*
X204758Y96657D01*
X204938Y96810D01*
X204976Y96855D01*
X206019Y97898D01*
X206064Y97936D01*
X206217Y98115D01*
X206217Y98116D01*
X206341Y98317D01*
X206431Y98535D01*
X206486Y98765D01*
X206505Y99000D01*
X206500Y99059D01*
Y99500D01*
X208000D01*
Y91500D01*
X188500D01*
G37*
G36*
X224000Y8000D02*Y19000D01*
X235000D01*
Y8000D01*
X224000D01*
G37*
G36*
X146000Y173000D02*X164500D01*
Y167500D01*
X146000D01*
Y173000D01*
G37*
G36*
X145500Y154000D02*X164500D01*
Y144500D01*
X145500D01*
Y154000D01*
G37*
G36*
X146000Y153000D02*Y159500D01*
X164500D01*
Y153000D01*
X146000D01*
G37*
G36*
X156500Y161500D02*Y173000D01*
X167500D01*
Y161500D01*
X156500D01*
G37*
G36*
X143500Y145000D02*X133121D01*
X131102Y147019D01*
X131064Y147064D01*
X130884Y147217D01*
X130683Y147341D01*
X130465Y147431D01*
X130235Y147486D01*
X130000Y147505D01*
X129941Y147500D01*
X122000D01*
Y168500D01*
X143500D01*
Y145000D01*
G37*
G36*
X211000Y166500D02*Y174000D01*
X238000D01*
Y166500D01*
X211000D01*
G37*
G36*
X206500Y150000D02*X216382D01*
X216029Y149972D01*
X215570Y149862D01*
X215134Y149681D01*
X214731Y149435D01*
X214372Y149128D01*
X214065Y148769D01*
X213819Y148366D01*
X213638Y147930D01*
X213528Y147471D01*
X213491Y147000D01*
X213528Y146529D01*
X213638Y146070D01*
X213819Y145634D01*
X214065Y145231D01*
X214372Y144872D01*
X214731Y144565D01*
X215000Y144401D01*
Y144059D01*
X214995Y144000D01*
X215014Y143765D01*
X215069Y143535D01*
X215159Y143317D01*
X215283Y143116D01*
X215436Y142936D01*
X215481Y142898D01*
X216500Y141879D01*
Y116500D01*
X207101D01*
X207093Y122109D01*
X207056Y122262D01*
X206996Y122407D01*
X206914Y122542D01*
X206811Y122661D01*
X206692Y122764D01*
X206557Y122846D01*
X206500Y122870D01*
Y127941D01*
X206505Y128000D01*
X206500Y128059D01*
Y134828D01*
X206519Y134906D01*
X206528Y135063D01*
X206519Y143094D01*
X206500Y143172D01*
Y150000D01*
G37*
G36*
X165500Y173000D02*X210000D01*
Y144500D01*
X165500D01*
Y173000D01*
G37*
G36*
X221500Y144000D02*X223382D01*
X223500Y143991D01*
X223618Y144000D01*
X228976D01*
X228987Y143987D01*
X229000Y143976D01*
Y135202D01*
X228785Y135254D01*
X228000Y135315D01*
X227215Y135254D01*
X226450Y135070D01*
X225723Y134769D01*
X225052Y134358D01*
X224454Y133846D01*
X223942Y133248D01*
X223531Y132577D01*
X223230Y131850D01*
X223046Y131085D01*
X222985Y130300D01*
X223046Y129515D01*
X223230Y128750D01*
X223531Y128023D01*
X223942Y127352D01*
X224454Y126754D01*
X225052Y126242D01*
X225723Y125831D01*
X226450Y125530D01*
X226500Y125518D01*
Y122559D01*
X226495Y122500D01*
X226514Y122265D01*
X226514Y122265D01*
Y122265D01*
X226520Y122238D01*
X226569Y122035D01*
X226569Y122035D01*
Y122035D01*
X226606Y121945D01*
X226659Y121817D01*
X226659Y121817D01*
X226659Y121817D01*
X226727Y121706D01*
X226783Y121616D01*
X226783Y121616D01*
X226783Y121616D01*
X226936Y121436D01*
X226981Y121398D01*
X229000Y119379D01*
Y107500D01*
X224000D01*
Y109866D01*
X224005Y109925D01*
X224000Y109984D01*
Y115441D01*
X224005Y115500D01*
X223986Y115735D01*
X223986Y115735D01*
X223931Y115965D01*
X223841Y116183D01*
X223717Y116384D01*
X223564Y116564D01*
X223519Y116602D01*
X221500Y118621D01*
Y144000D01*
G37*
G36*
X131500Y93000D02*Y98500D01*
X141500D01*
Y93000D01*
X131500D01*
G37*
G36*
X150500Y102000D02*X163858D01*
X163901Y101818D01*
X164034Y101498D01*
X164215Y101203D01*
X164440Y100940D01*
X164703Y100715D01*
X164998Y100534D01*
X165318Y100401D01*
X165655Y100320D01*
X166000Y100293D01*
X166345Y100320D01*
X166682Y100401D01*
X167002Y100534D01*
X167297Y100715D01*
X167560Y100940D01*
X167612Y101000D01*
X176941D01*
X177000Y100995D01*
X177235Y101014D01*
X177235Y101014D01*
X177465Y101069D01*
X177683Y101159D01*
X177884Y101283D01*
X178064Y101436D01*
X178102Y101481D01*
X178500Y101879D01*
Y96266D01*
X178357Y96144D01*
X178152Y95904D01*
X177988Y95636D01*
X177867Y95345D01*
X177794Y95039D01*
X177786Y94943D01*
X177628Y95128D01*
X177269Y95435D01*
X176866Y95681D01*
X176430Y95862D01*
X175971Y95972D01*
X175500Y96009D01*
X175029Y95972D01*
X174570Y95862D01*
X174134Y95681D01*
X173731Y95435D01*
X173372Y95128D01*
X173065Y94769D01*
X172819Y94366D01*
X172638Y93930D01*
X172528Y93471D01*
X172500Y93000D01*
X160420D01*
X160182Y93099D01*
X159845Y93180D01*
X159500Y93207D01*
X159155Y93180D01*
X158818Y93099D01*
X158580Y93000D01*
X150500D01*
Y102000D01*
G37*
G36*
X142000Y92000D02*X137637D01*
X137609Y92007D01*
X137452Y92016D01*
X131500Y92007D01*
Y105500D01*
X134495D01*
Y105500D01*
X134514Y105265D01*
X134569Y105035D01*
X134634Y104879D01*
X134659Y104817D01*
X134659Y104817D01*
X134659Y104817D01*
X134783Y104616D01*
X134783Y104615D01*
X134936Y104436D01*
X134981Y104398D01*
X139375Y100004D01*
X139413Y99959D01*
X139593Y99806D01*
X139593Y99806D01*
X139794Y99682D01*
X140012Y99592D01*
X140242Y99537D01*
X140477Y99518D01*
X140536Y99523D01*
X142000D01*
Y92000D01*
G37*
G36*
X135500Y44000D02*Y58500D01*
X139200D01*
X139214Y54265D01*
X139269Y54035D01*
X139359Y53817D01*
X139483Y53616D01*
X139636Y53436D01*
X139816Y53283D01*
X140017Y53159D01*
X140235Y53069D01*
X140400Y53029D01*
Y44000D01*
X135500D01*
G37*
G36*
X142000Y98500D02*Y62000D01*
X135500D01*
Y74441D01*
X135505Y74500D01*
X135486Y74735D01*
X135486Y74735D01*
X135431Y74965D01*
X135341Y75183D01*
X135217Y75384D01*
X135064Y75564D01*
X135019Y75602D01*
X135000Y75621D01*
Y75991D01*
X135471Y76028D01*
X135930Y76138D01*
X136366Y76319D01*
X136769Y76565D01*
X137128Y76872D01*
X137435Y77231D01*
X137681Y77634D01*
X137862Y78070D01*
X137972Y78529D01*
X138000Y79000D01*
Y85061D01*
X138042Y85086D01*
X138161Y85189D01*
X138264Y85308D01*
X138346Y85443D01*
X138406Y85588D01*
X138443Y85741D01*
X138452Y85898D01*
X138443Y91173D01*
X138406Y91326D01*
X138346Y91471D01*
X138264Y91606D01*
X138161Y91725D01*
X138042Y91828D01*
X137907Y91910D01*
X137762Y91970D01*
X137609Y92007D01*
X137452Y92016D01*
X135000Y92012D01*
Y99000D01*
X142000Y98500D01*
G37*
G36*
X140000Y62000D02*Y76500D01*
X147000D01*
Y67700D01*
X144443Y67691D01*
X144290Y67654D01*
X144145Y67594D01*
X144010Y67512D01*
X143891Y67409D01*
X143788Y67290D01*
X143706Y67155D01*
X143646Y67010D01*
X143609Y66857D01*
X143600Y66700D01*
X143609Y62543D01*
X143646Y62390D01*
X143706Y62245D01*
X143788Y62110D01*
X143883Y62000D01*
X140000D01*
G37*
G36*
X164000Y11500D02*X173000D01*
Y2000D01*
X164000D01*
Y11500D01*
G37*
G36*
X56000Y33000D02*X65500D01*
Y14500D01*
X67000D01*
Y5000D01*
X60513D01*
X60516Y5048D01*
X60507Y11109D01*
X60470Y11262D01*
X60410Y11407D01*
X60328Y11542D01*
X60225Y11661D01*
X60106Y11764D01*
X59971Y11846D01*
X59826Y11906D01*
X59673Y11943D01*
X59516Y11952D01*
X59000Y11951D01*
Y16922D01*
X59006Y17000D01*
X59000Y17078D01*
Y29000D01*
X58981Y29314D01*
X58908Y29620D01*
X58788Y29911D01*
X58623Y30179D01*
X58419Y30419D01*
X58179Y30623D01*
X57911Y30788D01*
X57620Y30908D01*
X57314Y30981D01*
X57000Y31006D01*
X56922Y31000D01*
X56000D01*
Y33000D01*
G37*
G36*
X239000Y173000D02*X326661D01*
X325584Y172554D01*
X323399Y171215D01*
X321450Y169550D01*
X319785Y167601D01*
X318446Y165416D01*
X317465Y163048D01*
X316867Y160555D01*
X316666Y158000D01*
X239000D01*
Y173000D01*
G37*
G36*
X274500Y148000D02*X320126D01*
X321450Y146450D01*
X323399Y144785D01*
X325584Y143446D01*
X327952Y142465D01*
X330445Y141867D01*
X332000Y141744D01*
Y138500D01*
X274500D01*
Y148000D01*
G37*
G36*
X206500Y165500D02*X318498D01*
X318446Y165416D01*
X317465Y163048D01*
X316867Y160555D01*
X316666Y158000D01*
X316867Y155445D01*
X317465Y152952D01*
X318446Y150584D01*
X319785Y148399D01*
X321450Y146450D01*
X323399Y144785D01*
X325584Y143446D01*
X327952Y142465D01*
X330445Y141867D01*
X332000Y141744D01*
Y138500D01*
X274500D01*
Y152000D01*
X232586D01*
X232577Y158208D01*
X232541Y158361D01*
X232480Y158506D01*
X232398Y158641D01*
X232296Y158760D01*
X232176Y158863D01*
X232042Y158945D01*
X231896Y159005D01*
X231743Y159042D01*
X231587Y159051D01*
X229068Y159042D01*
X228915Y159005D01*
X228769Y158945D01*
X228635Y158863D01*
X228515Y158760D01*
X228437Y158669D01*
X228359Y158760D01*
X228239Y158863D01*
X228105Y158945D01*
X227959Y159005D01*
X227806Y159042D01*
X227650Y159051D01*
X225131Y159042D01*
X224978Y159005D01*
X224832Y158945D01*
X224698Y158863D01*
X224578Y158760D01*
X224500Y158669D01*
X224422Y158760D01*
X224302Y158863D01*
X224168Y158945D01*
X224022Y159005D01*
X223869Y159042D01*
X223712Y159051D01*
X221194Y159042D01*
X221041Y159005D01*
X220895Y158945D01*
X220761Y158863D01*
X220641Y158760D01*
X220563Y158669D01*
X220485Y158760D01*
X220365Y158863D01*
X220231Y158945D01*
X220085Y159005D01*
X219932Y159042D01*
X219775Y159051D01*
X217257Y159042D01*
X217104Y159005D01*
X216958Y158945D01*
X216824Y158863D01*
X216704Y158760D01*
X216602Y158641D01*
X216520Y158506D01*
X216459Y158361D01*
X216423Y158208D01*
X216413Y158051D01*
X216423Y151792D01*
X216459Y151639D01*
X216520Y151494D01*
X216602Y151359D01*
X216704Y151240D01*
X216824Y151137D01*
X216958Y151055D01*
X217094Y150999D01*
Y150964D01*
X217090Y150906D01*
X217108Y150670D01*
X217164Y150441D01*
X217254Y150222D01*
X217377Y150021D01*
X217531Y149842D01*
X217575Y149803D01*
X217578Y149801D01*
X217430Y149862D01*
X216971Y149972D01*
X216500Y150009D01*
X216029Y149972D01*
X215570Y149862D01*
X215134Y149681D01*
X214731Y149435D01*
X214372Y149128D01*
X214065Y148769D01*
X213819Y148366D01*
X213638Y147930D01*
X213528Y147471D01*
X213491Y147000D01*
X213528Y146529D01*
X213638Y146070D01*
X213819Y145634D01*
X214065Y145231D01*
X214372Y144872D01*
X214731Y144565D01*
X215000Y144401D01*
Y144059D01*
X214995Y144000D01*
X215014Y143765D01*
X215069Y143535D01*
X215159Y143317D01*
X215283Y143116D01*
X215436Y142936D01*
X215481Y142898D01*
X216500Y141879D01*
Y138500D01*
X206524D01*
X206519Y143094D01*
X206500Y143172D01*
Y165500D01*
G37*
G36*
X322000Y142000D02*X329890D01*
X330445Y141867D01*
X333000Y141666D01*
X335000Y141823D01*
Y122480D01*
X334646Y122508D01*
X334254Y122477D01*
X333871Y122385D01*
X333508Y122234D01*
X333172Y122029D01*
X332873Y121773D01*
X332617Y121474D01*
X332412Y121138D01*
X332261Y120775D01*
X332169Y120392D01*
X332146Y120000D01*
Y116854D01*
X332146Y116854D01*
Y114500D01*
X332146Y114500D01*
Y113000D01*
X326980D01*
X326908Y113044D01*
X326763Y113104D01*
X326610Y113141D01*
X326453Y113150D01*
X326303Y113150D01*
Y115638D01*
X326308Y115697D01*
X326289Y115932D01*
X326289Y115932D01*
X326234Y116162D01*
X326144Y116380D01*
X326020Y116581D01*
X325867Y116761D01*
X325822Y116799D01*
X323102Y119519D01*
X323064Y119564D01*
X322884Y119717D01*
X322683Y119841D01*
X322465Y119931D01*
X322235Y119986D01*
X322000Y120005D01*
X322000D01*
Y142000D01*
G37*
G36*
X327000Y114000D02*X332146D01*
Y112698D01*
X329724Y110276D01*
X327271Y112729D01*
X327265Y112740D01*
X327162Y112859D01*
X327043Y112962D01*
X327032Y112968D01*
X327000Y113000D01*
Y114000D01*
G37*
G36*
X313500Y137500D02*X321000D01*
Y121500D01*
X314118D01*
X314000Y121509D01*
X313882Y121500D01*
X313500D01*
Y137500D01*
G37*
G54D12*X74000Y130300D02*X84000D01*
G54D13*X96500Y124500D02*X69800D01*
X64000Y130300D01*
X95500Y122500D02*X61800D01*
G54D14*X21000Y120000D02*Y119500D01*
G54D15*X29000Y112000D02*X21000Y120000D01*
G54D13*X61800Y122500D02*X54000Y130300D01*
X53800Y120500D02*X44000Y130300D01*
X96500Y118500D02*X94500Y120500D01*
X53800D01*
X106000Y119000D02*X104500Y120500D01*
X105000Y117000D02*X103500Y118500D01*
X106500Y90000D02*X103953Y87453D01*
Y81890D01*
X106500Y90000D02*Y91500D01*
X102000Y88500D02*X104500Y91000D01*
Y92500D01*
X101000Y81000D02*X102079Y79921D01*
X103953D01*
Y77953D02*X97000D01*
X101000Y81000D02*Y83000D01*
G54D12*X86500Y63000D02*Y93500D01*
X76500Y63000D02*Y111500D01*
G54D13*X103953Y70079D02*X98421D01*
X96000Y72500D01*
Y79500D01*
X101000Y83000D02*X102000Y84000D01*
Y88500D01*
X114500Y129800D02*X114000Y130300D01*
X93500Y142000D02*X128000D01*
X125500Y136500D02*X89000D01*
X92000Y157500D02*X95500Y154000D01*
X92000Y168000D02*Y162500D01*
Y152500D02*Y143500D01*
X95500Y154000D02*Y146500D01*
X92000Y143500D02*X93500Y142000D01*
X95500Y146500D02*X98000Y144000D01*
G54D16*X88000Y148000D02*Y141500D01*
X90000Y139500D01*
G54D13*X107000Y162500D02*X105000Y164500D01*
X99000D01*
X97000Y162500D01*
X107000Y148500D02*Y162500D01*
G54D17*X99000Y152500D02*X97000Y157500D01*
G54D13*X98000Y144000D02*X129000D01*
X130000Y146000D02*X109500D01*
X107000Y148500D01*
G54D16*X126500Y139500D02*X90000D01*
G54D13*X89000Y136500D02*X77000Y148500D01*
X87000Y157500D02*X84000Y160000D01*
X80000Y168500D02*X85500D01*
X87000Y167000D01*
Y162500D01*
X77000Y148500D02*Y165500D01*
X80000Y168500D01*
G54D16*Y160000D02*X84000D01*
G54D13*X129000Y144000D02*X138000Y135000D01*
X140000Y136000D02*X130000Y146000D01*
G54D16*X133500Y101000D02*Y132500D01*
G54D13*X128000Y142000D02*X136000Y134000D01*
G54D16*X133500Y132500D02*X126500Y139500D01*
G54D13*X130000Y132000D02*X125500Y136500D01*
X136000Y134000D02*Y105500D01*
X138000Y135000D02*Y106500D01*
X140000Y110500D02*Y136000D01*
X140477Y101023D02*X136000Y105500D01*
G54D14*X135000Y88457D02*Y79000D01*
G54D13*X132000Y73000D02*X127047Y77953D01*
X123047D01*
X130000Y78500D02*X134000Y74500D01*
X99800Y124500D02*X94000Y130300D01*
X98500Y122500D02*X96500Y124500D01*
X97500Y120500D02*X95500Y122500D01*
X103500Y118500D02*X96500D01*
X128000Y126300D02*X124000Y130300D01*
X114000D02*X126000Y118300D01*
X104000Y130300D02*X109300Y125000D01*
X108500Y89000D02*X106610Y87110D01*
Y84547D01*
X114484D02*Y87484D01*
X116453Y84547D02*Y86453D01*
X122000Y92000D01*
X114484Y87484D02*X120000Y93000D01*
X112516Y84547D02*Y88516D01*
X110547Y84547D02*Y89547D01*
X112516Y88516D02*X118000Y94000D01*
X110547Y89547D02*X116000Y95000D01*
X108500Y90500D02*X114000Y96000D01*
X106500Y91500D02*X112000Y97000D01*
X104500Y92500D02*X108000Y96000D01*
Y98000D01*
X108500Y89000D02*Y90500D01*
X124000Y86000D02*Y117500D01*
X122000Y92000D02*Y116500D01*
X120000Y93000D02*Y115500D01*
X118000Y94000D02*Y114500D01*
X116000Y95000D02*Y113500D01*
X118000Y114500D02*X113500Y119000D01*
X116000Y113500D02*X112500Y117000D01*
X114000Y96000D02*Y104000D01*
X112500Y105500D01*
Y108000D01*
X107500Y106500D02*Y112500D01*
X112000Y97000D02*Y101000D01*
X110500Y102500D01*
X106500Y124500D02*X99800D01*
X106500D02*X108000Y123000D01*
X105500Y122500D02*X98500D01*
X104500Y120500D02*X97500D01*
X103500Y118500D02*X102000D01*
X116500Y125000D02*X124000Y117500D01*
X115500Y123000D02*X122000Y116500D01*
X120000Y115500D02*X114500Y121000D01*
X107000D01*
X105500Y122500D01*
X109300Y125000D02*X116500D01*
X108000Y123000D02*X115500D01*
X113500Y119000D02*X106000D01*
X112500Y117000D02*X105000D01*
X50250Y22000D02*X37500D01*
X37000Y27000D02*X50250D01*
G54D16*X41000Y29500D02*X38000Y32500D01*
X41000Y29500D02*X44500D01*
G54D13*X37500Y22000D02*X21000Y38500D01*
Y60000D01*
X27000Y62000D02*Y37000D01*
X37000Y27000D01*
G54D16*X38000Y32500D02*Y46500D01*
X45500Y54000D01*
G54D13*X44000Y43700D02*X49300Y49000D01*
G54D16*X45500Y54000D02*X65000D01*
G54D13*X54000Y43700D02*X59300Y49000D01*
X66500D01*
X49300D02*X56500D01*
X58500Y51000D01*
X65500D01*
X44500Y29500D02*X57000D01*
X21000Y80000D02*Y68000D01*
X27000Y62000D01*
G54D15*X29000Y74500D02*X33000Y70500D01*
X29000Y74500D02*Y112000D01*
X33000Y70500D02*X39000D01*
X46000Y77500D01*
Y82500D01*
G54D13*X104000Y43700D02*X109300Y49000D01*
X116500D01*
X119500Y52000D01*
X125000D01*
X124000Y43700D02*X132000Y51700D01*
X99300Y49000D02*X106500D01*
X108500Y51000D01*
X113000D01*
X132000Y73000D02*Y51700D01*
X138000Y59200D02*Y56500D01*
Y59200D02*X138800Y60000D01*
X136500Y37000D02*X134000Y39500D01*
Y74500D02*Y39500D01*
X94000Y43700D02*X99300Y49000D01*
X79300D02*X86500D01*
X88500Y51000D01*
X95000D01*
X97000Y53000D02*X95000Y51000D01*
X78500D02*X85500D01*
X88000Y53500D01*
X84500Y53000D02*X87000Y55500D01*
X86000Y57500D02*X84000Y55500D01*
X86500Y62500D02*X81500Y57500D01*
X88000Y53500D02*X94500D01*
X87000Y55500D02*X93500D01*
X77000D02*X84000D01*
X81500Y57500D02*X74500D01*
X74000Y43700D02*X79300Y49000D01*
X76500D02*X78500Y51000D01*
X75500D02*X77500Y53000D01*
X64000Y43700D02*X69300Y49000D01*
X76500D01*
X66500D02*X68500Y51000D01*
X75500D01*
X65500D02*X67500Y53000D01*
X74500D01*
G54D16*X73000Y55500D02*X66500D01*
G54D13*X72000Y55000D02*X73500D01*
G54D16*X66500Y55500D02*X65000Y54000D01*
X74500Y57000D02*X73000Y55500D01*
G54D13*X76000Y57500D02*X73500Y55000D01*
X74500Y53000D02*X77000Y55500D01*
X77500Y53000D02*X84500D01*
X90000Y32000D02*X70750D01*
Y27000D02*X91500D01*
X64043Y13500D02*X95000D01*
X89848Y9575D02*X99575D01*
X102500Y12500D01*
X89848Y6425D02*X108925D01*
X95000Y13500D02*X97500Y16000D01*
X102500Y12500D02*Y17957D01*
X108925Y6425D02*X111500Y9000D01*
Y17914D01*
X83000Y4000D02*Y9423D01*
X81500Y2500D02*X83000Y4000D01*
X81500Y2500D02*X58500D01*
X57000Y4000D01*
Y8000D01*
X93500Y17000D02*X70750D01*
X104000Y43700D02*X104700D01*
X105000Y51000D02*X98500D01*
X99000D02*X98500D01*
X104000Y43700D02*Y44000D01*
X84000Y43700D02*X89300Y49000D01*
X96500D01*
X97750Y50250D01*
X98500Y51000D02*X96800Y49300D01*
G54D16*X57000Y29000D02*Y8000D01*
X70750Y22000D02*X62000D01*
G54D13*X97500Y16000D02*Y24000D01*
X93500Y17000D02*X95000Y18500D01*
Y27500D01*
X97000Y29500D01*
X91500Y27000D02*X96000Y31500D01*
Y55000D02*X94500Y53500D01*
X95000Y57000D02*X93500Y55500D01*
X94000Y59000D02*X92500Y57500D01*
X86000D01*
G54D16*X50250Y32000D02*X63500D01*
X50250Y17000D02*X57000D01*
G54D13*X118421Y65453D02*Y70079D01*
X120390Y65453D02*X122547D01*
X124000Y64000D01*
X124200Y43500D02*X124000Y43700D01*
Y64000D02*Y57500D01*
X122500Y56000D01*
X118500D01*
X118421Y65421D02*Y62079D01*
X120000Y60500D01*
X116000Y54000D02*X113000Y51000D01*
X119000Y56000D02*X115000D01*
X112000Y53000D01*
X116453Y59547D02*Y58953D01*
X115500Y58000D01*
X114000D01*
X118421Y84547D02*Y79921D01*
X108579Y84547D02*Y79921D01*
X118421Y70079D02*X108579Y79921D01*
X108453Y69953D02*X110000Y71500D01*
X116453Y65453D02*Y59453D01*
X114484Y65453D02*Y60984D01*
Y61016D02*Y60984D01*
X112516Y65453D02*Y62016D01*
X114000Y58000D02*X111000Y55000D01*
X112000Y59500D02*X109500Y57000D01*
X111000Y61500D02*X108500Y59000D01*
X114484Y60984D02*X113000Y59500D01*
X112000D01*
X112516Y62016D02*X112000Y61500D01*
X111000D01*
X110547Y65453D02*Y63647D01*
X107800Y60900D01*
X108579Y70079D02*X118421Y79921D01*
X112000Y53000D02*X107000D01*
X105000Y51000D01*
X111000Y55000D02*X106000D01*
X109500Y57000D02*X105000D01*
X106000Y55000D02*X104000Y53000D01*
X97000D01*
X103000Y55000D02*X96000D01*
X102000Y57000D02*X95000D01*
X101000Y59000D02*X94000D01*
X105000Y57000D02*X103000Y55000D01*
X108500Y59000D02*X104000D01*
X102000Y57000D01*
X107800Y60900D02*X103700D01*
X104400D02*X102900D01*
X101000Y59000D01*
X188500Y110457D02*X188543Y110500D01*
G54D14*X196543Y109000D02*Y118914D01*
G54D13*X196457Y119000D01*
X173000Y122000D02*X179500Y115500D01*
Y105000D02*Y115500D01*
X188500Y110457D02*Y103500D01*
X192000Y97874D02*X203874D01*
X205000Y99000D01*
G54D16*X183779Y94725D02*X179775D01*
X176626Y97874D02*X179775Y94725D01*
G54D13*X177000Y102500D02*X179500Y105000D01*
X188500Y103500D02*X186000Y101000D01*
X185500Y131000D02*X160500D01*
X196000D02*X202000D01*
X205000Y99000D02*Y128000D01*
X202000Y131000D01*
X130000Y78500D02*Y132000D01*
G54D16*X136626Y97874D02*X133500Y101000D01*
G54D13*X128000Y81000D02*Y126300D01*
X126000Y83000D02*Y118300D01*
X138000Y106500D02*X140500Y104000D01*
X141721Y108779D02*X140000Y110500D01*
X140500Y104000D02*X156500D01*
X153976Y108779D02*X141721D01*
G54D16*X136626Y97874D02*X172626D01*
G54D13*X140477Y101023D02*X146221D01*
X156500Y104000D02*X157126Y104626D01*
Y108779D01*
Y84626D02*X159000Y86500D01*
X163425Y82075D02*X161500Y84000D01*
X177000Y102500D02*X166000D01*
X169000Y91000D02*X159500D01*
X108579Y65453D02*X108579D01*
X106547Y68047D02*X109000Y70500D01*
X108547Y65453D02*Y70047D01*
X106610Y65453D02*Y67984D01*
X106547Y68047D01*
X116000Y54000D02*X124000D01*
X119300Y49000D02*X114000Y43700D01*
X124000Y54000D02*X126000Y56000D01*
X125000Y52000D02*X128000Y55000D01*
X130000Y54000D02*X125000Y49000D01*
X119300D01*
X126000Y65157D02*X123047Y68110D01*
Y70079D02*X125421D01*
X128000Y67500D01*
Y62000D01*
X130000Y69000D02*Y62500D01*
X126000Y56000D02*Y65157D01*
X128000Y55000D02*Y64000D01*
X130000Y54000D02*Y65000D01*
X97500Y24000D02*X98500Y25000D01*
X121000Y25086D02*X136986D01*
X137000Y25100D01*
X98500Y25000D02*X102457D01*
X102500Y25043D01*
X97000Y29500D02*X119000D01*
X111500D02*Y25000D01*
X96000Y31500D02*X116000D01*
X117000Y29500D02*X137500D01*
X148000Y33500D02*X91500D01*
X90000Y32000D01*
X142500Y28000D02*X145500D01*
X127575Y11425D02*X121000Y18000D01*
X133882Y14575D02*X130500Y17957D01*
X145152Y14575D02*X133882D01*
X145152Y11425D02*X127575D01*
X159500Y14000D02*X156925Y11425D01*
X151848D01*
X156000Y47000D02*Y33500D01*
X154000Y31500D01*
X149000Y41500D02*X149250Y41750D01*
X152500Y35000D02*X149500D01*
X148000Y33500D01*
X115000Y31500D02*X154000D01*
X141000Y29500D02*X142500Y28000D01*
X145000Y49000D02*Y43000D01*
X146500Y41500D01*
X149000D01*
X141900Y40600D02*X145500Y37000D01*
X140500D02*X136500D01*
X195750Y6000D02*X197250Y4500D01*
X177000Y6000D02*Y20500D01*
X173500D02*X169043Y16043D01*
X149500Y9000D02*X148500Y10000D01*
Y14000D01*
X149075Y14575D01*
X151848D01*
X176024Y67024D02*X156000Y47000D01*
X154000Y48000D02*X172874Y66874D01*
X152000Y49500D02*X169725Y67225D01*
X166575Y67575D02*X148500Y49500D01*
Y46500D01*
X145000Y49000D02*X149000Y53000D01*
X141900Y56500D02*Y40600D01*
X123047Y72047D02*X126953D01*
X130000Y69000D01*
X108547Y70047D02*X113500Y75000D01*
X103953Y72047D02*X101453D01*
X99500Y74000D01*
X103953Y68110D02*X106547D01*
X123047Y79921D02*X126921D01*
X128000Y81000D01*
X123047Y81890D02*X124890D01*
X126000Y83000D01*
X120390Y84547D02*X122547D01*
X124000Y86000D01*
X160276Y71221D02*Y81000D01*
G54D17*X152500Y87000D02*Y77500D01*
G54D13*X157126Y71221D02*Y84626D01*
X163425Y71221D02*Y82075D01*
G54D17*X175925Y91575D02*X175500Y92000D01*
X175724Y85276D02*X175500Y85500D01*
X146221Y88425D02*X151075D01*
X152500Y87000D01*
G54D14*X175500Y93000D02*Y83000D01*
G54D13*X171000Y80500D02*Y89000D01*
X169000Y91000D01*
X173000Y78500D02*X171000Y80500D01*
X176000Y78500D02*X173000D01*
X169725Y67225D02*Y71221D01*
X166575D02*Y67575D01*
X145800Y56500D02*Y59200D01*
X145000Y60000D01*
X138800D02*X145000D01*
X149000Y53000D02*Y61000D01*
X146000Y64000D01*
X183779Y97874D02*X193374D01*
X183000Y64500D02*Y52500D01*
X183779Y78977D02*Y69721D01*
X196500Y57000D02*X183779Y69721D01*
X180500Y67000D02*X183000Y64500D01*
X180500Y67000D02*Y74000D01*
X176000Y78500D01*
X176024Y71221D02*Y67024D01*
X172874Y66874D02*Y71221D01*
G54D17*X184400Y88400D02*X194500D01*
X183000Y85300D02*X175600D01*
X183000Y91600D02*X175500D01*
G54D13*X238921Y61453D02*Y66079D01*
X243547Y64110D02*Y61453D01*
X240890Y56610D02*Y61453D01*
X236953Y57547D02*Y61453D01*
X238921Y66079D02*X234000Y71000D01*
X229079Y66079D02*X238921Y75921D01*
X229079D02*X233950Y71050D01*
X229079Y66079D02*X234000Y71000D01*
X243547Y61453D02*X246500Y58500D01*
X246000Y51500D02*X240890Y56610D01*
X245000Y49500D02*X236953Y57547D01*
X234984Y56716D02*Y61453D01*
X238921Y80547D02*Y75921D01*
X229079Y80547D02*Y75921D01*
Y79921D02*Y82421D01*
X219000Y90000D02*Y79500D01*
X227110Y85890D02*Y80547D01*
X219000Y79500D02*X220610Y77890D01*
X224453D01*
Y73953D02*X217047D01*
G54D16*X212000Y79000D01*
G54D13*X224453Y75921D02*X219579D01*
X217000Y78500D01*
Y93000D01*
X219000Y95000D01*
X231047Y52047D02*X228000Y49000D01*
X245000Y49500D02*X252200D01*
X246000Y51500D02*X253500D01*
X255500Y49500D01*
X265000D02*X263000Y51500D01*
X257500D01*
X233016Y48684D02*X238000Y43700D01*
X252200Y49500D02*X258000Y43700D01*
X255500Y49500D02*X262200D01*
X248000Y43700D02*X234984Y56716D01*
X266000Y51500D02*X264000Y53500D01*
X267000D02*X265000Y55500D01*
X259500D01*
X264000Y53500D02*X258500D01*
X222500Y93500D02*X219000Y90000D01*
X226000Y102000D02*Y87000D01*
X227110Y85890D01*
X219000Y95000D02*Y103000D01*
X214500Y107500D02*X219000Y103000D01*
X222500Y93500D02*Y115500D01*
X246500Y77000D02*Y116500D01*
X243547Y77890D02*Y116547D01*
X247500Y120500D01*
X233016Y80547D02*Y125316D01*
X234984Y80547D02*Y117284D01*
X236953Y80547D02*Y115953D01*
X240890Y80547D02*Y116890D01*
X246500Y122500D01*
X231047Y119453D02*X228000Y122500D01*
X231047Y80547D02*Y119453D01*
X257500Y99000D02*Y62500D01*
X261000Y59000D02*Y102500D01*
X264500Y99000D02*Y62500D01*
X259500Y55500D02*X254000Y61000D01*
Y71000D01*
X258500Y53500D02*X252000Y60000D01*
Y65000D01*
X257500Y51500D02*X250000Y59000D01*
Y63500D01*
X252000Y65000D02*X248953Y68047D01*
X254000Y71000D02*X251047Y73953D01*
X250000Y63500D02*X247421Y66079D01*
X243547D01*
X248953Y68047D02*X243547D01*
X246500Y77000D02*X245421Y75921D01*
X243547D01*
X251047Y73953D02*X243547D01*
X262200Y49500D02*X268000Y43700D01*
X282200Y49500D02*X265000D01*
X285000D02*X283000Y51500D01*
X286000D02*X284000Y53500D01*
X283000Y51500D02*X266000D01*
X284000Y53500D02*X267000D01*
G54D18*X273000Y57000D02*X280512D01*
G54D13*X268000Y59000D02*Y102500D01*
X288000Y43700D02*X282200Y49500D01*
X298000Y43700D02*X292200Y49500D01*
X285000D01*
X308000Y43700D02*X302200Y49500D01*
X295000D01*
X312500D02*X314000Y48000D01*
X295000Y49500D02*X293000Y51500D01*
X295276Y57701D02*Y52724D01*
X296500Y51500D01*
X293000D02*X286000D01*
X296500D02*X303500D01*
X305500Y49500D01*
X312500D01*
X306500Y51500D02*X313500D01*
X316000Y49000D01*
X305118Y57701D02*Y52882D01*
X306500Y51500D01*
X310039Y57701D02*Y54461D01*
X311000Y53500D01*
X314500D01*
X318000Y50000D01*
G54D18*X334646Y57701D02*Y52000D01*
G54D13*X314000Y48000D02*Y39500D01*
X312500Y38000D01*
X316000Y49000D02*Y38500D01*
X313500Y36000D01*
X318000Y50000D02*Y37500D01*
X314500Y34000D01*
G54D18*X280512Y109299D02*Y114500D01*
X290354Y109299D02*Y114500D01*
G54D13*X295276Y109299D02*Y114500D01*
X305118Y109299D02*Y115000D01*
X319882Y109299D02*Y113118D01*
X319000Y114000D01*
X314000D01*
X313000Y115000D01*
X310000D01*
X324803Y109299D02*Y115697D01*
G54D18*X329724Y109299D02*Y115000D01*
X334646Y109299D02*Y120000D01*
Y114500D02*Y116854D01*
G54D13*X324803Y115697D02*X322000Y118500D01*
X314000D01*
X248500D02*X296200D01*
X314500Y34000D02*X224000D01*
X313500Y36000D02*X225000D01*
X312500Y38000D02*X226000D01*
X227110Y64110D02*X231000Y68000D01*
X224453Y68047D02*X219590D01*
X215043Y63500D01*
X229079Y61453D02*Y66079D01*
X224453D02*X229079D01*
X228953Y61453D02*X229079Y61579D01*
X227110Y61453D02*Y64110D01*
X224453D02*X227110D01*
X231047Y61453D02*Y52047D01*
X233016Y61453D02*Y48684D01*
X228000Y49000D02*Y43700D01*
X224000Y34000D02*X220000Y38000D01*
X225000Y36000D02*X219500Y41500D01*
X221000Y30500D02*Y25500D01*
X219500Y24000D01*
X217500Y34000D02*X210500D01*
X221000Y30500D02*X211000D01*
X201000Y40500D01*
X210500Y34000D02*X202000Y42500D01*
X226000Y38000D02*X207000Y57000D01*
X220000Y38000D02*X211500D01*
X219500Y41500D02*X206000D01*
X207000Y57000D02*X196500D01*
X206000Y41500D02*X203000Y44500D01*
X214000Y45000D02*X205500D01*
X204000Y46500D01*
X240500Y20500D02*X214500D01*
X197250Y4500D02*X209000D01*
X210500Y6000D01*
X267500Y34000D02*Y16500D01*
X266075Y15075D01*
X260348D01*
X257000Y6000D02*Y24500D01*
X254000Y27500D01*
X260348Y11925D02*X257000D01*
X253652Y15075D02*X248000D01*
X240500Y20500D02*X242500Y18500D01*
X254000Y27500D02*X237043D01*
X242500Y18500D02*Y13000D01*
X243575Y11925D01*
X253652D01*
X260348Y8776D02*X267000D01*
X258500Y4500D02*X257000Y6000D01*
X253652Y8776D02*X257000D01*
X258500Y4500D02*X284224D01*
X284000D02*X291500D01*
X332500Y45500D01*
G54D18*X344488Y57701D02*Y53488D01*
X343000Y52000D01*
X323500D01*
G54D12*X258000Y130300D02*X268000D01*
G54D13*X228000Y122500D02*Y130300D01*
X233016Y125316D02*X238000Y130300D01*
X234984Y117284D02*X248000Y130300D01*
X236953Y115953D02*X245500Y124500D01*
X214500Y107500D02*Y112500D01*
X215075Y113075D01*
X217848D01*
Y109925D02*X222500D01*
Y115500D02*X220000Y118000D01*
X245500Y124500D02*X272200D01*
X246500Y122500D02*X280200D01*
X247500Y120500D02*X288200D01*
X272200Y124500D02*X278000Y130300D01*
X280200Y122500D02*X288000Y130300D01*
X288200Y120500D02*X298000Y130300D01*
X296200Y118500D02*X308000Y130300D01*
X248500Y118500D02*X246500Y116500D01*
X188500Y110000D02*Y128000D01*
X185500Y131000D01*
G54D17*X184500Y94800D02*X206900D01*
G54D13*X158283Y139000D02*Y133217D01*
X160500Y131000D01*
X193717Y139000D02*Y133283D01*
X196000Y131000D01*
X218594Y150906D02*Y155000D01*
G54D16*X226469D02*Y161000D01*
G54D13*X222531Y155000D02*Y150969D01*
X220000Y118000D02*Y149500D01*
X218000Y142500D02*Y113075D01*
X220000Y149500D02*X218594Y150906D01*
X222531Y150969D02*X223500Y150000D01*
Y147000D01*
G54D16*X230406Y155000D02*Y145406D01*
X226000Y141000D01*
G54D13*X216500Y147000D02*Y144000D01*
X218000Y142500D01*
X197000Y23000D02*X199500D01*
X197000Y18000D02*X199500D01*
X200500Y17000D01*
X229957Y27500D02*X221000D01*
X199500Y23000D02*X200500Y24000D01*
X195750Y37000D02*Y26750D01*
X192000Y23000D01*
X195750Y6000D02*Y14250D01*
X192000Y18000D01*
X200500Y24000D02*X219500D01*
X200500Y17000D02*X211000D01*
X214500Y20500D02*X211000Y17000D01*
X210500Y13500D02*Y6000D01*
Y13500D02*X219414D01*
X187000Y18000D02*X185500Y16500D01*
X187000Y23000D02*X184500Y20500D01*
X185500Y16500D02*Y15000D01*
X180500Y10000D01*
X204000Y46500D02*X165000D01*
X203000Y44500D02*X167000D01*
X202000Y42500D02*X170000D01*
X201000Y40500D02*X171500D01*
X195750Y37000D02*X171000D01*
X184500Y20500D02*X173500D01*
X165000Y46500D02*X163500Y45000D01*
X167000Y44500D02*X163000Y40500D01*
X163500Y45000D02*X159500D01*
X154000Y48000D02*Y43500D01*
X152500Y42000D01*
X152000Y49500D02*Y44500D01*
X149000Y41500D01*
X170000Y42500D02*X155500Y28000D01*
Y24500D02*X171500Y40500D01*
X171000Y37000D02*X155000Y21000D01*
X152500Y42000D02*Y35000D01*
X136500Y29500D02*X141000D01*
X155500Y28000D02*X152500D01*
X149000Y24500D02*X155500D01*
X173500Y20500D02*X166500Y27500D01*
X159500Y14000D02*Y20500D01*
X163000Y24000D02*Y14000D01*
X158000Y9000D01*
X149500D01*
G54D19*X17000Y17000D03*
G54D12*X21000Y60000D03*
G54D11*G36*
X120000Y47700D02*Y39700D01*
X128000D01*
Y47700D01*
X120000D01*
G37*
G54D12*X114000Y43700D03*
X104000D03*
X94000D03*
X84000D03*
X74000D03*
X64000D03*
X54000D03*
X44000D03*
G54D20*X86500Y63000D03*
X76500D03*
G54D11*G36*
X62563Y66937D02*Y59063D01*
X70437D01*
Y66937D01*
X62563D01*
G37*
G54D19*X333000Y17000D03*
G54D11*G36*
X304000Y47700D02*Y39700D01*
X312000D01*
Y47700D01*
X304000D01*
G37*
G54D12*X298000Y43700D03*
X288000D03*
X278000D03*
X268000D03*
G54D11*G36*
X169750Y55750D02*Y49250D01*
X176250D01*
Y55750D01*
X169750D01*
G37*
G54D21*X183000Y52500D03*
G54D12*X258000Y43700D03*
X248000D03*
X238000D03*
X228000D03*
G54D11*G36*
X169750Y125250D02*Y118750D01*
X176250D01*
Y125250D01*
X169750D01*
G37*
G54D21*X183000Y122000D03*
G54D19*X333000Y158000D03*
G54D12*X308000Y130300D03*
X298000D03*
X288000D03*
X278000D03*
X268000D03*
X258000D03*
X248000D03*
X238000D03*
X228000D03*
X124000D03*
X114000D03*
X104000D03*
X94000D03*
X84000D03*
X74000D03*
X64000D03*
X54000D03*
X44000D03*
G54D22*X46000Y102500D03*
X36000Y97500D03*
X46000Y92500D03*
Y82500D03*
X36000Y87500D03*
Y77500D03*
G54D19*X17000Y158000D03*
G54D12*X21000Y80000D03*
Y120000D03*
Y100000D03*
G54D23*X11000Y110000D03*
Y70000D03*
G54D24*X334646Y110500D02*Y108098D01*
X329724Y110500D02*Y108098D01*
X324803Y110500D02*Y108098D01*
X319882Y110500D02*Y108098D01*
X314961Y110500D02*Y108098D01*
X310039Y110500D02*Y108098D01*
X305118Y110500D02*Y108098D01*
G54D25*X324543Y124893D02*Y124107D01*
X317457Y124893D02*Y124107D01*
X324543Y134893D02*Y134107D01*
X317457Y134893D02*Y134107D01*
G54D24*X300197Y110500D02*Y108098D01*
X295276Y110500D02*Y108098D01*
X290354Y110500D02*Y108098D01*
X285433Y110500D02*Y108098D01*
X280512Y110500D02*Y108098D01*
X273252Y100724D02*X275650D01*
X273252Y95803D02*X275650D01*
X273252Y90882D02*X275650D01*
X273252Y85961D02*X275650D01*
X273252Y81039D02*X275650D01*
X273252Y76118D02*X275650D01*
X273252Y71197D02*X275650D01*
X273252Y66276D02*X275650D01*
X280512Y58902D02*Y56500D01*
X285433Y58902D02*Y56500D01*
X290354Y58902D02*Y56500D01*
X295276Y58902D02*Y56500D01*
X300197Y58902D02*Y56500D01*
X305118Y58902D02*Y56500D01*
X310039Y58902D02*Y56500D01*
X314961Y58902D02*Y56500D01*
X319882Y58902D02*Y56500D01*
X324803Y58902D02*Y56500D01*
X329724Y58902D02*Y56500D01*
X334646Y58902D02*Y56500D01*
X339567Y58902D02*Y56500D01*
X344488Y58902D02*Y56500D01*
G54D25*X189457Y109393D02*Y108607D01*
X196543Y109393D02*Y108607D01*
X203543Y119393D02*Y118607D01*
X196457Y119393D02*Y118607D01*
G54D26*X216913Y109925D02*X218783D01*
X210217D02*X212087D01*
X216913Y113075D02*X218783D01*
X210217D02*X212087D01*
G54D27*X230406Y156870D02*Y153130D01*
X226469Y156870D02*Y153130D01*
X222531Y156870D02*Y153130D01*
X218594Y156870D02*Y153130D01*
G54D28*X185843Y139000D02*X201591D01*
G54D25*X207107Y78543D02*X207893D01*
X207107Y71457D02*X207893D01*
X207957Y63893D02*Y63107D01*
X215043Y63893D02*Y63107D01*
G54D29*X213476Y171437D02*Y169075D01*
G54D30*X242720Y66079D02*X244374D01*
X242720Y68047D02*X244374D01*
X242720Y70016D02*X244374D01*
X242720Y71984D02*X244374D01*
X242720Y73953D02*X244374D01*
X242720Y75921D02*X244374D01*
X242720Y77890D02*X244374D01*
X240890Y81374D02*Y79720D01*
G54D29*X235524Y171437D02*Y169075D01*
G54D25*X56957Y8393D02*Y7607D01*
X64043Y8393D02*Y7607D01*
G54D31*X67500Y17000D02*X74000D01*
X67500Y22000D02*X74000D01*
X67500Y27000D02*X74000D01*
X67500Y32000D02*X74000D01*
X47000D02*X53500D01*
X47000Y27000D02*X53500D01*
X47000Y22000D02*X53500D01*
X47000Y17000D02*X53500D01*
G54D26*X88913Y6425D02*X90783D01*
X88913Y9575D02*X90783D01*
X82217D02*X84087D01*
X82217Y6425D02*X84087D01*
G54D25*X130107Y25043D02*X130893D01*
X130107Y17957D02*X130893D01*
X111107Y25000D02*X111893D01*
X111107Y17914D02*X111893D01*
X102107Y25043D02*X102893D01*
X102107Y17957D02*X102893D01*
X120607Y25086D02*X121393D01*
X120607Y18000D02*X121393D01*
G54D30*X106610Y66280D02*Y64626D01*
X108579Y66280D02*Y64626D01*
X110547Y66280D02*Y64626D01*
X112516Y66280D02*Y64626D01*
X114484Y66280D02*Y64626D01*
X116453Y66280D02*Y64626D01*
X118421Y66280D02*Y64626D01*
X120390Y66280D02*Y64626D01*
X122220Y68110D02*X123874D01*
X103126D02*X104780D01*
G54D32*X138000Y57300D02*Y55700D01*
X141900Y57300D02*Y55700D01*
X145800Y57300D02*Y55700D01*
G54D30*X122220Y70079D02*X123874D01*
X122220Y72047D02*X123874D01*
X122220Y74016D02*X123874D01*
X122220Y75984D02*X123874D01*
X122220Y77953D02*X123874D01*
X122220Y79921D02*X123874D01*
X122220Y81890D02*X123874D01*
X120390Y85374D02*Y83720D01*
X118421Y85374D02*Y83720D01*
X116453Y85374D02*Y83720D01*
X114484Y85374D02*Y83720D01*
X112516Y85374D02*Y83720D01*
G54D11*G36*
X109563Y78937D02*Y71063D01*
X117437D01*
Y78937D01*
X109563D01*
G37*
G36*
X107397Y81102D02*Y68898D01*
X119603D01*
Y81102D01*
X107397D01*
G37*
G54D30*X110547Y85374D02*Y83720D01*
X108579Y85374D02*Y83720D01*
X106610Y85374D02*Y83720D01*
X103126Y81890D02*X104780D01*
X103126Y79921D02*X104780D01*
X103126Y77953D02*X104780D01*
X103126Y75984D02*X104780D01*
X103126Y74016D02*X104780D01*
X103126Y72047D02*X104780D01*
X103126Y70079D02*X104780D01*
G54D33*X97000Y162500D03*
Y157500D03*
X92000Y162500D03*
Y157500D03*
X87000Y162500D03*
Y157500D03*
G54D25*X161107Y164043D02*X161893D01*
G54D34*X140674Y163500D02*X152484D01*
G54D35*X137050D02*X138940D01*
G54D11*G36*
X142245Y160195D02*X145085Y163035D01*
X146505Y161615D01*
X143665Y158775D01*
X142245Y160195D01*
G37*
G36*
X143665Y168225D02*X146505Y165385D01*
X145085Y163965D01*
X142245Y166805D01*
X143665Y168225D01*
G37*
G54D36*X33000Y137000D02*Y135000D01*
G54D28*X150409Y139000D02*X166157D01*
G54D25*X140957Y148893D02*Y148107D01*
X148043Y148893D02*Y148107D01*
G54D34*X148390Y157594D02*X152484D01*
G54D25*X161107Y156957D02*X161893D01*
G54D34*X148390Y169406D02*X152484D01*
G54D36*X20000Y137000D02*Y135000D01*
G54D37*X57008Y104500D02*X63307D01*
X76693D02*X82992D01*
G54D25*X91607Y96957D02*X92393D01*
X91607Y104043D02*X92393D01*
X99957Y112893D02*Y112107D01*
X107043Y112893D02*Y112107D01*
X101107Y96957D02*X101893D01*
X101107Y104043D02*X101893D01*
G54D38*X166575Y110992D02*Y106566D01*
X163425Y110992D02*Y106566D01*
X160275Y110992D02*Y106566D01*
X157126Y110992D02*Y106566D01*
X153976Y110992D02*Y106566D01*
X144008Y101023D02*X148434D01*
X144008Y97874D02*X148434D01*
X144008Y94724D02*X148434D01*
G54D25*X134107Y95543D02*X134893D01*
G54D38*X144008Y91575D02*X148434D01*
G54D25*X134107Y88457D02*X134893D01*
G54D38*X144008Y88425D02*X148434D01*
X144008Y85275D02*X148434D01*
X144008Y82126D02*X148434D01*
X144008Y78976D02*X148434D01*
G54D32*X145800Y65500D02*Y63900D01*
X138000Y65500D02*Y63900D01*
G54D38*X153977Y73434D02*Y69008D01*
X157126Y73434D02*Y69008D01*
X160276Y73434D02*Y69008D01*
X163425Y73434D02*Y69008D01*
X166575Y73434D02*Y69008D01*
G54D25*X226543Y13893D02*Y13107D01*
X219457Y13893D02*Y13107D01*
G54D26*X252717Y18224D02*X254587D01*
X259413D02*X261283D01*
X252717Y15075D02*X254587D01*
X259413D02*X261283D01*
X252717Y11925D02*X254587D01*
X252717Y8776D02*X254587D01*
X259413D02*X261283D01*
X259413Y11925D02*X261283D01*
G54D25*X229957Y27893D02*Y27107D01*
X237043Y27893D02*Y27107D01*
G54D33*X197000Y23000D03*
Y18000D03*
X192000Y23000D03*
Y18000D03*
X187000Y23000D03*
Y18000D03*
G54D25*X168107Y16043D02*X168893D01*
X168107Y8957D02*X168893D01*
G54D26*X144217Y14575D02*X146087D01*
X144217Y11425D02*X146087D01*
X150913D02*X152783D01*
X150913Y14575D02*X152783D01*
G54D30*X227110Y62280D02*Y60626D01*
X229079Y62280D02*Y60626D01*
X231047Y62280D02*Y60626D01*
X233016Y62280D02*Y60626D01*
X234984Y62280D02*Y60626D01*
X236953Y62280D02*Y60626D01*
X238921Y62280D02*Y60626D01*
X240890Y62280D02*Y60626D01*
X242720Y64110D02*X244374D01*
X223626D02*X225280D01*
X238921Y81374D02*Y79720D01*
X236953Y81374D02*Y79720D01*
X234984Y81374D02*Y79720D01*
X233016Y81374D02*Y79720D01*
G54D11*G36*
X230063Y74937D02*Y67063D01*
X237937D01*
Y74937D01*
X230063D01*
G37*
G36*
X227898Y77102D02*Y64898D01*
X240102D01*
Y77102D01*
X227898D01*
G37*
G54D30*X231047Y81374D02*Y79720D01*
X229079Y81374D02*Y79720D01*
X227110Y81374D02*Y79720D01*
X223626Y77890D02*X225280D01*
X223626Y75921D02*X225280D01*
X223626Y73953D02*X225280D01*
X223626Y71984D02*X225280D01*
X223626Y70016D02*X225280D01*
X223626Y68047D02*X225280D01*
X223626Y66079D02*X225280D01*
G54D38*X181566Y78977D02*X185992D01*
X181566Y82126D02*X185992D01*
X181566Y85276D02*X185992D01*
X181566Y88425D02*X185992D01*
X169725Y73434D02*Y69008D01*
X172874Y73434D02*Y69008D01*
X176024Y73434D02*Y69008D01*
X181566Y91575D02*X185992D01*
X181566Y94725D02*X185992D01*
X181566Y97874D02*X185992D01*
X181566Y101024D02*X185992D01*
X176023Y110992D02*Y106566D01*
X172874Y110992D02*Y106566D01*
X169724Y110992D02*Y106566D01*
G54D14*X201500Y71500D03*
Y66500D03*
Y61500D03*
X195750Y37000D03*
X231000Y68000D03*
X237000D03*
X246500Y58500D03*
X221000Y30500D03*
X214000Y45000D03*
X217500Y34000D03*
X211500Y38000D03*
X280512Y114500D03*
X290354D03*
X295276D03*
X305118Y115000D03*
X310000D03*
X268000Y102500D03*
X264500Y99000D03*
X261000Y102500D03*
X257500Y99000D03*
X273000Y57000D03*
X257500Y62500D03*
X261000Y59000D03*
X264500Y62500D03*
X268000Y59000D03*
G54D39*X332500Y45500D03*
G54D14*X328000Y52000D03*
X323500D03*
X231000Y74000D03*
X237000D03*
X216500Y147000D03*
X223500D03*
X222500Y98500D03*
X226000Y102000D03*
X219000Y95000D03*
X226500Y114500D03*
X196500Y114000D03*
X226500Y110000D03*
X314000Y118500D03*
G54D39*X315500Y129500D03*
X319000D03*
G54D14*X329724Y115000D03*
G54D39*X334646Y120000D03*
Y116854D03*
G54D14*X292000Y149500D03*
X297000D03*
X302000D03*
X307000D03*
X312000D03*
Y159500D03*
Y164500D03*
Y169500D03*
X292000Y164500D03*
Y169500D03*
X297000Y164500D03*
Y169500D03*
X302000Y164500D03*
Y169500D03*
X307000Y164500D03*
Y169500D03*
X217500Y20500D03*
X210500Y13500D03*
X232000Y11000D03*
Y16000D03*
X267000Y8776D03*
G54D39*X248000Y15075D03*
G54D14*X180500Y10000D03*
X177000Y6000D03*
G54D39*X170500Y4500D03*
X166500D03*
G54D14*X92000Y168000D03*
Y152500D03*
X99000D03*
X130500Y157000D03*
X135000Y154000D03*
Y148000D03*
X125500Y157000D03*
Y151000D03*
X155500Y152000D03*
Y147000D03*
X160500D03*
Y152000D03*
X88000Y148000D03*
G54D39*X84000Y160000D03*
X80000D03*
G54D14*X193000Y170000D03*
Y165000D03*
Y160000D03*
Y155000D03*
X198000Y170000D03*
X203000D03*
X198000Y165000D03*
X203000D03*
X198000Y160000D03*
X203000D03*
X198000Y155000D03*
X203000D03*
X130500Y151000D03*
X135000Y83500D03*
Y79000D03*
X112500Y108000D03*
X110500Y102500D03*
X108000Y98000D03*
X110500Y72000D03*
Y78000D03*
X99500Y74000D03*
X96500Y84000D03*
X86000Y96500D03*
X94500Y115000D03*
Y110500D03*
X107500Y106500D03*
X86000Y91500D03*
Y86500D03*
Y81500D03*
Y76500D03*
X76500D03*
Y81500D03*
Y86500D03*
Y91500D03*
Y96500D03*
X78500Y115000D03*
Y110500D03*
X175500Y83000D03*
Y93000D03*
Y88000D03*
G54D39*X166000Y102500D03*
X160276Y81000D03*
X161500Y84000D03*
X159000Y86500D03*
X159500Y91000D03*
X152500Y81000D03*
Y77500D03*
X140000Y93000D03*
Y96500D03*
G54D14*X120000Y60500D03*
X116500Y78000D03*
Y72000D03*
X163000Y40500D03*
X166500Y27500D03*
X163000Y24000D03*
X159500Y20500D03*
X154500Y21000D03*
X159500Y45000D03*
X156000Y40500D03*
X137000Y25100D03*
X152500Y28000D03*
X149000Y24500D03*
X145500Y28000D03*
X152500Y35000D03*
X149000Y41500D03*
X148500Y46500D03*
X145500Y37000D03*
X140500D03*
X138000Y51000D03*
Y46500D03*
X62000Y29500D03*
Y24500D03*
Y19500D03*
G54D16*G54D40*G54D16*G54D40*G54D16*G54D40*G54D16*G54D40*G54D16*G54D40*G54D16*G54D40*G54D16*G54D40*G54D16*G54D41*G54D42*G54D43*G54D41*G54D42*G54D44*G54D45*G54D46*G54D42*G54D44*G54D41*G54D42*G54D46*G54D42*G54D46*G54D42*G54D46*G54D42*G54D18*G54D41*G54D42*G54D47*M02*
