G04 start of page 7 for group -4063 idx -4063 *
G04 Title: (unknown), componentmask *
G04 Creator: pcb 20140316 *
G04 CreationDate: Wed 29 Apr 2020 12:19:48 AM GMT UTC *
G04 For: railfan *
G04 Format: Gerber/RS-274X *
G04 PCB-Dimensions (mil): 3500.00 1750.00 *
G04 PCB-Coordinate-Origin: lower left *
%MOIN*%
%FSLAX25Y25*%
%LNTOPMASK*%
%ADD105R,0.0217X0.0217*%
%ADD104R,0.0690X0.0690*%
%ADD103R,0.0610X0.0610*%
%ADD102R,0.1005X0.1005*%
%ADD101R,0.0438X0.0438*%
%ADD100C,0.0370*%
%ADD99R,0.0300X0.0300*%
%ADD98R,0.0151X0.0151*%
%ADD97R,0.0532X0.0532*%
%ADD96R,0.0847X0.0847*%
%ADD95R,0.0296X0.0296*%
%ADD94R,0.0227X0.0227*%
%ADD93R,0.0572X0.0572*%
%ADD92R,0.0390X0.0390*%
%ADD91C,0.1500*%
%ADD90C,0.0750*%
%ADD89C,0.0490*%
%ADD88C,0.1025*%
%ADD87C,0.1035*%
%ADD86C,0.0710*%
%ADD85C,0.0900*%
%ADD84C,0.0001*%
%ADD83C,0.0860*%
%ADD82C,0.2997*%
G54D82*X17000Y17000D03*
G54D83*X21000Y60000D03*
G54D84*G36*
X119700Y48000D02*Y39400D01*
X128300D01*
Y48000D01*
X119700D01*
G37*
G54D83*X114000Y43700D03*
X104000D03*
X94000D03*
X84000D03*
X74000D03*
X64000D03*
X54000D03*
X44000D03*
G54D85*X86500Y63000D03*
X76500D03*
G54D84*G36*
X62000Y67500D02*Y58500D01*
X71000D01*
Y67500D01*
X62000D01*
G37*
G54D82*X333000Y17000D03*
G54D84*G36*
X303700Y48000D02*Y39400D01*
X312300D01*
Y48000D01*
X303700D01*
G37*
G54D83*X298000Y43700D03*
X288000D03*
X278000D03*
X268000D03*
G54D84*G36*
X169450Y56050D02*Y48950D01*
X176550D01*
Y56050D01*
X169450D01*
G37*
G54D86*X183000Y52500D03*
G54D87*X202000Y10500D03*
X189500D03*
G54D88*Y30500D03*
G54D87*X202000D03*
G54D89*Y20500D03*
X182000Y16500D03*
Y24500D03*
G54D83*X258000Y43700D03*
X248000D03*
X238000D03*
X228000D03*
G54D84*G36*
X169450Y125550D02*Y118450D01*
X176550D01*
Y125550D01*
X169450D01*
G37*
G54D86*X183000Y122000D03*
G54D82*X333000Y158000D03*
G54D83*X308000Y130300D03*
X298000D03*
X288000D03*
X278000D03*
X268000D03*
X258000D03*
X248000D03*
X238000D03*
X228000D03*
G54D89*X102000Y160000D03*
G54D83*X124000Y130300D03*
X114000D03*
X104000D03*
X94000D03*
G54D89*X82000Y156000D03*
G54D83*X84000Y130300D03*
X74000D03*
G54D89*X82000Y164000D03*
G54D83*X64000Y130300D03*
X54000D03*
X44000D03*
G54D90*X46000Y102500D03*
X36000Y97500D03*
X46000Y92500D03*
Y82500D03*
X36000Y87500D03*
Y77500D03*
G54D82*X17000Y158000D03*
G54D83*X21000Y80000D03*
Y120000D03*
Y100000D03*
G54D91*X11000Y110000D03*
Y70000D03*
G54D92*X334646Y110500D02*Y108098D01*
X329724Y110500D02*Y108098D01*
X324803Y110500D02*Y108098D01*
X319882Y110500D02*Y108098D01*
X314961Y110500D02*Y108098D01*
X310039Y110500D02*Y108098D01*
X305118Y110500D02*Y108098D01*
G54D93*X324543Y124893D02*Y124107D01*
X317457Y124893D02*Y124107D01*
X324543Y134893D02*Y134107D01*
X317457Y134893D02*Y134107D01*
G54D92*X300197Y110500D02*Y108098D01*
X295276Y110500D02*Y108098D01*
X290354Y110500D02*Y108098D01*
X285433Y110500D02*Y108098D01*
X280512Y110500D02*Y108098D01*
X273252Y100724D02*X275650D01*
X273252Y95803D02*X275650D01*
X273252Y90882D02*X275650D01*
X273252Y85961D02*X275650D01*
X273252Y81039D02*X275650D01*
X273252Y76118D02*X275650D01*
X273252Y71197D02*X275650D01*
X273252Y66276D02*X275650D01*
X280512Y58902D02*Y56500D01*
X285433Y58902D02*Y56500D01*
X290354Y58902D02*Y56500D01*
X295276Y58902D02*Y56500D01*
X300197Y58902D02*Y56500D01*
X305118Y58902D02*Y56500D01*
X310039Y58902D02*Y56500D01*
X314961Y58902D02*Y56500D01*
X319882Y58902D02*Y56500D01*
X324803Y58902D02*Y56500D01*
X329724Y58902D02*Y56500D01*
X334646Y58902D02*Y56500D01*
X339567Y58902D02*Y56500D01*
X344488Y58902D02*Y56500D01*
G54D93*X189457Y109393D02*Y108607D01*
X196543Y109393D02*Y108607D01*
X203543Y119393D02*Y118607D01*
X196457Y119393D02*Y118607D01*
G54D94*X216913Y109925D02*X218783D01*
X210217D02*X212087D01*
X216913Y113075D02*X218783D01*
X210217D02*X212087D01*
G54D95*X230406Y156870D02*Y153130D01*
X226469Y156870D02*Y153130D01*
X222531Y156870D02*Y153130D01*
X218594Y156870D02*Y153130D01*
G54D96*X185843Y139000D02*X201591D01*
G54D93*X207107Y78543D02*X207893D01*
X207107Y71457D02*X207893D01*
X207957Y63893D02*Y63107D01*
X215043Y63893D02*Y63107D01*
G54D97*X213476Y171437D02*Y169075D01*
G54D98*X242720Y66079D02*X244374D01*
X242720Y68047D02*X244374D01*
X242720Y70016D02*X244374D01*
X242720Y71984D02*X244374D01*
X242720Y73953D02*X244374D01*
X242720Y75921D02*X244374D01*
X242720Y77890D02*X244374D01*
X240890Y81374D02*Y79720D01*
G54D97*X235524Y171437D02*Y169075D01*
G54D93*X56957Y8393D02*Y7607D01*
X64043Y8393D02*Y7607D01*
G54D99*X67500Y17000D02*X74000D01*
X67500Y22000D02*X74000D01*
X67500Y27000D02*X74000D01*
X67500Y32000D02*X74000D01*
X47000D02*X53500D01*
X47000Y27000D02*X53500D01*
X47000Y22000D02*X53500D01*
X47000Y17000D02*X53500D01*
G54D94*X88913Y6425D02*X90783D01*
X88913Y9575D02*X90783D01*
X82217D02*X84087D01*
X82217Y6425D02*X84087D01*
G54D93*X130107Y25043D02*X130893D01*
X130107Y17957D02*X130893D01*
X111107Y25000D02*X111893D01*
X111107Y17914D02*X111893D01*
X102107Y25043D02*X102893D01*
X102107Y17957D02*X102893D01*
X120607Y25086D02*X121393D01*
X120607Y18000D02*X121393D01*
G54D98*X106610Y66280D02*Y64626D01*
X108579Y66280D02*Y64626D01*
X110547Y66280D02*Y64626D01*
X112516Y66280D02*Y64626D01*
X114484Y66280D02*Y64626D01*
X116453Y66280D02*Y64626D01*
X118421Y66280D02*Y64626D01*
X120390Y66280D02*Y64626D01*
X122220Y68110D02*X123874D01*
X103126D02*X104780D01*
G54D99*X138000Y57300D02*Y55700D01*
X141900Y57300D02*Y55700D01*
X145800Y57300D02*Y55700D01*
G54D98*X122220Y70079D02*X123874D01*
X122220Y72047D02*X123874D01*
X122220Y74016D02*X123874D01*
X122220Y75984D02*X123874D01*
X122220Y77953D02*X123874D01*
X122220Y79921D02*X123874D01*
X122220Y81890D02*X123874D01*
X120390Y85374D02*Y83720D01*
X118421Y85374D02*Y83720D01*
X116453Y85374D02*Y83720D01*
X114484Y85374D02*Y83720D01*
X112516Y85374D02*Y83720D01*
G54D84*G36*
X109263Y79237D02*Y70763D01*
X117737D01*
Y79237D01*
X109263D01*
G37*
G36*
X107097Y81402D02*Y68598D01*
X119903D01*
Y81402D01*
X107097D01*
G37*
G54D98*X110547Y85374D02*Y83720D01*
X108579Y85374D02*Y83720D01*
X106610Y85374D02*Y83720D01*
X103126Y81890D02*X104780D01*
X103126Y79921D02*X104780D01*
X103126Y77953D02*X104780D01*
X103126Y75984D02*X104780D01*
X103126Y74016D02*X104780D01*
X103126Y72047D02*X104780D01*
X103126Y70079D02*X104780D01*
G54D100*X97000Y162500D03*
Y157500D03*
X92000Y162500D03*
Y157500D03*
X87000Y162500D03*
Y157500D03*
G54D93*X161107Y164043D02*X161893D01*
G54D101*X140674Y163500D02*X152484D01*
G54D102*X137050D02*X138940D01*
G54D84*G36*
X141821Y160195D02*X145085Y163459D01*
X146929Y161615D01*
X143665Y158351D01*
X141821Y160195D01*
G37*
G36*
X143665Y168649D02*X146929Y165385D01*
X145085Y163541D01*
X141821Y166805D01*
X143665Y168649D01*
G37*
G54D103*X33000Y137000D02*Y135000D01*
G54D96*X150409Y139000D02*X166157D01*
G54D93*X140957Y148893D02*Y148107D01*
X148043Y148893D02*Y148107D01*
G54D101*X148390Y157594D02*X152484D01*
G54D93*X161107Y156957D02*X161893D01*
G54D101*X148390Y169406D02*X152484D01*
G54D103*X20000Y137000D02*Y135000D01*
G54D104*X57008Y104500D02*X63307D01*
X76693D02*X82992D01*
G54D93*X91607Y96957D02*X92393D01*
X91607Y104043D02*X92393D01*
X99957Y112893D02*Y112107D01*
X107043Y112893D02*Y112107D01*
X101107Y96957D02*X101893D01*
X101107Y104043D02*X101893D01*
G54D105*X166575Y110992D02*Y106566D01*
X163425Y110992D02*Y106566D01*
X160275Y110992D02*Y106566D01*
X157126Y110992D02*Y106566D01*
X153976Y110992D02*Y106566D01*
X144008Y101023D02*X148434D01*
X144008Y97874D02*X148434D01*
X144008Y94724D02*X148434D01*
G54D93*X134107Y95543D02*X134893D01*
G54D105*X144008Y91575D02*X148434D01*
G54D93*X134107Y88457D02*X134893D01*
G54D105*X144008Y88425D02*X148434D01*
X144008Y85275D02*X148434D01*
X144008Y82126D02*X148434D01*
X144008Y78976D02*X148434D01*
G54D99*X145800Y65500D02*Y63900D01*
X138000Y65500D02*Y63900D01*
G54D105*X153977Y73434D02*Y69008D01*
X157126Y73434D02*Y69008D01*
X160276Y73434D02*Y69008D01*
X163425Y73434D02*Y69008D01*
X166575Y73434D02*Y69008D01*
G54D93*X226543Y13893D02*Y13107D01*
X219457Y13893D02*Y13107D01*
G54D94*X252717Y18224D02*X254587D01*
X259413D02*X261283D01*
X252717Y15075D02*X254587D01*
X259413D02*X261283D01*
X252717Y11925D02*X254587D01*
X252717Y8776D02*X254587D01*
X259413D02*X261283D01*
X259413Y11925D02*X261283D01*
G54D93*X229957Y27893D02*Y27107D01*
X237043Y27893D02*Y27107D01*
G54D100*X197000Y23000D03*
Y18000D03*
X192000Y23000D03*
Y18000D03*
X187000Y23000D03*
Y18000D03*
G54D93*X168107Y16043D02*X168893D01*
X168107Y8957D02*X168893D01*
G54D94*X144217Y14575D02*X146087D01*
X144217Y11425D02*X146087D01*
X150913D02*X152783D01*
X150913Y14575D02*X152783D01*
G54D98*X227110Y62280D02*Y60626D01*
X229079Y62280D02*Y60626D01*
X231047Y62280D02*Y60626D01*
X233016Y62280D02*Y60626D01*
X234984Y62280D02*Y60626D01*
X236953Y62280D02*Y60626D01*
X238921Y62280D02*Y60626D01*
X240890Y62280D02*Y60626D01*
X242720Y64110D02*X244374D01*
X223626D02*X225280D01*
X238921Y81374D02*Y79720D01*
X236953Y81374D02*Y79720D01*
X234984Y81374D02*Y79720D01*
X233016Y81374D02*Y79720D01*
G54D84*G36*
X229763Y75237D02*Y66763D01*
X238237D01*
Y75237D01*
X229763D01*
G37*
G36*
X227598Y77402D02*Y64598D01*
X240402D01*
Y77402D01*
X227598D01*
G37*
G54D98*X231047Y81374D02*Y79720D01*
X229079Y81374D02*Y79720D01*
X227110Y81374D02*Y79720D01*
X223626Y77890D02*X225280D01*
X223626Y75921D02*X225280D01*
X223626Y73953D02*X225280D01*
X223626Y71984D02*X225280D01*
X223626Y70016D02*X225280D01*
X223626Y68047D02*X225280D01*
X223626Y66079D02*X225280D01*
G54D105*X181566Y78977D02*X185992D01*
X181566Y82126D02*X185992D01*
X181566Y85276D02*X185992D01*
X181566Y88425D02*X185992D01*
X169725Y73434D02*Y69008D01*
X172874Y73434D02*Y69008D01*
X176024Y73434D02*Y69008D01*
X181566Y91575D02*X185992D01*
X181566Y94725D02*X185992D01*
X181566Y97874D02*X185992D01*
X181566Y101024D02*X185992D01*
X176023Y110992D02*Y106566D01*
X172874Y110992D02*Y106566D01*
X169724Y110992D02*Y106566D01*
M02*
