G04 start of page 9 for group -4079 idx -4079 *
G04 Title: (unknown), topsilk *
G04 Creator: pcb 20140316 *
G04 CreationDate: Wed 29 Apr 2020 12:19:48 AM GMT UTC *
G04 For: railfan *
G04 Format: Gerber/RS-274X *
G04 PCB-Dimensions (mil): 3500.00 1750.00 *
G04 PCB-Coordinate-Origin: lower left *
%MOIN*%
%FSLAX25Y25*%
%LNTOPSILK*%
%ADD118C,0.0080*%
%ADD117C,0.0100*%
%ADD116C,0.0001*%
G54D116*G36*
X275043Y3209D02*X274647Y3480D01*
X274511Y3925D01*
X274565Y4240D01*
X274761Y4490D01*
X274891Y4604D01*
Y6486D01*
X274218D01*
X273741Y6481D01*
X273545Y6464D01*
X273453Y6340D01*
X273100Y6117D01*
X272672D01*
X272373Y6307D01*
X272189Y6600D01*
X272162Y6931D01*
X272270Y7224D01*
X272487Y7446D01*
X272802Y7566D01*
X273182Y7512D01*
X273491Y7273D01*
X273556Y7175D01*
X274224D01*
X274891Y7170D01*
Y8667D01*
X272558D01*
Y9400D01*
X272553Y10127D01*
X272455Y10197D01*
X272287Y10376D01*
X272178Y10593D01*
X272189Y11027D01*
X272373Y11315D01*
X272661Y11494D01*
X272997Y11526D01*
X273290Y11423D01*
X273513Y11201D01*
X273632Y10881D01*
X273578Y10506D01*
X273339Y10197D01*
X273242Y10127D01*
Y9351D01*
X274891D01*
Y11656D01*
X275357Y12248D01*
X275829Y12839D01*
Y14906D01*
X274918D01*
Y15693D01*
X279302D01*
Y17066D01*
X276486D01*
Y15693D01*
X275829D01*
Y17066D01*
X274918D01*
Y17825D01*
X275819D01*
Y19192D01*
X276502Y19219D01*
X276497Y18557D01*
X276491Y18086D01*
X276502Y17868D01*
X276567Y17858D01*
X276790Y17847D01*
X277224Y17841D01*
X277907Y17836D01*
X279302D01*
Y19219D01*
X276502D01*
X275819Y19192D01*
X274918D01*
Y19952D01*
X275829D01*
X276486Y19979D01*
X279302D01*
Y21352D01*
X276486D01*
Y19979D01*
X275829Y19952D01*
Y21324D01*
X274918D01*
Y22084D01*
X275819D01*
X275829Y23462D01*
X276486Y23505D01*
Y22827D01*
X276491Y22344D01*
X276508Y22127D01*
X276920Y22117D01*
X277907Y22111D01*
X279291D01*
X279296Y22800D01*
Y22816D01*
X279307Y23505D01*
X276486D01*
X275829Y23462D01*
X274918D01*
Y24222D01*
X275819D01*
Y25594D01*
X276502Y25648D01*
X276497Y24992D01*
X276491Y24515D01*
X276502Y24297D01*
X276567Y24287D01*
X276790Y24276D01*
X277224Y24270D01*
X277907Y24265D01*
X279307D01*
X279296Y24959D01*
X279291Y25648D01*
X276502D01*
X275819Y25594D01*
X274918D01*
Y26354D01*
X275829D01*
Y27596D01*
X276486D01*
Y26354D01*
X279302D01*
Y27596D01*
X279991D01*
Y26354D01*
X280902D01*
Y25594D01*
X279991D01*
Y24194D01*
X280902D01*
Y23435D01*
X279991D01*
Y22041D01*
X280902D01*
Y21281D01*
X279991D01*
Y19908D01*
X280902D01*
Y19149D01*
X279991D01*
Y17755D01*
X280902D01*
Y16995D01*
X279991D01*
Y15622D01*
X280902D01*
Y14836D01*
X279991D01*
X279985Y14250D01*
Y13658D01*
X278569Y11868D01*
X277148Y10083D01*
Y6074D01*
X278124Y5097D01*
X280544D01*
Y7219D01*
X280539Y8043D01*
Y8716D01*
X280533Y9172D01*
X280528Y9334D01*
X280403Y9427D01*
X280159Y9893D01*
X280294Y10409D01*
X280870Y10718D01*
X281472Y10447D01*
X281629Y9882D01*
X281331Y9372D01*
X281233Y9302D01*
Y4414D01*
X277842D01*
X276486Y5770D01*
Y10344D01*
X277896Y12123D01*
X279302Y13903D01*
Y14841D01*
X276486D01*
Y12503D01*
X275574Y11353D01*
Y4522D01*
X275640Y4490D01*
X275819Y4321D01*
X275949Y4088D01*
X275916Y3573D01*
X275569Y3193D01*
X275303Y3133D01*
X275043Y3144D01*
Y3209D01*
G37*
G36*
X290885Y4229D02*X289067Y4571D01*
X287483Y5293D01*
X286376Y6171D01*
X285432Y7278D01*
X284570Y8841D01*
X283924Y10696D01*
X283826Y11065D01*
X286246Y11581D01*
X287179Y11781D01*
X287955Y11944D01*
X288481Y12047D01*
X288682Y12080D01*
X288736Y11868D01*
X288785Y11618D01*
X288867Y11282D01*
X289230Y10257D01*
X289745Y9432D01*
X290391Y8824D01*
X291162Y8461D01*
X291400Y8418D01*
X291796Y8401D01*
X292187Y8418D01*
X292442Y8461D01*
X293462Y9047D01*
X294021Y10083D01*
X294075Y10712D01*
X294021Y11309D01*
X294623Y11483D01*
X294661Y10067D01*
X294303Y9117D01*
X293673Y8385D01*
X292816Y7924D01*
X291780Y7756D01*
X290451Y8059D01*
X289382Y8884D01*
X288590Y10127D01*
X288389Y10653D01*
X288243Y11157D01*
X288194Y11326D01*
X288145Y11342D01*
X287993Y11315D01*
X287635Y11239D01*
X287109Y11125D01*
X286479Y10989D01*
X285329Y10745D01*
X284792Y10626D01*
X284629Y10577D01*
Y10544D01*
X284678Y10360D01*
X284803Y9991D01*
X284949Y9584D01*
X285074Y9258D01*
X286072Y7479D01*
X287358Y6150D01*
X288932Y5282D01*
X290803Y4864D01*
X291199Y4853D01*
X291747D01*
X292295Y4869D01*
X292718Y4902D01*
X294048Y5157D01*
X295209Y5591D01*
X296109Y6123D01*
X296863Y6779D01*
X297466Y7560D01*
X297932Y8466D01*
X298160Y9161D01*
X298317Y9947D01*
X298366Y10902D01*
X298317Y11836D01*
X298090Y12823D01*
X297732Y13713D01*
X297211Y14532D01*
X296527Y15313D01*
X295827Y15959D01*
X295019Y16556D01*
X293945Y17217D01*
X292453Y18047D01*
X291308Y18682D01*
X290516Y19160D01*
X289963Y19561D01*
X289534Y19963D01*
X288986Y20749D01*
X288818Y21617D01*
X288964Y22659D01*
X289398Y23473D01*
X290103Y24037D01*
X291058Y24319D01*
X291639Y24336D01*
X292214Y24270D01*
X292984Y23977D01*
X293652Y23451D01*
X294227Y22686D01*
X294721Y21666D01*
X294807Y21466D01*
X294867Y21422D01*
X295030Y21471D01*
X295409Y21574D01*
X295919Y21726D01*
X296505Y21894D01*
X297081Y22062D01*
X297580Y22214D01*
X297938Y22317D01*
X298079Y22361D01*
X298052Y22485D01*
X297965Y22762D01*
X297840Y23104D01*
X297721Y23419D01*
X297043Y24634D01*
X296153Y25638D01*
X295079Y26413D01*
X293825Y26940D01*
X292068Y27243D01*
X290147Y27157D01*
X288400Y26696D01*
X287000Y25860D01*
X286300Y25133D01*
X285758Y24249D01*
X285389Y23223D01*
X285188Y22073D01*
X285161Y21297D01*
X285199Y20587D01*
X285438Y19605D01*
X285877Y18699D01*
X286517Y17858D01*
X287380Y17066D01*
X287922Y16659D01*
X288552Y16246D01*
X289355Y15769D01*
X290440Y15161D01*
X291167Y14760D01*
X291709Y14451D01*
X292133Y14196D01*
X292507Y13957D01*
X293939Y12747D01*
X294623Y11483D01*
X294021Y11309D01*
X293424Y12378D01*
X292165Y13425D01*
X291802Y13658D01*
X291395Y13903D01*
X290879Y14196D01*
X290185Y14575D01*
X288807Y15351D01*
X287792Y15980D01*
X287017Y16545D01*
X286360Y17125D01*
X285611Y17966D01*
X285074Y18850D01*
X284656Y20033D01*
X284526Y21346D01*
X284618Y22632D01*
X284911Y23831D01*
X285671Y25355D01*
X286832Y26538D01*
X288362Y27363D01*
X290234Y27802D01*
X291693Y27884D01*
X293077Y27759D01*
X294352Y27433D01*
X295491Y26907D01*
X296630Y26061D01*
X297569Y24976D01*
X298296Y23674D01*
X298789Y22171D01*
X298849Y21916D01*
X296647Y21276D01*
X295784Y21032D01*
X295079Y20831D01*
X294601Y20701D01*
X294422Y20657D01*
X294346Y20858D01*
X294118Y21460D01*
X293858Y22035D01*
X293098Y23104D01*
X292149Y23636D01*
X291514Y23701D01*
X290863Y23652D01*
X290006Y23180D01*
X289669Y22719D01*
X289485Y22122D01*
X289447Y21639D01*
X289485Y21227D01*
X289832Y20576D01*
X290559Y19908D01*
X290912Y19664D01*
X291351Y19388D01*
X291926Y19062D01*
X292697Y18639D01*
X293565Y18167D01*
X294248Y17782D01*
X294807Y17451D01*
X295285Y17142D01*
X296511Y16214D01*
X297477Y15226D01*
X298204Y14174D01*
X298692Y13034D01*
X298968Y11662D01*
X298974Y10230D01*
X298719Y8830D01*
X298209Y7566D01*
X297412Y6448D01*
X296370Y5537D01*
X295100Y4859D01*
X293635Y4414D01*
X292257Y4240D01*
X290885Y4235D01*
Y4229D01*
G37*
G36*
X301470Y16035D02*X302110Y16040D01*
X302104Y5141D01*
X313530D01*
Y8298D01*
X305756D01*
Y14819D01*
X311441D01*
Y17988D01*
X305756D01*
Y23771D01*
X313216D01*
Y26940D01*
X302121D01*
X302110Y16040D01*
X301470Y16035D01*
Y27564D01*
X313850D01*
Y23153D01*
X306390D01*
Y18633D01*
X312071D01*
Y14223D01*
X306407D01*
X306396Y11591D01*
X306390Y8960D01*
X314154D01*
Y4522D01*
X301470D01*
Y16035D01*
G37*
G36*
X278607Y6123D02*X278325Y6312D01*
X278146Y6600D01*
X278141Y7034D01*
X278368Y7387D01*
X278499Y7479D01*
X278510Y7940D01*
X278515Y9052D01*
Y10626D01*
X279611Y12004D01*
X280701Y13387D01*
X282031D01*
X282117Y13507D01*
X282345Y13702D01*
X282497Y13767D01*
X282703Y13778D01*
X282904Y13772D01*
X283056Y13702D01*
X283278Y13512D01*
X283414Y13268D01*
X283430Y12986D01*
X283365Y12714D01*
X283089Y12427D01*
X282703Y12313D01*
X282145Y12562D01*
X282020Y12698D01*
X281032D01*
X280115Y11543D01*
X279204Y10387D01*
Y7490D01*
X279307Y7419D01*
X279567Y7023D01*
X279535Y6524D01*
X279150Y6150D01*
X278607Y6117D01*
Y6123D01*
G37*
G36*
X277441Y30282D02*X276556Y30569D01*
X275791Y31128D01*
X275243Y31860D01*
X274956Y32723D01*
X274918Y33363D01*
X274999Y33982D01*
X275309Y34747D01*
X275829Y35398D01*
X276676Y35973D01*
X277647Y36216D01*
X278656Y36129D01*
X279600Y35702D01*
X280153Y35197D01*
X280577Y34579D01*
X280810Y33895D01*
X280880Y33168D01*
X280772Y32441D01*
X280506Y31768D01*
X280099Y31220D01*
X279584Y30775D01*
X278982Y30455D01*
X278331Y30282D01*
X277880Y30260D01*
X277441Y30282D01*
G37*
G36*
X77500Y18500D02*X80500D01*
Y15500D01*
X77500D01*
Y18500D01*
G37*
G54D117*X500Y174500D02*X349500D01*
X190500Y120500D02*Y123500D01*
X189000Y122000D02*X192000D01*
X242500Y156500D02*X315500D01*
X500Y500D02*Y174500D01*
X349500Y500D02*X500D01*
X190500Y51000D02*Y54000D01*
X189000Y52500D02*X192000D01*
X219000Y56000D02*X213500Y50500D01*
X219000Y56000D02*Y53000D01*
X216000Y56000D02*X219000D01*
X349500Y500D02*Y174500D01*
X102900Y60900D02*X108400Y55400D01*
X102900Y60900D02*X105900D01*
X102900D02*Y57900D01*
X181000Y74000D02*X186500Y68500D01*
X181000Y74000D02*X184000D01*
X181000D02*Y71000D01*
G54D118*X100500Y13500D02*X104500D01*
Y14000D02*Y12000D01*
X104000Y11500D01*
X103000D02*X104000D01*
X102500Y12000D02*X103000Y11500D01*
X102500Y13500D02*Y12000D01*
X100500Y10300D02*X104500D01*
X100500D02*X102000Y8800D01*
X100500Y7300D01*
X104500D01*
Y6100D02*Y4100D01*
X104000Y3600D01*
X103000D02*X104000D01*
X102500Y4100D02*X103000Y3600D01*
X102500Y5600D02*Y4100D01*
X100500Y5600D02*X104500D01*
X102500D02*X100500Y3600D01*
X109500Y13500D02*X113500D01*
Y14000D02*Y12000D01*
X113000Y11500D01*
X112000D02*X113000D01*
X111500Y12000D02*X112000Y11500D01*
X111500Y13500D02*Y12000D01*
X109500Y10300D02*X113500D01*
X111500D02*X113500Y8300D01*
X111500Y10300D02*X109500Y8300D01*
X113500Y7100D02*Y5100D01*
X109500Y6100D02*X113500D01*
X123000Y14000D02*Y12000D01*
X122500Y11500D01*
X121500D02*X122500D01*
X121000Y12000D02*X121500Y11500D01*
X121000Y13500D02*Y12000D01*
X119000Y13500D02*X123000D01*
X121000D02*X119000Y11500D01*
X123000Y8300D02*X122500Y7800D01*
X123000Y9800D02*Y8300D01*
X122500Y10300D02*X123000Y9800D01*
X121500Y10300D02*X122500D01*
X121500D02*X121000Y9800D01*
Y8300D01*
X120500Y7800D01*
X119500D02*X120500D01*
X119000Y8300D02*X119500Y7800D01*
X119000Y9800D02*Y8300D01*
X119500Y10300D02*X119000Y9800D01*
X123000Y4600D02*X122500Y4100D01*
X123000Y6100D02*Y4600D01*
X122500Y6600D02*X123000Y6100D01*
X121500Y6600D02*X122500D01*
X121500D02*X121000Y6100D01*
Y4600D01*
X120500Y4100D01*
X119500D02*X120500D01*
X119000Y4600D02*X119500Y4100D01*
X119000Y6100D02*Y4600D01*
X119500Y6600D02*X119000Y6100D01*
X123000Y2900D02*Y1900D01*
X119000Y2400D02*X123000D01*
X119000Y2900D02*Y1900D01*
X3500Y126000D02*X6500D01*
X3500D02*X2500Y125000D01*
X3500Y124000D01*
X6500D01*
Y122800D02*Y121800D01*
X2500Y122300D02*X6500D01*
X2500Y122800D02*Y121800D01*
Y120600D02*X6500D01*
X6000D02*X6500D01*
X6000D02*X3500Y118100D01*
X2500D02*X6500D01*
Y100000D02*X6000Y99500D01*
X6500Y101500D02*Y100000D01*
X6000Y102000D02*X6500Y101500D01*
X3000Y102000D02*X6000D01*
X3000D02*X2500Y101500D01*
Y100000D01*
X3000Y99500D01*
X4000D01*
X4500Y100000D02*X4000Y99500D01*
X4500Y101000D02*Y100000D01*
X2500Y98300D02*X6500D01*
X6000D02*X6500D01*
X6000D02*X3500Y95800D01*
X2500D02*X6500D01*
X2500Y94100D02*X6500D01*
Y92600D02*X6000Y92100D01*
X3000D02*X6000D01*
X2500Y92600D02*X3000Y92100D01*
X2500Y94600D02*Y92600D01*
X6500Y94600D02*Y92600D01*
X2500Y81500D02*X6000D01*
X6500Y81000D01*
Y79500D01*
X6000Y79000D01*
X2500D02*X6000D01*
X4500Y81500D02*Y79000D01*
X2500Y61500D02*Y59500D01*
X3000Y59000D01*
X4000D01*
X4500Y59500D02*X4000Y59000D01*
X4500Y61000D02*Y59500D01*
X2500Y61000D02*X6500D01*
Y61500D02*Y59500D01*
X6000Y59000D01*
X5000D02*X6000D01*
X4500Y59500D02*X5000Y59000D01*
X128500Y13500D02*X132000D01*
X132500Y13000D01*
Y11500D01*
X132000Y11000D01*
X128500D02*X132000D01*
X130500Y13500D02*Y11000D01*
X132500Y7800D02*X132000Y7300D01*
X132500Y9300D02*Y7800D01*
X132000Y9800D02*X132500Y9300D01*
X131000Y9800D02*X132000D01*
X131000D02*X130500Y9300D01*
Y7800D01*
X130000Y7300D01*
X129000D02*X130000D01*
X128500Y7800D02*X129000Y7300D01*
X128500Y9300D02*Y7800D01*
X129000Y9800D02*X128500Y9300D01*
Y5600D02*Y4100D01*
X129000Y6100D02*X128500Y5600D01*
X129000Y6100D02*X132000D01*
X132500Y5600D01*
Y4100D01*
X94400Y17920D02*X97720D01*
X96060Y19580D02*Y16260D01*
X135000Y18020D02*X138320D01*
X136660Y19680D02*Y16360D01*
X243000Y163000D02*X244000D01*
X243500D02*Y159000D01*
X243000D02*X244000D01*
X245200Y160500D02*Y159500D01*
Y160500D02*X245700Y161000D01*
X246700D01*
X247200Y160500D01*
Y159500D01*
X246700Y159000D02*X247200Y159500D01*
X245700Y159000D02*X246700D01*
X245200Y159500D02*X245700Y159000D01*
X248400Y161000D02*Y159500D01*
X248900Y159000D01*
X249400D01*
X249900Y159500D01*
Y161000D02*Y159500D01*
X250400Y159000D01*
X250900D01*
X251400Y159500D01*
Y161000D02*Y159500D01*
X254100Y161000D02*X254600Y160500D01*
X253100Y161000D02*X254100D01*
X252600Y160500D02*X253100Y161000D01*
X252600Y160500D02*Y159500D01*
X253100Y159000D01*
X254600Y161000D02*Y159500D01*
X255100Y159000D01*
X253100D02*X254100D01*
X254600Y159500D01*
X260100Y163000D02*X260600Y162500D01*
X258600Y163000D02*X260100D01*
X258100Y162500D02*X258600Y163000D01*
X258100Y162500D02*Y161500D01*
X258600Y161000D01*
X260100D01*
X260600Y160500D01*
Y159500D01*
X260100Y159000D02*X260600Y159500D01*
X258600Y159000D02*X260100D01*
X258100Y159500D02*X258600Y159000D01*
X262300Y161000D02*X263800D01*
X261800Y160500D02*X262300Y161000D01*
X261800Y160500D02*Y159500D01*
X262300Y159000D01*
X263800D01*
X266500Y161000D02*X267000Y160500D01*
X265500Y161000D02*X266500D01*
X265000Y160500D02*X265500Y161000D01*
X265000Y160500D02*Y159500D01*
X265500Y159000D01*
X267000Y161000D02*Y159500D01*
X267500Y159000D01*
X265500D02*X266500D01*
X267000Y159500D01*
X268700Y163000D02*Y159500D01*
X269200Y159000D01*
X270700D02*X272200D01*
X270200Y159500D02*X270700Y159000D01*
X270200Y160500D02*Y159500D01*
Y160500D02*X270700Y161000D01*
X271700D01*
X272200Y160500D01*
X270200Y160000D02*X272200D01*
Y160500D02*Y160000D01*
X275400Y163000D02*Y159000D01*
X274900D02*X275400Y159500D01*
X273900Y159000D02*X274900D01*
X273400Y159500D02*X273900Y159000D01*
X273400Y160500D02*Y159500D01*
Y160500D02*X273900Y161000D01*
X274900D01*
X275400Y160500D01*
X278400Y161000D02*X279900D01*
X278400Y159000D02*X280400D01*
X278400Y163000D02*Y159000D01*
Y163000D02*X280400D01*
X282100Y160500D02*Y159000D01*
Y160500D02*X282600Y161000D01*
X283100D01*
X283600Y160500D01*
Y159000D01*
X281600Y161000D02*X282100Y160500D01*
X286300Y161000D02*X286800Y160500D01*
X285300Y161000D02*X286300D01*
X284800Y160500D02*X285300Y161000D01*
X284800Y160500D02*Y159500D01*
X285300Y159000D01*
X286300D01*
X286800Y159500D01*
X284800Y158000D02*X285300Y157500D01*
X286300D01*
X286800Y158000D01*
Y161000D02*Y158000D01*
X288000Y162000D02*Y161500D01*
Y160500D02*Y159000D01*
X289500Y160500D02*Y159000D01*
Y160500D02*X290000Y161000D01*
X290500D01*
X291000Y160500D01*
Y159000D01*
X289000Y161000D02*X289500Y160500D01*
X292700Y159000D02*X294200D01*
X292200Y159500D02*X292700Y159000D01*
X292200Y160500D02*Y159500D01*
Y160500D02*X292700Y161000D01*
X293700D01*
X294200Y160500D01*
X292200Y160000D02*X294200D01*
Y160500D02*Y160000D01*
X295900Y159000D02*X297400D01*
X295400Y159500D02*X295900Y159000D01*
X295400Y160500D02*Y159500D01*
Y160500D02*X295900Y161000D01*
X296900D01*
X297400Y160500D01*
X295400Y160000D02*X297400D01*
Y160500D02*Y160000D01*
X299100Y160500D02*Y159000D01*
Y160500D02*X299600Y161000D01*
X300600D01*
X298600D02*X299100Y160500D01*
X301800Y162000D02*Y161500D01*
Y160500D02*Y159000D01*
X303300Y160500D02*Y159000D01*
Y160500D02*X303800Y161000D01*
X304300D01*
X304800Y160500D01*
Y159000D01*
X302800Y161000D02*X303300Y160500D01*
X307500Y161000D02*X308000Y160500D01*
X306500Y161000D02*X307500D01*
X306000Y160500D02*X306500Y161000D01*
X306000Y160500D02*Y159500D01*
X306500Y159000D01*
X307500D01*
X308000Y159500D01*
X306000Y158000D02*X306500Y157500D01*
X307500D01*
X308000Y158000D01*
Y161000D02*Y158000D01*
X243000Y142500D02*Y138500D01*
Y140000D02*X243500Y140500D01*
X244500D01*
X245000Y140000D01*
Y138500D01*
X246700Y142500D02*Y139000D01*
X247200Y138500D01*
X246200Y141000D02*X247200D01*
X248700Y142500D02*Y139000D01*
X249200Y138500D01*
X248200Y141000D02*X249200D01*
X250700Y140000D02*Y137000D01*
X250200Y140500D02*X250700Y140000D01*
X251200Y140500D01*
X252200D01*
X252700Y140000D01*
Y139000D01*
X252200Y138500D02*X252700Y139000D01*
X251200Y138500D02*X252200D01*
X250700Y139000D02*X251200Y138500D01*
X253900Y141000D02*X254400D01*
X253900Y140000D02*X254400D01*
X255600Y139000D02*X258600Y142000D01*
X259800Y139000D02*X262800Y142000D01*
X264000Y140500D02*Y139000D01*
X264500Y138500D01*
X265000D01*
X265500Y139000D01*
Y140500D02*Y139000D01*
X266000Y138500D01*
X266500D01*
X267000Y139000D01*
Y140500D02*Y139000D01*
X268200Y140500D02*Y139000D01*
X268700Y138500D01*
X269200D01*
X269700Y139000D01*
Y140500D02*Y139000D01*
X270200Y138500D01*
X270700D01*
X271200Y139000D01*
Y140500D02*Y139000D01*
X272400Y140500D02*Y139000D01*
X272900Y138500D01*
X273400D01*
X273900Y139000D01*
Y140500D02*Y139000D01*
X274400Y138500D01*
X274900D01*
X275400Y139000D01*
Y140500D02*Y139000D01*
X276600Y138500D02*X277100D01*
X278300Y141500D02*Y141000D01*
Y140000D02*Y138500D01*
X280800Y140500D02*X281300Y140000D01*
X279800Y140500D02*X280800D01*
X279300Y140000D02*X279800Y140500D01*
X279300Y140000D02*Y139000D01*
X279800Y138500D01*
X281300Y140500D02*Y139000D01*
X281800Y138500D01*
X279800D02*X280800D01*
X281300Y139000D01*
X283500Y138500D02*X285000D01*
X285500Y139000D01*
X285000Y139500D02*X285500Y139000D01*
X283500Y139500D02*X285000D01*
X283000Y140000D02*X283500Y139500D01*
X283000Y140000D02*X283500Y140500D01*
X285000D01*
X285500Y140000D01*
X283000Y139000D02*X283500Y138500D01*
X287200Y140500D02*X288700D01*
X286700Y140000D02*X287200Y140500D01*
X286700Y140000D02*Y139000D01*
X287200Y138500D01*
X288700D01*
X291400Y140500D02*X291900Y140000D01*
X290400Y140500D02*X291400D01*
X289900Y140000D02*X290400Y140500D01*
X289900Y140000D02*Y139000D01*
X290400Y138500D01*
X291900Y140500D02*Y139000D01*
X292400Y138500D01*
X290400D02*X291400D01*
X291900Y139000D01*
X293600Y142500D02*Y139000D01*
X294100Y138500D01*
X295600D02*X297100D01*
X295100Y139000D02*X295600Y138500D01*
X295100Y140000D02*Y139000D01*
Y140000D02*X295600Y140500D01*
X296600D01*
X297100Y140000D01*
X295100Y139500D02*X297100D01*
Y140000D02*Y139500D01*
X300300Y142500D02*Y138500D01*
X299800D02*X300300Y139000D01*
X298800Y138500D02*X299800D01*
X298300Y139000D02*X298800Y138500D01*
X298300Y140000D02*Y139000D01*
Y140000D02*X298800Y140500D01*
X299800D01*
X300300Y140000D01*
X301500Y138500D02*X302000D01*
X303700Y140500D02*X305200D01*
X303200Y140000D02*X303700Y140500D01*
X303200Y140000D02*Y139000D01*
X303700Y138500D01*
X305200D01*
X306400Y140000D02*Y139000D01*
Y140000D02*X306900Y140500D01*
X307900D01*
X308400Y140000D01*
Y139000D01*
X307900Y138500D02*X308400Y139000D01*
X306900Y138500D02*X307900D01*
X306400Y139000D02*X306900Y138500D01*
X310100Y140000D02*Y138500D01*
Y140000D02*X310600Y140500D01*
X311100D01*
X311600Y140000D01*
Y138500D01*
Y140000D02*X312100Y140500D01*
X312600D01*
X313100Y140000D01*
Y138500D01*
X309600Y140500D02*X310100Y140000D01*
X243000Y154500D02*Y150500D01*
Y154500D02*X244500Y153000D01*
X246000Y154500D01*
Y150500D01*
X247200Y154500D02*X249200D01*
X249700Y154000D01*
Y153000D01*
X249200Y152500D02*X249700Y153000D01*
X247700Y152500D02*X249200D01*
X247700Y154500D02*Y150500D01*
Y152500D02*X249700Y150500D01*
X250900D02*X252900D01*
X253400Y151000D01*
Y152000D02*Y151000D01*
X252900Y152500D02*X253400Y152000D01*
X251400Y152500D02*X252900D01*
X251400Y154500D02*Y150500D01*
X250900Y154500D02*X252900D01*
X253400Y154000D01*
Y153000D01*
X252900Y152500D02*X253400Y153000D01*
X254600Y152500D02*X256600D01*
X257800Y154500D02*Y150500D01*
Y154500D02*X259800D01*
X257800Y152500D02*X259300D01*
X261500Y150500D02*X263000D01*
X261000Y151000D02*X261500Y150500D01*
X261000Y154000D02*Y151000D01*
Y154000D02*X261500Y154500D01*
X263000D01*
X266200D02*X266700Y154000D01*
X264700Y154500D02*X266200D01*
X264200Y154000D02*X264700Y154500D01*
X264200Y154000D02*Y153000D01*
X264700Y152500D01*
X266200D01*
X266700Y152000D01*
Y151000D01*
X266200Y150500D02*X266700Y151000D01*
X264700Y150500D02*X266200D01*
X264200Y151000D02*X264700Y150500D01*
X269700Y152500D02*Y151500D01*
X270700Y150500D01*
X271700Y151500D01*
Y152500D02*Y151500D01*
X272900Y154000D02*X273400Y154500D01*
X274400D01*
X274900Y154000D01*
Y151000D01*
X274400Y150500D02*X274900Y151000D01*
X273400Y150500D02*X274400D01*
X272900Y151000D02*X273400Y150500D01*
Y152500D02*X274900D01*
X276100Y150500D02*X276600D01*
X277800Y151000D02*X278300Y150500D01*
X277800Y154000D02*Y151000D01*
Y154000D02*X278300Y154500D01*
X279300D01*
X279800Y154000D01*
Y151000D01*
X279300Y150500D02*X279800Y151000D01*
X278300Y150500D02*X279300D01*
X277800Y151500D02*X279800Y153500D01*
X243000Y145000D02*X243500Y144500D01*
X243000Y148000D02*X243500Y148500D01*
X243000Y148000D02*Y145000D01*
X245200Y144500D02*X246700D01*
X244700Y145000D02*X245200Y144500D01*
X244700Y148000D02*Y145000D01*
Y148000D02*X245200Y148500D01*
X246700D01*
X247900D02*X248400Y148000D01*
Y145000D01*
X247900Y144500D02*X248400Y145000D01*
X251400Y148000D02*X251900Y148500D01*
X253400D01*
X253900Y148000D01*
Y147000D01*
X251400Y144500D02*X253900Y147000D01*
X251400Y144500D02*X253900D01*
X255100Y145000D02*X255600Y144500D01*
X255100Y148000D02*Y145000D01*
Y148000D02*X255600Y148500D01*
X256600D01*
X257100Y148000D01*
Y145000D01*
X256600Y144500D02*X257100Y145000D01*
X255600Y144500D02*X256600D01*
X255100Y145500D02*X257100Y147500D01*
X258300Y148000D02*X258800Y148500D01*
X260300D01*
X260800Y148000D01*
Y147000D01*
X258300Y144500D02*X260800Y147000D01*
X258300Y144500D02*X260800D01*
X262000Y145000D02*X262500Y144500D01*
X262000Y148000D02*Y145000D01*
Y148000D02*X262500Y148500D01*
X263500D01*
X264000Y148000D01*
Y145000D01*
X263500Y144500D02*X264000Y145000D01*
X262500Y144500D02*X263500D01*
X262000Y145500D02*X264000Y147500D01*
X269300Y144500D02*X270800D01*
X268800Y145000D02*X269300Y144500D01*
X268800Y148000D02*Y145000D01*
Y148000D02*X269300Y148500D01*
X270800D01*
X272500Y144500D02*X274000D01*
X272000Y145000D02*X272500Y144500D01*
X272000Y148000D02*Y145000D01*
Y148000D02*X272500Y148500D01*
X274000D01*
X277000Y144500D02*X279000D01*
X279500Y145000D01*
Y146000D02*Y145000D01*
X279000Y146500D02*X279500Y146000D01*
X277500Y146500D02*X279000D01*
X277500Y148500D02*Y144500D01*
X277000Y148500D02*X279000D01*
X279500Y148000D01*
Y147000D01*
X279000Y146500D02*X279500Y147000D01*
X280700Y148500D02*Y148000D01*
X281700Y147000D01*
X282700Y148000D01*
Y148500D02*Y148000D01*
X281700Y147000D02*Y144500D01*
X283900Y146500D02*X285900D01*
X289100Y148500D02*X289600Y148000D01*
X287600Y148500D02*X289100D01*
X287100Y148000D02*X287600Y148500D01*
X287100Y148000D02*Y147000D01*
X287600Y146500D01*
X289100D01*
X289600Y146000D01*
Y145000D01*
X289100Y144500D02*X289600Y145000D01*
X287600Y144500D02*X289100D01*
X287100Y145000D02*X287600Y144500D01*
X290800Y148000D02*Y144500D01*
Y148000D02*X291300Y148500D01*
X292800D01*
X293300Y148000D01*
Y144500D01*
X290800Y146500D02*X293300D01*
G54D117*X8200Y90000D02*Y50000D01*
X38200Y90000D02*Y50000D01*
X33800Y90000D02*Y50000D01*
X8200Y90000D02*X38200D01*
X8200Y50000D02*X38200D01*
X16000Y140800D02*X37000D01*
X16000Y131200D02*X37000D01*
Y140800D02*Y131200D01*
X16000Y140800D02*Y131200D01*
X29000Y140800D02*Y131200D01*
X8200Y130000D02*Y90000D01*
X38200Y130000D02*Y90000D01*
X33800Y130000D02*Y90000D01*
X8200Y130000D02*X38200D01*
X8200Y90000D02*X38200D01*
X250701Y20390D02*X263299D01*
Y6610D01*
X250701D02*X263299D01*
X250701Y20390D02*Y6610D01*
X233107Y30255D02*X233893D01*
X233107Y24745D02*X233893D01*
X175879Y119879D02*G75*G03X180121Y119879I2121J2121D01*G01*
X180121Y124121D02*G75*G03X175879Y124121I-2121J-2121D01*G01*
X174464Y118464D02*G75*G03X181536Y118464I3536J3536D01*G01*
X181536Y125536D02*G75*G03X174464Y125536I-3536J-3536D01*G01*
X192607Y111755D02*X193393D01*
X192607Y106245D02*X193393D01*
X199607Y116245D02*X200393D01*
X199607Y121755D02*X200393D01*
X208201Y107759D02*X220799D01*
X208201Y115241D02*Y107759D01*
Y115241D02*X220799D01*
Y107759D01*
X175879Y50379D02*G75*G03X180121Y50379I2121J2121D01*G01*
X180121Y54621D02*G75*G03X175879Y54621I-2121J-2121D01*G01*
X174464Y48964D02*G75*G03X181536Y48964I3536J3536D01*G01*
X181536Y56036D02*G75*G03X174464Y56036I-3536J-3536D01*G01*
X210255Y75393D02*Y74607D01*
X204745Y75393D02*Y74607D01*
X211107Y66255D02*X211893D01*
X211107Y60745D02*X211893D01*
X222607Y10745D02*X223393D01*
X222607Y16255D02*X223393D01*
X171255Y12893D02*Y12107D01*
X165745Y12893D02*Y12107D01*
X349600Y110150D02*Y56850D01*
X273600D02*X349600D01*
X273600Y110150D02*Y56850D01*
Y110150D02*X349600D01*
X333500Y105000D02*Y62000D01*
Y105000D02*X349600D01*
X333500Y62000D02*X349600D01*
X333500Y105000D02*X349600Y62000D01*
Y105000D02*X333500Y62000D01*
X320607Y121745D02*X321393D01*
X320607Y127255D02*X321393D01*
X320607Y131745D02*X321393D01*
X320607Y137255D02*X321393D01*
X222189Y82811D02*Y59189D01*
Y82811D02*X245811D01*
Y59189D01*
X222189D02*X245811D01*
X220689Y57189D02*G75*G03X220689Y57189I0J500D01*G01*
X60107Y10755D02*X60893D01*
X60107Y5245D02*X60893D01*
X76000Y34000D02*Y15000D01*
X45000Y34000D02*X76000D01*
X45000D02*Y15000D01*
X63000D02*X76000D01*
X45000D02*X58000D01*
X63000D02*G75*G03X58000Y15000I-2500J0D01*G01*
X133255Y21893D02*Y21107D01*
X127745Y21893D02*Y21107D01*
X114255Y21850D02*Y21064D01*
X108745Y21850D02*Y21064D01*
X105255Y21893D02*Y21107D01*
X99745Y21893D02*Y21107D01*
X123755Y21936D02*Y21150D01*
X118245Y21936D02*Y21150D01*
X80201Y4259D02*X92799D01*
X80201Y11741D02*Y4259D01*
Y11741D02*X92799D01*
Y4259D01*
X142201Y16741D02*X154799D01*
Y9259D01*
X142201D02*X154799D01*
X142201Y16741D02*Y9259D01*
X164255Y160893D02*Y160107D01*
X158745Y160893D02*Y160107D01*
X153362Y129650D02*X198638D01*
X153362Y148350D02*Y129650D01*
Y148350D02*X198638D01*
Y129650D01*
X144107Y151255D02*X144893D01*
X144107Y145745D02*X144893D01*
X138350Y154250D02*X148980D01*
X138350Y172750D02*X148980D01*
X138350Y157500D02*Y154250D01*
Y172750D02*Y169500D01*
X148980Y154429D02*Y154250D01*
Y172750D02*Y172571D01*
X101689Y86811D02*Y63189D01*
Y86811D02*X125311D01*
Y63189D01*
X101689D02*X125311D01*
X100189Y61189D02*G75*G03X100189Y61189I0J500D01*G01*
X103107Y115255D02*X103893D01*
X103107Y109745D02*X103893D01*
X98745Y100893D02*Y100107D01*
X104255Y100893D02*Y100107D01*
X51300Y116000D02*Y64000D01*
X28000Y116000D02*X51300D01*
X28000Y64000D02*X51300D01*
X82992Y98004D02*Y91508D01*
Y117492D02*Y110996D01*
X63504Y117492D02*X82992D01*
X63504Y91508D02*X82992D01*
X63504Y117492D02*X57008Y110996D01*
X63504Y91508D02*X57008Y98004D01*
X64000Y98500D02*Y94500D01*
X62000Y96500D02*X66000D01*
X89245Y100893D02*Y100107D01*
X94755Y100893D02*Y100107D01*
X53665Y55126D02*X99335D01*
X53665Y88590D02*X99335D01*
X53665D02*Y55126D01*
X99335Y88590D02*Y55126D01*
X151621Y76621D02*X175479D01*
X151621Y103379D02*Y76621D01*
Y103379D02*X178379D01*
Y79521D01*
X175479Y76621D01*
X176479Y79521D02*G75*G03X176479Y79521I-1000J0D01*G01*
X147800Y67600D02*Y53700D01*
X136000Y67600D02*X147800D01*
X136000D02*Y53700D01*
X147800D01*
X137255Y92393D02*Y91607D01*
X131745Y92393D02*Y91607D01*
G54D118*X24500Y72500D02*Y71000D01*
X21000D02*X24500D01*
X20500Y71500D02*X21000Y71000D01*
X20500Y72000D02*Y71500D01*
X21000Y72500D02*X20500Y72000D01*
X24000Y69800D02*X24500Y69300D01*
Y67800D01*
X24000Y67300D01*
X23000D02*X24000D01*
X20500Y69800D02*X23000Y67300D01*
X20500Y69800D02*Y67300D01*
X24500Y112000D02*Y110500D01*
X21000D02*X24500D01*
X20500Y111000D02*X21000Y110500D01*
X20500Y111500D02*Y111000D01*
X21000Y112000D02*X20500Y111500D01*
Y108800D02*Y107800D01*
Y108300D02*X24500D01*
X23500Y109300D02*X24500Y108300D01*
X44000Y6500D02*X45500D01*
X43500Y7000D02*X44000Y6500D01*
X43500Y10000D02*Y7000D01*
Y10000D02*X44000Y10500D01*
X45500D01*
X47200Y6500D02*X48200D01*
X47700Y10500D02*Y6500D01*
X46700Y9500D02*X47700Y10500D01*
X49900Y6500D02*X50900D01*
X50400Y10500D02*Y6500D01*
X49400Y9500D02*X50400Y10500D01*
X37500Y26500D02*Y23000D01*
X38000Y22500D01*
X39000D01*
X39500Y23000D01*
Y26500D02*Y23000D01*
X40700Y26500D02*X42700D01*
X40700D02*Y24500D01*
X41200Y25000D01*
X42200D01*
X42700Y24500D01*
Y23000D01*
X42200Y22500D02*X42700Y23000D01*
X41200Y22500D02*X42200D01*
X40700Y23000D02*X41200Y22500D01*
X84000Y18000D02*X86000D01*
X86500Y17500D01*
Y16500D01*
X86000Y16000D02*X86500Y16500D01*
X84500Y16000D02*X86000D01*
X84500Y18000D02*Y14000D01*
Y16000D02*X86500Y14000D01*
X88200D02*X89200D01*
X88700Y18000D02*Y14000D01*
X87700Y17000D02*X88700Y18000D01*
X59000Y53500D02*Y50000D01*
X59500Y49500D01*
X60500D01*
X61000Y50000D01*
Y53500D02*Y50000D01*
X62700Y49500D02*X63700D01*
X63200Y53500D02*Y49500D01*
X62200Y52500D02*X63200Y53500D01*
X109543Y33500D02*Y29500D01*
X111043Y33500D02*X111543Y33000D01*
Y30000D01*
X111043Y29500D02*X111543Y30000D01*
X109043Y29500D02*X111043D01*
X109043Y33500D02*X111043D01*
X112743Y33000D02*X113243Y33500D01*
X114243D01*
X114743Y33000D01*
Y30000D01*
X114243Y29500D02*X114743Y30000D01*
X113243Y29500D02*X114243D01*
X112743Y30000D02*X113243Y29500D01*
Y31500D02*X114743D01*
X110890Y60547D02*Y57047D01*
X111390Y56547D01*
X112390D01*
X112890Y57047D01*
Y60547D02*Y57047D01*
X114090Y58547D02*X116090Y60547D01*
X114090Y58547D02*X116590D01*
X116090Y60547D02*Y56547D01*
X100414Y121000D02*X102414D01*
X102914Y120500D01*
Y119500D01*
X102414Y119000D02*X102914Y119500D01*
X100914Y119000D02*X102414D01*
X100914Y121000D02*Y117000D01*
Y119000D02*X102914Y117000D01*
X104114D02*X106614Y119500D01*
Y121000D02*Y119500D01*
X104114Y121000D02*X106614D01*
X102000Y89000D02*X103500D01*
X101500Y89500D02*X102000Y89000D01*
X101500Y92500D02*Y89500D01*
Y92500D02*X102000Y93000D01*
X103500D01*
X106200D02*X106700Y92500D01*
X105200Y93000D02*X106200D01*
X104700Y92500D02*X105200Y93000D01*
X104700Y92500D02*Y89500D01*
X105200Y89000D01*
X106200Y91000D02*X106700Y90500D01*
X104700Y91000D02*X106200D01*
X105200Y89000D02*X106200D01*
X106700Y89500D01*
Y90500D02*Y89500D01*
X40000Y142000D02*Y138000D01*
X41500Y142000D02*X42000Y141500D01*
Y138500D01*
X41500Y138000D02*X42000Y138500D01*
X39500Y138000D02*X41500D01*
X39500Y142000D02*X41500D01*
X43700Y138000D02*X44700D01*
X44200Y142000D02*Y138000D01*
X43200Y141000D02*X44200Y142000D01*
X54000Y90500D02*X55500D01*
X53500Y91000D02*X54000Y90500D01*
X53500Y94000D02*Y91000D01*
Y94000D02*X54000Y94500D01*
X55500D01*
X57200Y90500D02*X58200D01*
X57700Y94500D02*Y90500D01*
X56700Y93500D02*X57700Y94500D01*
X87495Y108150D02*X88980D01*
X87000Y108645D02*X87495Y108150D01*
X87000Y111615D02*Y108645D01*
Y111615D02*X87495Y112110D01*
X88980D01*
X90168Y111615D02*X90663Y112110D01*
X92148D01*
X92643Y111615D01*
Y110625D01*
X90168Y108150D02*X92643Y110625D01*
X90168Y108150D02*X92643D01*
X220307Y9150D02*X222307D01*
X222807Y8650D01*
Y7650D01*
X222307Y7150D02*X222807Y7650D01*
X220807Y7150D02*X222307D01*
X220807Y9150D02*Y5150D01*
Y7150D02*X222807Y5150D01*
X224007D02*X226007Y7150D01*
Y8650D02*Y7150D01*
X225507Y9150D02*X226007Y8650D01*
X224507Y9150D02*X225507D01*
X224007Y8650D02*X224507Y9150D01*
X224007Y8650D02*Y7650D01*
X224507Y7150D01*
X226007D01*
X158500Y10543D02*X160000D01*
X158000Y11043D02*X158500Y10543D01*
X158000Y14043D02*Y11043D01*
Y14043D02*X158500Y14543D01*
X160000D01*
X161200Y10543D02*X163700Y13043D01*
Y14543D02*Y13043D01*
X161200Y14543D02*X163700D01*
X145500Y7500D02*X147500D01*
X148000Y7000D01*
Y6000D01*
X147500Y5500D02*X148000Y6000D01*
X146000Y5500D02*X147500D01*
X146000Y7500D02*Y3500D01*
Y5500D02*X148000Y3500D01*
X149200Y7500D02*X151200D01*
X149200D02*Y5500D01*
X149700Y6000D01*
X150700D01*
X151200Y5500D01*
Y4000D01*
X150700Y3500D02*X151200Y4000D01*
X149700Y3500D02*X150700D01*
X149200Y4000D02*X149700Y3500D01*
X100500Y169500D02*X102000D01*
Y166000D01*
X101500Y165500D02*X102000Y166000D01*
X101000Y165500D02*X101500D01*
X100500Y166000D02*X101000Y165500D01*
X103200Y169000D02*X103700Y169500D01*
X104700D01*
X105200Y169000D01*
Y166000D01*
X104700Y165500D02*X105200Y166000D01*
X103700Y165500D02*X104700D01*
X103200Y166000D02*X103700Y165500D01*
Y167500D02*X105200D01*
X135038Y140000D02*X136538D01*
X134538Y140500D02*X135038Y140000D01*
X134538Y143500D02*Y140500D01*
Y143500D02*X135038Y144000D01*
X136538D01*
X138238Y140000D02*X139238D01*
X138738Y144000D02*Y140000D01*
X137738Y143000D02*X138738Y144000D01*
X140438Y143500D02*X140938Y144000D01*
X142438D01*
X142938Y143500D01*
Y142500D01*
X140438Y140000D02*X142938Y142500D01*
X140438Y140000D02*X142938D01*
X124500Y165500D02*Y162000D01*
X125000Y161500D01*
X126000D01*
X126500Y162000D01*
Y165500D02*Y162000D01*
X127700Y161500D02*X130200Y164000D01*
Y165500D02*Y164000D01*
X127700Y165500D02*X130200D01*
X128000Y33500D02*Y29500D01*
X129500Y33500D02*X130000Y33000D01*
Y30000D01*
X129500Y29500D02*X130000Y30000D01*
X127500Y29500D02*X129500D01*
X127500Y33500D02*X129500D01*
X131200Y29500D02*X133700Y32000D01*
Y33500D02*Y32000D01*
X131200Y33500D02*X133700D01*
X100000D02*Y29500D01*
X101500Y33500D02*X102000Y33000D01*
Y30000D01*
X101500Y29500D02*X102000Y30000D01*
X99500Y29500D02*X101500D01*
X99500Y33500D02*X101500D01*
X103200Y33000D02*X103700Y33500D01*
X105200D01*
X105700Y33000D01*
Y32000D01*
X103200Y29500D02*X105700Y32000D01*
X103200Y29500D02*X105700D01*
X118957Y33500D02*Y29500D01*
X120457Y33500D02*X120957Y33000D01*
Y30000D01*
X120457Y29500D02*X120957Y30000D01*
X118457Y29500D02*X120457D01*
X118457Y33500D02*X120457D01*
X123657D02*X124157Y33000D01*
X122657Y33500D02*X123657D01*
X122157Y33000D02*X122657Y33500D01*
X122157Y33000D02*Y30000D01*
X122657Y29500D01*
X123657Y31500D02*X124157Y31000D01*
X122157Y31500D02*X123657D01*
X122657Y29500D02*X123657D01*
X124157Y30000D01*
Y31000D02*Y30000D01*
X172000Y22500D02*X173500D01*
Y19000D01*
X173000Y18500D02*X173500Y19000D01*
X172500Y18500D02*X173000D01*
X172000Y19000D02*X172500Y18500D01*
X174700Y22500D02*X176700D01*
X174700D02*Y20500D01*
X175200Y21000D01*
X176200D01*
X176700Y20500D01*
Y19000D01*
X176200Y18500D02*X176700Y19000D01*
X175200Y18500D02*X176200D01*
X174700Y19000D02*X175200Y18500D01*
X254000Y26500D02*X256000D01*
X256500Y26000D01*
Y25000D01*
X256000Y24500D02*X256500Y25000D01*
X254500Y24500D02*X256000D01*
X254500Y26500D02*Y22500D01*
Y24500D02*X256500Y22500D01*
X257700Y26000D02*X258200Y26500D01*
X259700D01*
X260200Y26000D01*
Y25000D01*
X257700Y22500D02*X260200Y25000D01*
X257700Y22500D02*X260200D01*
X161500Y54500D02*Y50500D01*
X163000Y54500D02*X163500Y54000D01*
Y51000D01*
X163000Y50500D02*X163500Y51000D01*
X161000Y50500D02*X163000D01*
X161000Y54500D02*X163000D01*
X164700D02*X166700D01*
X164700D02*Y52500D01*
X165200Y53000D01*
X166200D01*
X166700Y52500D01*
Y51000D01*
X166200Y50500D02*X166700Y51000D01*
X165200Y50500D02*X166200D01*
X164700Y51000D02*X165200Y50500D01*
X207000Y59000D02*X209000D01*
X209500Y58500D01*
Y57500D01*
X209000Y57000D02*X209500Y57500D01*
X207500Y57000D02*X209000D01*
X207500Y59000D02*Y55000D01*
Y57000D02*X209500Y55000D01*
X212200Y59000D02*X212700Y58500D01*
X211200Y59000D02*X212200D01*
X210700Y58500D02*X211200Y59000D01*
X210700Y58500D02*Y55500D01*
X211200Y55000D01*
X212200Y57000D02*X212700Y56500D01*
X210700Y57000D02*X212200D01*
X211200Y55000D02*X212200D01*
X212700Y55500D01*
Y56500D02*Y55500D01*
X232000Y57000D02*Y53500D01*
X232500Y53000D01*
X233500D01*
X234000Y53500D01*
Y57000D02*Y53500D01*
X235200Y56500D02*X235700Y57000D01*
X236700D01*
X237200Y56500D01*
Y53500D01*
X236700Y53000D02*X237200Y53500D01*
X235700Y53000D02*X236700D01*
X235200Y53500D02*X235700Y53000D01*
Y55000D02*X237200D01*
X205500Y82000D02*X207000D01*
X205000Y82500D02*X205500Y82000D01*
X205000Y85500D02*Y82500D01*
Y85500D02*X205500Y86000D01*
X207000D01*
X208200D02*X210200D01*
X208200D02*Y84000D01*
X208700Y84500D01*
X209700D01*
X210200Y84000D01*
Y82500D01*
X209700Y82000D02*X210200Y82500D01*
X208700Y82000D02*X209700D01*
X208200Y82500D02*X208700Y82000D01*
X144600Y74700D02*Y71200D01*
X145100Y70700D01*
X146100D01*
X146600Y71200D01*
Y74700D02*Y71200D01*
X147800Y74200D02*X148300Y74700D01*
X149800D01*
X150300Y74200D01*
Y73200D01*
X147800Y70700D02*X150300Y73200D01*
X147800Y70700D02*X150300D01*
X149800Y62900D02*Y59400D01*
X150300Y58900D01*
X151300D01*
X151800Y59400D01*
Y62900D02*Y59400D01*
X154500Y62900D02*X155000Y62400D01*
X153500Y62900D02*X154500D01*
X153000Y62400D02*X153500Y62900D01*
X153000Y62400D02*Y59400D01*
X153500Y58900D01*
X154500Y60900D02*X155000Y60400D01*
X153000Y60900D02*X154500D01*
X153500Y58900D02*X154500D01*
X155000Y59400D01*
Y60400D02*Y59400D01*
X124736Y89882D02*X126236D01*
X124236Y90382D02*X124736Y89882D01*
X124236Y93382D02*Y90382D01*
Y93382D02*X124736Y93882D01*
X126236D01*
X127436Y91882D02*X129436Y93882D01*
X127436Y91882D02*X129936D01*
X129436Y93882D02*Y89882D01*
X229307Y35650D02*X231307D01*
X231807Y35150D01*
Y34150D01*
X231307Y33650D02*X231807Y34150D01*
X229807Y33650D02*X231307D01*
X229807Y35650D02*Y31650D01*
Y33650D02*X231807Y31650D01*
X233507D02*X234507D01*
X234007Y35650D02*Y31650D01*
X233007Y34650D02*X234007Y35650D01*
X235707Y32150D02*X236207Y31650D01*
X235707Y35150D02*Y32150D01*
Y35150D02*X236207Y35650D01*
X237207D01*
X237707Y35150D01*
Y32150D01*
X237207Y31650D02*X237707Y32150D01*
X236207Y31650D02*X237207D01*
X235707Y32650D02*X237707Y34650D01*
X158000Y128000D02*Y124000D01*
X159500Y128000D02*X160000Y127500D01*
Y124500D01*
X159500Y124000D02*X160000Y124500D01*
X157500Y124000D02*X159500D01*
X157500Y128000D02*X159500D01*
X161200Y126000D02*X163200Y128000D01*
X161200Y126000D02*X163700D01*
X163200Y128000D02*Y124000D01*
X167000Y158500D02*X168500D01*
X166500Y159000D02*X167000Y158500D01*
X166500Y162000D02*Y159000D01*
Y162000D02*X167000Y162500D01*
X168500D01*
X170200Y158500D02*X171200D01*
X170700Y162500D02*Y158500D01*
X169700Y161500D02*X170700Y162500D01*
X172400Y162000D02*X172900Y162500D01*
X173900D01*
X174400Y162000D01*
Y159000D01*
X173900Y158500D02*X174400Y159000D01*
X172900Y158500D02*X173900D01*
X172400Y159000D02*X172900Y158500D01*
Y160500D02*X174400D01*
X173717Y141283D02*Y140783D01*
X174717Y139783D01*
X175717Y140783D01*
Y141283D02*Y140783D01*
X174717Y139783D02*Y137283D01*
X177417D02*X178417D01*
X177917Y141283D02*Y137283D01*
X176917Y140283D02*X177917Y141283D01*
X341000Y116500D02*Y113000D01*
X341500Y112500D01*
X342500D01*
X343000Y113000D01*
Y116500D02*Y113000D01*
X344200D02*X344700Y112500D01*
X344200Y114000D02*Y113000D01*
Y114000D02*X344700Y114500D01*
X345700D01*
X346200Y114000D01*
Y113000D01*
X345700Y112500D02*X346200Y113000D01*
X344700Y112500D02*X345700D01*
X344200Y115000D02*X344700Y114500D01*
X344200Y116000D02*Y115000D01*
Y116000D02*X344700Y116500D01*
X345700D01*
X346200Y116000D01*
Y115000D01*
X345700Y114500D02*X346200Y115000D01*
X190500Y100500D02*X192000D01*
X190000Y101000D02*X190500Y100500D01*
X190000Y104000D02*Y101000D01*
Y104000D02*X190500Y104500D01*
X192000D01*
X193700Y100500D02*X194700D01*
X194200Y104500D02*Y100500D01*
X193200Y103500D02*X194200Y104500D01*
X195900Y101000D02*X196400Y100500D01*
X195900Y104000D02*Y101000D01*
Y104000D02*X196400Y104500D01*
X197400D01*
X197900Y104000D01*
Y101000D01*
X197400Y100500D02*X197900Y101000D01*
X196400Y100500D02*X197400D01*
X195900Y101500D02*X197900Y103500D01*
X198000Y123500D02*X199500D01*
X197500Y124000D02*X198000Y123500D01*
X197500Y127000D02*Y124000D01*
Y127000D02*X198000Y127500D01*
X199500D01*
X200700Y123500D02*X202700Y125500D01*
Y127000D02*Y125500D01*
X202200Y127500D02*X202700Y127000D01*
X201200Y127500D02*X202200D01*
X200700Y127000D02*X201200Y127500D01*
X200700Y127000D02*Y126000D01*
X201200Y125500D01*
X202700D01*
X212000Y121000D02*X214000D01*
X214500Y120500D01*
Y119500D01*
X214000Y119000D02*X214500Y119500D01*
X212500Y119000D02*X214000D01*
X212500Y121000D02*Y117000D01*
Y119000D02*X214500Y117000D01*
X215700Y117500D02*X216200Y117000D01*
X215700Y118500D02*Y117500D01*
Y118500D02*X216200Y119000D01*
X217200D01*
X217700Y118500D01*
Y117500D01*
X217200Y117000D02*X217700Y117500D01*
X216200Y117000D02*X217200D01*
X215700Y119500D02*X216200Y119000D01*
X215700Y120500D02*Y119500D01*
Y120500D02*X216200Y121000D01*
X217200D01*
X217700Y120500D01*
Y119500D01*
X217200Y119000D02*X217700Y119500D01*
X208531Y155000D02*X210031D01*
Y151500D01*
X209531Y151000D02*X210031Y151500D01*
X209031Y151000D02*X209531D01*
X208531Y151500D02*X209031Y151000D01*
X211232Y153000D02*X213232Y155000D01*
X211232Y153000D02*X213732D01*
X213232Y155000D02*Y151000D01*
X329500Y122500D02*X331000D01*
X329000Y123000D02*X329500Y122500D01*
X329000Y126000D02*Y123000D01*
Y126000D02*X329500Y126500D01*
X331000D01*
X332700Y122500D02*X333700D01*
X333200Y126500D02*Y122500D01*
X332200Y125500D02*X333200Y126500D01*
X334900D02*X336900D01*
X334900D02*Y124500D01*
X335400Y125000D01*
X336400D01*
X336900Y124500D01*
Y123000D01*
X336400Y122500D02*X336900Y123000D01*
X335400Y122500D02*X336400D01*
X334900Y123000D02*X335400Y122500D01*
X329457Y132543D02*X330957D01*
X328957Y133043D02*X329457Y132543D01*
X328957Y136043D02*Y133043D01*
Y136043D02*X329457Y136543D01*
X330957D01*
X332657Y132543D02*X333657D01*
X333157Y136543D02*Y132543D01*
X332157Y135543D02*X333157Y136543D01*
X334857Y134543D02*X336857Y136543D01*
X334857Y134543D02*X337357D01*
X336857Y136543D02*Y132543D01*
M02*
