G04 start of page 2 for group 0 idx 0 *
G04 Title: (unknown), component *
G04 Creator: pcb 20110918 *
G04 CreationDate: Tue 05 Feb 2013 03:16:39 AM GMT UTC *
G04 For: railfan *
G04 Format: Gerber/RS-274X *
G04 PCB-Dimensions: 350000 175000 *
G04 PCB-Coordinate-Origin: lower left *
%MOIN*%
%FSLAX25Y25*%
%LNTOP*%
%ADD33C,0.0380*%
%ADD32C,0.0430*%
%ADD31C,0.0280*%
%ADD30C,0.0450*%
%ADD29C,0.0480*%
%ADD28C,0.1285*%
%ADD27C,0.0200*%
%ADD26R,0.0157X0.0157*%
%ADD25R,0.0360X0.0360*%
%ADD24R,0.0630X0.0630*%
%ADD23R,0.0240X0.0240*%
%ADD22R,0.0340X0.0340*%
%ADD21R,0.0512X0.0512*%
%ADD20C,0.0650*%
%ADD19C,0.0600*%
%ADD18C,0.0700*%
%ADD17C,0.0787*%
%ADD16C,0.0800*%
%ADD15C,0.2937*%
%ADD14C,0.0400*%
%ADD13C,0.0100*%
%ADD12C,0.0250*%
%ADD11C,0.0001*%
G54D11*G36*
X260000Y119000D02*X256000D01*
X254000Y121000D01*
Y135000D01*
X255000Y136000D01*
X260000D01*
X262000Y134000D01*
Y128000D01*
X260000Y126000D01*
Y119000D01*
G37*
G36*
X265500D02*Y126000D01*
X263500Y128000D01*
Y134000D01*
X265500Y136000D01*
X271000D01*
X272000Y135000D01*
Y121000D01*
X270000Y119000D01*
X265500D01*
G37*
G36*
X261500Y123000D02*X264000D01*
Y107500D01*
X261500D01*
Y123000D01*
G37*
G36*
X253000Y108500D02*X273000D01*
Y103500D01*
X253000D01*
Y108500D01*
G37*
G36*
Y103500D02*X273000D01*
Y98500D01*
X253000D01*
Y103500D01*
G37*
G36*
Y106000D02*X273000D01*
Y101000D01*
X253000D01*
Y106000D01*
G37*
G36*
X25750Y140000D02*X28000D01*
Y114000D01*
X25750D01*
Y116748D01*
X25868Y116757D01*
X25982Y116785D01*
X26092Y116830D01*
X26192Y116891D01*
X26282Y116968D01*
X26359Y117058D01*
X26420Y117158D01*
X26465Y117268D01*
X26493Y117382D01*
X26500Y117500D01*
Y122500D01*
X26493Y122618D01*
X26465Y122732D01*
X26420Y122842D01*
X26359Y122942D01*
X26282Y123032D01*
X26192Y123109D01*
X26092Y123170D01*
X25982Y123215D01*
X25868Y123243D01*
X25750Y123252D01*
Y140000D01*
G37*
G36*
X22500D02*X25750D01*
Y123252D01*
X25632Y123243D01*
X25518Y123215D01*
X25408Y123170D01*
X25308Y123109D01*
X25218Y123032D01*
X25141Y122942D01*
X25080Y122842D01*
X25035Y122732D01*
X25007Y122618D01*
X25000Y122500D01*
Y117500D01*
X25007Y117382D01*
X25035Y117268D01*
X25080Y117158D01*
X25141Y117058D01*
X25218Y116968D01*
X25308Y116891D01*
X25408Y116830D01*
X25518Y116785D01*
X25632Y116757D01*
X25750Y116748D01*
Y114000D01*
X22500D01*
Y114500D01*
X23500D01*
X23618Y114507D01*
X23732Y114535D01*
X23842Y114580D01*
X23942Y114641D01*
X24032Y114718D01*
X24109Y114808D01*
X24170Y114908D01*
X24215Y115018D01*
X24243Y115132D01*
X24252Y115250D01*
X24243Y115368D01*
X24215Y115482D01*
X24170Y115592D01*
X24109Y115692D01*
X24032Y115782D01*
X23942Y115859D01*
X23842Y115920D01*
X23732Y115965D01*
X23618Y115993D01*
X23500Y116000D01*
X22500D01*
Y124000D01*
X23500D01*
X23618Y124007D01*
X23732Y124035D01*
X23842Y124080D01*
X23942Y124141D01*
X24032Y124218D01*
X24109Y124308D01*
X24170Y124408D01*
X24215Y124518D01*
X24243Y124632D01*
X24252Y124750D01*
X24243Y124868D01*
X24215Y124982D01*
X24170Y125092D01*
X24109Y125192D01*
X24032Y125282D01*
X23942Y125359D01*
X23842Y125420D01*
X23732Y125465D01*
X23618Y125493D01*
X23500Y125500D01*
X22500D01*
Y132604D01*
X24457Y132609D01*
X24610Y132646D01*
X24755Y132706D01*
X24890Y132788D01*
X25009Y132891D01*
X25112Y133010D01*
X25194Y133145D01*
X25254Y133290D01*
X25291Y133443D01*
X25300Y133600D01*
X25291Y138557D01*
X25254Y138710D01*
X25194Y138855D01*
X25112Y138990D01*
X25009Y139109D01*
X24890Y139212D01*
X24755Y139294D01*
X24610Y139354D01*
X24457Y139391D01*
X24300Y139400D01*
X22500Y139396D01*
Y140000D01*
G37*
G36*
X16250D02*X22500D01*
Y139396D01*
X20543Y139391D01*
X20390Y139354D01*
X20245Y139294D01*
X20110Y139212D01*
X19991Y139109D01*
X19888Y138990D01*
X19806Y138855D01*
X19746Y138710D01*
X19709Y138557D01*
X19700Y138400D01*
X19709Y133443D01*
X19746Y133290D01*
X19806Y133145D01*
X19888Y133010D01*
X19991Y132891D01*
X20110Y132788D01*
X20245Y132706D01*
X20390Y132646D01*
X20543Y132609D01*
X20700Y132600D01*
X22500Y132604D01*
Y125500D01*
X18500D01*
X18382Y125493D01*
X18268Y125465D01*
X18158Y125420D01*
X18058Y125359D01*
X17968Y125282D01*
X17891Y125192D01*
X17830Y125092D01*
X17785Y124982D01*
X17757Y124868D01*
X17748Y124750D01*
X17757Y124632D01*
X17785Y124518D01*
X17830Y124408D01*
X17891Y124308D01*
X17968Y124218D01*
X18058Y124141D01*
X18158Y124080D01*
X18268Y124035D01*
X18382Y124007D01*
X18500Y124000D01*
X22500D01*
Y116000D01*
X18500D01*
X18382Y115993D01*
X18268Y115965D01*
X18158Y115920D01*
X18058Y115859D01*
X17968Y115782D01*
X17891Y115692D01*
X17830Y115592D01*
X17785Y115482D01*
X17757Y115368D01*
X17748Y115250D01*
X17757Y115132D01*
X17785Y115018D01*
X17830Y114908D01*
X17891Y114808D01*
X17968Y114718D01*
X18058Y114641D01*
X18158Y114580D01*
X18268Y114535D01*
X18382Y114507D01*
X18500Y114500D01*
X22500D01*
Y114000D01*
X16250D01*
Y116748D01*
X16368Y116757D01*
X16482Y116785D01*
X16592Y116830D01*
X16692Y116891D01*
X16782Y116968D01*
X16859Y117058D01*
X16920Y117158D01*
X16965Y117268D01*
X16993Y117382D01*
X17000Y117500D01*
Y122500D01*
X16993Y122618D01*
X16965Y122732D01*
X16920Y122842D01*
X16859Y122942D01*
X16782Y123032D01*
X16692Y123109D01*
X16592Y123170D01*
X16482Y123215D01*
X16368Y123243D01*
X16250Y123252D01*
Y140000D01*
G37*
G36*
X8000D02*X16250D01*
Y123252D01*
X16132Y123243D01*
X16018Y123215D01*
X15908Y123170D01*
X15808Y123109D01*
X15718Y123032D01*
X15641Y122942D01*
X15580Y122842D01*
X15535Y122732D01*
X15507Y122618D01*
X15500Y122500D01*
Y117500D01*
X15507Y117382D01*
X15535Y117268D01*
X15580Y117158D01*
X15641Y117058D01*
X15718Y116968D01*
X15808Y116891D01*
X15908Y116830D01*
X16018Y116785D01*
X16132Y116757D01*
X16250Y116748D01*
Y114000D01*
X8000D01*
Y140000D01*
G37*
G36*
X17000D02*X28000D01*
Y128000D01*
X17000D01*
Y140000D01*
G37*
G36*
X32000Y124000D02*X60000D01*
Y105000D01*
X32000D01*
Y124000D01*
G37*
G36*
X35000Y126000D02*X38000D01*
X40000Y124000D01*
Y121000D01*
X37833D01*
X37681Y121366D01*
X37435Y121769D01*
X37128Y122128D01*
X36769Y122435D01*
X36366Y122681D01*
X35930Y122862D01*
X35471Y122972D01*
X35000Y123009D01*
Y126000D01*
G37*
G36*
X25493Y107000D02*X28000D01*
Y88000D01*
X25493D01*
Y97145D01*
X25578Y97181D01*
X25679Y97243D01*
X25769Y97319D01*
X25845Y97409D01*
X25905Y97511D01*
X26122Y97980D01*
X26289Y98469D01*
X26409Y98972D01*
X26482Y99484D01*
X26506Y100000D01*
X26482Y100516D01*
X26409Y101028D01*
X26289Y101531D01*
X26122Y102020D01*
X25910Y102492D01*
X25849Y102593D01*
X25772Y102684D01*
X25682Y102761D01*
X25580Y102823D01*
X25493Y102860D01*
Y107000D01*
G37*
G36*
X21002D02*X25493D01*
Y102860D01*
X25471Y102869D01*
X25355Y102897D01*
X25237Y102906D01*
X25119Y102897D01*
X25003Y102870D01*
X24893Y102824D01*
X24792Y102762D01*
X24702Y102686D01*
X24624Y102595D01*
X24562Y102494D01*
X24516Y102385D01*
X24489Y102269D01*
X24479Y102151D01*
X24488Y102032D01*
X24516Y101917D01*
X24563Y101808D01*
X24721Y101468D01*
X24842Y101112D01*
X24930Y100747D01*
X24982Y100375D01*
X25000Y100000D01*
X24982Y99625D01*
X24930Y99253D01*
X24842Y98888D01*
X24721Y98532D01*
X24567Y98190D01*
X24520Y98082D01*
X24493Y97967D01*
X24483Y97849D01*
X24493Y97732D01*
X24521Y97617D01*
X24566Y97508D01*
X24628Y97407D01*
X24705Y97318D01*
X24795Y97241D01*
X24895Y97180D01*
X25004Y97135D01*
X25119Y97107D01*
X25237Y97098D01*
X25355Y97108D01*
X25469Y97135D01*
X25493Y97145D01*
Y88000D01*
X21002D01*
Y94494D01*
X21516Y94518D01*
X22028Y94591D01*
X22531Y94711D01*
X23020Y94878D01*
X23492Y95090D01*
X23593Y95151D01*
X23684Y95228D01*
X23761Y95318D01*
X23823Y95420D01*
X23869Y95529D01*
X23897Y95645D01*
X23906Y95763D01*
X23897Y95881D01*
X23870Y95997D01*
X23824Y96107D01*
X23762Y96208D01*
X23686Y96298D01*
X23595Y96376D01*
X23494Y96438D01*
X23385Y96484D01*
X23269Y96511D01*
X23151Y96521D01*
X23032Y96512D01*
X22917Y96484D01*
X22808Y96437D01*
X22468Y96279D01*
X22112Y96158D01*
X21747Y96070D01*
X21375Y96018D01*
X21002Y96000D01*
Y104000D01*
X21375Y103982D01*
X21747Y103930D01*
X22112Y103842D01*
X22468Y103721D01*
X22810Y103567D01*
X22918Y103520D01*
X23033Y103493D01*
X23151Y103483D01*
X23268Y103493D01*
X23383Y103521D01*
X23492Y103566D01*
X23593Y103628D01*
X23682Y103705D01*
X23759Y103795D01*
X23820Y103895D01*
X23865Y104004D01*
X23893Y104119D01*
X23902Y104237D01*
X23892Y104355D01*
X23865Y104469D01*
X23819Y104578D01*
X23757Y104679D01*
X23681Y104769D01*
X23591Y104845D01*
X23489Y104905D01*
X23020Y105122D01*
X22531Y105289D01*
X22028Y105409D01*
X21516Y105482D01*
X21002Y105506D01*
Y107000D01*
G37*
G36*
X16507D02*X21002D01*
Y105506D01*
X21000Y105506D01*
X20484Y105482D01*
X19972Y105409D01*
X19469Y105289D01*
X18980Y105122D01*
X18508Y104910D01*
X18407Y104849D01*
X18316Y104772D01*
X18239Y104682D01*
X18177Y104580D01*
X18131Y104471D01*
X18103Y104355D01*
X18094Y104237D01*
X18103Y104119D01*
X18130Y104003D01*
X18176Y103893D01*
X18238Y103792D01*
X18314Y103702D01*
X18405Y103624D01*
X18506Y103562D01*
X18615Y103516D01*
X18731Y103489D01*
X18849Y103479D01*
X18968Y103488D01*
X19083Y103516D01*
X19192Y103563D01*
X19532Y103721D01*
X19888Y103842D01*
X20253Y103930D01*
X20625Y103982D01*
X21000Y104000D01*
X21002Y104000D01*
Y96000D01*
X21000Y96000D01*
X20625Y96018D01*
X20253Y96070D01*
X19888Y96158D01*
X19532Y96279D01*
X19190Y96433D01*
X19082Y96480D01*
X18967Y96507D01*
X18849Y96517D01*
X18732Y96507D01*
X18617Y96479D01*
X18508Y96434D01*
X18407Y96372D01*
X18318Y96295D01*
X18241Y96205D01*
X18180Y96105D01*
X18135Y95996D01*
X18107Y95881D01*
X18098Y95763D01*
X18108Y95645D01*
X18135Y95531D01*
X18181Y95422D01*
X18243Y95321D01*
X18319Y95231D01*
X18409Y95155D01*
X18511Y95095D01*
X18980Y94878D01*
X19469Y94711D01*
X19972Y94591D01*
X20484Y94518D01*
X21000Y94494D01*
X21002Y94494D01*
Y88000D01*
X16507D01*
Y97140D01*
X16529Y97131D01*
X16645Y97103D01*
X16763Y97094D01*
X16881Y97103D01*
X16997Y97130D01*
X17107Y97176D01*
X17208Y97238D01*
X17298Y97314D01*
X17376Y97405D01*
X17438Y97506D01*
X17484Y97615D01*
X17511Y97731D01*
X17521Y97849D01*
X17512Y97968D01*
X17484Y98083D01*
X17437Y98192D01*
X17279Y98532D01*
X17158Y98888D01*
X17070Y99253D01*
X17018Y99625D01*
X17000Y100000D01*
X17018Y100375D01*
X17070Y100747D01*
X17158Y101112D01*
X17279Y101468D01*
X17433Y101810D01*
X17480Y101918D01*
X17507Y102033D01*
X17517Y102151D01*
X17507Y102268D01*
X17479Y102383D01*
X17434Y102492D01*
X17372Y102593D01*
X17295Y102682D01*
X17205Y102759D01*
X17105Y102820D01*
X16996Y102865D01*
X16881Y102893D01*
X16763Y102902D01*
X16645Y102892D01*
X16531Y102865D01*
X16507Y102855D01*
Y107000D01*
G37*
G36*
X8000D02*X16507D01*
Y102855D01*
X16422Y102819D01*
X16321Y102757D01*
X16231Y102681D01*
X16155Y102591D01*
X16095Y102489D01*
X15878Y102020D01*
X15711Y101531D01*
X15591Y101028D01*
X15518Y100516D01*
X15494Y100000D01*
X15518Y99484D01*
X15591Y98972D01*
X15711Y98469D01*
X15878Y97980D01*
X16090Y97508D01*
X16151Y97407D01*
X16228Y97316D01*
X16318Y97239D01*
X16420Y97177D01*
X16507Y97140D01*
Y88000D01*
X8000D01*
Y107000D01*
G37*
G36*
X31000Y100000D02*Y95000D01*
X25493D01*
Y97145D01*
X25578Y97181D01*
X25679Y97243D01*
X25769Y97319D01*
X25845Y97409D01*
X25905Y97511D01*
X26122Y97980D01*
X26289Y98469D01*
X26409Y98972D01*
X26482Y99484D01*
X26506Y100000D01*
X26482Y100516D01*
X26409Y101028D01*
X26289Y101531D01*
X26122Y102020D01*
X25910Y102492D01*
X25849Y102593D01*
X25772Y102684D01*
X25682Y102761D01*
X25580Y102823D01*
X25493Y102860D01*
Y103000D01*
X28000D01*
X31000Y100000D01*
G37*
G36*
X25493Y95000D02*X24000D01*
Y103000D01*
X25493D01*
Y102860D01*
X25471Y102869D01*
X25355Y102897D01*
X25237Y102906D01*
X25119Y102897D01*
X25003Y102870D01*
X24893Y102824D01*
X24792Y102762D01*
X24702Y102686D01*
X24624Y102595D01*
X24562Y102494D01*
X24516Y102385D01*
X24489Y102269D01*
X24479Y102151D01*
X24488Y102032D01*
X24516Y101917D01*
X24563Y101808D01*
X24721Y101468D01*
X24842Y101112D01*
X24930Y100747D01*
X24982Y100375D01*
X25000Y100000D01*
X24982Y99625D01*
X24930Y99253D01*
X24842Y98888D01*
X24721Y98532D01*
X24567Y98190D01*
X24520Y98082D01*
X24493Y97967D01*
X24483Y97849D01*
X24493Y97732D01*
X24521Y97617D01*
X24566Y97508D01*
X24628Y97407D01*
X24705Y97318D01*
X24795Y97241D01*
X24895Y97180D01*
X25004Y97135D01*
X25119Y97107D01*
X25237Y97098D01*
X25355Y97108D01*
X25469Y97135D01*
X25493Y97145D01*
Y95000D01*
G37*
G36*
X31000Y140000D02*X38000D01*
Y105000D01*
X31000D01*
Y140000D01*
G37*
G36*
X21002Y100000D02*X25000D01*
X24982Y99625D01*
X24930Y99253D01*
X24842Y98888D01*
X24721Y98532D01*
X24567Y98190D01*
X24520Y98082D01*
X24493Y97967D01*
X24483Y97849D01*
X24493Y97732D01*
X24521Y97617D01*
X24566Y97508D01*
X24628Y97407D01*
X24705Y97318D01*
X24795Y97241D01*
X24895Y97180D01*
X25004Y97135D01*
X25119Y97107D01*
X25237Y97098D01*
X25355Y97108D01*
X25469Y97135D01*
X25578Y97181D01*
X25679Y97243D01*
X25769Y97319D01*
X25845Y97409D01*
X25905Y97511D01*
X26122Y97980D01*
X26289Y98469D01*
X26409Y98972D01*
X26482Y99484D01*
X26506Y100000D01*
X50451D01*
X50419Y99922D01*
X50364Y99692D01*
X50350Y99457D01*
X50362Y88000D01*
X21002D01*
Y94494D01*
X21516Y94518D01*
X22028Y94591D01*
X22531Y94711D01*
X23020Y94878D01*
X23492Y95090D01*
X23593Y95151D01*
X23684Y95228D01*
X23761Y95318D01*
X23823Y95420D01*
X23869Y95529D01*
X23897Y95645D01*
X23906Y95763D01*
X23897Y95881D01*
X23870Y95997D01*
X23824Y96107D01*
X23762Y96208D01*
X23686Y96298D01*
X23595Y96376D01*
X23494Y96438D01*
X23385Y96484D01*
X23269Y96511D01*
X23151Y96521D01*
X23032Y96512D01*
X22917Y96484D01*
X22808Y96437D01*
X22468Y96279D01*
X22112Y96158D01*
X21747Y96070D01*
X21375Y96018D01*
X21002Y96000D01*
Y100000D01*
G37*
G36*
X14000D02*X15494D01*
X15518Y99484D01*
X15591Y98972D01*
X15711Y98469D01*
X15878Y97980D01*
X16090Y97508D01*
X16151Y97407D01*
X16228Y97316D01*
X16318Y97239D01*
X16420Y97177D01*
X16529Y97131D01*
X16645Y97103D01*
X16763Y97094D01*
X16881Y97103D01*
X16997Y97130D01*
X17107Y97176D01*
X17208Y97238D01*
X17298Y97314D01*
X17376Y97405D01*
X17438Y97506D01*
X17484Y97615D01*
X17511Y97731D01*
X17521Y97849D01*
X17512Y97968D01*
X17484Y98083D01*
X17437Y98192D01*
X17279Y98532D01*
X17158Y98888D01*
X17070Y99253D01*
X17018Y99625D01*
X17000Y100000D01*
X21002D01*
Y96000D01*
X21000Y96000D01*
X20625Y96018D01*
X20253Y96070D01*
X19888Y96158D01*
X19532Y96279D01*
X19190Y96433D01*
X19082Y96480D01*
X18967Y96507D01*
X18849Y96517D01*
X18732Y96507D01*
X18617Y96479D01*
X18508Y96434D01*
X18407Y96372D01*
X18318Y96295D01*
X18241Y96205D01*
X18180Y96105D01*
X18135Y95996D01*
X18107Y95881D01*
X18098Y95763D01*
X18108Y95645D01*
X18135Y95531D01*
X18181Y95422D01*
X18243Y95321D01*
X18319Y95231D01*
X18409Y95155D01*
X18511Y95095D01*
X18980Y94878D01*
X19469Y94711D01*
X19972Y94591D01*
X20484Y94518D01*
X21000Y94494D01*
X21002Y94494D01*
Y88000D01*
X14000D01*
Y100000D01*
G37*
G36*
X31000D02*X60000D01*
Y65000D01*
X31000D01*
Y100000D01*
G37*
G36*
X59500Y84000D02*X71882D01*
X71529Y83972D01*
X71070Y83862D01*
X70634Y83681D01*
X70231Y83435D01*
X69872Y83128D01*
X69565Y82769D01*
X69319Y82366D01*
X69138Y81930D01*
X69028Y81471D01*
X68991Y81000D01*
X69028Y80529D01*
X69138Y80070D01*
X69319Y79634D01*
X69565Y79231D01*
X69872Y78872D01*
X70231Y78565D01*
X70634Y78319D01*
X71070Y78138D01*
X71529Y78028D01*
X71882Y78000D01*
X71529Y77972D01*
X71070Y77862D01*
X70634Y77681D01*
X70231Y77435D01*
X69872Y77128D01*
X69565Y76769D01*
X69319Y76366D01*
X69138Y75930D01*
X69028Y75471D01*
X68991Y75000D01*
X69028Y74529D01*
X69138Y74070D01*
X69319Y73634D01*
X69565Y73231D01*
X69872Y72872D01*
X70231Y72565D01*
X70634Y72319D01*
X71070Y72138D01*
X71529Y72028D01*
X72000Y71991D01*
X72471Y72028D01*
X72930Y72138D01*
X73366Y72319D01*
X73769Y72565D01*
X74000Y72763D01*
Y51000D01*
X59500D01*
Y53072D01*
X63751Y53082D01*
X64057Y53155D01*
X64348Y53275D01*
X64616Y53440D01*
X64856Y53644D01*
X65060Y53884D01*
X65225Y54152D01*
X65345Y54443D01*
X65418Y54749D01*
X65437Y55063D01*
X65418Y63251D01*
X65345Y63557D01*
X65225Y63848D01*
X65060Y64116D01*
X64856Y64356D01*
X64616Y64560D01*
X64348Y64725D01*
X64057Y64845D01*
X63751Y64918D01*
X63437Y64937D01*
X59500Y64928D01*
Y84000D01*
G37*
G36*
X31000D02*X59500D01*
Y64928D01*
X55249Y64918D01*
X54943Y64845D01*
X54652Y64725D01*
X54384Y64560D01*
X54144Y64356D01*
X53940Y64116D01*
X53775Y63848D01*
X53655Y63557D01*
X53582Y63251D01*
X53563Y62937D01*
X53582Y54749D01*
X53655Y54443D01*
X53775Y54152D01*
X53940Y53884D01*
X54144Y53644D01*
X54384Y53440D01*
X54652Y53275D01*
X54943Y53155D01*
X55249Y53082D01*
X55563Y53063D01*
X59500Y53072D01*
Y51000D01*
X31000D01*
Y84000D01*
G37*
G36*
X59637Y99000D02*X60000D01*
X64000Y95000D01*
Y92000D01*
X59644D01*
X59637Y99000D01*
G37*
G36*
X55000Y95000D02*X76000D01*
Y76000D01*
X55000D01*
Y95000D01*
G37*
G36*
X31000Y51000D02*Y66000D01*
X43000D01*
Y51000D01*
X31000D01*
G37*
G36*
X59000Y85000D02*X87000D01*
Y71000D01*
X59000D01*
Y85000D01*
G37*
G36*
X77000Y54000D02*X76000D01*
Y66000D01*
X86000D01*
X91000Y71000D01*
Y86000D01*
X89000Y88000D01*
X79000D01*
X78000Y89000D01*
Y97000D01*
X77000Y98000D01*
X73000D01*
Y109000D01*
X104000D01*
X109000Y104000D01*
Y61000D01*
X106000Y58000D01*
X89000D01*
X85000Y54000D01*
X77000D01*
G37*
G36*
X73000Y109000D02*X98000D01*
Y97000D01*
X73000D01*
Y109000D01*
G37*
G36*
X78000Y96000D02*X88000D01*
Y88000D01*
X78000D01*
Y96000D01*
G37*
G36*
X101000Y107000D02*X110000D01*
Y98000D01*
X101000D01*
Y107000D01*
G37*
G36*
X81500Y119000D02*Y126000D01*
X79500Y128000D01*
Y134000D01*
X81500Y136000D01*
X87000D01*
X88000Y135000D01*
Y121000D01*
X86000Y119000D01*
X81500D01*
G37*
G36*
X76000D02*X72000D01*
X70000Y121000D01*
Y135000D01*
X71000Y136000D01*
X76000D01*
X78000Y134000D01*
Y128000D01*
X76000Y126000D01*
Y119000D01*
G37*
G36*
X101000Y100000D02*X110000D01*
Y91000D01*
X101000D01*
Y100000D01*
G37*
G36*
Y94000D02*X110000D01*
Y85000D01*
X101000D01*
Y94000D01*
G37*
G36*
X74833Y74000D02*X75167D01*
X75319Y73634D01*
X75565Y73231D01*
X75872Y72872D01*
X76231Y72565D01*
X76634Y72319D01*
X77070Y72138D01*
X77529Y72028D01*
X78000Y71991D01*
Y71000D01*
X74000Y67000D01*
X71000D01*
Y72167D01*
X71070Y72138D01*
X71529Y72028D01*
X72000Y71991D01*
X72471Y72028D01*
X72930Y72138D01*
X73366Y72319D01*
X73769Y72565D01*
X74128Y72872D01*
X74435Y73231D01*
X74681Y73634D01*
X74833Y74000D01*
G37*
G36*
X92000Y58000D02*Y66500D01*
X109000D01*
Y61000D01*
X106000Y58000D01*
X92000D01*
G37*
G36*
X76000Y66000D02*X85000D01*
Y51000D01*
X76000D01*
Y66000D01*
G37*
G54D12*X94000Y44000D02*Y15000D01*
X104000Y44000D02*Y21000D01*
X84000Y44000D02*Y45000D01*
X91000Y52000D01*
X74000Y33000D02*Y44000D01*
X69000Y35000D02*X22000D01*
X114000Y44000D02*Y33000D01*
X91000Y52000D02*X121000D01*
X124000Y49000D01*
Y44000D01*
X115000Y61000D02*X119000D01*
X122000Y64000D01*
X124000Y32000D02*X129000D01*
X128000Y51000D02*Y57000D01*
X128500Y15000D02*X127000D01*
X125000Y17000D01*
Y24500D01*
X22000Y35000D02*X5000Y52000D01*
Y136500D01*
X37000Y144000D02*X38500D01*
X40000Y145500D01*
X30000Y144500D02*X34000Y148500D01*
Y153500D01*
X40000Y145500D02*Y150000D01*
X39500Y150500D01*
X47000D02*X58000D01*
X34000Y153500D02*X38000Y157500D01*
G54D13*X34500Y137000D02*X53000D01*
X51500D02*X56000D01*
X57500Y138500D01*
Y144000D01*
G54D12*X155500Y74500D02*Y84000D01*
G54D13*X150500Y77500D02*X152000Y76000D01*
Y70500D01*
X158500Y75500D02*Y77000D01*
X160500Y79000D01*
X155500Y75000D02*Y61500D01*
X152000Y69500D02*Y67500D01*
X148000Y63500D01*
X157500Y57500D02*X149000D01*
X148500Y58000D01*
Y61500D01*
G54D12*X155500Y84000D02*X161500D01*
X164000Y81500D01*
G54D13*X164500Y81000D02*X163500Y82000D01*
X146000Y70500D02*Y86000D01*
X146500Y86500D01*
X191000Y44000D02*Y40000D01*
X183000Y76000D02*X189000D01*
X183500Y82000D02*X185000Y80500D01*
X183000Y85500D02*X185500Y83000D01*
X182000Y58000D02*Y52000D01*
X184500Y49500D01*
X156000Y41000D02*X157500Y39500D01*
X145000Y50000D02*X151000D01*
X153000Y48000D02*Y38000D01*
X155000Y36000D01*
X153000Y43000D02*Y41000D01*
G54D12*X147500Y37000D02*Y46500D01*
G54D13*X145500Y52500D02*X154500D01*
X156000Y51000D01*
Y41000D01*
X151000Y50000D02*X153000Y48000D01*
X158000Y47000D02*Y52000D01*
X157500Y39500D02*X170000D01*
X155000Y36000D02*X188000D01*
X158000Y52000D02*X155000Y55000D01*
X164000Y54000D02*Y51000D01*
X155000Y55000D02*X146000D01*
X161000Y44000D02*X158000Y47000D01*
X164000Y51000D02*X171000Y44000D01*
G54D12*X151000Y77000D02*Y87000D01*
X155500Y84000D02*X159500Y88000D01*
Y94500D01*
X161000Y96000D01*
X165500D01*
G54D13*X162000Y70000D02*Y65000D01*
X158500Y69500D02*Y58500D01*
X157500Y57500D01*
X162000Y65000D02*X165000Y62000D01*
X158500Y70500D02*Y77000D01*
X162000Y69000D02*Y75500D01*
X164500Y78000D01*
Y81000D01*
G54D14*X140000Y50000D02*Y17500D01*
G54D13*X139000Y74000D02*X137000Y76000D01*
X132000D01*
X130000Y78000D01*
X143000Y76000D02*X144000Y77000D01*
Y81000D01*
X143000Y82000D01*
X141000Y77000D02*Y57000D01*
X143000Y58000D02*Y76000D01*
X141000Y57000D02*X145500Y52500D01*
X139000Y74000D02*Y56000D01*
X145000Y50000D01*
X146000Y55000D02*X143000Y58000D01*
G54D14*X134000Y9500D02*Y62500D01*
G54D12*X129000Y32000D02*X134000Y37000D01*
G54D14*X138000Y5000D02*X189000D01*
X138500D02*X134000Y9500D01*
X189000Y5000D02*X191000Y7000D01*
Y14000D01*
X140000Y17500D02*X143500Y14000D01*
X161500D01*
X167000Y20000D02*X161000Y14000D01*
G54D13*X130000Y78000D02*Y83000D01*
X132000Y85000D01*
X139000D01*
X141000Y77000D02*X139000Y79000D01*
X136000D01*
X143000Y82000D02*X138000D01*
G54D12*X122000Y64000D02*Y77000D01*
X114000Y73000D02*Y70000D01*
X116000Y68000D01*
X117000D01*
G54D13*X127500Y86500D02*Y63500D01*
X199000Y69000D02*X201000Y67000D01*
X210000Y69500D02*Y63500D01*
X221000Y52000D02*X223000Y54000D01*
X226000D01*
X219000Y62000D02*X227000D01*
X170000Y39500D02*X171000Y40500D01*
X191000Y39500D02*Y41500D01*
X188000Y36000D02*X191000Y39000D01*
Y41000D01*
X186000Y36000D02*X218000D01*
X221000Y39000D01*
X171000Y40500D02*Y44500D01*
G54D14*X191000Y14000D02*X195000D01*
X196000Y13000D01*
X204000D01*
X205000Y20000D02*X167000D01*
G54D12*X204000Y13000D02*X215000D01*
G54D13*Y19500D02*X218000D01*
X221000Y41000D02*Y21000D01*
X223000Y19000D01*
X218000Y19500D02*X220000Y17500D01*
Y7500D01*
X223000Y4500D01*
X222500Y19500D02*X223000Y19000D01*
Y12500D01*
Y13000D02*Y10000D01*
X225000Y8000D01*
X201000Y67000D02*Y46000D01*
X188000Y56000D02*X189000Y57000D01*
X195000D01*
X203000Y44000D02*X210000D01*
X221000Y39000D02*Y52000D01*
X201000Y46000D02*X203000Y44000D01*
X188000Y54000D02*Y56000D01*
X184500Y49500D02*X197000D01*
X198500Y48000D01*
Y42500D01*
X189500Y123000D02*X190500Y124000D01*
X203500D01*
X182500Y111500D02*X207500D01*
X210000Y114000D02*X208000Y112000D01*
X189500Y117500D02*Y123000D01*
X183000Y132000D02*X188000D01*
X190000Y134000D01*
X165000Y120000D02*Y129000D01*
G54D12*X173000Y122000D02*Y164000D01*
X168000Y169000D02*X173000Y164000D01*
G54D13*X203500Y124000D02*X204500Y123000D01*
Y118500D01*
X207500Y111500D02*X209500Y113500D01*
X207000Y124000D02*X206000Y125000D01*
X210000Y121000D01*
Y114000D01*
X206000Y125000D02*Y129000D01*
X190000Y134000D02*X208500D01*
X210000Y132500D01*
G54D14*X205000Y169000D02*X215000D01*
Y164000D02*X210000Y169000D01*
X205000D02*X215000Y159000D01*
Y169000D02*Y129000D01*
Y164000D01*
G54D13*X210000Y121000D02*X213000Y124000D01*
X212500Y123500D02*X213000Y124000D01*
G54D12*X238000Y130000D02*Y149000D01*
X228000Y130000D02*Y155000D01*
X215000Y129000D02*Y128500D01*
G54D13*X213000Y124000D02*X229500D01*
G54D12*X248000Y130000D02*Y143000D01*
G54D13*X229000Y110500D02*X241500D01*
X279500Y107500D02*X278500Y106500D01*
X268500D01*
X266500Y112000D02*X279500D01*
X223500Y110500D02*X222000Y112000D01*
X247000Y120000D02*X252500D01*
X253000Y119500D01*
Y116500D01*
X246500Y112000D02*X259500D01*
X222000D02*Y120000D01*
X227000Y118500D02*Y117000D01*
X229000Y115000D01*
X229500Y124000D02*X231000Y122500D01*
X229000Y115000D02*X239500D01*
X240000Y115500D01*
Y118500D01*
G54D12*X113000Y129000D02*Y130000D01*
X64000D02*Y132000D01*
X104000Y130000D02*Y149000D01*
X94000Y130000D02*Y155000D01*
X124000Y131000D02*Y143000D01*
G54D13*X134000Y132000D02*X132000Y134000D01*
Y138000D01*
G54D12*X47000Y150500D02*Y159000D01*
X47500Y159500D01*
X40500Y169000D02*X168000D01*
X38000Y157500D02*Y166500D01*
X40500Y169000D01*
G54D13*X132000Y99000D02*X133000Y98000D01*
X115000Y104000D02*X125000D01*
X130000Y101000D02*X133000Y98000D01*
X115000Y109000D02*Y104000D01*
X149500Y114000D02*X149000Y113500D01*
X106000Y113000D02*X109000Y110000D01*
X114000D01*
X115000Y109000D01*
X124000Y110000D02*X129000D01*
X130000Y109000D01*
Y101000D01*
X138000D02*X135000D01*
X134000Y102000D02*Y115000D01*
X133000Y127000D02*Y121000D01*
X123000D01*
X115500Y117000D02*X116500Y118000D01*
Y121000D01*
X83000Y113000D02*X93000D01*
X92000D02*X106000D01*
X69000D02*X75000D01*
G54D12*X79000Y122500D02*Y103500D01*
G54D13*X78500Y117000D02*X115500D01*
X133000Y98000D02*X139000D01*
X135000Y101000D02*X134000Y102000D01*
G54D12*X151000Y87000D02*X155500Y91500D01*
G54D13*X144000Y103000D02*Y90000D01*
X143000Y89000D01*
X144000Y90000D02*X142500Y88500D01*
X136000D01*
X114000Y81000D02*Y95000D01*
X122000D02*Y88000D01*
X138500Y88500D02*X129500D01*
X127500Y86500D01*
G54D12*X155500Y91500D02*Y104000D01*
G54D13*X168000Y107500D02*Y114000D01*
X170000Y116000D01*
X155500Y102500D02*Y115000D01*
X158500Y108500D02*Y113500D01*
X162000Y108000D02*Y114000D01*
X167000Y119000D01*
X165000Y110000D02*Y101000D01*
X149500Y130500D02*Y114000D01*
X146000Y134000D02*Y107500D01*
X141000Y106000D02*Y140000D01*
X149000Y113500D02*Y107500D01*
X141000Y106000D02*X144000Y103000D01*
X155500Y115000D02*X154000Y116500D01*
Y138000D01*
X158500Y118500D02*X160500Y120500D01*
X158500Y113500D02*X165000Y120000D01*
X160500Y120500D02*Y124000D01*
X165000Y129000D02*X161500Y132500D01*
Y139000D01*
X167000Y119000D02*Y159000D01*
X176500Y101000D02*Y111000D01*
X179500Y114000D01*
X170000Y116000D02*X188000D01*
X183000Y104000D02*X185000Y106000D01*
X190000D01*
X179500Y114000D02*X193500D01*
X195000Y115500D01*
Y119500D01*
X188000Y116000D02*X189500Y117500D01*
X175000Y95000D02*X180000D01*
X173500Y91500D02*X180500D01*
X184500Y95500D01*
X180000Y95000D02*X183000Y98000D01*
Y104000D01*
X184500Y95500D02*X189500D01*
X173500Y88500D02*X189500D01*
X174000Y82000D02*X183500D01*
X173500Y85500D02*X183000D01*
G54D12*X288000Y149000D02*Y130000D01*
X308000D02*Y143000D01*
X288000Y130000D02*X297000Y121000D01*
X308000Y143000D02*Y123500D01*
G54D13*X272000Y112000D02*X273500Y113500D01*
G54D12*X280000Y121000D02*X289000D01*
Y105000D02*Y114000D01*
G54D13*X273000Y112000D02*X266500D01*
X271000D02*X272000D01*
X273500Y113500D02*Y116500D01*
G54D12*X278000Y155000D02*Y123000D01*
X280000Y121000D01*
X297000D02*X300000D01*
G54D13*X335500Y120000D02*X339000Y116500D01*
G54D12*X308000Y123500D02*X311000Y120500D01*
X322000D01*
X320500Y105000D02*Y114000D01*
X305000Y105000D02*Y110500D01*
X302500Y113000D01*
G54D13*X339000Y116500D02*Y89500D01*
X338000Y88500D01*
X341500Y82500D02*Y124000D01*
X338000Y88500D02*X334000D01*
X330500Y95000D02*X335500D01*
X334500Y80000D02*X339000D01*
X341500Y82500D01*
X174000Y98000D02*X179500D01*
X180500Y99000D01*
Y109500D01*
X182500Y111500D01*
X170000Y89000D02*Y99000D01*
X172000Y101000D01*
X176000D01*
G54D12*X165500Y96000D02*Y101000D01*
G54D13*X165000Y70000D02*Y67000D01*
X166000Y66000D01*
X171000D01*
X172000Y67000D01*
Y68000D01*
X173000Y69000D01*
X230000Y110500D02*X223500D01*
X221000Y85500D02*X225000Y89500D01*
X223500Y91500D02*X219500Y87500D01*
X202000D01*
X224000Y92000D02*X222000Y90000D01*
X223500Y88000D02*X225000Y89500D01*
X222000Y86500D02*X221000Y85500D01*
X202000Y87500D02*X200500Y89000D01*
Y96000D01*
X199500Y97000D01*
X195500D01*
X198000Y85500D02*X195500Y88000D01*
X204500Y91000D02*Y104500D01*
X202500Y106500D01*
X195000D01*
X173000Y69000D02*X199000D01*
X208000Y71500D02*X168000D01*
X208000D02*X210000Y69500D01*
X185000Y80500D02*X209000D01*
X185500Y83000D02*X201000D01*
X199500D02*X221500D01*
X221000Y85500D02*X198000D01*
X208500Y80500D02*X214000D01*
X217500Y77000D01*
X222500D01*
X221500Y83000D02*X224500Y86000D01*
X194000Y65000D02*Y67000D01*
X196000Y69000D01*
X194000Y76000D02*Y74000D01*
X196000Y71500D02*X200000D01*
X194000Y73500D02*X196000Y71500D01*
G54D12*X228000Y15000D02*Y44000D01*
G54D13*X223000Y4500D02*X248000D01*
X251000Y7500D01*
Y11500D01*
X225000Y8000D02*X238000D01*
X239000Y9000D01*
Y13500D01*
G54D12*X233500Y20000D02*X238000Y24500D01*
Y44500D01*
X248000Y27000D02*Y44000D01*
X278000D02*Y15000D01*
X288000Y44000D02*Y21000D01*
X248000Y52000D02*Y43000D01*
X258000Y43500D02*Y31000D01*
X274000Y48000D02*X278000Y44000D01*
X298000Y43500D02*Y30500D01*
X247000Y57000D02*Y69000D01*
G54D13*X251000Y77000D02*X250000D01*
X247000Y74000D01*
X231000D01*
X228000Y77000D01*
G54D12*X243000Y79000D02*Y77000D01*
G54D13*X265500Y76500D02*X264500Y75500D01*
X260500D01*
X284000Y97000D02*X259000D01*
X260000Y94500D02*X280500D01*
X283000Y92000D01*
G54D12*X295000Y97500D02*X296000Y98500D01*
Y104000D01*
X292500Y97500D02*X295000D01*
G54D13*X283000Y92000D02*X299000D01*
X301000Y94000D01*
Y97500D01*
G54D14*X261500Y89000D02*X267500D01*
X286500Y88000D02*X276000D01*
G54D12*X226500Y82000D02*X240000D01*
G54D13*X247000Y83500D02*X261500D01*
G54D12*X240000Y82000D02*X243000Y79000D01*
G54D13*X244500Y86000D02*X247000Y83500D01*
X224500Y86000D02*X242500D01*
X241500D02*X244500D01*
X242000Y101000D02*Y104000D01*
X243000Y105000D01*
X246000D01*
X247000Y106000D01*
Y109000D01*
X249000Y101000D02*X259000D01*
Y97000D02*X254000Y92000D01*
X255000Y89500D02*X260000Y94500D01*
X254000Y92000D02*X224000D01*
X225000Y89500D02*X255000D01*
G54D12*X309000Y97500D02*X310500D01*
X312000Y99000D01*
Y104000D01*
X324000Y97500D02*X326000D01*
X327500Y99000D01*
Y103500D01*
G54D13*X316500Y97500D02*Y95500D01*
X319000Y93000D01*
X328500D01*
X330500Y95000D01*
G54D12*X332000Y46500D02*Y55500D01*
G54D13*X334500Y72500D02*Y69500D01*
X336000Y68000D01*
Y63500D01*
X336500Y63000D01*
G54D12*X321500Y64000D02*X328500D01*
X307500Y77500D02*X303000D01*
G54D13*X315000Y76500D02*Y86000D01*
G54D12*X311000Y70000D02*Y67000D01*
X314500Y63500D01*
Y60000D01*
X306000Y53500D02*X316000D01*
X322500Y40500D02*X333000D01*
X274000Y54000D02*Y48000D01*
Y60000D02*Y70000D01*
X288000Y44000D02*X290000Y46000D01*
Y54000D01*
G54D13*X266500Y82000D02*X276500D01*
X277500Y81000D01*
Y78000D01*
X268000Y82000D02*X266500D01*
X265500Y81000D01*
Y76500D01*
G54D12*X289000Y70000D02*Y61000D01*
X285000Y78500D02*Y74500D01*
X281500Y71000D01*
Y64500D01*
G54D13*X280500Y83000D02*X287000D01*
X293000Y77000D01*
G54D12*X303000Y77500D02*X300000Y74500D01*
G54D13*X293000Y83500D02*X308500D01*
G54D12*X269500Y77500D02*Y75000D01*
X262000Y67500D01*
Y64000D01*
G54D15*X17000Y17000D03*
Y158000D03*
G54D11*G36*
Y124000D02*Y116000D01*
X25000D01*
Y124000D01*
X17000D01*
G37*
G54D16*X21000Y100000D03*
G54D11*G36*
X17000Y84000D02*Y76000D01*
X25000D01*
Y84000D01*
X17000D01*
G37*
G54D16*X21000Y60000D03*
G54D17*X79500Y59000D03*
X69500D03*
G54D11*G36*
X55563Y62937D02*Y55063D01*
X63437D01*
Y62937D01*
X55563D01*
G37*
G54D16*X74000Y43700D03*
Y130300D03*
X64000D03*
X54000D03*
X44000D03*
X64000Y43700D03*
X54000D03*
X44000D03*
G54D15*X332000Y17000D03*
G54D11*G36*
X304000Y47700D02*Y39700D01*
X312000D01*
Y47700D01*
X304000D01*
G37*
G54D16*X298000Y43700D03*
X288000D03*
X278000D03*
X268000D03*
X258000D03*
G54D15*X332000Y158000D03*
G54D16*X308000Y130300D03*
X298000D03*
X288000D03*
X278000D03*
X268000D03*
X258000D03*
X248000Y43700D03*
X238000D03*
X228000D03*
G54D11*G36*
X206500Y46894D02*Y39894D01*
X213500D01*
Y46894D01*
X206500D01*
G37*
G54D18*X210000Y62606D03*
G54D11*G36*
X188000Y47000D02*Y41000D01*
X194000D01*
Y47000D01*
X188000D01*
G37*
G54D19*X181000Y44000D03*
X171000D03*
X161000D03*
G54D11*G36*
X178750Y61250D02*Y54750D01*
X185250D01*
Y61250D01*
X178750D01*
G37*
G54D20*X172000Y58000D03*
G54D19*X161000Y14000D03*
X171000D03*
X181000D03*
X191000D03*
G54D11*G36*
X120000Y47700D02*Y39700D01*
X128000D01*
Y47700D01*
X120000D01*
G37*
G54D16*X114000Y43700D03*
X104000D03*
X94000D03*
X84000D03*
X248000Y130300D03*
X238000D03*
X228000D03*
G54D19*X205000Y119000D03*
X215000D03*
X205000Y129000D03*
X215000D03*
G54D11*G36*
X169750Y125250D02*Y118750D01*
X176250D01*
Y125250D01*
X169750D01*
G37*
G54D20*X183000Y122000D03*
G54D11*G36*
X192000D02*Y116000D01*
X198000D01*
Y122000D01*
X192000D01*
G37*
G54D19*X195000Y129000D03*
G54D16*X124000Y130300D03*
X114000D03*
X104000D03*
X94000D03*
X84000D03*
G54D21*X114607Y60543D02*X115393D01*
X114607Y53457D02*X115393D01*
X124607Y24457D02*X125393D01*
X124607Y31543D02*X125393D01*
G54D22*X113700Y81000D02*X114300D01*
X113700Y73200D02*X114300D01*
X121900Y77100D02*X122500D01*
G54D21*X127607Y63543D02*X128393D01*
X127607Y56457D02*X128393D01*
G54D23*X78900Y122000D02*Y120400D01*
G54D24*X55000Y115992D02*Y109693D01*
Y96307D02*Y90008D01*
G54D21*X80543Y92393D02*Y91607D01*
X73457Y92393D02*Y91607D01*
G54D23*X75000Y122000D02*Y120400D01*
G54D25*X35400Y136600D02*Y135400D01*
X22500Y136600D02*Y135400D01*
G54D21*X40457Y150393D02*Y149607D01*
X47543Y150393D02*Y149607D01*
X57107Y149543D02*X57893D01*
X57107Y142457D02*X57893D01*
G54D23*X82800Y122000D02*Y120400D01*
G54D21*X123543Y121393D02*Y120607D01*
X116457Y121393D02*Y120607D01*
G54D23*X75000Y113800D02*Y112200D01*
X78900Y113800D02*Y112200D01*
X82800Y113800D02*Y112200D01*
G54D21*X107457Y104393D02*Y103607D01*
G54D26*X145977Y73434D02*Y69008D01*
X149126Y73434D02*Y69008D01*
X152276Y73434D02*Y69008D01*
X155425Y73434D02*Y69008D01*
X158575Y73434D02*Y69008D01*
X161725Y73434D02*Y69008D01*
G54D21*X114543Y104393D02*Y103607D01*
X121543Y94393D02*Y93607D01*
X114457Y94393D02*Y93607D01*
X123607Y104457D02*X124393D01*
X123607Y111543D02*X124393D01*
X133607Y113457D02*X134393D01*
G54D26*X136008Y101023D02*X140434D01*
X136008Y97874D02*X140434D01*
X136008Y94724D02*X140434D01*
X136008Y91575D02*X140434D01*
X136008Y88425D02*X140434D01*
X136008Y85275D02*X140434D01*
X136008Y82126D02*X140434D01*
X136008Y78976D02*X140434D01*
G54D21*X133607Y120543D02*X134393D01*
X161043Y124893D02*Y124107D01*
X153957Y124893D02*Y124107D01*
X161343Y138193D02*Y137407D01*
X154257Y138193D02*Y137407D01*
X139543Y139393D02*Y138607D01*
X132457Y139393D02*Y138607D01*
G54D26*X161724Y110992D02*Y106566D01*
X158575Y110992D02*Y106566D01*
X155425Y110992D02*Y106566D01*
X152275Y110992D02*Y106566D01*
X149126Y110992D02*Y106566D01*
X145976Y110992D02*Y106566D01*
G54D21*X273607Y61043D02*X274393D01*
X273607Y53957D02*X274393D01*
X289107Y61043D02*X289893D01*
X289107Y53957D02*X289893D01*
G54D22*X277500Y77800D02*Y77200D01*
X285200Y77800D02*Y77200D01*
X273600Y69600D02*Y69000D01*
X289100Y69600D02*Y69000D01*
X293000Y77800D02*Y77200D01*
X247100Y69600D02*Y69000D01*
G54D21*X267457Y89393D02*Y88607D01*
X274543Y89393D02*Y88607D01*
G54D23*X258900Y113500D02*Y111900D01*
X262800Y113500D02*Y111900D01*
X266700Y113500D02*Y111900D01*
X262800Y121700D02*Y120100D01*
X258900Y121700D02*Y120100D01*
G54D21*X247043Y110393D02*Y109607D01*
X249543Y100893D02*Y100107D01*
X239957Y110393D02*Y109607D01*
X242457Y100893D02*Y100107D01*
X247043Y119893D02*Y119107D01*
X239957Y119893D02*Y119107D01*
X278107Y105457D02*X278893D01*
G54D22*X288900Y106000D02*Y105400D01*
X304900Y106000D02*Y105400D01*
G54D21*X301107Y113457D02*X301893D01*
X301107Y120543D02*X301893D01*
G54D22*X285000Y97800D02*Y97200D01*
X292800Y97800D02*Y97200D01*
X301000Y97800D02*Y97200D01*
X308800Y97800D02*Y97200D01*
G54D21*X320607Y113457D02*X321393D01*
X320607Y120543D02*X321393D01*
G54D23*X266700Y121700D02*Y120100D01*
G54D21*X278107Y112543D02*X278893D01*
X287607Y113457D02*X288393D01*
X287607Y120543D02*X288393D01*
X314607Y60543D02*X315393D01*
X314607Y53457D02*X315393D01*
X331607Y47543D02*X332393D01*
G54D22*X335900Y63900D02*Y63300D01*
X328100Y63900D02*Y63300D01*
X332000Y55700D02*Y55100D01*
G54D21*X331607Y40457D02*X332393D01*
X334107Y88457D02*X334893D01*
X334107Y80043D02*X334893D01*
X334107Y72957D02*X334893D01*
X334107Y95543D02*X334893D01*
G54D22*X316600Y97700D02*Y97100D01*
X320500Y105900D02*Y105300D01*
X324400Y97700D02*Y97100D01*
X315000Y77800D02*Y77200D01*
X307200Y77800D02*Y77200D01*
X311100Y69600D02*Y69000D01*
G54D21*X307457Y85893D02*Y85107D01*
X314543Y85893D02*Y85107D01*
X193607Y64543D02*X194393D01*
X204107Y12457D02*X204893D01*
X204107Y19543D02*X204893D01*
X214607D02*X215393D01*
X214607Y12457D02*X215393D01*
X193607Y57457D02*X194393D01*
X163607Y54457D02*X164393D01*
X163607Y61543D02*X164393D01*
X154543Y62393D02*Y61607D01*
X147457Y62393D02*Y61607D01*
X240095Y14681D02*Y12319D01*
X140405Y16181D02*Y13819D01*
X128595Y16181D02*Y13819D01*
X251905Y14681D02*Y12319D01*
G54D26*X164874Y73434D02*Y69008D01*
X168024Y73434D02*Y69008D01*
G54D21*X188657Y106793D02*Y106007D01*
X195743Y106793D02*Y106007D01*
X188457Y97393D02*Y96607D01*
X195543Y97393D02*Y96607D01*
X188457Y88893D02*Y88107D01*
X195543Y88893D02*Y88107D01*
Y76393D02*Y75607D01*
X188457Y76393D02*Y75607D01*
G54D22*X269700Y77800D02*Y77200D01*
G54D21*X259607Y82043D02*X260393D01*
X259607Y74957D02*X260393D01*
G54D22*X251000Y77800D02*Y77200D01*
G54D21*X247107Y59043D02*X247893D01*
X247107Y51957D02*X247893D01*
X227107Y61543D02*X227893D01*
X227107Y54457D02*X227893D01*
X222457Y75893D02*Y75107D01*
X229543Y75893D02*Y75107D01*
G54D22*X243200Y77800D02*Y77200D01*
G54D26*X173566Y78977D02*X177992D01*
X173566Y82126D02*X177992D01*
X173566Y85276D02*X177992D01*
X173566Y88425D02*X177992D01*
X173566Y91575D02*X177992D01*
X173566Y94725D02*X177992D01*
X173566Y97874D02*X177992D01*
X173566Y101024D02*X177992D01*
X168023Y110992D02*Y106566D01*
X164874Y110992D02*Y106566D01*
G54D14*X215000Y169000D03*
X238000Y149000D03*
X248000Y143000D03*
X210000Y169000D03*
Y132500D03*
X205000Y169000D03*
X226500Y82000D03*
X204500Y91000D03*
X222000Y119500D03*
X219000Y62000D03*
X227000Y118500D03*
X231000Y122500D03*
X228000Y14000D03*
Y155000D03*
X233500Y20000D03*
X248000Y26000D03*
X270500Y106000D03*
X255500D03*
X263000D03*
X270500Y101500D03*
X255500D03*
X263000D03*
X253000Y116500D03*
X273000D03*
X262000Y64500D03*
X258000Y31000D03*
X281500Y64500D03*
X278000Y14000D03*
X288000Y20000D03*
X298000Y31000D03*
X280500Y83000D03*
X286500Y88000D03*
X261500Y89000D03*
X308000Y143000D03*
X288000Y149000D03*
X278000Y155000D03*
X296500Y103500D03*
X293000Y83500D03*
X300000Y74500D03*
X306000Y53500D03*
X312500Y103500D03*
X328000D03*
X321500Y64000D03*
X322500Y40500D03*
X341500Y124000D03*
X335500Y120000D03*
X35000D03*
X30000Y144500D03*
X37000Y144000D03*
X35000Y109000D03*
X45000Y120000D03*
X47500Y159500D03*
X94000Y155000D03*
X104000Y149000D03*
X45000Y109000D03*
X40000Y114000D03*
X69000Y113000D03*
X5000Y137000D03*
X90500Y106500D03*
X75500D03*
X83000D03*
X90500Y101500D03*
X83000D03*
X75500D03*
X84000Y81000D03*
X78000D03*
Y75000D03*
X72000D03*
Y81000D03*
X74000Y33000D03*
X69000Y35000D03*
X84000Y75000D03*
X150500Y77500D03*
X95000Y61500D03*
X100500D03*
X105500D03*
X117000Y68000D03*
X165500Y101000D03*
Y96000D03*
X169500Y89500D03*
X160500Y79000D03*
X183000Y76000D03*
X188000Y53000D03*
X198500Y43000D03*
X140000Y50000D03*
X134000Y62000D03*
Y57000D03*
X128000Y51000D03*
X140000Y45500D03*
X147500Y46500D03*
Y37500D03*
X114000Y33000D03*
X104000Y21000D03*
X94000Y15000D03*
X122000Y88000D03*
X146500Y86500D03*
X146000Y134000D03*
X141000Y132000D03*
X133000Y127000D03*
X158000Y118000D03*
X150000Y131000D03*
X134000Y132000D03*
X167000Y159500D03*
X183000Y132000D03*
X124000Y143000D03*
G54D27*G54D28*G54D29*G54D30*G54D29*G54D28*G54D29*G54D28*G54D29*G54D27*G54D31*G54D32*G54D31*G54D29*G54D33*G54D32*G54D33*G54D29*M02*
