G04 start of page 3 for group 1 idx 1 *
G04 Title: (unknown), solder *
G04 Creator: pcb 20110918 *
G04 CreationDate: Tue 05 Feb 2013 03:16:39 AM GMT UTC *
G04 For: railfan *
G04 Format: Gerber/RS-274X *
G04 PCB-Dimensions: 350000 175000 *
G04 PCB-Coordinate-Origin: lower left *
%MOIN*%
%FSLAX25Y25*%
%LNBOTTOM*%
%ADD50C,0.0380*%
%ADD49C,0.0430*%
%ADD48C,0.0280*%
%ADD47C,0.0450*%
%ADD46C,0.0480*%
%ADD45C,0.1285*%
%ADD44C,0.0200*%
%ADD43C,0.0650*%
%ADD42C,0.0600*%
%ADD41C,0.0700*%
%ADD40C,0.0787*%
%ADD39C,0.0800*%
%ADD38C,0.2937*%
%ADD37C,0.0100*%
%ADD36C,0.0400*%
%ADD35C,0.0250*%
%ADD34C,0.0001*%
G54D34*G36*
X218000Y85000D02*X229500D01*
Y74000D01*
X218000D01*
Y85000D01*
G37*
G36*
X227000D02*X232000D01*
X243000Y74000D01*
Y69000D01*
X227000D01*
Y79035D01*
X227430Y79138D01*
X227866Y79319D01*
X228269Y79565D01*
X228628Y79872D01*
X228935Y80231D01*
X229181Y80634D01*
X229362Y81070D01*
X229472Y81529D01*
X229500Y82000D01*
X229472Y82471D01*
X229362Y82930D01*
X229181Y83366D01*
X228935Y83769D01*
X228628Y84128D01*
X228269Y84435D01*
X227866Y84681D01*
X227430Y84862D01*
X227000Y84965D01*
Y85000D01*
G37*
G36*
X256000Y69500D02*X267500D01*
Y58500D01*
X256000D01*
Y69500D01*
G37*
G36*
X321495Y74000D02*X344000D01*
Y49000D01*
X321495D01*
Y60991D01*
X321500Y60991D01*
X321971Y61028D01*
X322430Y61138D01*
X322866Y61319D01*
X323269Y61565D01*
X323628Y61872D01*
X323935Y62231D01*
X324181Y62634D01*
X324362Y63070D01*
X324472Y63529D01*
X324500Y64000D01*
X324472Y64471D01*
X324362Y64930D01*
X324181Y65366D01*
X323935Y65769D01*
X323628Y66128D01*
X323269Y66435D01*
X322866Y66681D01*
X322430Y66862D01*
X321971Y66972D01*
X321500Y67009D01*
X321495Y67009D01*
Y74000D01*
G37*
G36*
X281495D02*X297035D01*
X297138Y73570D01*
X297319Y73134D01*
X297565Y72731D01*
X297872Y72372D01*
X298231Y72065D01*
X298634Y71819D01*
X299070Y71638D01*
X299529Y71528D01*
X300000Y71491D01*
X300471Y71528D01*
X300930Y71638D01*
X301366Y71819D01*
X301769Y72065D01*
X302128Y72372D01*
X302435Y72731D01*
X302681Y73134D01*
X302862Y73570D01*
X302965Y74000D01*
X321495D01*
Y67009D01*
X321029Y66972D01*
X320570Y66862D01*
X320134Y66681D01*
X319731Y66435D01*
X319372Y66128D01*
X319065Y65769D01*
X318819Y65366D01*
X318638Y64930D01*
X318528Y64471D01*
X318491Y64000D01*
X318528Y63529D01*
X318638Y63070D01*
X318819Y62634D01*
X319065Y62231D01*
X319372Y61872D01*
X319731Y61565D01*
X320134Y61319D01*
X320570Y61138D01*
X321029Y61028D01*
X321495Y60991D01*
Y49000D01*
X312749D01*
X312683Y49041D01*
X312465Y49131D01*
X312235Y49186D01*
X312000Y49200D01*
X304870Y49188D01*
X306187Y50506D01*
X306471Y50528D01*
X306930Y50638D01*
X307366Y50819D01*
X307769Y51065D01*
X308128Y51372D01*
X308435Y51731D01*
X308681Y52134D01*
X308862Y52570D01*
X308972Y53029D01*
X309000Y53500D01*
X308972Y53971D01*
X308862Y54430D01*
X308681Y54866D01*
X308435Y55269D01*
X308128Y55628D01*
X307769Y55935D01*
X307366Y56181D01*
X306930Y56362D01*
X306471Y56472D01*
X306000Y56509D01*
X305529Y56472D01*
X305070Y56362D01*
X304634Y56181D01*
X304231Y55935D01*
X303872Y55628D01*
X303565Y55269D01*
X303319Y54866D01*
X303138Y54430D01*
X303028Y53971D01*
X303006Y53687D01*
X302068Y52750D01*
X281495D01*
Y61491D01*
X281500Y61491D01*
X281971Y61528D01*
X282430Y61638D01*
X282866Y61819D01*
X283269Y62065D01*
X283628Y62372D01*
X283935Y62731D01*
X284181Y63134D01*
X284362Y63570D01*
X284472Y64029D01*
X284500Y64500D01*
X284472Y64971D01*
X284362Y65430D01*
X284181Y65866D01*
X283935Y66269D01*
X283628Y66628D01*
X283269Y66935D01*
X282866Y67181D01*
X282430Y67362D01*
X281971Y67472D01*
X281500Y67509D01*
X281495Y67509D01*
Y74000D01*
G37*
G36*
X261995D02*X281495D01*
Y67509D01*
X281029Y67472D01*
X280570Y67362D01*
X280134Y67181D01*
X279731Y66935D01*
X279372Y66628D01*
X279065Y66269D01*
X278819Y65866D01*
X278638Y65430D01*
X278528Y64971D01*
X278491Y64500D01*
X278528Y64029D01*
X278638Y63570D01*
X278819Y63134D01*
X279065Y62731D01*
X279372Y62372D01*
X279731Y62065D01*
X280134Y61819D01*
X280570Y61638D01*
X281029Y61528D01*
X281495Y61491D01*
Y52750D01*
X261995D01*
Y61491D01*
X262000Y61491D01*
X262471Y61528D01*
X262930Y61638D01*
X263366Y61819D01*
X263769Y62065D01*
X264128Y62372D01*
X264435Y62731D01*
X264681Y63134D01*
X264862Y63570D01*
X264972Y64029D01*
X265000Y64500D01*
X264972Y64971D01*
X264862Y65430D01*
X264681Y65866D01*
X264435Y66269D01*
X264128Y66628D01*
X263769Y66935D01*
X263366Y67181D01*
X262930Y67362D01*
X262471Y67472D01*
X262000Y67509D01*
X261995Y67509D01*
Y74000D01*
G37*
G36*
X209992D02*X261995D01*
Y67509D01*
X261529Y67472D01*
X261070Y67362D01*
X260634Y67181D01*
X260231Y66935D01*
X259872Y66628D01*
X259565Y66269D01*
X259319Y65866D01*
X259138Y65430D01*
X259028Y64971D01*
X258991Y64500D01*
X259028Y64029D01*
X259138Y63570D01*
X259319Y63134D01*
X259565Y62731D01*
X259872Y62372D01*
X260231Y62065D01*
X260634Y61819D01*
X261070Y61638D01*
X261529Y61528D01*
X261995Y61491D01*
Y52750D01*
X218932D01*
X220529Y54347D01*
X220596Y54404D01*
X220826Y54673D01*
X220826Y54673D01*
X221011Y54975D01*
X221146Y55303D01*
X221229Y55647D01*
X221257Y56000D01*
X221250Y56088D01*
Y60015D01*
X221435Y60231D01*
X221681Y60634D01*
X221862Y61070D01*
X221972Y61529D01*
X222000Y62000D01*
X221972Y62471D01*
X221862Y62930D01*
X221681Y63366D01*
X221435Y63769D01*
X221128Y64128D01*
X220769Y64435D01*
X220366Y64681D01*
X219930Y64862D01*
X219471Y64972D01*
X219000Y65009D01*
X218529Y64972D01*
X218070Y64862D01*
X217634Y64681D01*
X217231Y64435D01*
X216872Y64128D01*
X216565Y63769D01*
X216319Y63366D01*
X216138Y62930D01*
X216028Y62471D01*
X215991Y62000D01*
X216028Y61529D01*
X216138Y61070D01*
X216319Y60634D01*
X216565Y60231D01*
X216750Y60015D01*
Y56932D01*
X216068Y56250D01*
X209992D01*
Y57591D01*
X210000Y57591D01*
X210785Y57652D01*
X211550Y57836D01*
X212277Y58137D01*
X212948Y58548D01*
X213546Y59060D01*
X214058Y59658D01*
X214469Y60329D01*
X214770Y61056D01*
X214954Y61821D01*
X215000Y62606D01*
X214954Y63391D01*
X214770Y64156D01*
X214469Y64883D01*
X214058Y65554D01*
X213546Y66152D01*
X212948Y66664D01*
X212277Y67075D01*
X211550Y67376D01*
X210785Y67560D01*
X210000Y67621D01*
X209992Y67621D01*
Y74000D01*
G37*
G36*
X204000D02*X209992D01*
Y67621D01*
X209215Y67560D01*
X208450Y67376D01*
X207723Y67075D01*
X207052Y66664D01*
X206454Y66152D01*
X205942Y65554D01*
X205531Y64883D01*
X205230Y64156D01*
X205046Y63391D01*
X204985Y62606D01*
X205046Y61821D01*
X205230Y61056D01*
X205531Y60329D01*
X205942Y59658D01*
X206454Y59060D01*
X207052Y58548D01*
X207723Y58137D01*
X208450Y57836D01*
X209215Y57652D01*
X209992Y57591D01*
Y56250D01*
X204000D01*
Y74000D01*
G37*
G36*
X276000Y70000D02*X287500D01*
Y59000D01*
X276000D01*
Y70000D01*
G37*
G36*
X255500Y103000D02*X267000D01*
Y92000D01*
X255500D01*
Y103000D01*
G37*
G36*
X282500Y91000D02*X290000D01*
Y85000D01*
X283500D01*
X282500Y86000D01*
Y91000D01*
G37*
G36*
X295500Y78500D02*X304500D01*
Y71000D01*
X295500D01*
Y78500D01*
G37*
G36*
X327995Y110000D02*X344000D01*
Y49000D01*
X327995D01*
Y100491D01*
X328000Y100491D01*
X328471Y100528D01*
X328930Y100638D01*
X329366Y100819D01*
X329769Y101065D01*
X330128Y101372D01*
X330435Y101731D01*
X330681Y102134D01*
X330862Y102570D01*
X330972Y103029D01*
X331000Y103500D01*
X330972Y103971D01*
X330862Y104430D01*
X330681Y104866D01*
X330435Y105269D01*
X330128Y105628D01*
X329769Y105935D01*
X329366Y106181D01*
X328930Y106362D01*
X328471Y106472D01*
X328000Y106509D01*
X327995Y106509D01*
Y110000D01*
G37*
G36*
X324000D02*X327995D01*
Y106509D01*
X327529Y106472D01*
X327070Y106362D01*
X326634Y106181D01*
X326231Y105935D01*
X325872Y105628D01*
X325565Y105269D01*
X325319Y104866D01*
X325138Y104430D01*
X325028Y103971D01*
X324991Y103500D01*
X325028Y103029D01*
X325138Y102570D01*
X325319Y102134D01*
X325565Y101731D01*
X325872Y101372D01*
X326231Y101065D01*
X326634Y100819D01*
X327070Y100638D01*
X327529Y100528D01*
X327995Y100491D01*
Y49000D01*
X324000D01*
Y62338D01*
X324181Y62634D01*
X324362Y63070D01*
X324472Y63529D01*
X324500Y64000D01*
X324472Y64471D01*
X324362Y64930D01*
X324181Y65366D01*
X324000Y65662D01*
Y110000D01*
G37*
G36*
X315500Y69000D02*X327000D01*
Y58000D01*
X315500D01*
Y69000D01*
G37*
G36*
X327995Y110000D02*X333000D01*
Y60500D01*
X327995D01*
Y100491D01*
X328000Y100491D01*
X328471Y100528D01*
X328930Y100638D01*
X329366Y100819D01*
X329769Y101065D01*
X330128Y101372D01*
X330435Y101731D01*
X330681Y102134D01*
X330862Y102570D01*
X330972Y103029D01*
X331000Y103500D01*
X330972Y103971D01*
X330862Y104430D01*
X330681Y104866D01*
X330435Y105269D01*
X330128Y105628D01*
X329769Y105935D01*
X329366Y106181D01*
X328930Y106362D01*
X328471Y106472D01*
X328000Y106509D01*
X327995Y106509D01*
Y110000D01*
G37*
G36*
X321495D02*X327995D01*
Y106509D01*
X327529Y106472D01*
X327070Y106362D01*
X326634Y106181D01*
X326231Y105935D01*
X325872Y105628D01*
X325565Y105269D01*
X325319Y104866D01*
X325138Y104430D01*
X325028Y103971D01*
X324991Y103500D01*
X325028Y103029D01*
X325138Y102570D01*
X325319Y102134D01*
X325565Y101731D01*
X325872Y101372D01*
X326231Y101065D01*
X326634Y100819D01*
X327070Y100638D01*
X327529Y100528D01*
X327995Y100491D01*
Y60500D01*
X321495D01*
Y60991D01*
X321500Y60991D01*
X321971Y61028D01*
X322430Y61138D01*
X322866Y61319D01*
X323269Y61565D01*
X323628Y61872D01*
X323935Y62231D01*
X324181Y62634D01*
X324362Y63070D01*
X324472Y63529D01*
X324500Y64000D01*
X324472Y64471D01*
X324362Y64930D01*
X324181Y65366D01*
X323935Y65769D01*
X323628Y66128D01*
X323269Y66435D01*
X322866Y66681D01*
X322430Y66862D01*
X321971Y66972D01*
X321500Y67009D01*
X321495Y67009D01*
Y110000D01*
G37*
G36*
X312495D02*X321495D01*
Y67009D01*
X321029Y66972D01*
X320570Y66862D01*
X320134Y66681D01*
X319731Y66435D01*
X319372Y66128D01*
X319065Y65769D01*
X318819Y65366D01*
X318638Y64930D01*
X318528Y64471D01*
X318491Y64000D01*
X318528Y63529D01*
X318638Y63070D01*
X318819Y62634D01*
X319065Y62231D01*
X319372Y61872D01*
X319731Y61565D01*
X320134Y61319D01*
X320570Y61138D01*
X321029Y61028D01*
X321495Y60991D01*
Y60500D01*
X312495D01*
Y100491D01*
X312500Y100491D01*
X312971Y100528D01*
X313430Y100638D01*
X313866Y100819D01*
X314269Y101065D01*
X314628Y101372D01*
X314935Y101731D01*
X315181Y102134D01*
X315362Y102570D01*
X315472Y103029D01*
X315500Y103500D01*
X315472Y103971D01*
X315362Y104430D01*
X315181Y104866D01*
X314935Y105269D01*
X314628Y105628D01*
X314269Y105935D01*
X313866Y106181D01*
X313430Y106362D01*
X312971Y106472D01*
X312500Y106509D01*
X312495Y106509D01*
Y110000D01*
G37*
G36*
X299995D02*X312495D01*
Y106509D01*
X312029Y106472D01*
X311570Y106362D01*
X311134Y106181D01*
X310731Y105935D01*
X310372Y105628D01*
X310065Y105269D01*
X309819Y104866D01*
X309638Y104430D01*
X309528Y103971D01*
X309491Y103500D01*
X309528Y103029D01*
X309638Y102570D01*
X309819Y102134D01*
X310065Y101731D01*
X310372Y101372D01*
X310731Y101065D01*
X311134Y100819D01*
X311570Y100638D01*
X312029Y100528D01*
X312495Y100491D01*
Y60500D01*
X299995D01*
Y71491D01*
X300000Y71491D01*
X300471Y71528D01*
X300930Y71638D01*
X301366Y71819D01*
X301769Y72065D01*
X302128Y72372D01*
X302435Y72731D01*
X302681Y73134D01*
X302862Y73570D01*
X302972Y74029D01*
X303000Y74500D01*
X302972Y74971D01*
X302862Y75430D01*
X302681Y75866D01*
X302435Y76269D01*
X302128Y76628D01*
X301769Y76935D01*
X301366Y77181D01*
X300930Y77362D01*
X300471Y77472D01*
X300000Y77509D01*
X299995Y77509D01*
Y110000D01*
G37*
G36*
X296495D02*X299995D01*
Y77509D01*
X299529Y77472D01*
X299070Y77362D01*
X298634Y77181D01*
X298231Y76935D01*
X297872Y76628D01*
X297565Y76269D01*
X297319Y75866D01*
X297138Y75430D01*
X297028Y74971D01*
X296991Y74500D01*
X297028Y74029D01*
X297138Y73570D01*
X297319Y73134D01*
X297565Y72731D01*
X297872Y72372D01*
X298231Y72065D01*
X298634Y71819D01*
X299070Y71638D01*
X299529Y71528D01*
X299995Y71491D01*
Y60500D01*
X296495D01*
Y100491D01*
X296500Y100491D01*
X296971Y100528D01*
X297430Y100638D01*
X297866Y100819D01*
X298269Y101065D01*
X298628Y101372D01*
X298935Y101731D01*
X299181Y102134D01*
X299362Y102570D01*
X299472Y103029D01*
X299500Y103500D01*
X299472Y103971D01*
X299362Y104430D01*
X299181Y104866D01*
X298935Y105269D01*
X298628Y105628D01*
X298269Y105935D01*
X297866Y106181D01*
X297430Y106362D01*
X296971Y106472D01*
X296500Y106509D01*
X296495Y106509D01*
Y110000D01*
G37*
G36*
X286495D02*X296495D01*
Y106509D01*
X296029Y106472D01*
X295570Y106362D01*
X295134Y106181D01*
X294731Y105935D01*
X294372Y105628D01*
X294065Y105269D01*
X293819Y104866D01*
X293638Y104430D01*
X293528Y103971D01*
X293491Y103500D01*
X293528Y103029D01*
X293638Y102570D01*
X293819Y102134D01*
X294065Y101731D01*
X294372Y101372D01*
X294731Y101065D01*
X295134Y100819D01*
X295570Y100638D01*
X296029Y100528D01*
X296495Y100491D01*
Y60500D01*
X286495D01*
Y78874D01*
X289621Y82000D01*
X290401D01*
X290565Y81731D01*
X290872Y81372D01*
X291231Y81065D01*
X291634Y80819D01*
X292070Y80638D01*
X292529Y80528D01*
X293000Y80491D01*
X293471Y80528D01*
X293930Y80638D01*
X294366Y80819D01*
X294769Y81065D01*
X295128Y81372D01*
X295435Y81731D01*
X295681Y82134D01*
X295862Y82570D01*
X295972Y83029D01*
X296000Y83500D01*
X295972Y83971D01*
X295862Y84430D01*
X295681Y84866D01*
X295435Y85269D01*
X295128Y85628D01*
X294769Y85935D01*
X294366Y86181D01*
X293930Y86362D01*
X293471Y86472D01*
X293000Y86509D01*
X292529Y86472D01*
X292070Y86362D01*
X291634Y86181D01*
X291231Y85935D01*
X290872Y85628D01*
X290565Y85269D01*
X290401Y85000D01*
X289059D01*
X289000Y85005D01*
X288765Y84986D01*
X288535Y84931D01*
X288317Y84841D01*
X288116Y84717D01*
X288115Y84717D01*
X287936Y84564D01*
X287898Y84519D01*
X286495Y83117D01*
Y84991D01*
X286500Y84991D01*
X286971Y85028D01*
X287430Y85138D01*
X287866Y85319D01*
X288269Y85565D01*
X288628Y85872D01*
X288935Y86231D01*
X289181Y86634D01*
X289362Y87070D01*
X289472Y87529D01*
X289500Y88000D01*
X289472Y88471D01*
X289362Y88930D01*
X289181Y89366D01*
X288935Y89769D01*
X288628Y90128D01*
X288269Y90435D01*
X287866Y90681D01*
X287430Y90862D01*
X286971Y90972D01*
X286500Y91009D01*
X286495Y91009D01*
Y110000D01*
G37*
G36*
Y60500D02*X282500D01*
Y61667D01*
X282866Y61819D01*
X283269Y62065D01*
X283628Y62372D01*
X283935Y62731D01*
X284181Y63134D01*
X284362Y63570D01*
X284472Y64029D01*
X284500Y64500D01*
X284472Y64971D01*
X284362Y65430D01*
X284181Y65866D01*
X283935Y66269D01*
X283628Y66628D01*
X283269Y66935D01*
X282866Y67181D01*
X282500Y67333D01*
Y76500D01*
X283441D01*
X283500Y76495D01*
X283735Y76514D01*
X283735Y76514D01*
X283965Y76569D01*
X284183Y76659D01*
X284384Y76783D01*
X284564Y76936D01*
X284602Y76981D01*
X286495Y78874D01*
Y60500D01*
G37*
G36*
X282500Y110000D02*X286495D01*
Y91009D01*
X286029Y90972D01*
X285570Y90862D01*
X285134Y90681D01*
X284731Y90435D01*
X284372Y90128D01*
X284065Y89769D01*
X283819Y89366D01*
X283638Y88930D01*
X283528Y88471D01*
X283491Y88000D01*
X283528Y87529D01*
X283638Y87070D01*
X283819Y86634D01*
X284065Y86231D01*
X284372Y85872D01*
X284731Y85565D01*
X285134Y85319D01*
X285570Y85138D01*
X286029Y85028D01*
X286495Y84991D01*
Y83117D01*
X282879Y79500D01*
X282500D01*
Y80763D01*
X282628Y80872D01*
X282935Y81231D01*
X283181Y81634D01*
X283362Y82070D01*
X283472Y82529D01*
X283500Y83000D01*
X283472Y83471D01*
X283362Y83930D01*
X283181Y84366D01*
X282935Y84769D01*
X282628Y85128D01*
X282500Y85237D01*
Y110000D01*
G37*
G36*
X243500Y109000D02*X274000D01*
Y96500D01*
X243500D01*
Y109000D01*
G37*
G36*
X282500Y110000D02*X344000D01*
Y94000D01*
X282500D01*
Y110000D01*
G37*
G36*
X52000Y55000D02*Y68000D01*
X63000D01*
Y55000D01*
X52000D01*
G37*
G36*
X56000Y71000D02*X60000D01*
X63000Y68000D01*
Y65000D01*
X56000D01*
Y71000D01*
G37*
G36*
X44995Y124000D02*X60000D01*
Y55000D01*
X44995D01*
Y105991D01*
X45000Y105991D01*
X45471Y106028D01*
X45930Y106138D01*
X46366Y106319D01*
X46769Y106565D01*
X47128Y106872D01*
X47435Y107231D01*
X47681Y107634D01*
X47862Y108070D01*
X47972Y108529D01*
X48000Y109000D01*
X47972Y109471D01*
X47862Y109930D01*
X47681Y110366D01*
X47435Y110769D01*
X47128Y111128D01*
X46769Y111435D01*
X46366Y111681D01*
X45930Y111862D01*
X45471Y111972D01*
X45000Y112009D01*
X44995Y112009D01*
Y116991D01*
X45000Y116991D01*
X45471Y117028D01*
X45930Y117138D01*
X46366Y117319D01*
X46769Y117565D01*
X47128Y117872D01*
X47435Y118231D01*
X47681Y118634D01*
X47862Y119070D01*
X47972Y119529D01*
X48000Y120000D01*
X47972Y120471D01*
X47862Y120930D01*
X47681Y121366D01*
X47435Y121769D01*
X47128Y122128D01*
X46769Y122435D01*
X46366Y122681D01*
X45930Y122862D01*
X45471Y122972D01*
X45000Y123009D01*
X44995Y123009D01*
Y124000D01*
G37*
G36*
X39995D02*X44995D01*
Y123009D01*
X44529Y122972D01*
X44070Y122862D01*
X43634Y122681D01*
X43231Y122435D01*
X42872Y122128D01*
X42565Y121769D01*
X42319Y121366D01*
X42138Y120930D01*
X42028Y120471D01*
X41991Y120000D01*
X42028Y119529D01*
X42138Y119070D01*
X42319Y118634D01*
X42565Y118231D01*
X42872Y117872D01*
X43231Y117565D01*
X43634Y117319D01*
X44070Y117138D01*
X44529Y117028D01*
X44995Y116991D01*
Y112009D01*
X44529Y111972D01*
X44070Y111862D01*
X43634Y111681D01*
X43231Y111435D01*
X42872Y111128D01*
X42565Y110769D01*
X42319Y110366D01*
X42138Y109930D01*
X42028Y109471D01*
X41991Y109000D01*
X42028Y108529D01*
X42138Y108070D01*
X42319Y107634D01*
X42565Y107231D01*
X42872Y106872D01*
X43231Y106565D01*
X43634Y106319D01*
X44070Y106138D01*
X44529Y106028D01*
X44995Y105991D01*
Y55000D01*
X39995D01*
Y110991D01*
X40000Y110991D01*
X40471Y111028D01*
X40930Y111138D01*
X41366Y111319D01*
X41769Y111565D01*
X42128Y111872D01*
X42435Y112231D01*
X42681Y112634D01*
X42862Y113070D01*
X42972Y113529D01*
X43000Y114000D01*
X42972Y114471D01*
X42862Y114930D01*
X42681Y115366D01*
X42435Y115769D01*
X42128Y116128D01*
X41769Y116435D01*
X41366Y116681D01*
X40930Y116862D01*
X40471Y116972D01*
X40000Y117009D01*
X39995Y117009D01*
Y124000D01*
G37*
G36*
X34995D02*X39995D01*
Y117009D01*
X39529Y116972D01*
X39070Y116862D01*
X38634Y116681D01*
X38231Y116435D01*
X37872Y116128D01*
X37565Y115769D01*
X37319Y115366D01*
X37138Y114930D01*
X37028Y114471D01*
X36991Y114000D01*
X37028Y113529D01*
X37138Y113070D01*
X37319Y112634D01*
X37565Y112231D01*
X37872Y111872D01*
X38231Y111565D01*
X38634Y111319D01*
X39070Y111138D01*
X39529Y111028D01*
X39995Y110991D01*
Y55000D01*
X34995D01*
Y105991D01*
X35000Y105991D01*
X35471Y106028D01*
X35930Y106138D01*
X36366Y106319D01*
X36769Y106565D01*
X37128Y106872D01*
X37435Y107231D01*
X37681Y107634D01*
X37862Y108070D01*
X37972Y108529D01*
X38000Y109000D01*
X37972Y109471D01*
X37862Y109930D01*
X37681Y110366D01*
X37435Y110769D01*
X37128Y111128D01*
X36769Y111435D01*
X36366Y111681D01*
X35930Y111862D01*
X35471Y111972D01*
X35000Y112009D01*
X34995Y112009D01*
Y116991D01*
X35000Y116991D01*
X35471Y117028D01*
X35930Y117138D01*
X36366Y117319D01*
X36769Y117565D01*
X37128Y117872D01*
X37435Y118231D01*
X37681Y118634D01*
X37862Y119070D01*
X37972Y119529D01*
X38000Y120000D01*
X37972Y120471D01*
X37862Y120930D01*
X37681Y121366D01*
X37435Y121769D01*
X37128Y122128D01*
X36769Y122435D01*
X36366Y122681D01*
X35930Y122862D01*
X35471Y122972D01*
X35000Y123009D01*
X34995Y123009D01*
Y124000D01*
G37*
G36*
X31000D02*X34995D01*
Y123009D01*
X34529Y122972D01*
X34070Y122862D01*
X33634Y122681D01*
X33231Y122435D01*
X32872Y122128D01*
X32565Y121769D01*
X32319Y121366D01*
X32138Y120930D01*
X32028Y120471D01*
X31991Y120000D01*
X32028Y119529D01*
X32138Y119070D01*
X32319Y118634D01*
X32565Y118231D01*
X32872Y117872D01*
X33231Y117565D01*
X33634Y117319D01*
X34070Y117138D01*
X34529Y117028D01*
X34995Y116991D01*
Y112009D01*
X34529Y111972D01*
X34070Y111862D01*
X33634Y111681D01*
X33231Y111435D01*
X32872Y111128D01*
X32565Y110769D01*
X32319Y110366D01*
X32138Y109930D01*
X32028Y109471D01*
X31991Y109000D01*
X32028Y108529D01*
X32138Y108070D01*
X32319Y107634D01*
X32565Y107231D01*
X32872Y106872D01*
X33231Y106565D01*
X33634Y106319D01*
X34070Y106138D01*
X34529Y106028D01*
X34995Y105991D01*
Y55000D01*
X31000D01*
Y124000D01*
G37*
G36*
X50000D01*
Y105000D01*
X31000D01*
Y124000D01*
G37*
G36*
X73000Y113000D02*X98000D01*
Y96000D01*
X73000D01*
Y113000D01*
G37*
G36*
X68000Y85000D02*X90000D01*
Y72000D01*
X68000D01*
Y85000D01*
G37*
G36*
X144500Y83500D02*X164500D01*
Y73500D01*
X144500D01*
Y83500D01*
G37*
G36*
X197000Y85000D02*Y66000D01*
X179000D01*
Y85000D01*
X197000D01*
G37*
G36*
X182995D02*X226382D01*
X226029Y84972D01*
X225570Y84862D01*
X225134Y84681D01*
X224731Y84435D01*
X224372Y84128D01*
X224065Y83769D01*
X223819Y83366D01*
X223638Y82930D01*
X223528Y82471D01*
X223491Y82000D01*
X223528Y81529D01*
X223638Y81070D01*
X223819Y80634D01*
X224065Y80231D01*
X224372Y79872D01*
X224731Y79565D01*
X225134Y79319D01*
X225570Y79138D01*
X226029Y79028D01*
X226500Y78991D01*
X226971Y79028D01*
X227430Y79138D01*
X227866Y79319D01*
X228269Y79565D01*
X228628Y79872D01*
X228935Y80231D01*
X229181Y80634D01*
X229362Y81070D01*
X229472Y81529D01*
X229500Y82000D01*
X229472Y82471D01*
X229362Y82930D01*
X229181Y83366D01*
X228935Y83769D01*
X228628Y84128D01*
X228269Y84435D01*
X227866Y84681D01*
X227430Y84862D01*
X226971Y84972D01*
X226618Y85000D01*
X232000D01*
Y67000D01*
X212399D01*
X212277Y67075D01*
X211550Y67376D01*
X210785Y67560D01*
X210000Y67621D01*
X209215Y67560D01*
X208450Y67376D01*
X207723Y67075D01*
X207601Y67000D01*
X196250D01*
Y70000D01*
X196229Y70353D01*
X196146Y70697D01*
X196011Y71025D01*
X195826Y71327D01*
X195596Y71596D01*
X195327Y71826D01*
X195025Y72011D01*
X194697Y72146D01*
X194353Y72229D01*
X194000Y72257D01*
X193647Y72229D01*
X193303Y72146D01*
X192975Y72011D01*
X192673Y71826D01*
X192404Y71596D01*
X192174Y71327D01*
X191989Y71025D01*
X191854Y70697D01*
X191771Y70353D01*
X191750Y70000D01*
Y67000D01*
X182995D01*
Y72991D01*
X183000Y72991D01*
X183471Y73028D01*
X183930Y73138D01*
X184366Y73319D01*
X184769Y73565D01*
X185128Y73872D01*
X185435Y74231D01*
X185681Y74634D01*
X185862Y75070D01*
X185972Y75529D01*
X186000Y76000D01*
X185972Y76471D01*
X185862Y76930D01*
X185681Y77366D01*
X185435Y77769D01*
X185128Y78128D01*
X184769Y78435D01*
X184366Y78681D01*
X183930Y78862D01*
X183471Y78972D01*
X183000Y79009D01*
X182995Y79009D01*
Y85000D01*
G37*
G36*
X160495D02*X166879D01*
X167398Y84481D01*
X167436Y84436D01*
X167616Y84283D01*
X167817Y84159D01*
X168035Y84069D01*
X168265Y84014D01*
X168500Y83995D01*
X168559Y84000D01*
X171941D01*
X172000Y83995D01*
X172235Y84014D01*
X172235Y84014D01*
X172465Y84069D01*
X172683Y84159D01*
X172884Y84283D01*
X173064Y84436D01*
X173102Y84481D01*
X173621Y85000D01*
X182995D01*
Y79009D01*
X182529Y78972D01*
X182070Y78862D01*
X181634Y78681D01*
X181231Y78435D01*
X180872Y78128D01*
X180565Y77769D01*
X180319Y77366D01*
X180138Y76930D01*
X180028Y76471D01*
X179991Y76000D01*
X180028Y75529D01*
X180138Y75070D01*
X180319Y74634D01*
X180565Y74231D01*
X180872Y73872D01*
X181231Y73565D01*
X181634Y73319D01*
X182070Y73138D01*
X182529Y73028D01*
X182995Y72991D01*
Y67000D01*
X160495D01*
Y75991D01*
X160500Y75991D01*
X160971Y76028D01*
X161430Y76138D01*
X161866Y76319D01*
X162269Y76565D01*
X162628Y76872D01*
X162935Y77231D01*
X163181Y77634D01*
X163362Y78070D01*
X163472Y78529D01*
X163500Y79000D01*
X163472Y79471D01*
X163362Y79930D01*
X163181Y80366D01*
X162935Y80769D01*
X162628Y81128D01*
X162269Y81435D01*
X161866Y81681D01*
X161430Y81862D01*
X160971Y81972D01*
X160500Y82009D01*
X160495Y82009D01*
Y85000D01*
G37*
G36*
X150495D02*X160495D01*
Y82009D01*
X160029Y81972D01*
X159570Y81862D01*
X159134Y81681D01*
X158731Y81435D01*
X158372Y81128D01*
X158065Y80769D01*
X157819Y80366D01*
X157638Y79930D01*
X157528Y79471D01*
X157491Y79000D01*
X157528Y78529D01*
X157638Y78070D01*
X157819Y77634D01*
X158065Y77231D01*
X158372Y76872D01*
X158731Y76565D01*
X159134Y76319D01*
X159570Y76138D01*
X160029Y76028D01*
X160495Y75991D01*
Y67000D01*
X150495D01*
Y74491D01*
X150500Y74491D01*
X150971Y74528D01*
X151430Y74638D01*
X151866Y74819D01*
X152269Y75065D01*
X152628Y75372D01*
X152935Y75731D01*
X153181Y76134D01*
X153362Y76570D01*
X153472Y77029D01*
X153500Y77500D01*
X153472Y77971D01*
X153362Y78430D01*
X153181Y78866D01*
X152935Y79269D01*
X152628Y79628D01*
X152269Y79935D01*
X151866Y80181D01*
X151430Y80362D01*
X150971Y80472D01*
X150500Y80509D01*
X150495Y80509D01*
Y85000D01*
G37*
G36*
X77995D02*X121882D01*
X122000Y84991D01*
X122118Y85000D01*
X143901D01*
X144065Y84731D01*
X144372Y84372D01*
X144731Y84065D01*
X145134Y83819D01*
X145570Y83638D01*
X146029Y83528D01*
X146500Y83491D01*
X146971Y83528D01*
X147430Y83638D01*
X147866Y83819D01*
X148269Y84065D01*
X148628Y84372D01*
X148935Y84731D01*
X149099Y85000D01*
X150495D01*
Y80509D01*
X150029Y80472D01*
X149570Y80362D01*
X149134Y80181D01*
X148731Y79935D01*
X148372Y79628D01*
X148065Y79269D01*
X147819Y78866D01*
X147638Y78430D01*
X147528Y77971D01*
X147491Y77500D01*
X147528Y77029D01*
X147638Y76570D01*
X147819Y76134D01*
X148065Y75731D01*
X148372Y75372D01*
X148731Y75065D01*
X149134Y74819D01*
X149570Y74638D01*
X150029Y74528D01*
X150495Y74491D01*
Y67000D01*
X143000D01*
Y73500D01*
X142972Y73971D01*
X142862Y74430D01*
X142681Y74866D01*
X142435Y75269D01*
X142128Y75628D01*
X141769Y75935D01*
X141366Y76181D01*
X140930Y76362D01*
X140471Y76472D01*
X140000Y76509D01*
X139529Y76472D01*
X139070Y76362D01*
X138634Y76181D01*
X138231Y75935D01*
X137872Y75628D01*
X137565Y75269D01*
X137319Y74866D01*
X137138Y74430D01*
X137028Y73971D01*
X137000Y73500D01*
Y67000D01*
X119833D01*
X119862Y67070D01*
X119972Y67529D01*
X120000Y68000D01*
X119972Y68471D01*
X119862Y68930D01*
X119681Y69366D01*
X119435Y69769D01*
X119128Y70128D01*
X118769Y70435D01*
X118366Y70681D01*
X117930Y70862D01*
X117471Y70972D01*
X117000Y71009D01*
X116529Y70972D01*
X116070Y70862D01*
X115634Y70681D01*
X115231Y70435D01*
X114872Y70128D01*
X114565Y69769D01*
X114319Y69366D01*
X114138Y68930D01*
X114028Y68471D01*
X113991Y68000D01*
X114028Y67529D01*
X114138Y67070D01*
X114167Y67000D01*
X86182D01*
X85653Y67529D01*
X85596Y67596D01*
X85327Y67826D01*
X85327Y67826D01*
X85212Y67896D01*
X85025Y68011D01*
X84793Y68107D01*
X84697Y68146D01*
X84353Y68229D01*
X84000Y68257D01*
X83912Y68250D01*
X77995D01*
Y71991D01*
X78000Y71991D01*
X78471Y72028D01*
X78930Y72138D01*
X79366Y72319D01*
X79769Y72565D01*
X80128Y72872D01*
X80435Y73231D01*
X80681Y73634D01*
X80862Y74070D01*
X80972Y74529D01*
X80996Y74933D01*
X81028Y74529D01*
X81138Y74070D01*
X81319Y73634D01*
X81565Y73231D01*
X81872Y72872D01*
X82231Y72565D01*
X82634Y72319D01*
X83070Y72138D01*
X83529Y72028D01*
X84000Y71991D01*
X84471Y72028D01*
X84930Y72138D01*
X85366Y72319D01*
X85769Y72565D01*
X86128Y72872D01*
X86435Y73231D01*
X86681Y73634D01*
X86862Y74070D01*
X86972Y74529D01*
X87000Y75000D01*
X86972Y75471D01*
X86862Y75930D01*
X86681Y76366D01*
X86435Y76769D01*
X86128Y77128D01*
X85769Y77435D01*
X85366Y77681D01*
X84930Y77862D01*
X84471Y77972D01*
X84118Y78000D01*
X84471Y78028D01*
X84930Y78138D01*
X85366Y78319D01*
X85769Y78565D01*
X86128Y78872D01*
X86435Y79231D01*
X86681Y79634D01*
X86862Y80070D01*
X86972Y80529D01*
X87000Y81000D01*
X86972Y81471D01*
X86862Y81930D01*
X86681Y82366D01*
X86435Y82769D01*
X86128Y83128D01*
X85769Y83435D01*
X85366Y83681D01*
X84930Y83862D01*
X84471Y83972D01*
X84000Y84009D01*
X83529Y83972D01*
X83070Y83862D01*
X82634Y83681D01*
X82231Y83435D01*
X81872Y83128D01*
X81565Y82769D01*
X81319Y82366D01*
X81138Y81930D01*
X81028Y81471D01*
X80996Y81067D01*
X80972Y81471D01*
X80862Y81930D01*
X80681Y82366D01*
X80435Y82769D01*
X80128Y83128D01*
X79769Y83435D01*
X79366Y83681D01*
X78930Y83862D01*
X78471Y83972D01*
X78000Y84009D01*
X77995Y84009D01*
Y85000D01*
G37*
G36*
X68000D02*X77995D01*
Y84009D01*
X77529Y83972D01*
X77070Y83862D01*
X76634Y83681D01*
X76231Y83435D01*
X75872Y83128D01*
X75565Y82769D01*
X75319Y82366D01*
X75138Y81930D01*
X75028Y81471D01*
X74996Y81067D01*
X74972Y81471D01*
X74862Y81930D01*
X74681Y82366D01*
X74435Y82769D01*
X74128Y83128D01*
X73769Y83435D01*
X73366Y83681D01*
X72930Y83862D01*
X72471Y83972D01*
X72000Y84009D01*
X71529Y83972D01*
X71070Y83862D01*
X70634Y83681D01*
X70231Y83435D01*
X69872Y83128D01*
X69565Y82769D01*
X69319Y82366D01*
X69138Y81930D01*
X69028Y81471D01*
X68991Y81000D01*
X69028Y80529D01*
X69138Y80070D01*
X69319Y79634D01*
X69565Y79231D01*
X69872Y78872D01*
X70231Y78565D01*
X70634Y78319D01*
X71070Y78138D01*
X71529Y78028D01*
X71882Y78000D01*
X71529Y77972D01*
X71070Y77862D01*
X70634Y77681D01*
X70231Y77435D01*
X69872Y77128D01*
X69565Y76769D01*
X69319Y76366D01*
X69138Y75930D01*
X69028Y75471D01*
X68991Y75000D01*
X69028Y74529D01*
X69138Y74070D01*
X69319Y73634D01*
X69565Y73231D01*
X69872Y72872D01*
X70231Y72565D01*
X70634Y72319D01*
X71070Y72138D01*
X71529Y72028D01*
X72000Y71991D01*
X72471Y72028D01*
X72930Y72138D01*
X73366Y72319D01*
X73769Y72565D01*
X74128Y72872D01*
X74435Y73231D01*
X74681Y73634D01*
X74862Y74070D01*
X74972Y74529D01*
X74996Y74933D01*
X75028Y74529D01*
X75138Y74070D01*
X75319Y73634D01*
X75565Y73231D01*
X75872Y72872D01*
X76231Y72565D01*
X76634Y72319D01*
X77070Y72138D01*
X77529Y72028D01*
X77995Y71991D01*
Y68250D01*
X71932D01*
X68000Y72182D01*
Y85000D01*
G37*
G36*
X134000Y79000D02*X146000D01*
Y69000D01*
X134000D01*
Y79000D01*
G37*
G36*
X134500Y76000D02*X146500D01*
Y66000D01*
X134500D01*
Y76000D01*
G37*
G36*
X113000Y66000D02*Y73000D01*
X122000D01*
Y66000D01*
X113000D01*
G37*
G36*
X270495Y113000D02*X274000D01*
Y92000D01*
X270495D01*
Y98491D01*
X270500Y98491D01*
X270971Y98528D01*
X271430Y98638D01*
X271866Y98819D01*
X272269Y99065D01*
X272628Y99372D01*
X272935Y99731D01*
X273181Y100134D01*
X273362Y100570D01*
X273472Y101029D01*
X273500Y101500D01*
X273472Y101971D01*
X273362Y102430D01*
X273181Y102866D01*
X272935Y103269D01*
X272628Y103628D01*
X272485Y103750D01*
X272628Y103872D01*
X272935Y104231D01*
X273181Y104634D01*
X273362Y105070D01*
X273472Y105529D01*
X273500Y106000D01*
X273472Y106471D01*
X273362Y106930D01*
X273181Y107366D01*
X272935Y107769D01*
X272628Y108128D01*
X272269Y108435D01*
X271866Y108681D01*
X271430Y108862D01*
X270971Y108972D01*
X270500Y109009D01*
X270495Y109009D01*
Y113000D01*
G37*
G36*
X255495D02*X270495D01*
Y109009D01*
X270029Y108972D01*
X269570Y108862D01*
X269134Y108681D01*
X268731Y108435D01*
X268372Y108128D01*
X268065Y107769D01*
X267819Y107366D01*
X267638Y106930D01*
X267528Y106471D01*
X267491Y106000D01*
X267528Y105529D01*
X267638Y105070D01*
X267819Y104634D01*
X268065Y104231D01*
X268372Y103872D01*
X268515Y103750D01*
X268372Y103628D01*
X268065Y103269D01*
X267819Y102866D01*
X267638Y102430D01*
X267528Y101971D01*
X267491Y101500D01*
X267528Y101029D01*
X267638Y100570D01*
X267819Y100134D01*
X268065Y99731D01*
X268372Y99372D01*
X268731Y99065D01*
X269134Y98819D01*
X269570Y98638D01*
X270029Y98528D01*
X270495Y98491D01*
Y92000D01*
X264500D01*
Y98901D01*
X264769Y99065D01*
X265128Y99372D01*
X265435Y99731D01*
X265681Y100134D01*
X265862Y100570D01*
X265972Y101029D01*
X266000Y101500D01*
X265972Y101971D01*
X265862Y102430D01*
X265681Y102866D01*
X265435Y103269D01*
X265128Y103628D01*
X264985Y103750D01*
X265128Y103872D01*
X265435Y104231D01*
X265681Y104634D01*
X265862Y105070D01*
X265972Y105529D01*
X266000Y106000D01*
X265972Y106471D01*
X265862Y106930D01*
X265681Y107366D01*
X265435Y107769D01*
X265128Y108128D01*
X264769Y108435D01*
X264366Y108681D01*
X263930Y108862D01*
X263471Y108972D01*
X263000Y109009D01*
X262529Y108972D01*
X262070Y108862D01*
X261634Y108681D01*
X261231Y108435D01*
X260872Y108128D01*
X260565Y107769D01*
X260319Y107366D01*
X260138Y106930D01*
X260028Y106471D01*
X259991Y106000D01*
X260028Y105529D01*
X260138Y105070D01*
X260319Y104634D01*
X260565Y104231D01*
X260872Y103872D01*
X261015Y103750D01*
X260872Y103628D01*
X260565Y103269D01*
X260319Y102866D01*
X260138Y102430D01*
X260028Y101971D01*
X259998Y101598D01*
X259731Y101435D01*
X259372Y101128D01*
X259065Y100769D01*
X258819Y100366D01*
X258638Y99930D01*
X258528Y99471D01*
X258500Y99000D01*
Y92000D01*
X255495D01*
Y98491D01*
X255500Y98491D01*
X255971Y98528D01*
X256430Y98638D01*
X256866Y98819D01*
X257269Y99065D01*
X257628Y99372D01*
X257935Y99731D01*
X258181Y100134D01*
X258362Y100570D01*
X258472Y101029D01*
X258500Y101500D01*
X258472Y101971D01*
X258362Y102430D01*
X258181Y102866D01*
X257935Y103269D01*
X257628Y103628D01*
X257485Y103750D01*
X257628Y103872D01*
X257935Y104231D01*
X258181Y104634D01*
X258362Y105070D01*
X258472Y105529D01*
X258500Y106000D01*
X258472Y106471D01*
X258362Y106930D01*
X258181Y107366D01*
X257935Y107769D01*
X257628Y108128D01*
X257269Y108435D01*
X256866Y108681D01*
X256430Y108862D01*
X255971Y108972D01*
X255500Y109009D01*
X255495Y109009D01*
Y113000D01*
G37*
G36*
X165495D02*X185000D01*
Y110000D01*
X185028Y109529D01*
X185138Y109070D01*
X185319Y108634D01*
X185565Y108231D01*
X185872Y107872D01*
X186231Y107565D01*
X186634Y107319D01*
X187070Y107138D01*
X187529Y107028D01*
X187969Y106993D01*
X187975Y106989D01*
X188303Y106854D01*
X188647Y106771D01*
X189000Y106743D01*
X189353Y106771D01*
X189697Y106854D01*
X190025Y106989D01*
X190327Y107174D01*
X190596Y107404D01*
X190826Y107673D01*
X191011Y107975D01*
X191146Y108303D01*
X191229Y108647D01*
X191250Y109000D01*
Y113000D01*
X207879D01*
X208898Y111981D01*
X208936Y111936D01*
X209115Y111783D01*
X209116Y111783D01*
X209317Y111659D01*
X209535Y111569D01*
X209765Y111514D01*
X210000Y111495D01*
X210059Y111500D01*
X243441D01*
X243500Y111495D01*
X243735Y111514D01*
X243735Y111514D01*
X243965Y111569D01*
X244183Y111659D01*
X244384Y111783D01*
X244564Y111936D01*
X244602Y111981D01*
X245621Y113000D01*
X255495D01*
Y109009D01*
X255029Y108972D01*
X254570Y108862D01*
X254134Y108681D01*
X253731Y108435D01*
X253372Y108128D01*
X253065Y107769D01*
X252819Y107366D01*
X252638Y106930D01*
X252528Y106471D01*
X252491Y106000D01*
X252528Y105529D01*
X252638Y105070D01*
X252819Y104634D01*
X253065Y104231D01*
X253372Y103872D01*
X253515Y103750D01*
X253372Y103628D01*
X253065Y103269D01*
X252819Y102866D01*
X252638Y102430D01*
X252528Y101971D01*
X252491Y101500D01*
X252528Y101029D01*
X252638Y100570D01*
X252819Y100134D01*
X253065Y99731D01*
X253372Y99372D01*
X253731Y99065D01*
X254134Y98819D01*
X254570Y98638D01*
X255029Y98528D01*
X255495Y98491D01*
Y92000D01*
X254621D01*
X254602Y92019D01*
X254564Y92064D01*
X254384Y92217D01*
X254183Y92341D01*
X253965Y92431D01*
X253735Y92486D01*
X253735Y92486D01*
X253500Y92505D01*
X253441Y92500D01*
X207099D01*
X206935Y92769D01*
X206628Y93128D01*
X206269Y93435D01*
X205866Y93681D01*
X205430Y93862D01*
X204971Y93972D01*
X204500Y94009D01*
X204029Y93972D01*
X203570Y93862D01*
X203134Y93681D01*
X202731Y93435D01*
X202372Y93128D01*
X202065Y92769D01*
X201819Y92366D01*
X201667Y92000D01*
X171162D01*
X170866Y92181D01*
X170430Y92362D01*
X169971Y92472D01*
X169500Y92509D01*
X169029Y92472D01*
X168570Y92362D01*
X168134Y92181D01*
X167838Y92000D01*
X165495D01*
Y92991D01*
X165500Y92991D01*
X165971Y93028D01*
X166430Y93138D01*
X166866Y93319D01*
X167269Y93565D01*
X167628Y93872D01*
X167935Y94231D01*
X168181Y94634D01*
X168362Y95070D01*
X168472Y95529D01*
X168500Y96000D01*
X168472Y96471D01*
X168362Y96930D01*
X168181Y97366D01*
X167935Y97769D01*
X167628Y98128D01*
X167269Y98435D01*
X167162Y98500D01*
X167269Y98565D01*
X167628Y98872D01*
X167935Y99231D01*
X168181Y99634D01*
X168362Y100070D01*
X168472Y100529D01*
X168500Y101000D01*
X168472Y101471D01*
X168362Y101930D01*
X168181Y102366D01*
X167935Y102769D01*
X167628Y103128D01*
X167269Y103435D01*
X166866Y103681D01*
X166430Y103862D01*
X165971Y103972D01*
X165500Y104009D01*
X165495Y104009D01*
Y113000D01*
G37*
G36*
X90495D02*X153750D01*
Y108000D01*
X153771Y107647D01*
X153854Y107303D01*
X153989Y106975D01*
X154174Y106673D01*
X154404Y106404D01*
X154673Y106174D01*
X154975Y105989D01*
X155303Y105854D01*
X155647Y105771D01*
X156000Y105743D01*
X156353Y105771D01*
X156697Y105854D01*
X157025Y105989D01*
X157327Y106174D01*
X157596Y106404D01*
X157826Y106673D01*
X158011Y106975D01*
X158146Y107303D01*
X158229Y107647D01*
X158250Y108000D01*
Y113000D01*
X165495D01*
Y104009D01*
X165029Y103972D01*
X164570Y103862D01*
X164134Y103681D01*
X163731Y103435D01*
X163372Y103128D01*
X163065Y102769D01*
X162819Y102366D01*
X162638Y101930D01*
X162528Y101471D01*
X162491Y101000D01*
X162528Y100529D01*
X162638Y100070D01*
X162819Y99634D01*
X163065Y99231D01*
X163372Y98872D01*
X163731Y98565D01*
X163838Y98500D01*
X163731Y98435D01*
X163372Y98128D01*
X163065Y97769D01*
X162819Y97366D01*
X162638Y96930D01*
X162528Y96471D01*
X162491Y96000D01*
X162528Y95529D01*
X162638Y95070D01*
X162819Y94634D01*
X163065Y94231D01*
X163372Y93872D01*
X163731Y93565D01*
X164134Y93319D01*
X164570Y93138D01*
X165029Y93028D01*
X165495Y92991D01*
Y92000D01*
X90495D01*
Y98491D01*
X90500Y98491D01*
X90971Y98528D01*
X91430Y98638D01*
X91866Y98819D01*
X92269Y99065D01*
X92628Y99372D01*
X92935Y99731D01*
X93181Y100134D01*
X93362Y100570D01*
X93472Y101029D01*
X93500Y101500D01*
X93472Y101971D01*
X93362Y102430D01*
X93181Y102866D01*
X92935Y103269D01*
X92628Y103628D01*
X92269Y103935D01*
X92162Y104000D01*
X92269Y104065D01*
X92628Y104372D01*
X92935Y104731D01*
X93181Y105134D01*
X93362Y105570D01*
X93472Y106029D01*
X93500Y106500D01*
X93472Y106971D01*
X93362Y107430D01*
X93181Y107866D01*
X92935Y108269D01*
X92628Y108628D01*
X92269Y108935D01*
X91866Y109181D01*
X91430Y109362D01*
X90971Y109472D01*
X90500Y109509D01*
X90495Y109509D01*
Y113000D01*
G37*
G36*
X82995D02*X90495D01*
Y109509D01*
X90029Y109472D01*
X89570Y109362D01*
X89134Y109181D01*
X88731Y108935D01*
X88372Y108628D01*
X88065Y108269D01*
X87819Y107866D01*
X87638Y107430D01*
X87528Y106971D01*
X87491Y106500D01*
X87528Y106029D01*
X87638Y105570D01*
X87819Y105134D01*
X88065Y104731D01*
X88372Y104372D01*
X88731Y104065D01*
X88838Y104000D01*
X88731Y103935D01*
X88372Y103628D01*
X88065Y103269D01*
X87819Y102866D01*
X87638Y102430D01*
X87528Y101971D01*
X87491Y101500D01*
X87528Y101029D01*
X87638Y100570D01*
X87819Y100134D01*
X88065Y99731D01*
X88372Y99372D01*
X88731Y99065D01*
X89134Y98819D01*
X89570Y98638D01*
X90029Y98528D01*
X90495Y98491D01*
Y92000D01*
X82995D01*
Y98491D01*
X83000Y98491D01*
X83471Y98528D01*
X83930Y98638D01*
X84366Y98819D01*
X84769Y99065D01*
X85128Y99372D01*
X85435Y99731D01*
X85681Y100134D01*
X85862Y100570D01*
X85972Y101029D01*
X86000Y101500D01*
X85972Y101971D01*
X85862Y102430D01*
X85681Y102866D01*
X85435Y103269D01*
X85128Y103628D01*
X84769Y103935D01*
X84662Y104000D01*
X84769Y104065D01*
X85128Y104372D01*
X85435Y104731D01*
X85681Y105134D01*
X85862Y105570D01*
X85972Y106029D01*
X86000Y106500D01*
X85972Y106971D01*
X85862Y107430D01*
X85681Y107866D01*
X85435Y108269D01*
X85128Y108628D01*
X84769Y108935D01*
X84366Y109181D01*
X83930Y109362D01*
X83471Y109472D01*
X83000Y109509D01*
X82995Y109509D01*
Y113000D01*
G37*
G36*
X73000D02*X82995D01*
Y109509D01*
X82529Y109472D01*
X82070Y109362D01*
X81634Y109181D01*
X81231Y108935D01*
X80872Y108628D01*
X80565Y108269D01*
X80319Y107866D01*
X80138Y107430D01*
X80028Y106971D01*
X79991Y106500D01*
X80028Y106029D01*
X80138Y105570D01*
X80319Y105134D01*
X80565Y104731D01*
X80872Y104372D01*
X81231Y104065D01*
X81338Y104000D01*
X81231Y103935D01*
X80872Y103628D01*
X80565Y103269D01*
X80319Y102866D01*
X80138Y102430D01*
X80028Y101971D01*
X79991Y101500D01*
X80028Y101029D01*
X80138Y100570D01*
X80319Y100134D01*
X80565Y99731D01*
X80872Y99372D01*
X81231Y99065D01*
X81634Y98819D01*
X82070Y98638D01*
X82529Y98528D01*
X82995Y98491D01*
Y92000D01*
X73000D01*
Y99838D01*
X73065Y99731D01*
X73372Y99372D01*
X73731Y99065D01*
X74134Y98819D01*
X74570Y98638D01*
X75029Y98528D01*
X75500Y98491D01*
X75971Y98528D01*
X76430Y98638D01*
X76866Y98819D01*
X77269Y99065D01*
X77628Y99372D01*
X77935Y99731D01*
X78181Y100134D01*
X78362Y100570D01*
X78472Y101029D01*
X78500Y101500D01*
X78472Y101971D01*
X78362Y102430D01*
X78181Y102866D01*
X77935Y103269D01*
X77628Y103628D01*
X77269Y103935D01*
X77162Y104000D01*
X77269Y104065D01*
X77628Y104372D01*
X77935Y104731D01*
X78181Y105134D01*
X78362Y105570D01*
X78472Y106029D01*
X78500Y106500D01*
X78472Y106971D01*
X78362Y107430D01*
X78181Y107866D01*
X77935Y108269D01*
X77628Y108628D01*
X77269Y108935D01*
X76866Y109181D01*
X76430Y109362D01*
X75971Y109472D01*
X75500Y109509D01*
X75029Y109472D01*
X74570Y109362D01*
X74134Y109181D01*
X73731Y108935D01*
X73372Y108628D01*
X73065Y108269D01*
X73000Y108162D01*
Y113000D01*
G37*
G36*
X159000Y105500D02*X171000D01*
Y95500D01*
X159000D01*
Y105500D01*
G37*
G36*
X183000Y113000D02*X193000D01*
Y105500D01*
X183000D01*
Y113000D01*
G37*
G36*
X153000D02*X160000D01*
Y104000D01*
X153000D01*
Y113000D01*
G37*
G36*
X157000Y103000D02*X169000D01*
Y93000D01*
X157000D01*
Y103000D01*
G37*
G54D35*X151000Y21000D02*X155000Y25000D01*
X160500Y38000D02*X157000D01*
X153500Y41500D01*
X151000Y15000D02*X157000Y21000D01*
X171000Y14000D02*Y11000D01*
X168000Y8000D01*
X140000D02*X168000D01*
X170000Y10000D01*
X181000Y6500D02*Y14500D01*
G54D36*X140000Y73500D02*Y45500D01*
G54D35*X142500Y41500D02*X141500Y40500D01*
X173000Y58000D02*X151500D01*
X147500Y54000D01*
Y46500D01*
X153500Y42000D02*X142500D01*
X157000Y21000D02*X212000D01*
X155000Y25000D02*X215000D01*
X153000Y29000D02*X218000D01*
X159000Y38000D02*X203000D01*
X203500Y37500D01*
X218000Y37000D02*X217500Y37500D01*
G54D37*X169000Y90000D02*X170000Y89000D01*
X167500Y86500D02*X168500Y85500D01*
X172000D01*
X173500Y87000D01*
G54D35*X181000Y44000D02*Y48000D01*
X183000Y50000D01*
X186000D01*
X198500Y43000D02*Y46500D01*
X202500Y50500D01*
X186000Y50000D02*X188000Y52000D01*
Y54000D01*
X192000D01*
X194000Y56000D01*
X188000Y54000D02*X217000D01*
G54D37*X146500Y86500D02*X167500D01*
X173500Y87000D02*X199500D01*
G54D35*X194000Y56000D02*Y70000D01*
X217000Y54000D02*X219000Y56000D01*
Y62000D01*
X203500Y37500D02*X217500D01*
X271500Y37000D02*X218000D01*
X202500Y50500D02*X303000D01*
X266000Y37000D02*X268000Y39000D01*
X219000Y14000D02*X279000D01*
X220000Y20000D02*X289000D01*
X221500Y33000D02*X223500Y31000D01*
X258500D01*
X268000Y39000D02*Y44000D01*
X265000Y37000D02*X306500D01*
X258000Y31000D02*X313000D01*
X322500Y40500D01*
X306500Y37000D02*X308000Y38500D01*
Y44000D01*
X303000Y50500D02*X306000Y53500D01*
X212000Y21000D02*X219000Y14000D01*
X215000Y25000D02*X220000Y20000D01*
X221000Y26000D02*X249000D01*
X218000Y29000D02*X221000Y26000D01*
X54000Y130000D02*Y145000D01*
X58000Y149000D01*
X44000Y130000D02*Y148000D01*
X51000Y155000D01*
X64000Y129000D02*Y140000D01*
Y119000D02*X67000Y122000D01*
X73000D01*
G54D36*X37000Y140000D02*Y167000D01*
X39000Y169000D01*
G54D35*X58000Y149000D02*X136000D01*
X51000Y155000D02*X136000D01*
X67000Y143000D02*X136000D01*
G54D37*X47500Y159500D02*X167500D01*
G54D36*X39000Y169000D02*X215000D01*
G54D35*X64000Y140000D02*X67000Y143000D01*
X70000Y122000D02*X112000D01*
X114000Y124000D01*
Y131000D01*
Y130000D02*Y135000D01*
X116000Y137000D01*
X140000D01*
G54D37*X120000Y124000D02*X130000D01*
X133000Y127000D01*
G54D35*X138000Y123000D02*Y128000D01*
X134000Y132000D01*
G54D37*X207000Y116000D02*X210000Y113000D01*
G54D35*X28500Y45000D02*Y78500D01*
X21000Y60500D02*Y41500D01*
X28500Y78500D02*X27000Y80000D01*
X20000D01*
G54D36*X21000Y100000D02*X12000D01*
X7000Y105000D01*
Y129000D01*
X12000Y134000D01*
X31000D01*
X37000Y140000D01*
G54D35*X27000Y139500D02*X29500Y142000D01*
X30000Y144500D02*Y142500D01*
X28500Y141000D01*
X5000Y137000D02*X7500Y139500D01*
X27000D01*
X64000Y48000D02*X67000Y51000D01*
X84000D01*
X87000Y54000D01*
X71000Y66000D02*X84000D01*
X87000Y63000D01*
Y54000D02*Y63000D01*
X64000Y119000D02*Y73000D01*
X71000Y66000D01*
G54D37*X69000Y113000D02*Y115000D01*
X71000Y117000D01*
G54D35*X131500Y43500D02*X123500D01*
X135000Y155000D02*X278000D01*
X135000Y143000D02*X298000D01*
X295000Y139000D02*X297000Y137000D01*
X243000Y139000D02*X245000Y137000D01*
X251000D01*
X253000Y139000D01*
X295000D01*
X135000Y149000D02*X288500D01*
G54D37*X253000Y116500D02*X273500D01*
G54D35*X308000Y143000D02*X282000D01*
X296000Y138000D02*X298000Y136000D01*
Y131000D01*
G54D37*X245500Y115000D02*X247000Y116500D01*
Y120000D01*
X248500Y121500D01*
X245000Y122500D02*X246500Y124000D01*
X248500Y121500D02*X325500D01*
X246500Y124000D02*X342000D01*
X322500Y121500D02*X334000D01*
X335500Y120000D01*
G54D35*X195000Y129000D02*X192000D01*
G54D36*X191000D02*X195000D01*
G54D37*X200000Y126000D02*Y132000D01*
X198000Y134000D01*
X190000D01*
G54D35*X192000Y129000D02*X189000Y126000D01*
X140000Y137000D02*X142000Y139000D01*
X243000D01*
G54D37*X146000Y134000D02*X147000D01*
X149000Y136000D01*
X220000D01*
X222000Y134000D01*
X184000Y128000D02*X190000Y134000D01*
X181000Y130000D02*X183000Y132000D01*
X150000Y131000D02*X151000Y130000D01*
X181000D01*
X231000Y122500D02*X245000D01*
G54D35*X189000Y126000D02*Y109000D01*
G54D37*X215000Y119000D02*X214000D01*
G54D35*X158000Y118000D02*X156000Y116000D01*
Y108000D01*
G54D37*X141000Y132000D02*Y126000D01*
X143000Y124000D01*
X163000D01*
X167000Y128000D01*
X184000D01*
G54D36*X183000Y122000D02*X187000D01*
G54D37*X214000Y119000D02*X209000Y124000D01*
X202000D01*
X200000Y126000D01*
G54D36*X187000Y122000D02*X188000Y121000D01*
Y122000D02*Y126000D01*
X191000Y129000D01*
X188000Y121000D02*Y110000D01*
G54D37*X222000Y134000D02*Y128000D01*
Y126000D02*Y131500D01*
X210000Y132500D02*Y126500D01*
X212000Y124500D02*X217000D01*
X222000Y119500D01*
Y126000D02*X227000Y121000D01*
Y118500D01*
X204500Y91000D02*X253500D01*
X198000Y87000D02*X254000D01*
X210000Y113000D02*X243500D01*
X246000Y115500D01*
G54D36*X261500Y89000D02*Y99000D01*
G54D37*X253500Y91000D02*X261500Y83000D01*
X280500D01*
X254000Y87000D02*X260500Y80500D01*
X277000D01*
X279500Y78000D01*
X283500D01*
X289000Y83500D01*
X293500D01*
G54D35*X44000Y24000D02*Y44000D01*
X21000Y41500D02*X33500Y29000D01*
Y23500D01*
X37500Y25000D02*Y30500D01*
X28500Y39500D01*
Y48500D01*
X54000Y44000D02*Y25000D01*
X58000Y21000D01*
X64000Y48000D02*Y31000D01*
X68000Y27000D01*
X49000Y19000D02*X44000Y24000D01*
X48000Y20000D02*X53000Y15000D01*
X54500Y8000D02*X37500Y25000D01*
X33500Y23500D02*X52500Y4500D01*
G54D37*X69000Y35000D02*X71500Y37500D01*
G54D35*X68000Y27000D02*X151000D01*
X153000Y29000D01*
X58000Y21000D02*X151000D01*
X140500Y8000D02*X54500D01*
X52500Y4500D02*X179000D01*
X53000Y15000D02*X151000D01*
X83500Y33000D02*X221500D01*
G54D37*X71000Y117000D02*X113000D01*
X120000Y124000D01*
X122000Y88000D02*X124000D01*
X126000Y90000D01*
X169000D01*
G54D35*X158000Y118000D02*X143000D01*
X138000Y123000D01*
G54D37*X210000Y126500D02*X212000Y124500D01*
X205000Y119000D02*Y118000D01*
X208000Y115000D01*
X204500Y91000D02*X205000D01*
G54D35*X179000Y4500D02*X181000Y6500D01*
G54D36*X134000Y57000D02*X131500Y59500D01*
X134000Y62000D01*
X132000Y59500D02*X107500D01*
X105500Y61500D01*
X94500D01*
G54D35*X128000Y51000D02*X139000D01*
X140000Y50000D01*
X141500Y40500D02*X134500D01*
X131500Y43500D01*
G54D37*X147500Y37500D02*X77500D01*
G54D35*X74000Y33000D02*X86000D01*
G54D37*X71500Y37500D02*X84500D01*
G54D38*X17000Y17000D03*
Y158000D03*
G54D34*G36*
Y124000D02*Y116000D01*
X25000D01*
Y124000D01*
X17000D01*
G37*
G54D39*X21000Y100000D03*
G54D34*G36*
X17000Y84000D02*Y76000D01*
X25000D01*
Y84000D01*
X17000D01*
G37*
G54D39*X21000Y60000D03*
G54D40*X79500Y59000D03*
X69500D03*
G54D34*G36*
X55563Y62937D02*Y55063D01*
X63437D01*
Y62937D01*
X55563D01*
G37*
G54D39*X74000Y43700D03*
Y130300D03*
X64000D03*
X54000D03*
X44000D03*
X64000Y43700D03*
X54000D03*
X44000D03*
G54D38*X332000Y17000D03*
G54D34*G36*
X304000Y47700D02*Y39700D01*
X312000D01*
Y47700D01*
X304000D01*
G37*
G54D39*X298000Y43700D03*
X288000D03*
X278000D03*
X268000D03*
X258000D03*
G54D38*X332000Y158000D03*
G54D39*X308000Y130300D03*
X298000D03*
X288000D03*
X278000D03*
X268000D03*
X258000D03*
X248000Y43700D03*
X238000D03*
X228000D03*
G54D34*G36*
X206500Y46894D02*Y39894D01*
X213500D01*
Y46894D01*
X206500D01*
G37*
G54D41*X210000Y62606D03*
G54D34*G36*
X188000Y47000D02*Y41000D01*
X194000D01*
Y47000D01*
X188000D01*
G37*
G54D42*X181000Y44000D03*
X171000D03*
X161000D03*
G54D34*G36*
X178750Y61250D02*Y54750D01*
X185250D01*
Y61250D01*
X178750D01*
G37*
G54D43*X172000Y58000D03*
G54D42*X161000Y14000D03*
X171000D03*
X181000D03*
X191000D03*
G54D34*G36*
X120000Y47700D02*Y39700D01*
X128000D01*
Y47700D01*
X120000D01*
G37*
G54D39*X114000Y43700D03*
X104000D03*
X94000D03*
X84000D03*
X248000Y130300D03*
X238000D03*
X228000D03*
G54D42*X205000Y119000D03*
X215000D03*
X205000Y129000D03*
X215000D03*
G54D34*G36*
X169750Y125250D02*Y118750D01*
X176250D01*
Y125250D01*
X169750D01*
G37*
G54D43*X183000Y122000D03*
G54D34*G36*
X192000D02*Y116000D01*
X198000D01*
Y122000D01*
X192000D01*
G37*
G54D42*X195000Y129000D03*
G54D39*X124000Y130300D03*
X114000D03*
X104000D03*
X94000D03*
X84000D03*
G54D36*X215000Y169000D03*
X238000Y149000D03*
X248000Y143000D03*
X210000Y169000D03*
Y132500D03*
X205000Y169000D03*
X226500Y82000D03*
X204500Y91000D03*
X222000Y119500D03*
X219000Y62000D03*
X227000Y118500D03*
X231000Y122500D03*
X228000Y14000D03*
Y155000D03*
X233500Y20000D03*
X248000Y26000D03*
X270500Y106000D03*
X255500D03*
X263000D03*
X270500Y101500D03*
X255500D03*
X263000D03*
X253000Y116500D03*
X273000D03*
X262000Y64500D03*
X258000Y31000D03*
X281500Y64500D03*
X278000Y14000D03*
X288000Y20000D03*
X298000Y31000D03*
X280500Y83000D03*
X286500Y88000D03*
X261500Y89000D03*
X308000Y143000D03*
X288000Y149000D03*
X278000Y155000D03*
X296500Y103500D03*
X293000Y83500D03*
X300000Y74500D03*
X306000Y53500D03*
X312500Y103500D03*
X328000D03*
X321500Y64000D03*
X322500Y40500D03*
X341500Y124000D03*
X335500Y120000D03*
X35000D03*
X30000Y144500D03*
X37000Y144000D03*
X35000Y109000D03*
X45000Y120000D03*
X47500Y159500D03*
X94000Y155000D03*
X104000Y149000D03*
X45000Y109000D03*
X40000Y114000D03*
X69000Y113000D03*
X5000Y137000D03*
X90500Y106500D03*
X75500D03*
X83000D03*
X90500Y101500D03*
X83000D03*
X75500D03*
X84000Y81000D03*
X78000D03*
Y75000D03*
X72000D03*
Y81000D03*
X74000Y33000D03*
X69000Y35000D03*
X84000Y75000D03*
X150500Y77500D03*
X95000Y61500D03*
X100500D03*
X105500D03*
X117000Y68000D03*
X165500Y101000D03*
Y96000D03*
X169500Y89500D03*
X160500Y79000D03*
X183000Y76000D03*
X188000Y53000D03*
X198500Y43000D03*
X140000Y50000D03*
X134000Y62000D03*
Y57000D03*
X128000Y51000D03*
X140000Y45500D03*
X147500Y46500D03*
Y37500D03*
X114000Y33000D03*
X104000Y21000D03*
X94000Y15000D03*
X122000Y88000D03*
X146500Y86500D03*
X146000Y134000D03*
X141000Y132000D03*
X133000Y127000D03*
X158000Y118000D03*
X150000Y131000D03*
X134000Y132000D03*
X167000Y159500D03*
X183000Y132000D03*
X124000Y143000D03*
G54D44*G54D45*G54D46*G54D47*G54D46*G54D45*G54D46*G54D45*G54D46*G54D44*G54D48*G54D49*G54D48*G54D46*G54D50*G54D49*G54D50*G54D46*M02*
