G04 start of page 7 for group -4062 idx -4062 *
G04 Title: (unknown), soldermask *
G04 Creator: pcb 20110918 *
G04 CreationDate: Tue 05 Feb 2013 03:16:39 AM GMT UTC *
G04 For: railfan *
G04 Format: Gerber/RS-274X *
G04 PCB-Dimensions: 350000 175000 *
G04 PCB-Coordinate-Origin: lower left *
%MOIN*%
%FSLAX25Y25*%
%LNBOTTOMMASK*%
%ADD78C,0.0710*%
%ADD77C,0.0660*%
%ADD76C,0.0760*%
%ADD75C,0.0900*%
%ADD74C,0.0860*%
%ADD73C,0.0001*%
%ADD72C,0.2997*%
G54D72*X17000Y17000D03*
Y158000D03*
G54D73*G36*
X16700Y124300D02*Y115700D01*
X25300D01*
Y124300D01*
X16700D01*
G37*
G54D74*X21000Y100000D03*
G54D73*G36*
X16700Y84300D02*Y75700D01*
X25300D01*
Y84300D01*
X16700D01*
G37*
G54D74*X21000Y60000D03*
G54D75*X79500Y59000D03*
X69500D03*
G54D73*G36*
X55000Y63500D02*Y54500D01*
X64000D01*
Y63500D01*
X55000D01*
G37*
G54D74*X74000Y43700D03*
Y130300D03*
X64000D03*
X54000D03*
X44000D03*
X64000Y43700D03*
X54000D03*
X44000D03*
G54D72*X332000Y17000D03*
G54D73*G36*
X303700Y48000D02*Y39400D01*
X312300D01*
Y48000D01*
X303700D01*
G37*
G54D74*X298000Y43700D03*
X288000D03*
X278000D03*
X268000D03*
X258000D03*
G54D72*X332000Y158000D03*
G54D74*X308000Y130300D03*
X298000D03*
X288000D03*
X278000D03*
X268000D03*
X258000D03*
X248000Y43700D03*
X238000D03*
X228000D03*
G54D73*G36*
X206200Y47194D02*Y39594D01*
X213800D01*
Y47194D01*
X206200D01*
G37*
G54D76*X210000Y62606D03*
G54D73*G36*
X187700Y47300D02*Y40700D01*
X194300D01*
Y47300D01*
X187700D01*
G37*
G54D77*X181000Y44000D03*
X171000D03*
X161000D03*
G54D73*G36*
X178450Y61550D02*Y54450D01*
X185550D01*
Y61550D01*
X178450D01*
G37*
G54D78*X172000Y58000D03*
G54D77*X161000Y14000D03*
X171000D03*
X181000D03*
X191000D03*
G54D73*G36*
X119700Y48000D02*Y39400D01*
X128300D01*
Y48000D01*
X119700D01*
G37*
G54D74*X114000Y43700D03*
X104000D03*
X94000D03*
X84000D03*
X248000Y130300D03*
X238000D03*
X228000D03*
G54D77*X205000Y119000D03*
X215000D03*
X205000Y129000D03*
X215000D03*
G54D73*G36*
X169450Y125550D02*Y118450D01*
X176550D01*
Y125550D01*
X169450D01*
G37*
G54D78*X183000Y122000D03*
G54D73*G36*
X191700Y122300D02*Y115700D01*
X198300D01*
Y122300D01*
X191700D01*
G37*
G54D77*X195000Y129000D03*
G54D74*X124000Y130300D03*
X114000D03*
X104000D03*
X94000D03*
X84000D03*
M02*
