M48
INCH
T58C0.038
T57C0.043
T56C0.028
T55C0.020
T54C0.045
T53C0.048
T52C0.129
%
T55
X021000Y004339
X021000Y006261
X021500Y016900
X023800Y014900
X024800Y014300
X021000Y016900
X021000Y013250
X020500Y016900
X022650Y008200
X020450Y009100
X022200Y011950
X021900Y006200
X022700Y011850
X023100Y012250
X022800Y001400
X022800Y015500
X023350Y002000
X024800Y002600
X027050Y010600
X025550Y010600
X026300Y010600
X027050Y010150
X025550Y010150
X026300Y010150
X025300Y011650
X027300Y011650
X026200Y006450
X025800Y003100
X028150Y006450
X027800Y001400
X028800Y002000
X029800Y003100
X028050Y008300
X028650Y008800
X026150Y008900
X030800Y014300
X028800Y014900
X027800Y015500
X029650Y010350
X029300Y008350
X030000Y007450
X030600Y005350
X031250Y010350
X032800Y010350
X032150Y006400
X032250Y004050
X034150Y012400
X033550Y012000
X003500Y012000
X003000Y014450
X003700Y014400
X003500Y010900
X004500Y012000
X004750Y015950
X009400Y015500
X010400Y014900
X004500Y010900
X004000Y011400
X006900Y011300
X000500Y013700
X009050Y010650
X007550Y010650
X008300Y010650
X009050Y010150
X008300Y010150
X007550Y010150
X008400Y008100
X007800Y008100
X007800Y007500
X007200Y007500
X007200Y008100
X007400Y003300
X006900Y003500
X008400Y007500
X015050Y007750
X009500Y006150
X010050Y006150
X010550Y006150
X011700Y006800
X016550Y010100
X016550Y009600
X016950Y008950
X016050Y007900
X018300Y007600
X018800Y005300
X019850Y004300
X014000Y005000
X013400Y006200
X013400Y005700
X012800Y005100
X014000Y004550
X014750Y004650
X014750Y003750
X011400Y003300
X010400Y002100
X009400Y001500
X012200Y008800
X014650Y008650
X014600Y013400
X014100Y013200
X013300Y012700
X015800Y011800
X015000Y013100
X013400Y013200
X016700Y015950
X018300Y013200
X012400Y014300
T56
X019100Y004400
X018100Y004400
X017100Y004400
X016100Y004400
X016100Y001400
X017100Y001400
X018100Y001400
X019100Y001400
T58
X020500Y011900
X021500Y011900
X020500Y012900
X021500Y012900
X019500Y011900
X019500Y012900
T57
X018200Y005800
X017200Y005800
X017300Y012200
X018300Y012200
T54
X007950Y005900
X006950Y005900
X005950Y005900
T53
X002100Y012000
X002100Y010000
X002100Y008000
X002100Y006000
X007400Y004370
X007400Y013030
X006400Y013030
X005400Y013030
X004400Y013030
X006400Y004370
X005400Y004370
X004400Y004370
X030800Y004370
X029800Y004370
X028800Y004370
X027800Y004370
X026800Y004370
X025800Y004370
X030800Y013030
X029800Y013030
X028800Y013030
X027800Y013030
X026800Y013030
X025800Y013030
X024800Y004370
X023800Y004370
X022800Y004370
X012400Y004370
X011400Y004370
X010400Y004370
X009400Y004370
X008400Y004370
X024800Y013030
X023800Y013030
X022800Y013030
X012400Y013030
X011400Y013030
X010400Y013030
X009400Y013030
X008400Y013030
T52
X001700Y001700
X001700Y015800
X033200Y001700
X033200Y015800
M30
