G04 start of page 13 for group -3984 idx -3984 *
G04 Title: (unknown), fab *
G04 Creator: pcb 20140316 *
G04 CreationDate: Fri 02 Jun 2017 03:03:48 AM GMT UTC *
G04 For: railfan *
G04 Format: Gerber/RS-274X *
G04 PCB-Dimensions (mil): 3500.00 1750.00 *
G04 PCB-Coordinate-Origin: lower left *
%MOIN*%
%FSLAX25Y25*%
%LNFAB*%
%ADD108C,0.0100*%
%ADD107C,0.0060*%
%ADD106C,0.0001*%
%ADD105R,0.0080X0.0080*%
G54D105*X17000Y17000D02*Y13800D01*
G54D106*G36*
X16454Y17147D02*X19920Y19146D01*
X20320Y18453D01*
X16853Y16454D01*
X16454Y17147D01*
G37*
G36*
X17147Y16454D02*X13680Y18453D01*
X14080Y19146D01*
X17546Y17147D01*
X17147Y16454D01*
G37*
G54D105*X15400Y17000D02*G75*G03X18600Y17000I1600J0D01*G01*
G75*G03X15400Y17000I-1600J0D01*G01*
X333000D02*Y13800D01*
G54D106*G36*
X332454Y17147D02*X335920Y19146D01*
X336320Y18453D01*
X332853Y16454D01*
X332454Y17147D01*
G37*
G36*
X333147Y16454D02*X329680Y18453D01*
X330080Y19146D01*
X333546Y17147D01*
X333147Y16454D01*
G37*
G54D105*X331400Y17000D02*G75*G03X334600Y17000I1600J0D01*G01*
G75*G03X331400Y17000I-1600J0D01*G01*
X333000Y158000D02*Y154800D01*
G54D106*G36*
X332454Y158147D02*X335920Y160146D01*
X336320Y159453D01*
X332853Y157454D01*
X332454Y158147D01*
G37*
G36*
X333147Y157454D02*X329680Y159453D01*
X330080Y160146D01*
X333546Y158147D01*
X333147Y157454D01*
G37*
G54D105*X331400Y158000D02*G75*G03X334600Y158000I1600J0D01*G01*
G75*G03X331400Y158000I-1600J0D01*G01*
X17000D02*Y154800D01*
G54D106*G36*
X16454Y158147D02*X19920Y160146D01*
X20320Y159453D01*
X16853Y157454D01*
X16454Y158147D01*
G37*
G36*
X17147Y157454D02*X13680Y159453D01*
X14080Y160146D01*
X17546Y158147D01*
X17147Y157454D01*
G37*
G54D105*X15400Y158000D02*G75*G03X18600Y158000I1600J0D01*G01*
G75*G03X15400Y158000I-1600J0D01*G01*
X15000Y186250D02*Y183050D01*
G54D106*G36*
X14454Y186397D02*X17920Y188396D01*
X18320Y187703D01*
X14853Y185704D01*
X14454Y186397D01*
G37*
G36*
X15147Y185704D02*X11680Y187703D01*
X12080Y188396D01*
X15546Y186397D01*
X15147Y185704D01*
G37*
G54D105*X13400Y186250D02*G75*G03X16600Y186250I1600J0D01*G01*
G75*G03X13400Y186250I-1600J0D01*G01*
G54D107*X135000Y188500D02*Y187750D01*
X136500Y186250D01*
X138000Y187750D01*
Y188500D02*Y187750D01*
X136500Y186250D02*Y182500D01*
X139800Y185500D02*X142050D01*
X139800Y182500D02*X142800D01*
X139800Y188500D02*Y182500D01*
Y188500D02*X142800D01*
X147600D02*X148350Y187750D01*
X145350Y188500D02*X147600D01*
X144600Y187750D02*X145350Y188500D01*
X144600Y187750D02*Y186250D01*
X145350Y185500D01*
X147600D01*
X148350Y184750D01*
Y183250D01*
X147600Y182500D02*X148350Y183250D01*
X145350Y182500D02*X147600D01*
X144600Y183250D02*X145350Y182500D01*
X98000Y185500D02*X101000Y188500D01*
X98000Y185500D02*X101750D01*
X101000Y188500D02*Y182500D01*
X45000Y183250D02*X45750Y182500D01*
X45000Y187750D02*Y183250D01*
Y187750D02*X45750Y188500D01*
X47250D01*
X48000Y187750D01*
Y183250D01*
X47250Y182500D02*X48000Y183250D01*
X45750Y182500D02*X47250D01*
X45000Y184000D02*X48000Y187000D01*
X49800Y182500D02*X50550D01*
X53100D02*X54600D01*
X53850Y188500D02*Y182500D01*
X52350Y187000D02*X53850Y188500D01*
X56400Y187750D02*X57150Y188500D01*
X59400D01*
X60150Y187750D01*
Y186250D01*
X56400Y182500D02*X60150Y186250D01*
X56400Y182500D02*X60150D01*
X61950D02*X64950Y185500D01*
Y187750D02*Y185500D01*
X64200Y188500D02*X64950Y187750D01*
X62700Y188500D02*X64200D01*
X61950Y187750D02*X62700Y188500D01*
X61950Y187750D02*Y186250D01*
X62700Y185500D01*
X64950D01*
X306400Y45300D02*X309600D01*
X306400D02*Y42100D01*
X309600D01*
Y45300D02*Y42100D01*
X296400Y45300D02*X299600D01*
X296400D02*Y42100D01*
X299600D01*
Y45300D02*Y42100D01*
X286400Y45300D02*X289600D01*
X286400D02*Y42100D01*
X289600D01*
Y45300D02*Y42100D01*
X276400Y45300D02*X279600D01*
X276400D02*Y42100D01*
X279600D01*
Y45300D02*Y42100D01*
X266400Y45300D02*X269600D01*
X266400D02*Y42100D01*
X269600D01*
Y45300D02*Y42100D01*
X256400Y45300D02*X259600D01*
X256400D02*Y42100D01*
X259600D01*
Y45300D02*Y42100D01*
X246400Y45300D02*X249600D01*
X246400D02*Y42100D01*
X249600D01*
Y45300D02*Y42100D01*
X236400Y45300D02*X239600D01*
X236400D02*Y42100D01*
X239600D01*
Y45300D02*Y42100D01*
X226400Y45300D02*X229600D01*
X226400D02*Y42100D01*
X229600D01*
Y45300D02*Y42100D01*
X306400Y131900D02*X309600D01*
X306400D02*Y128700D01*
X309600D01*
Y131900D02*Y128700D01*
X296400Y131900D02*X299600D01*
X296400D02*Y128700D01*
X299600D01*
Y131900D02*Y128700D01*
X286400Y131900D02*X289600D01*
X286400D02*Y128700D01*
X289600D01*
Y131900D02*Y128700D01*
X276400Y131900D02*X279600D01*
X276400D02*Y128700D01*
X279600D01*
Y131900D02*Y128700D01*
X266400Y131900D02*X269600D01*
X266400D02*Y128700D01*
X269600D01*
Y131900D02*Y128700D01*
X256400Y131900D02*X259600D01*
X256400D02*Y128700D01*
X259600D01*
Y131900D02*Y128700D01*
X246400Y131900D02*X249600D01*
X246400D02*Y128700D01*
X249600D01*
Y131900D02*Y128700D01*
X236400Y131900D02*X239600D01*
X236400D02*Y128700D01*
X239600D01*
Y131900D02*Y128700D01*
X226400Y131900D02*X229600D01*
X226400D02*Y128700D01*
X229600D01*
Y131900D02*Y128700D01*
X19400Y121600D02*X22600D01*
X19400D02*Y118400D01*
X22600D01*
Y121600D02*Y118400D01*
X19400Y101600D02*X22600D01*
X19400D02*Y98400D01*
X22600D01*
Y101600D02*Y98400D01*
X19400Y81600D02*X22600D01*
X19400D02*Y78400D01*
X22600D01*
Y81600D02*Y78400D01*
X19400Y61600D02*X22600D01*
X19400D02*Y58400D01*
X22600D01*
Y61600D02*Y58400D01*
X122400Y45300D02*X125600D01*
X122400D02*Y42100D01*
X125600D01*
Y45300D02*Y42100D01*
X112400Y45300D02*X115600D01*
X112400D02*Y42100D01*
X115600D01*
Y45300D02*Y42100D01*
X102400Y45300D02*X105600D01*
X102400D02*Y42100D01*
X105600D01*
Y45300D02*Y42100D01*
X92400Y45300D02*X95600D01*
X92400D02*Y42100D01*
X95600D01*
Y45300D02*Y42100D01*
X82400Y45300D02*X85600D01*
X82400D02*Y42100D01*
X85600D01*
Y45300D02*Y42100D01*
X72400Y45300D02*X75600D01*
X72400D02*Y42100D01*
X75600D01*
Y45300D02*Y42100D01*
X62400Y45300D02*X65600D01*
X62400D02*Y42100D01*
X65600D01*
Y45300D02*Y42100D01*
X52400Y45300D02*X55600D01*
X52400D02*Y42100D01*
X55600D01*
Y45300D02*Y42100D01*
X42400Y45300D02*X45600D01*
X42400D02*Y42100D01*
X45600D01*
Y45300D02*Y42100D01*
X122400Y131900D02*X125600D01*
X122400D02*Y128700D01*
X125600D01*
Y131900D02*Y128700D01*
X112400Y131900D02*X115600D01*
X112400D02*Y128700D01*
X115600D01*
Y131900D02*Y128700D01*
X102400Y131900D02*X105600D01*
X102400D02*Y128700D01*
X105600D01*
Y131900D02*Y128700D01*
X92400Y131900D02*X95600D01*
X92400D02*Y128700D01*
X95600D01*
Y131900D02*Y128700D01*
X82400Y131900D02*X85600D01*
X82400D02*Y128700D01*
X85600D01*
Y131900D02*Y128700D01*
X72400Y131900D02*X75600D01*
X72400D02*Y128700D01*
X75600D01*
Y131900D02*Y128700D01*
X62400Y131900D02*X65600D01*
X62400D02*Y128700D01*
X65600D01*
Y131900D02*Y128700D01*
X52400Y131900D02*X55600D01*
X52400D02*Y128700D01*
X55600D01*
Y131900D02*Y128700D01*
X42400Y131900D02*X45600D01*
X42400D02*Y128700D01*
X45600D01*
Y131900D02*Y128700D01*
X13400Y202850D02*X16600D01*
X13400D02*Y199650D01*
X16600D01*
Y202850D02*Y199650D01*
X135000Y203500D02*Y202750D01*
X136500Y201250D01*
X138000Y202750D01*
Y203500D02*Y202750D01*
X136500Y201250D02*Y197500D01*
X139800Y200500D02*X142050D01*
X139800Y197500D02*X142800D01*
X139800Y203500D02*Y197500D01*
Y203500D02*X142800D01*
X147600D02*X148350Y202750D01*
X145350Y203500D02*X147600D01*
X144600Y202750D02*X145350Y203500D01*
X144600Y202750D02*Y201250D01*
X145350Y200500D01*
X147600D01*
X148350Y199750D01*
Y198250D01*
X147600Y197500D02*X148350Y198250D01*
X145350Y197500D02*X147600D01*
X144600Y198250D02*X145350Y197500D01*
X98000Y200500D02*X101000Y203500D01*
X98000Y200500D02*X101750D01*
X101000Y203500D02*Y197500D01*
X103550Y198250D02*X104300Y197500D01*
X103550Y202750D02*Y198250D01*
Y202750D02*X104300Y203500D01*
X105800D01*
X106550Y202750D01*
Y198250D01*
X105800Y197500D02*X106550Y198250D01*
X104300Y197500D02*X105800D01*
X103550Y199000D02*X106550Y202000D01*
X45000Y198250D02*X45750Y197500D01*
X45000Y202750D02*Y198250D01*
Y202750D02*X45750Y203500D01*
X47250D01*
X48000Y202750D01*
Y198250D01*
X47250Y197500D02*X48000Y198250D01*
X45750Y197500D02*X47250D01*
X45000Y199000D02*X48000Y202000D01*
X49800Y197500D02*X50550D01*
X52350Y198250D02*X53100Y197500D01*
X52350Y202750D02*Y198250D01*
Y202750D02*X53100Y203500D01*
X54600D01*
X55350Y202750D01*
Y198250D01*
X54600Y197500D02*X55350Y198250D01*
X53100Y197500D02*X54600D01*
X52350Y199000D02*X55350Y202000D01*
X57150Y200500D02*X60150Y203500D01*
X57150Y200500D02*X60900D01*
X60150Y203500D02*Y197500D01*
X62700Y198250D02*X63450Y197500D01*
X62700Y199750D02*Y198250D01*
Y199750D02*X63450Y200500D01*
X64950D01*
X65700Y199750D01*
Y198250D01*
X64950Y197500D02*X65700Y198250D01*
X63450Y197500D02*X64950D01*
X62700Y201250D02*X63450Y200500D01*
X62700Y202750D02*Y201250D01*
Y202750D02*X63450Y203500D01*
X64950D01*
X65700Y202750D01*
Y201250D01*
X64950Y200500D02*X65700Y201250D01*
X74700Y63000D02*G75*G03X76300Y63000I800J0D01*G01*
G75*G03X74700Y63000I-800J0D01*G01*
X64700D02*G75*G03X66300Y63000I800J0D01*G01*
G75*G03X64700Y63000I-800J0D01*G01*
X54700D02*G75*G03X56300Y63000I800J0D01*G01*
G75*G03X54700Y63000I-800J0D01*G01*
X14200Y216250D02*G75*G03X15800Y216250I800J0D01*G01*
G75*G03X14200Y216250I-800J0D01*G01*
X135000Y218500D02*Y217750D01*
X136500Y216250D01*
X138000Y217750D01*
Y218500D02*Y217750D01*
X136500Y216250D02*Y212500D01*
X139800Y215500D02*X142050D01*
X139800Y212500D02*X142800D01*
X139800Y218500D02*Y212500D01*
Y218500D02*X142800D01*
X147600D02*X148350Y217750D01*
X145350Y218500D02*X147600D01*
X144600Y217750D02*X145350Y218500D01*
X144600Y217750D02*Y216250D01*
X145350Y215500D01*
X147600D01*
X148350Y214750D01*
Y213250D01*
X147600Y212500D02*X148350Y213250D01*
X145350Y212500D02*X147600D01*
X144600Y213250D02*X145350Y212500D01*
X98000Y217750D02*X98750Y218500D01*
X100250D01*
X101000Y217750D01*
Y213250D01*
X100250Y212500D02*X101000Y213250D01*
X98750Y212500D02*X100250D01*
X98000Y213250D02*X98750Y212500D01*
Y215500D02*X101000D01*
X45000Y213250D02*X45750Y212500D01*
X45000Y217750D02*Y213250D01*
Y217750D02*X45750Y218500D01*
X47250D01*
X48000Y217750D01*
Y213250D01*
X47250Y212500D02*X48000Y213250D01*
X45750Y212500D02*X47250D01*
X45000Y214000D02*X48000Y217000D01*
X49800Y212500D02*X50550D01*
X52350Y213250D02*X53100Y212500D01*
X52350Y217750D02*Y213250D01*
Y217750D02*X53100Y218500D01*
X54600D01*
X55350Y217750D01*
Y213250D01*
X54600Y212500D02*X55350Y213250D01*
X53100Y212500D02*X54600D01*
X52350Y214000D02*X55350Y217000D01*
X57150Y215500D02*X60150Y218500D01*
X57150Y215500D02*X60900D01*
X60150Y218500D02*Y212500D01*
X62700Y218500D02*X65700D01*
X62700D02*Y215500D01*
X63450Y216250D01*
X64950D01*
X65700Y215500D01*
Y213250D01*
X64950Y212500D02*X65700Y213250D01*
X63450Y212500D02*X64950D01*
X62700Y213250D02*X63450Y212500D01*
X171800Y123200D02*X174200Y120800D01*
X171800D02*X174200Y123200D01*
X181800D02*X184200Y120800D01*
X181800D02*X184200Y123200D01*
X171800Y53700D02*X174200Y51300D01*
X171800D02*X174200Y53700D01*
X181800D02*X184200Y51300D01*
X181800D02*X184200Y53700D01*
X13800Y232450D02*X16200Y230050D01*
X13800D02*X16200Y232450D01*
X135000Y233500D02*Y232750D01*
X136500Y231250D01*
X138000Y232750D01*
Y233500D02*Y232750D01*
X136500Y231250D02*Y227500D01*
X139800Y230500D02*X142050D01*
X139800Y227500D02*X142800D01*
X139800Y233500D02*Y227500D01*
Y233500D02*X142800D01*
X147600D02*X148350Y232750D01*
X145350Y233500D02*X147600D01*
X144600Y232750D02*X145350Y233500D01*
X144600Y232750D02*Y231250D01*
X145350Y230500D01*
X147600D01*
X148350Y229750D01*
Y228250D01*
X147600Y227500D02*X148350Y228250D01*
X145350Y227500D02*X147600D01*
X144600Y228250D02*X145350Y227500D01*
X98000Y230500D02*X101000Y233500D01*
X98000Y230500D02*X101750D01*
X101000Y233500D02*Y227500D01*
X45000Y228250D02*X45750Y227500D01*
X45000Y232750D02*Y228250D01*
Y232750D02*X45750Y233500D01*
X47250D01*
X48000Y232750D01*
Y228250D01*
X47250Y227500D02*X48000Y228250D01*
X45750Y227500D02*X47250D01*
X45000Y229000D02*X48000Y232000D01*
X49800Y227500D02*X50550D01*
X52350Y228250D02*X53100Y227500D01*
X52350Y232750D02*Y228250D01*
Y232750D02*X53100Y233500D01*
X54600D01*
X55350Y232750D01*
Y228250D01*
X54600Y227500D02*X55350Y228250D01*
X53100Y227500D02*X54600D01*
X52350Y229000D02*X55350Y232000D01*
X57150Y230500D02*X60150Y233500D01*
X57150Y230500D02*X60900D01*
X60150Y233500D02*Y227500D01*
X62700Y232750D02*X63450Y233500D01*
X64950D01*
X65700Y232750D01*
Y228250D01*
X64950Y227500D02*X65700Y228250D01*
X63450Y227500D02*X64950D01*
X62700Y228250D02*X63450Y227500D01*
Y230500D02*X65700D01*
X102000Y161600D02*Y158400D01*
X100400Y160000D02*X103600D01*
X82000Y157600D02*Y154400D01*
X80400Y156000D02*X83600D01*
X82000Y165600D02*Y162400D01*
X80400Y164000D02*X83600D01*
X15000Y247850D02*Y244650D01*
X13400Y246250D02*X16600D01*
X140000Y248500D02*Y242500D01*
Y248500D02*Y247750D01*
X143750Y244000D01*
Y248500D02*Y242500D01*
X145550Y247750D02*Y243250D01*
Y247750D02*X146300Y248500D01*
X147800D01*
X148550Y247750D01*
Y243250D01*
X147800Y242500D02*X148550Y243250D01*
X146300Y242500D02*X147800D01*
X145550Y243250D02*X146300Y242500D01*
X98000Y247750D02*X98750Y248500D01*
X100250D01*
X101000Y247750D01*
Y243250D01*
X100250Y242500D02*X101000Y243250D01*
X98750Y242500D02*X100250D01*
X98000Y243250D02*X98750Y242500D01*
Y245500D02*X101000D01*
X45000Y243250D02*X45750Y242500D01*
X45000Y247750D02*Y243250D01*
Y247750D02*X45750Y248500D01*
X47250D01*
X48000Y247750D01*
Y243250D01*
X47250Y242500D02*X48000Y243250D01*
X45750Y242500D02*X47250D01*
X45000Y244000D02*X48000Y247000D01*
X49800Y242500D02*X50550D01*
X52350Y243250D02*X53100Y242500D01*
X52350Y247750D02*Y243250D01*
Y247750D02*X53100Y248500D01*
X54600D01*
X55350Y247750D01*
Y243250D01*
X54600Y242500D02*X55350Y243250D01*
X53100Y242500D02*X54600D01*
X52350Y244000D02*X55350Y247000D01*
X57150Y247750D02*X57900Y248500D01*
X59400D01*
X60150Y247750D01*
Y243250D01*
X59400Y242500D02*X60150Y243250D01*
X57900Y242500D02*X59400D01*
X57150Y243250D02*X57900Y242500D01*
Y245500D02*X60150D01*
X61950Y242500D02*X64950Y245500D01*
Y247750D02*Y245500D01*
X64200Y248500D02*X64950Y247750D01*
X62700Y248500D02*X64200D01*
X61950Y247750D02*X62700Y248500D01*
X61950Y247750D02*Y246250D01*
X62700Y245500D01*
X64950D01*
X120000Y60500D02*Y58900D01*
Y60500D02*X121387Y61300D01*
X120000Y60500D02*X118613Y61300D01*
X117000Y96000D02*Y94400D01*
Y96000D02*X118387Y96800D01*
X117000Y96000D02*X115613Y96800D01*
X117000Y101000D02*Y99400D01*
Y101000D02*X118387Y101800D01*
X117000Y101000D02*X115613Y101800D01*
X65500Y87000D02*Y85400D01*
Y87000D02*X66887Y87800D01*
X65500Y87000D02*X64113Y87800D01*
X65500Y81500D02*Y79900D01*
Y81500D02*X66887Y82300D01*
X65500Y81500D02*X64113Y82300D01*
X65500Y76000D02*Y74400D01*
Y76000D02*X66887Y76800D01*
X65500Y76000D02*X64113Y76800D01*
X63000Y31000D02*Y29400D01*
Y31000D02*X64387Y31800D01*
X63000Y31000D02*X61613Y31800D01*
X139700Y25100D02*Y23500D01*
Y25100D02*X141087Y25900D01*
X139700Y25100D02*X138313Y25900D01*
X169500Y36000D02*Y34400D01*
Y36000D02*X170887Y36800D01*
X169500Y36000D02*X168113Y36800D01*
X157500Y28000D02*Y26400D01*
Y28000D02*X158887Y28800D01*
X157500Y28000D02*X156113Y28800D01*
X152500Y28000D02*Y26400D01*
Y28000D02*X153887Y28800D01*
X152500Y28000D02*X151113Y28800D01*
X147500Y28000D02*Y26400D01*
Y28000D02*X148887Y28800D01*
X147500Y28000D02*X146113Y28800D01*
X147500Y41000D02*Y39400D01*
Y41000D02*X148887Y41800D01*
X147500Y41000D02*X146113Y41800D01*
X152500Y35500D02*Y33900D01*
Y35500D02*X153887Y36300D01*
X152500Y35500D02*X151113Y36300D01*
X57500Y160000D02*Y158400D01*
Y160000D02*X58887Y160800D01*
X57500Y160000D02*X56113Y160800D01*
X48500Y160000D02*Y158400D01*
Y160000D02*X49887Y160800D01*
X48500Y160000D02*X47113Y160800D01*
X109500Y157000D02*Y155400D01*
Y157000D02*X110887Y157800D01*
X109500Y157000D02*X108113Y157800D01*
X115000Y157000D02*Y155400D01*
Y157000D02*X116387Y157800D01*
X115000Y157000D02*X113613Y157800D01*
X74000Y151000D02*Y149400D01*
Y151000D02*X75387Y151800D01*
X74000Y151000D02*X72613Y151800D01*
X87000Y168000D02*Y166400D01*
Y168000D02*X88387Y168800D01*
X87000Y168000D02*X85613Y168800D01*
X74000Y141500D02*Y139900D01*
Y141500D02*X75387Y142300D01*
X74000Y141500D02*X72613Y142300D01*
X133000Y38500D02*Y36900D01*
Y38500D02*X134387Y39300D01*
X133000Y38500D02*X131613Y39300D01*
X134000Y88500D02*Y86900D01*
Y88500D02*X135387Y89300D01*
X134000Y88500D02*X132613Y89300D01*
X134000Y83500D02*Y81900D01*
Y83500D02*X135387Y84300D01*
X134000Y83500D02*X132613Y84300D01*
X86000Y62500D02*Y60900D01*
Y62500D02*X87387Y63300D01*
X86000Y62500D02*X84613Y63300D01*
X86000Y67500D02*Y65900D01*
Y67500D02*X87387Y68300D01*
X86000Y67500D02*X84613Y68300D01*
X95000Y77000D02*Y75400D01*
Y77000D02*X96387Y77800D01*
X95000Y77000D02*X93613Y77800D01*
X83000Y113500D02*Y111900D01*
Y113500D02*X84387Y114300D01*
X83000Y113500D02*X81613Y114300D01*
X103500Y109500D02*Y107900D01*
Y109500D02*X104887Y110300D01*
X103500Y109500D02*X102113Y110300D01*
X101500Y104500D02*Y102900D01*
Y104500D02*X102887Y105300D01*
X101500Y104500D02*X100113Y105300D01*
X100000Y92000D02*Y90400D01*
Y92000D02*X101387Y92800D01*
X100000Y92000D02*X98613Y92800D01*
X138500Y124000D02*Y122400D01*
Y124000D02*X139887Y124800D01*
X138500Y124000D02*X137113Y124800D01*
X92000Y168000D02*Y166400D01*
Y168000D02*X93387Y168800D01*
X92000Y168000D02*X90613Y168800D01*
X92000Y151000D02*Y149400D01*
Y151000D02*X93387Y151800D01*
X92000Y151000D02*X90613Y151800D01*
X156500Y102000D02*Y100400D01*
Y102000D02*X157887Y102800D01*
X156500Y102000D02*X155113Y102800D01*
X159500Y98000D02*Y96400D01*
Y98000D02*X160887Y98800D01*
X159500Y98000D02*X158113Y98800D01*
X156000Y94000D02*Y92400D01*
Y94000D02*X157387Y94800D01*
X156000Y94000D02*X154613Y94800D01*
X149500Y58000D02*Y56400D01*
Y58000D02*X150887Y58800D01*
X149500Y58000D02*X148113Y58800D01*
X201500Y104043D02*Y102443D01*
Y104043D02*X202887Y104843D01*
X201500Y104043D02*X200113Y104843D01*
X211000Y133000D02*Y131400D01*
Y133000D02*X212387Y133800D01*
X211000Y133000D02*X209613Y133800D01*
X211000Y127500D02*Y125900D01*
Y127500D02*X212387Y128300D01*
X211000Y127500D02*X209613Y128300D01*
X211000Y122000D02*Y120400D01*
Y122000D02*X212387Y122800D01*
X211000Y122000D02*X209613Y122800D01*
X171500Y88000D02*Y86400D01*
Y88000D02*X172887Y88800D01*
X171500Y88000D02*X170113Y88800D01*
X317500Y128000D02*Y126400D01*
Y128000D02*X318887Y128800D01*
X317500Y128000D02*X316113Y128800D01*
X317500Y133000D02*Y131400D01*
Y133000D02*X318887Y133800D01*
X317500Y133000D02*X316113Y133800D01*
X342500Y133000D02*Y131400D01*
Y133000D02*X343887Y133800D01*
X342500Y133000D02*X341113Y133800D01*
X342500Y128000D02*Y126400D01*
Y128000D02*X343887Y128800D01*
X342500Y128000D02*X341113Y128800D01*
X342500Y122500D02*Y120900D01*
Y122500D02*X343887Y123300D01*
X342500Y122500D02*X341113Y123300D01*
X257000Y150000D02*Y148400D01*
Y150000D02*X258387Y150800D01*
X257000Y150000D02*X255613Y150800D01*
X262500Y150000D02*Y148400D01*
Y150000D02*X263887Y150800D01*
X262500Y150000D02*X261113Y150800D01*
X268000Y150000D02*Y148400D01*
Y150000D02*X269387Y150800D01*
X268000Y150000D02*X266613Y150800D01*
X257000Y144500D02*Y142900D01*
Y144500D02*X258387Y145300D01*
X257000Y144500D02*X255613Y145300D01*
X262500Y144500D02*Y142900D01*
Y144500D02*X263887Y145300D01*
X262500Y144500D02*X261113Y145300D01*
X268000Y144500D02*Y142900D01*
Y144500D02*X269387Y145300D01*
X268000Y144500D02*X266613Y145300D01*
X344000Y100500D02*Y98900D01*
Y100500D02*X345387Y101300D01*
X344000Y100500D02*X342613Y101300D01*
X232000Y114500D02*Y112900D01*
Y114500D02*X233387Y115300D01*
X232000Y114500D02*X230613Y115300D01*
X232000Y107500D02*Y105900D01*
Y107500D02*X233387Y108300D01*
X232000Y107500D02*X230613Y108300D01*
X344000Y105500D02*Y103900D01*
Y105500D02*X345387Y106300D01*
X344000Y105500D02*X342613Y106300D01*
X207500Y42500D02*Y40900D01*
Y42500D02*X208887Y43300D01*
X207500Y42500D02*X206113Y43300D01*
X318500Y109500D02*Y107900D01*
Y109500D02*X319887Y110300D01*
X318500Y109500D02*X317113Y110300D01*
X268500Y98500D02*Y96900D01*
Y98500D02*X269887Y99300D01*
X268500Y98500D02*X267113Y99300D01*
X298000Y91000D02*Y89400D01*
Y91000D02*X299387Y91800D01*
X298000Y91000D02*X296613Y91800D01*
X226000Y98500D02*Y96900D01*
Y98500D02*X227387Y99300D01*
X226000Y98500D02*X224613Y99300D01*
X222500Y93500D02*Y91900D01*
Y93500D02*X223887Y94300D01*
X222500Y93500D02*X221113Y94300D01*
X232000Y90000D02*Y88400D01*
Y90000D02*X233387Y90800D01*
X232000Y90000D02*X230613Y90800D01*
X236000Y86000D02*Y84400D01*
Y86000D02*X237387Y86800D01*
X236000Y86000D02*X234613Y86800D01*
X232000Y63000D02*Y61400D01*
Y63000D02*X233387Y63800D01*
X232000Y63000D02*X230613Y63800D01*
X232000Y57500D02*Y55900D01*
Y57500D02*X233387Y58300D01*
X232000Y57500D02*X230613Y58300D01*
X261500Y54000D02*Y52400D01*
Y54000D02*X262887Y54800D01*
X261500Y54000D02*X260113Y54800D01*
X313500Y109500D02*Y107900D01*
Y109500D02*X314887Y110300D01*
X313500Y109500D02*X312113Y110300D01*
X138500Y134000D02*Y132400D01*
Y134000D02*X139887Y134800D01*
X138500Y134000D02*X137113Y134800D01*
X138500Y129000D02*Y127400D01*
Y129000D02*X139887Y129800D01*
X138500Y129000D02*X137113Y129800D01*
X171500Y93000D02*Y91400D01*
Y93000D02*X172887Y93800D01*
X171500Y93000D02*X170113Y93800D01*
X171500Y83000D02*Y81400D01*
Y83000D02*X172887Y83800D01*
X171500Y83000D02*X170113Y83800D01*
X185500Y72700D02*Y71100D01*
Y72700D02*X186887Y73500D01*
X185500Y72700D02*X184113Y73500D01*
X205000Y67000D02*Y65400D01*
Y67000D02*X206387Y67800D01*
X205000Y67000D02*X203613Y67800D01*
X211500Y67000D02*Y65400D01*
Y67000D02*X212887Y67800D01*
X211500Y67000D02*X210113Y67800D01*
X211500Y60000D02*Y58400D01*
Y60000D02*X212887Y60800D01*
X211500Y60000D02*X210113Y60800D01*
X205000Y60000D02*Y58400D01*
Y60000D02*X206387Y60800D01*
X205000Y60000D02*X203613Y60800D01*
X180500Y14000D02*Y12400D01*
Y14000D02*X181887Y14800D01*
X180500Y14000D02*X179113Y14800D01*
X179500Y30000D02*Y28400D01*
Y30000D02*X180887Y30800D01*
X179500Y30000D02*X178113Y30800D01*
X184500Y30000D02*Y28400D01*
Y30000D02*X185887Y30800D01*
X184500Y30000D02*X183113Y30800D01*
X164000Y41000D02*Y39400D01*
Y41000D02*X165387Y41800D01*
X164000Y41000D02*X162613Y41800D01*
X159500Y35500D02*Y33900D01*
Y35500D02*X160887Y36300D01*
X159500Y35500D02*X158113Y36300D01*
X214500Y33500D02*Y31900D01*
Y33500D02*X215887Y34300D01*
X214500Y33500D02*X213113Y34300D01*
X221000Y35500D02*Y33900D01*
Y35500D02*X222387Y36300D01*
X221000Y35500D02*X219613Y36300D01*
X221000Y24000D02*Y22400D01*
Y24000D02*X222387Y24800D01*
X221000Y24000D02*X219613Y24800D01*
X214500Y22500D02*Y20900D01*
Y22500D02*X215887Y23300D01*
X214500Y22500D02*X213113Y23300D01*
X191000Y39000D02*Y37400D01*
Y39000D02*X192387Y39800D01*
X191000Y39000D02*X189613Y39800D01*
X186500Y14000D02*Y12400D01*
Y14000D02*X187887Y14800D01*
X186500Y14000D02*X185113Y14800D01*
X207500Y12500D02*Y10900D01*
Y12500D02*X208887Y13300D01*
X207500Y12500D02*X206113Y13300D01*
X217000Y93000D02*Y91400D01*
Y93000D02*X218387Y93800D01*
X217000Y93000D02*X215613Y93800D01*
X110500Y72000D02*Y70400D01*
Y72000D02*X111887Y72800D01*
X110500Y72000D02*X109113Y72800D01*
X110500Y78000D02*Y76400D01*
Y78000D02*X111887Y78800D01*
X110500Y78000D02*X109113Y78800D01*
X116500Y78000D02*Y76400D01*
Y78000D02*X117887Y78800D01*
X116500Y78000D02*X115113Y78800D01*
X116500Y72000D02*Y70400D01*
Y72000D02*X117887Y72800D01*
X116500Y72000D02*X115113Y72800D01*
X254500Y89500D02*Y87900D01*
Y89500D02*X255887Y90300D01*
X254500Y89500D02*X253113Y90300D01*
X245000Y67000D02*Y65400D01*
Y67000D02*X246387Y67800D01*
X245000Y67000D02*X243613Y67800D01*
X245000Y73000D02*Y71400D01*
Y73000D02*X246387Y73800D01*
X245000Y73000D02*X243613Y73800D01*
X251000Y73000D02*Y71400D01*
Y73000D02*X252387Y73800D01*
X251000Y73000D02*X249613Y73800D01*
X251000Y67000D02*Y65400D01*
Y67000D02*X252387Y67800D01*
X251000Y67000D02*X249613Y67800D01*
X15000Y261250D02*Y259650D01*
Y261250D02*X16387Y262050D01*
X15000Y261250D02*X13613Y262050D01*
X135000Y263500D02*Y262750D01*
X136500Y261250D01*
X138000Y262750D01*
Y263500D02*Y262750D01*
X136500Y261250D02*Y257500D01*
X139800Y260500D02*X142050D01*
X139800Y257500D02*X142800D01*
X139800Y263500D02*Y257500D01*
Y263500D02*X142800D01*
X147600D02*X148350Y262750D01*
X145350Y263500D02*X147600D01*
X144600Y262750D02*X145350Y263500D01*
X144600Y262750D02*Y261250D01*
X145350Y260500D01*
X147600D01*
X148350Y259750D01*
Y258250D01*
X147600Y257500D02*X148350Y258250D01*
X145350Y257500D02*X147600D01*
X144600Y258250D02*X145350Y257500D01*
X98750D02*X100250D01*
X99500Y263500D02*Y257500D01*
X98000Y262000D02*X99500Y263500D01*
X102050Y258250D02*X102800Y257500D01*
X102050Y262750D02*Y258250D01*
Y262750D02*X102800Y263500D01*
X104300D01*
X105050Y262750D01*
Y258250D01*
X104300Y257500D02*X105050Y258250D01*
X102800Y257500D02*X104300D01*
X102050Y259000D02*X105050Y262000D01*
X107600Y257500D02*X109100D01*
X108350Y263500D02*Y257500D01*
X106850Y262000D02*X108350Y263500D01*
X45000Y258250D02*X45750Y257500D01*
X45000Y262750D02*Y258250D01*
Y262750D02*X45750Y263500D01*
X47250D01*
X48000Y262750D01*
Y258250D01*
X47250Y257500D02*X48000Y258250D01*
X45750Y257500D02*X47250D01*
X45000Y259000D02*X48000Y262000D01*
X49800Y257500D02*X50550D01*
X52350Y258250D02*X53100Y257500D01*
X52350Y262750D02*Y258250D01*
Y262750D02*X53100Y263500D01*
X54600D01*
X55350Y262750D01*
Y258250D01*
X54600Y257500D02*X55350Y258250D01*
X53100Y257500D02*X54600D01*
X52350Y259000D02*X55350Y262000D01*
X57150Y262750D02*X57900Y263500D01*
X60150D01*
X60900Y262750D01*
Y261250D01*
X57150Y257500D02*X60900Y261250D01*
X57150Y257500D02*X60900D01*
X62700Y258250D02*X63450Y257500D01*
X62700Y262750D02*Y258250D01*
Y262750D02*X63450Y263500D01*
X64950D01*
X65700Y262750D01*
Y258250D01*
X64950Y257500D02*X65700Y258250D01*
X63450Y257500D02*X64950D01*
X62700Y259000D02*X65700Y262000D01*
X3000Y278500D02*X3750Y277750D01*
X750Y278500D02*X3000D01*
X0Y277750D02*X750Y278500D01*
X0Y277750D02*Y276250D01*
X750Y275500D01*
X3000D01*
X3750Y274750D01*
Y273250D01*
X3000Y272500D02*X3750Y273250D01*
X750Y272500D02*X3000D01*
X0Y273250D02*X750Y272500D01*
X5550Y275500D02*Y273250D01*
X6300Y272500D01*
X8550Y275500D02*Y271000D01*
X7800Y270250D02*X8550Y271000D01*
X6300Y270250D02*X7800D01*
X5550Y271000D02*X6300Y270250D01*
Y272500D02*X7800D01*
X8550Y273250D01*
X11100Y274750D02*Y272500D01*
Y274750D02*X11850Y275500D01*
X12600D01*
X13350Y274750D01*
Y272500D01*
Y274750D02*X14100Y275500D01*
X14850D01*
X15600Y274750D01*
Y272500D01*
X10350Y275500D02*X11100Y274750D01*
X17400Y278500D02*Y272500D01*
Y273250D02*X18150Y272500D01*
X19650D01*
X20400Y273250D01*
Y274750D02*Y273250D01*
X19650Y275500D02*X20400Y274750D01*
X18150Y275500D02*X19650D01*
X17400Y274750D02*X18150Y275500D01*
X22200Y274750D02*Y273250D01*
Y274750D02*X22950Y275500D01*
X24450D01*
X25200Y274750D01*
Y273250D01*
X24450Y272500D02*X25200Y273250D01*
X22950Y272500D02*X24450D01*
X22200Y273250D02*X22950Y272500D01*
X27000Y278500D02*Y273250D01*
X27750Y272500D01*
X0Y269250D02*X29250D01*
X41750Y278500D02*Y272500D01*
X44000Y278500D02*X44750Y277750D01*
Y273250D01*
X44000Y272500D02*X44750Y273250D01*
X41000Y272500D02*X44000D01*
X41000Y278500D02*X44000D01*
X46550Y277000D02*Y276250D01*
Y274750D02*Y272500D01*
X50300Y275500D02*X51050Y274750D01*
X48800Y275500D02*X50300D01*
X48050Y274750D02*X48800Y275500D01*
X48050Y274750D02*Y273250D01*
X48800Y272500D01*
X51050Y275500D02*Y273250D01*
X51800Y272500D01*
X48800D02*X50300D01*
X51050Y273250D01*
X54350Y274750D02*Y272500D01*
Y274750D02*X55100Y275500D01*
X55850D01*
X56600Y274750D01*
Y272500D01*
Y274750D02*X57350Y275500D01*
X58100D01*
X58850Y274750D01*
Y272500D01*
X53600Y275500D02*X54350Y274750D01*
X60650Y272500D02*X61400D01*
X65900Y273250D02*X66650Y272500D01*
X65900Y277750D02*X66650Y278500D01*
X65900Y277750D02*Y273250D01*
X68450Y278500D02*X69950D01*
X69200D02*Y272500D01*
X68450D02*X69950D01*
X72500Y274750D02*Y272500D01*
Y274750D02*X73250Y275500D01*
X74000D01*
X74750Y274750D01*
Y272500D01*
X71750Y275500D02*X72500Y274750D01*
X77300Y275500D02*X79550D01*
X76550Y274750D02*X77300Y275500D01*
X76550Y274750D02*Y273250D01*
X77300Y272500D01*
X79550D01*
X81350Y278500D02*Y272500D01*
Y274750D02*X82100Y275500D01*
X83600D01*
X84350Y274750D01*
Y272500D01*
X86150Y278500D02*X86900Y277750D01*
Y273250D01*
X86150Y272500D02*X86900Y273250D01*
X41000Y269250D02*X88700D01*
X95750Y272500D02*X98000D01*
X95000Y273250D02*X95750Y272500D01*
X95000Y277750D02*Y273250D01*
Y277750D02*X95750Y278500D01*
X98000D01*
X99800Y274750D02*Y273250D01*
Y274750D02*X100550Y275500D01*
X102050D01*
X102800Y274750D01*
Y273250D01*
X102050Y272500D02*X102800Y273250D01*
X100550Y272500D02*X102050D01*
X99800Y273250D02*X100550Y272500D01*
X104600Y275500D02*Y273250D01*
X105350Y272500D01*
X106850D01*
X107600Y273250D01*
Y275500D02*Y273250D01*
X110150Y274750D02*Y272500D01*
Y274750D02*X110900Y275500D01*
X111650D01*
X112400Y274750D01*
Y272500D01*
X109400Y275500D02*X110150Y274750D01*
X114950Y278500D02*Y273250D01*
X115700Y272500D01*
X114200Y276250D02*X115700D01*
X95000Y269250D02*X117200D01*
X130750Y278500D02*Y272500D01*
X130000Y278500D02*X133000D01*
X133750Y277750D01*
Y276250D01*
X133000Y275500D02*X133750Y276250D01*
X130750Y275500D02*X133000D01*
X135550Y278500D02*Y273250D01*
X136300Y272500D01*
X140050Y275500D02*X140800Y274750D01*
X138550Y275500D02*X140050D01*
X137800Y274750D02*X138550Y275500D01*
X137800Y274750D02*Y273250D01*
X138550Y272500D01*
X140800Y275500D02*Y273250D01*
X141550Y272500D01*
X138550D02*X140050D01*
X140800Y273250D01*
X144100Y278500D02*Y273250D01*
X144850Y272500D01*
X143350Y276250D02*X144850D01*
X147100Y272500D02*X149350D01*
X146350Y273250D02*X147100Y272500D01*
X146350Y274750D02*Y273250D01*
Y274750D02*X147100Y275500D01*
X148600D01*
X149350Y274750D01*
X146350Y274000D02*X149350D01*
Y274750D02*Y274000D01*
X154150Y278500D02*Y272500D01*
X153400D02*X154150Y273250D01*
X151900Y272500D02*X153400D01*
X151150Y273250D02*X151900Y272500D01*
X151150Y274750D02*Y273250D01*
Y274750D02*X151900Y275500D01*
X153400D01*
X154150Y274750D01*
X157450Y275500D02*Y274750D01*
Y273250D02*Y272500D01*
X155950Y277750D02*Y277000D01*
Y277750D02*X156700Y278500D01*
X158200D01*
X158950Y277750D01*
Y277000D01*
X157450Y275500D02*X158950Y277000D01*
X130000Y269250D02*X160750D01*
X0Y293500D02*X3000D01*
X1500D02*Y287500D01*
X4800Y293500D02*Y287500D01*
Y289750D02*X5550Y290500D01*
X7050D01*
X7800Y289750D01*
Y287500D01*
X10350D02*X12600D01*
X9600Y288250D02*X10350Y287500D01*
X9600Y289750D02*Y288250D01*
Y289750D02*X10350Y290500D01*
X11850D01*
X12600Y289750D01*
X9600Y289000D02*X12600D01*
Y289750D02*Y289000D01*
X15150Y289750D02*Y287500D01*
Y289750D02*X15900Y290500D01*
X17400D01*
X14400D02*X15150Y289750D01*
X19950Y287500D02*X22200D01*
X19200Y288250D02*X19950Y287500D01*
X19200Y289750D02*Y288250D01*
Y289750D02*X19950Y290500D01*
X21450D01*
X22200Y289750D01*
X19200Y289000D02*X22200D01*
Y289750D02*Y289000D01*
X28950Y290500D02*X29700Y289750D01*
X27450Y290500D02*X28950D01*
X26700Y289750D02*X27450Y290500D01*
X26700Y289750D02*Y288250D01*
X27450Y287500D01*
X29700Y290500D02*Y288250D01*
X30450Y287500D01*
X27450D02*X28950D01*
X29700Y288250D01*
X33000Y289750D02*Y287500D01*
Y289750D02*X33750Y290500D01*
X35250D01*
X32250D02*X33000Y289750D01*
X37800Y287500D02*X40050D01*
X37050Y288250D02*X37800Y287500D01*
X37050Y289750D02*Y288250D01*
Y289750D02*X37800Y290500D01*
X39300D01*
X40050Y289750D01*
X37050Y289000D02*X40050D01*
Y289750D02*Y289000D01*
X46800Y293500D02*X47550Y292750D01*
X45300Y293500D02*X46800D01*
X44550Y292750D02*X45300Y293500D01*
X44550Y292750D02*Y288250D01*
X45300Y287500D01*
X46800Y290500D02*X47550Y289750D01*
X44550Y290500D02*X46800D01*
X45300Y287500D02*X46800D01*
X47550Y288250D01*
Y289750D02*Y288250D01*
X55050Y293500D02*Y287500D01*
X54300D02*X55050Y288250D01*
X52800Y287500D02*X54300D01*
X52050Y288250D02*X52800Y287500D01*
X52050Y289750D02*Y288250D01*
Y289750D02*X52800Y290500D01*
X54300D01*
X55050Y289750D01*
X56850Y292000D02*Y291250D01*
Y289750D02*Y287500D01*
X59100Y292750D02*Y287500D01*
Y292750D02*X59850Y293500D01*
X60600D01*
X58350Y290500D02*X59850D01*
X62850Y292750D02*Y287500D01*
Y292750D02*X63600Y293500D01*
X64350D01*
X62100Y290500D02*X63600D01*
X66600Y287500D02*X68850D01*
X65850Y288250D02*X66600Y287500D01*
X65850Y289750D02*Y288250D01*
Y289750D02*X66600Y290500D01*
X68100D01*
X68850Y289750D01*
X65850Y289000D02*X68850D01*
Y289750D02*Y289000D01*
X71400Y289750D02*Y287500D01*
Y289750D02*X72150Y290500D01*
X73650D01*
X70650D02*X71400Y289750D01*
X76200Y287500D02*X78450D01*
X75450Y288250D02*X76200Y287500D01*
X75450Y289750D02*Y288250D01*
Y289750D02*X76200Y290500D01*
X77700D01*
X78450Y289750D01*
X75450Y289000D02*X78450D01*
Y289750D02*Y289000D01*
X81000Y289750D02*Y287500D01*
Y289750D02*X81750Y290500D01*
X82500D01*
X83250Y289750D01*
Y287500D01*
X80250Y290500D02*X81000Y289750D01*
X85800Y293500D02*Y288250D01*
X86550Y287500D01*
X85050Y291250D02*X86550D01*
X93750Y293500D02*Y287500D01*
X93000D02*X93750Y288250D01*
X91500Y287500D02*X93000D01*
X90750Y288250D02*X91500Y287500D01*
X90750Y289750D02*Y288250D01*
Y289750D02*X91500Y290500D01*
X93000D01*
X93750Y289750D01*
X96300D02*Y287500D01*
Y289750D02*X97050Y290500D01*
X98550D01*
X95550D02*X96300Y289750D01*
X100350Y292000D02*Y291250D01*
Y289750D02*Y287500D01*
X101850Y293500D02*Y288250D01*
X102600Y287500D01*
X104100Y293500D02*Y288250D01*
X104850Y287500D01*
X109800D02*X112050D01*
X112800Y288250D01*
X112050Y289000D02*X112800Y288250D01*
X109800Y289000D02*X112050D01*
X109050Y289750D02*X109800Y289000D01*
X109050Y289750D02*X109800Y290500D01*
X112050D01*
X112800Y289750D01*
X109050Y288250D02*X109800Y287500D01*
X114600Y292000D02*Y291250D01*
Y289750D02*Y287500D01*
X116100Y290500D02*X119100D01*
X116100Y287500D02*X119100Y290500D01*
X116100Y287500D02*X119100D01*
X121650D02*X123900D01*
X120900Y288250D02*X121650Y287500D01*
X120900Y289750D02*Y288250D01*
Y289750D02*X121650Y290500D01*
X123150D01*
X123900Y289750D01*
X120900Y289000D02*X123900D01*
Y289750D02*Y289000D01*
X126450Y287500D02*X128700D01*
X129450Y288250D01*
X128700Y289000D02*X129450Y288250D01*
X126450Y289000D02*X128700D01*
X125700Y289750D02*X126450Y289000D01*
X125700Y289750D02*X126450Y290500D01*
X128700D01*
X129450Y289750D01*
X125700Y288250D02*X126450Y287500D01*
X133950Y290500D02*Y288250D01*
X134700Y287500D01*
X136200D01*
X136950Y288250D01*
Y290500D02*Y288250D01*
X139500Y287500D02*X141750D01*
X142500Y288250D01*
X141750Y289000D02*X142500Y288250D01*
X139500Y289000D02*X141750D01*
X138750Y289750D02*X139500Y289000D01*
X138750Y289750D02*X139500Y290500D01*
X141750D01*
X142500Y289750D01*
X138750Y288250D02*X139500Y287500D01*
X145050D02*X147300D01*
X144300Y288250D02*X145050Y287500D01*
X144300Y289750D02*Y288250D01*
Y289750D02*X145050Y290500D01*
X146550D01*
X147300Y289750D01*
X144300Y289000D02*X147300D01*
Y289750D02*Y289000D01*
X152100Y293500D02*Y287500D01*
X151350D02*X152100Y288250D01*
X149850Y287500D02*X151350D01*
X149100Y288250D02*X149850Y287500D01*
X149100Y289750D02*Y288250D01*
Y289750D02*X149850Y290500D01*
X151350D01*
X152100Y289750D01*
X156600Y292000D02*Y291250D01*
Y289750D02*Y287500D01*
X158850Y289750D02*Y287500D01*
Y289750D02*X159600Y290500D01*
X160350D01*
X161100Y289750D01*
Y287500D01*
X158100Y290500D02*X158850Y289750D01*
X166350Y293500D02*Y288250D01*
X167100Y287500D01*
X165600Y291250D02*X167100D01*
X168600Y293500D02*Y287500D01*
Y289750D02*X169350Y290500D01*
X170850D01*
X171600Y289750D01*
Y287500D01*
X173400Y292000D02*Y291250D01*
Y289750D02*Y287500D01*
X175650D02*X177900D01*
X178650Y288250D01*
X177900Y289000D02*X178650Y288250D01*
X175650Y289000D02*X177900D01*
X174900Y289750D02*X175650Y289000D01*
X174900Y289750D02*X175650Y290500D01*
X177900D01*
X178650Y289750D01*
X174900Y288250D02*X175650Y287500D01*
X183150Y293500D02*Y288250D01*
X183900Y287500D01*
X187650Y290500D02*X188400Y289750D01*
X186150Y290500D02*X187650D01*
X185400Y289750D02*X186150Y290500D01*
X185400Y289750D02*Y288250D01*
X186150Y287500D01*
X188400Y290500D02*Y288250D01*
X189150Y287500D01*
X186150D02*X187650D01*
X188400Y288250D01*
X190950Y290500D02*Y288250D01*
X191700Y287500D01*
X193950Y290500D02*Y286000D01*
X193200Y285250D02*X193950Y286000D01*
X191700Y285250D02*X193200D01*
X190950Y286000D02*X191700Y285250D01*
Y287500D02*X193200D01*
X193950Y288250D01*
X195750Y289750D02*Y288250D01*
Y289750D02*X196500Y290500D01*
X198000D01*
X198750Y289750D01*
Y288250D01*
X198000Y287500D02*X198750Y288250D01*
X196500Y287500D02*X198000D01*
X195750Y288250D02*X196500Y287500D01*
X200550Y290500D02*Y288250D01*
X201300Y287500D01*
X202800D01*
X203550Y288250D01*
Y290500D02*Y288250D01*
X206100Y293500D02*Y288250D01*
X206850Y287500D01*
X205350Y291250D02*X206850D01*
X208350Y286000D02*X209850Y287500D01*
X215100D02*X216600D01*
X215850Y293500D02*Y287500D01*
X214350Y292000D02*X215850Y293500D01*
X218400D02*X221400D01*
X218400D02*Y290500D01*
X219150Y291250D01*
X220650D01*
X221400Y290500D01*
Y288250D01*
X220650Y287500D02*X221400Y288250D01*
X219150Y287500D02*X220650D01*
X218400Y288250D02*X219150Y287500D01*
X223200Y293500D02*X226200D01*
X223200D02*Y290500D01*
X223950Y291250D01*
X225450D01*
X226200Y290500D01*
Y288250D01*
X225450Y287500D02*X226200Y288250D01*
X223950Y287500D02*X225450D01*
X223200Y288250D02*X223950Y287500D01*
X230700Y293500D02*Y287500D01*
Y289750D02*X231450Y290500D01*
X232950D01*
X233700Y289750D01*
Y287500D01*
X235500Y289750D02*Y288250D01*
Y289750D02*X236250Y290500D01*
X237750D01*
X238500Y289750D01*
Y288250D01*
X237750Y287500D02*X238500Y288250D01*
X236250Y287500D02*X237750D01*
X235500Y288250D02*X236250Y287500D01*
X240300Y293500D02*Y288250D01*
X241050Y287500D01*
X243300D02*X245550D01*
X242550Y288250D02*X243300Y287500D01*
X242550Y289750D02*Y288250D01*
Y289750D02*X243300Y290500D01*
X244800D01*
X245550Y289750D01*
X242550Y289000D02*X245550D01*
Y289750D02*Y289000D01*
X248100Y287500D02*X250350D01*
X251100Y288250D01*
X250350Y289000D02*X251100Y288250D01*
X248100Y289000D02*X250350D01*
X247350Y289750D02*X248100Y289000D01*
X247350Y289750D02*X248100Y290500D01*
X250350D01*
X251100Y289750D01*
X247350Y288250D02*X248100Y287500D01*
X256350Y293500D02*Y288250D01*
X257100Y287500D01*
X255600Y291250D02*X257100D01*
X258600Y289750D02*Y288250D01*
Y289750D02*X259350Y290500D01*
X260850D01*
X261600Y289750D01*
Y288250D01*
X260850Y287500D02*X261600Y288250D01*
X259350Y287500D02*X260850D01*
X258600Y288250D02*X259350Y287500D01*
X264150Y293500D02*Y288250D01*
X264900Y287500D01*
X263400Y291250D02*X264900D01*
X268650Y290500D02*X269400Y289750D01*
X267150Y290500D02*X268650D01*
X266400Y289750D02*X267150Y290500D01*
X266400Y289750D02*Y288250D01*
X267150Y287500D01*
X269400Y290500D02*Y288250D01*
X270150Y287500D01*
X267150D02*X268650D01*
X269400Y288250D01*
X271950Y293500D02*Y288250D01*
X272700Y287500D01*
G54D108*X0Y0D02*X350000D01*
Y175000D01*
X0D01*
Y0D01*
G54D107*X88675Y-9500D02*X91675D01*
X92425Y-8750D01*
Y-7250D02*Y-8750D01*
X91675Y-6500D02*X92425Y-7250D01*
X89425Y-6500D02*X91675D01*
X89425Y-3500D02*Y-9500D01*
X88675Y-3500D02*X91675D01*
X92425Y-4250D01*
Y-5750D01*
X91675Y-6500D02*X92425Y-5750D01*
X94225Y-7250D02*Y-8750D01*
Y-7250D02*X94975Y-6500D01*
X96475D01*
X97225Y-7250D01*
Y-8750D01*
X96475Y-9500D02*X97225Y-8750D01*
X94975Y-9500D02*X96475D01*
X94225Y-8750D02*X94975Y-9500D01*
X101275Y-6500D02*X102025Y-7250D01*
X99775Y-6500D02*X101275D01*
X99025Y-7250D02*X99775Y-6500D01*
X99025Y-7250D02*Y-8750D01*
X99775Y-9500D01*
X102025Y-6500D02*Y-8750D01*
X102775Y-9500D01*
X99775D02*X101275D01*
X102025Y-8750D01*
X105325Y-7250D02*Y-9500D01*
Y-7250D02*X106075Y-6500D01*
X107575D01*
X104575D02*X105325Y-7250D01*
X112375Y-3500D02*Y-9500D01*
X111625D02*X112375Y-8750D01*
X110125Y-9500D02*X111625D01*
X109375Y-8750D02*X110125Y-9500D01*
X109375Y-7250D02*Y-8750D01*
Y-7250D02*X110125Y-6500D01*
X111625D01*
X112375Y-7250D01*
X116875D02*Y-8750D01*
Y-7250D02*X117625Y-6500D01*
X119125D01*
X119875Y-7250D01*
Y-8750D01*
X119125Y-9500D02*X119875Y-8750D01*
X117625Y-9500D02*X119125D01*
X116875Y-8750D02*X117625Y-9500D01*
X121675Y-6500D02*Y-8750D01*
X122425Y-9500D01*
X123925D01*
X124675Y-8750D01*
Y-6500D02*Y-8750D01*
X127225Y-3500D02*Y-8750D01*
X127975Y-9500D01*
X126475Y-5750D02*X127975D01*
X129475Y-3500D02*Y-8750D01*
X130225Y-9500D01*
X131725Y-5000D02*Y-5750D01*
Y-7250D02*Y-9500D01*
X133975Y-7250D02*Y-9500D01*
Y-7250D02*X134725Y-6500D01*
X135475D01*
X136225Y-7250D01*
Y-9500D01*
X133225Y-6500D02*X133975Y-7250D01*
X138775Y-9500D02*X141025D01*
X138025Y-8750D02*X138775Y-9500D01*
X138025Y-7250D02*Y-8750D01*
Y-7250D02*X138775Y-6500D01*
X140275D01*
X141025Y-7250D01*
X138025Y-8000D02*X141025D01*
Y-7250D02*Y-8000D01*
X145525Y-5000D02*Y-5750D01*
Y-7250D02*Y-9500D01*
X147775D02*X150025D01*
X150775Y-8750D01*
X150025Y-8000D02*X150775Y-8750D01*
X147775Y-8000D02*X150025D01*
X147025Y-7250D02*X147775Y-8000D01*
X147025Y-7250D02*X147775Y-6500D01*
X150025D01*
X150775Y-7250D01*
X147025Y-8750D02*X147775Y-9500D01*
X156025Y-3500D02*Y-8750D01*
X156775Y-9500D01*
X155275Y-5750D02*X156775D01*
X158275Y-3500D02*Y-9500D01*
Y-7250D02*X159025Y-6500D01*
X160525D01*
X161275Y-7250D01*
Y-9500D01*
X163825D02*X166075D01*
X163075Y-8750D02*X163825Y-9500D01*
X163075Y-7250D02*Y-8750D01*
Y-7250D02*X163825Y-6500D01*
X165325D01*
X166075Y-7250D01*
X163075Y-8000D02*X166075D01*
Y-7250D02*Y-8000D01*
X171325Y-6500D02*X173575D01*
X170575Y-7250D02*X171325Y-6500D01*
X170575Y-7250D02*Y-8750D01*
X171325Y-9500D01*
X173575D01*
X176125D02*X178375D01*
X175375Y-8750D02*X176125Y-9500D01*
X175375Y-7250D02*Y-8750D01*
Y-7250D02*X176125Y-6500D01*
X177625D01*
X178375Y-7250D01*
X175375Y-8000D02*X178375D01*
Y-7250D02*Y-8000D01*
X180925Y-7250D02*Y-9500D01*
Y-7250D02*X181675Y-6500D01*
X182425D01*
X183175Y-7250D01*
Y-9500D01*
X180175Y-6500D02*X180925Y-7250D01*
X185725Y-3500D02*Y-8750D01*
X186475Y-9500D01*
X184975Y-5750D02*X186475D01*
X188725Y-9500D02*X190975D01*
X187975Y-8750D02*X188725Y-9500D01*
X187975Y-7250D02*Y-8750D01*
Y-7250D02*X188725Y-6500D01*
X190225D01*
X190975Y-7250D01*
X187975Y-8000D02*X190975D01*
Y-7250D02*Y-8000D01*
X193525Y-7250D02*Y-9500D01*
Y-7250D02*X194275Y-6500D01*
X195775D01*
X192775D02*X193525Y-7250D01*
X197575Y-3500D02*Y-8750D01*
X198325Y-9500D01*
X199825Y-5000D02*Y-5750D01*
Y-7250D02*Y-9500D01*
X202075Y-7250D02*Y-9500D01*
Y-7250D02*X202825Y-6500D01*
X203575D01*
X204325Y-7250D01*
Y-9500D01*
X201325Y-6500D02*X202075Y-7250D01*
X206875Y-9500D02*X209125D01*
X206125Y-8750D02*X206875Y-9500D01*
X206125Y-7250D02*Y-8750D01*
Y-7250D02*X206875Y-6500D01*
X208375D01*
X209125Y-7250D01*
X206125Y-8000D02*X209125D01*
Y-7250D02*Y-8000D01*
X213625Y-7250D02*Y-8750D01*
Y-7250D02*X214375Y-6500D01*
X215875D01*
X216625Y-7250D01*
Y-8750D01*
X215875Y-9500D02*X216625Y-8750D01*
X214375Y-9500D02*X215875D01*
X213625Y-8750D02*X214375Y-9500D01*
X219175Y-4250D02*Y-9500D01*
Y-4250D02*X219925Y-3500D01*
X220675D01*
X218425Y-6500D02*X219925D01*
X225625Y-3500D02*Y-8750D01*
X226375Y-9500D01*
X224875Y-5750D02*X226375D01*
X227875Y-3500D02*Y-9500D01*
Y-7250D02*X228625Y-6500D01*
X230125D01*
X230875Y-7250D01*
Y-9500D01*
X232675Y-5000D02*Y-5750D01*
Y-7250D02*Y-9500D01*
X234925D02*X237175D01*
X237925Y-8750D01*
X237175Y-8000D02*X237925Y-8750D01*
X234925Y-8000D02*X237175D01*
X234175Y-7250D02*X234925Y-8000D01*
X234175Y-7250D02*X234925Y-6500D01*
X237175D01*
X237925Y-7250D01*
X234175Y-8750D02*X234925Y-9500D01*
X243175Y-7250D02*Y-11750D01*
X242425Y-6500D02*X243175Y-7250D01*
X243925Y-6500D01*
X245425D01*
X246175Y-7250D01*
Y-8750D01*
X245425Y-9500D02*X246175Y-8750D01*
X243925Y-9500D02*X245425D01*
X243175Y-8750D02*X243925Y-9500D01*
X250225Y-6500D02*X250975Y-7250D01*
X248725Y-6500D02*X250225D01*
X247975Y-7250D02*X248725Y-6500D01*
X247975Y-7250D02*Y-8750D01*
X248725Y-9500D01*
X250975Y-6500D02*Y-8750D01*
X251725Y-9500D01*
X248725D02*X250225D01*
X250975Y-8750D01*
X254275Y-3500D02*Y-8750D01*
X255025Y-9500D01*
X253525Y-5750D02*X255025D01*
X256525Y-3500D02*Y-9500D01*
Y-7250D02*X257275Y-6500D01*
X258775D01*
X259525Y-7250D01*
Y-9500D01*
X200750Y203500D02*Y197500D01*
X203000Y203500D02*X203750Y202750D01*
Y198250D01*
X203000Y197500D02*X203750Y198250D01*
X200000Y197500D02*X203000D01*
X200000Y203500D02*X203000D01*
X207800Y200500D02*X208550Y199750D01*
X206300Y200500D02*X207800D01*
X205550Y199750D02*X206300Y200500D01*
X205550Y199750D02*Y198250D01*
X206300Y197500D01*
X208550Y200500D02*Y198250D01*
X209300Y197500D01*
X206300D02*X207800D01*
X208550Y198250D01*
X211850Y203500D02*Y198250D01*
X212600Y197500D01*
X211100Y201250D02*X212600D01*
X214850Y197500D02*X217100D01*
X214100Y198250D02*X214850Y197500D01*
X214100Y199750D02*Y198250D01*
Y199750D02*X214850Y200500D01*
X216350D01*
X217100Y199750D01*
X214100Y199000D02*X217100D01*
Y199750D02*Y199000D01*
X218900Y201250D02*X219650D01*
X218900Y199750D02*X219650D01*
X224150Y203500D02*Y197500D01*
Y203500D02*X227150D01*
X224150Y200500D02*X226400D01*
X229700Y199750D02*Y197500D01*
Y199750D02*X230450Y200500D01*
X231950D01*
X228950D02*X229700Y199750D01*
X233750Y202000D02*Y201250D01*
Y199750D02*Y197500D01*
X237950Y198250D02*X238700Y197500D01*
X237950Y202750D02*Y198250D01*
Y202750D02*X238700Y203500D01*
X240200D01*
X240950Y202750D01*
Y198250D01*
X240200Y197500D02*X240950Y198250D01*
X238700Y197500D02*X240200D01*
X237950Y199000D02*X240950Y202000D01*
X242750Y202750D02*X243500Y203500D01*
X245750D01*
X246500Y202750D01*
Y201250D01*
X242750Y197500D02*X246500Y201250D01*
X242750Y197500D02*X246500D01*
X251000Y203500D02*X253250D01*
Y198250D01*
X252500Y197500D02*X253250Y198250D01*
X251750Y197500D02*X252500D01*
X251000Y198250D02*X251750Y197500D01*
X255050Y200500D02*Y198250D01*
X255800Y197500D01*
X257300D01*
X258050Y198250D01*
Y200500D02*Y198250D01*
X260600Y199750D02*Y197500D01*
Y199750D02*X261350Y200500D01*
X262100D01*
X262850Y199750D01*
Y197500D01*
X259850Y200500D02*X260600Y199750D01*
X267350Y202750D02*X268100Y203500D01*
X270350D01*
X271100Y202750D01*
Y201250D01*
X267350Y197500D02*X271100Y201250D01*
X267350Y197500D02*X271100D01*
X272900Y198250D02*X273650Y197500D01*
X272900Y202750D02*Y198250D01*
Y202750D02*X273650Y203500D01*
X275150D01*
X275900Y202750D01*
Y198250D01*
X275150Y197500D02*X275900Y198250D01*
X273650Y197500D02*X275150D01*
X272900Y199000D02*X275900Y202000D01*
X278450Y197500D02*X279950D01*
X279200Y203500D02*Y197500D01*
X277700Y202000D02*X279200Y203500D01*
X281750Y197500D02*X285500Y201250D01*
Y203500D02*Y201250D01*
X281750Y203500D02*X285500D01*
X290000Y198250D02*X290750Y197500D01*
X290000Y202750D02*Y198250D01*
Y202750D02*X290750Y203500D01*
X292250D01*
X293000Y202750D01*
Y198250D01*
X292250Y197500D02*X293000Y198250D01*
X290750Y197500D02*X292250D01*
X290000Y199000D02*X293000Y202000D01*
X294800Y202750D02*X295550Y203500D01*
X297050D01*
X297800Y202750D01*
Y198250D01*
X297050Y197500D02*X297800Y198250D01*
X295550Y197500D02*X297050D01*
X294800Y198250D02*X295550Y197500D01*
Y200500D02*X297800D01*
X299600Y201250D02*X300350D01*
X299600Y199750D02*X300350D01*
X302150Y198250D02*X302900Y197500D01*
X302150Y202750D02*Y198250D01*
Y202750D02*X302900Y203500D01*
X304400D01*
X305150Y202750D01*
Y198250D01*
X304400Y197500D02*X305150Y198250D01*
X302900Y197500D02*X304400D01*
X302150Y199000D02*X305150Y202000D01*
X306950Y202750D02*X307700Y203500D01*
X309200D01*
X309950Y202750D01*
Y198250D01*
X309200Y197500D02*X309950Y198250D01*
X307700Y197500D02*X309200D01*
X306950Y198250D02*X307700Y197500D01*
Y200500D02*X309950D01*
X311750Y201250D02*X312500D01*
X311750Y199750D02*X312500D01*
X314300Y200500D02*X317300Y203500D01*
X314300Y200500D02*X318050D01*
X317300Y203500D02*Y197500D01*
X319850Y198250D02*X320600Y197500D01*
X319850Y199750D02*Y198250D01*
Y199750D02*X320600Y200500D01*
X322100D01*
X322850Y199750D01*
Y198250D01*
X322100Y197500D02*X322850Y198250D01*
X320600Y197500D02*X322100D01*
X319850Y201250D02*X320600Y200500D01*
X319850Y202750D02*Y201250D01*
Y202750D02*X320600Y203500D01*
X322100D01*
X322850Y202750D01*
Y201250D01*
X322100Y200500D02*X322850Y201250D01*
X327350Y202750D02*Y197500D01*
Y202750D02*X328100Y203500D01*
X330350D01*
X331100Y202750D01*
Y197500D01*
X327350Y200500D02*X331100D01*
X332900Y203500D02*Y197500D01*
Y203500D02*X335150Y201250D01*
X337400Y203500D01*
Y197500D01*
X344900Y203500D02*X345650Y202750D01*
X342650Y203500D02*X344900D01*
X341900Y202750D02*X342650Y203500D01*
X341900Y202750D02*Y198250D01*
X342650Y197500D01*
X344900D01*
X345650Y198250D01*
Y199750D02*Y198250D01*
X344900Y200500D02*X345650Y199750D01*
X343400Y200500D02*X344900D01*
X347450Y203500D02*Y197500D01*
Y203500D02*X349700Y201250D01*
X351950Y203500D01*
Y197500D01*
X353750Y203500D02*X356750D01*
X355250D02*Y197500D01*
X361250Y203500D02*Y198250D01*
X362000Y197500D01*
X363500D01*
X364250Y198250D01*
Y203500D02*Y198250D01*
X366050Y203500D02*X369050D01*
X367550D02*Y197500D01*
X371600D02*X373850D01*
X370850Y198250D02*X371600Y197500D01*
X370850Y202750D02*Y198250D01*
Y202750D02*X371600Y203500D01*
X373850D01*
X200000Y217750D02*Y212500D01*
Y217750D02*X200750Y218500D01*
X203000D01*
X203750Y217750D01*
Y212500D01*
X200000Y215500D02*X203750D01*
X205550D02*Y213250D01*
X206300Y212500D01*
X207800D01*
X208550Y213250D01*
Y215500D02*Y213250D01*
X211100Y218500D02*Y213250D01*
X211850Y212500D01*
X210350Y216250D02*X211850D01*
X213350Y218500D02*Y212500D01*
Y214750D02*X214100Y215500D01*
X215600D01*
X216350Y214750D01*
Y212500D01*
X218150Y214750D02*Y213250D01*
Y214750D02*X218900Y215500D01*
X220400D01*
X221150Y214750D01*
Y213250D01*
X220400Y212500D02*X221150Y213250D01*
X218900Y212500D02*X220400D01*
X218150Y213250D02*X218900Y212500D01*
X223700Y214750D02*Y212500D01*
Y214750D02*X224450Y215500D01*
X225950D01*
X222950D02*X223700Y214750D01*
X227750Y216250D02*X228500D01*
X227750Y214750D02*X228500D01*
X233000Y218500D02*Y212500D01*
Y218500D02*X235250Y216250D01*
X237500Y218500D01*
Y212500D01*
X239300Y217000D02*Y216250D01*
Y214750D02*Y212500D01*
X241550Y215500D02*X243800D01*
X240800Y214750D02*X241550Y215500D01*
X240800Y214750D02*Y213250D01*
X241550Y212500D01*
X243800D01*
X245600Y218500D02*Y212500D01*
Y214750D02*X246350Y215500D01*
X247850D01*
X248600Y214750D01*
Y212500D01*
X252650Y215500D02*X253400Y214750D01*
X251150Y215500D02*X252650D01*
X250400Y214750D02*X251150Y215500D01*
X250400Y214750D02*Y213250D01*
X251150Y212500D01*
X253400Y215500D02*Y213250D01*
X254150Y212500D01*
X251150D02*X252650D01*
X253400Y213250D01*
X256700Y212500D02*X258950D01*
X255950Y213250D02*X256700Y212500D01*
X255950Y214750D02*Y213250D01*
Y214750D02*X256700Y215500D01*
X258200D01*
X258950Y214750D01*
X255950Y214000D02*X258950D01*
Y214750D02*Y214000D01*
X260750Y218500D02*Y213250D01*
X261500Y212500D01*
X266450Y218500D02*Y212500D01*
X265700Y218500D02*X268700D01*
X269450Y217750D01*
Y216250D01*
X268700Y215500D02*X269450Y216250D01*
X266450Y215500D02*X268700D01*
X272000Y212500D02*X274250D01*
X271250Y213250D02*X272000Y212500D01*
X271250Y214750D02*Y213250D01*
Y214750D02*X272000Y215500D01*
X273500D01*
X274250Y214750D01*
X271250Y214000D02*X274250D01*
Y214750D02*Y214000D01*
X276800Y218500D02*Y213250D01*
X277550Y212500D01*
X276050Y216250D02*X277550D01*
X279800Y212500D02*X282050D01*
X279050Y213250D02*X279800Y212500D01*
X279050Y214750D02*Y213250D01*
Y214750D02*X279800Y215500D01*
X281300D01*
X282050Y214750D01*
X279050Y214000D02*X282050D01*
Y214750D02*Y214000D01*
X284600Y214750D02*Y212500D01*
Y214750D02*X285350Y215500D01*
X286850D01*
X283850D02*X284600Y214750D01*
X289400Y212500D02*X291650D01*
X292400Y213250D01*
X291650Y214000D02*X292400Y213250D01*
X289400Y214000D02*X291650D01*
X288650Y214750D02*X289400Y214000D01*
X288650Y214750D02*X289400Y215500D01*
X291650D01*
X292400Y214750D01*
X288650Y213250D02*X289400Y212500D01*
X294950D02*X297200D01*
X294200Y213250D02*X294950Y212500D01*
X294200Y214750D02*Y213250D01*
Y214750D02*X294950Y215500D01*
X296450D01*
X297200Y214750D01*
X294200Y214000D02*X297200D01*
Y214750D02*Y214000D01*
X299750Y214750D02*Y212500D01*
Y214750D02*X300500Y215500D01*
X301250D01*
X302000Y214750D01*
Y212500D01*
X299000Y215500D02*X299750Y214750D01*
X200000Y233500D02*X203000D01*
X201500D02*Y227500D01*
X204800Y232000D02*Y231250D01*
Y229750D02*Y227500D01*
X207050Y233500D02*Y228250D01*
X207800Y227500D01*
X206300Y231250D02*X207800D01*
X209300Y233500D02*Y228250D01*
X210050Y227500D01*
X212300D02*X214550D01*
X211550Y228250D02*X212300Y227500D01*
X211550Y229750D02*Y228250D01*
Y229750D02*X212300Y230500D01*
X213800D01*
X214550Y229750D01*
X211550Y229000D02*X214550D01*
Y229750D02*Y229000D01*
X216350Y231250D02*X217100D01*
X216350Y229750D02*X217100D01*
X221600Y228250D02*X222350Y227500D01*
X221600Y232750D02*X222350Y233500D01*
X221600Y232750D02*Y228250D01*
X224150Y230500D02*Y228250D01*
X224900Y227500D01*
X226400D01*
X227150Y228250D01*
Y230500D02*Y228250D01*
X229700Y229750D02*Y227500D01*
Y229750D02*X230450Y230500D01*
X231200D01*
X231950Y229750D01*
Y227500D01*
X228950Y230500D02*X229700Y229750D01*
X233750Y233500D02*Y227500D01*
Y229750D02*X236000Y227500D01*
X233750Y229750D02*X235250Y231250D01*
X238550Y229750D02*Y227500D01*
Y229750D02*X239300Y230500D01*
X240050D01*
X240800Y229750D01*
Y227500D01*
X237800Y230500D02*X238550Y229750D01*
X242600D02*Y228250D01*
Y229750D02*X243350Y230500D01*
X244850D01*
X245600Y229750D01*
Y228250D01*
X244850Y227500D02*X245600Y228250D01*
X243350Y227500D02*X244850D01*
X242600Y228250D02*X243350Y227500D01*
X247400Y230500D02*Y228250D01*
X248150Y227500D01*
X248900D01*
X249650Y228250D01*
Y230500D02*Y228250D01*
X250400Y227500D01*
X251150D01*
X251900Y228250D01*
Y230500D02*Y228250D01*
X254450Y229750D02*Y227500D01*
Y229750D02*X255200Y230500D01*
X255950D01*
X256700Y229750D01*
Y227500D01*
X253700Y230500D02*X254450Y229750D01*
X258500Y233500D02*X259250Y232750D01*
Y228250D01*
X258500Y227500D02*X259250Y228250D01*
X263750Y230500D02*X266750D01*
X271250Y233500D02*Y227500D01*
Y233500D02*X274250D01*
X271250Y230500D02*X273500D01*
X278300D02*X279050Y229750D01*
X276800Y230500D02*X278300D01*
X276050Y229750D02*X276800Y230500D01*
X276050Y229750D02*Y228250D01*
X276800Y227500D01*
X279050Y230500D02*Y228250D01*
X279800Y227500D01*
X276800D02*X278300D01*
X279050Y228250D01*
X281600Y233500D02*Y227500D01*
Y228250D02*X282350Y227500D01*
X283850D01*
X284600Y228250D01*
Y229750D02*Y228250D01*
X283850Y230500D02*X284600Y229750D01*
X282350Y230500D02*X283850D01*
X281600Y229750D02*X282350Y230500D01*
X287150Y229750D02*Y227500D01*
Y229750D02*X287900Y230500D01*
X289400D01*
X286400D02*X287150Y229750D01*
X291200Y232000D02*Y231250D01*
Y229750D02*Y227500D01*
X293450Y230500D02*X295700D01*
X292700Y229750D02*X293450Y230500D01*
X292700Y229750D02*Y228250D01*
X293450Y227500D01*
X295700D01*
X299750Y230500D02*X300500Y229750D01*
X298250Y230500D02*X299750D01*
X297500Y229750D02*X298250Y230500D01*
X297500Y229750D02*Y228250D01*
X298250Y227500D01*
X300500Y230500D02*Y228250D01*
X301250Y227500D01*
X298250D02*X299750D01*
X300500Y228250D01*
X303800Y233500D02*Y228250D01*
X304550Y227500D01*
X303050Y231250D02*X304550D01*
X306050Y232000D02*Y231250D01*
Y229750D02*Y227500D01*
X307550Y229750D02*Y228250D01*
Y229750D02*X308300Y230500D01*
X309800D01*
X310550Y229750D01*
Y228250D01*
X309800Y227500D02*X310550Y228250D01*
X308300Y227500D02*X309800D01*
X307550Y228250D02*X308300Y227500D01*
X313100Y229750D02*Y227500D01*
Y229750D02*X313850Y230500D01*
X314600D01*
X315350Y229750D01*
Y227500D01*
X312350Y230500D02*X313100Y229750D01*
X320600Y233500D02*Y227500D01*
X322850Y233500D02*X323600Y232750D01*
Y228250D01*
X322850Y227500D02*X323600Y228250D01*
X319850Y227500D02*X322850D01*
X319850Y233500D02*X322850D01*
X326150Y229750D02*Y227500D01*
Y229750D02*X326900Y230500D01*
X328400D01*
X325400D02*X326150Y229750D01*
X332450Y230500D02*X333200Y229750D01*
X330950Y230500D02*X332450D01*
X330200Y229750D02*X330950Y230500D01*
X330200Y229750D02*Y228250D01*
X330950Y227500D01*
X333200Y230500D02*Y228250D01*
X333950Y227500D01*
X330950D02*X332450D01*
X333200Y228250D01*
X335750Y230500D02*Y228250D01*
X336500Y227500D01*
X337250D01*
X338000Y228250D01*
Y230500D02*Y228250D01*
X338750Y227500D01*
X339500D01*
X340250Y228250D01*
Y230500D02*Y228250D01*
X342050Y232000D02*Y231250D01*
Y229750D02*Y227500D01*
X344300Y229750D02*Y227500D01*
Y229750D02*X345050Y230500D01*
X345800D01*
X346550Y229750D01*
Y227500D01*
X343550Y230500D02*X344300Y229750D01*
X350600Y230500D02*X351350Y229750D01*
X349100Y230500D02*X350600D01*
X348350Y229750D02*X349100Y230500D01*
X348350Y229750D02*Y228250D01*
X349100Y227500D01*
X350600D01*
X351350Y228250D01*
X348350Y226000D02*X349100Y225250D01*
X350600D01*
X351350Y226000D01*
Y230500D02*Y226000D01*
M02*
