G04 start of page 10 for group -3984 idx -3984 *
G04 Title: (unknown), fab *
G04 Creator: pcb 20110918 *
G04 CreationDate: Sun 03 Feb 2013 12:44:51 AM GMT UTC *
G04 For: petersen *
G04 Format: Gerber/RS-274X *
G04 PCB-Dimensions: 350000 175000 *
G04 PCB-Coordinate-Origin: lower left *
%MOIN*%
%FSLAX25Y25*%
%LNFAB*%
%ADD93C,0.0100*%
%ADD92C,0.0060*%
%ADD91R,0.0080X0.0080*%
%ADD90C,0.0001*%
G54D90*G36*
X14600Y19966D02*X19966Y14600D01*
X19400Y14034D01*
X14034Y19400D01*
X14600Y19966D01*
G37*
G36*
X14034Y14600D02*X19400Y19966D01*
X19966Y19400D01*
X14600Y14034D01*
X14034Y14600D01*
G37*
G54D91*X15400Y18600D02*X18600D01*
X15400D02*Y15400D01*
X18600D01*
Y18600D02*Y15400D01*
G54D90*G36*
X329600Y19966D02*X334966Y14600D01*
X334400Y14034D01*
X329034Y19400D01*
X329600Y19966D01*
G37*
G36*
X329034Y14600D02*X334400Y19966D01*
X334966Y19400D01*
X329600Y14034D01*
X329034Y14600D01*
G37*
G54D91*X330400Y18600D02*X333600D01*
X330400D02*Y15400D01*
X333600D01*
Y18600D02*Y15400D01*
G54D90*G36*
X329600Y160966D02*X334966Y155600D01*
X334400Y155034D01*
X329034Y160400D01*
X329600Y160966D01*
G37*
G36*
X329034Y155600D02*X334400Y160966D01*
X334966Y160400D01*
X329600Y155034D01*
X329034Y155600D01*
G37*
G54D91*X330400Y159600D02*X333600D01*
X330400D02*Y156400D01*
X333600D01*
Y159600D02*Y156400D01*
G54D90*G36*
X14600Y160966D02*X19966Y155600D01*
X19400Y155034D01*
X14034Y160400D01*
X14600Y160966D01*
G37*
G36*
X14034Y155600D02*X19400Y160966D01*
X19966Y160400D01*
X14600Y155034D01*
X14034Y155600D01*
G37*
G54D91*X15400Y159600D02*X18600D01*
X15400D02*Y156400D01*
X18600D01*
Y159600D02*Y156400D01*
G54D90*G36*
X12600Y189216D02*X17966Y183850D01*
X17400Y183284D01*
X12034Y188650D01*
X12600Y189216D01*
G37*
G36*
X12034Y183850D02*X17400Y189216D01*
X17966Y188650D01*
X12600Y183284D01*
X12034Y183850D01*
G37*
G54D91*X13400Y187850D02*X16600D01*
X13400D02*Y184650D01*
X16600D01*
Y187850D02*Y184650D01*
G54D92*X135000Y188500D02*Y187750D01*
X136500Y186250D01*
X138000Y187750D01*
Y188500D02*Y187750D01*
X136500Y186250D02*Y182500D01*
X139800Y185500D02*X142050D01*
X139800Y182500D02*X142800D01*
X139800Y188500D02*Y182500D01*
Y188500D02*X142800D01*
X147600D02*X148350Y187750D01*
X145350Y188500D02*X147600D01*
X144600Y187750D02*X145350Y188500D01*
X144600Y187750D02*Y186250D01*
X145350Y185500D01*
X147600D01*
X148350Y184750D01*
Y183250D01*
X147600Y182500D02*X148350Y183250D01*
X145350Y182500D02*X147600D01*
X144600Y183250D02*X145350Y182500D01*
X98000Y185500D02*X101000Y188500D01*
X98000Y185500D02*X101750D01*
X101000Y188500D02*Y182500D01*
X45000Y183250D02*X45750Y182500D01*
X45000Y187750D02*Y183250D01*
Y187750D02*X45750Y188500D01*
X47250D01*
X48000Y187750D01*
Y183250D01*
X47250Y182500D02*X48000Y183250D01*
X45750Y182500D02*X47250D01*
X45000Y184000D02*X48000Y187000D01*
X49800Y182500D02*X50550D01*
X53100D02*X54600D01*
X53850Y188500D02*Y182500D01*
X52350Y187000D02*X53850Y188500D01*
X56400Y187750D02*X57150Y188500D01*
X59400D01*
X60150Y187750D01*
Y186250D01*
X56400Y182500D02*X60150Y186250D01*
X56400Y182500D02*X60150D01*
X61950D02*X64950Y185500D01*
Y187750D02*Y185500D01*
X64200Y188500D02*X64950Y187750D01*
X62700Y188500D02*X64200D01*
X61950Y187750D02*X62700Y188500D01*
X61950Y187750D02*Y186250D01*
X62700Y185500D01*
X64950D01*
X308000Y46900D02*Y40500D01*
X304800Y43700D02*X311200D01*
X306400Y45300D02*X309600D01*
X306400D02*Y42100D01*
X309600D01*
Y45300D02*Y42100D01*
X298000Y46900D02*Y40500D01*
X294800Y43700D02*X301200D01*
X296400Y45300D02*X299600D01*
X296400D02*Y42100D01*
X299600D01*
Y45300D02*Y42100D01*
X288000Y46900D02*Y40500D01*
X284800Y43700D02*X291200D01*
X286400Y45300D02*X289600D01*
X286400D02*Y42100D01*
X289600D01*
Y45300D02*Y42100D01*
X278000Y46900D02*Y40500D01*
X274800Y43700D02*X281200D01*
X276400Y45300D02*X279600D01*
X276400D02*Y42100D01*
X279600D01*
Y45300D02*Y42100D01*
X268000Y46900D02*Y40500D01*
X264800Y43700D02*X271200D01*
X266400Y45300D02*X269600D01*
X266400D02*Y42100D01*
X269600D01*
Y45300D02*Y42100D01*
X258000Y46900D02*Y40500D01*
X254800Y43700D02*X261200D01*
X256400Y45300D02*X259600D01*
X256400D02*Y42100D01*
X259600D01*
Y45300D02*Y42100D01*
X248000Y46900D02*Y40500D01*
X244800Y43700D02*X251200D01*
X246400Y45300D02*X249600D01*
X246400D02*Y42100D01*
X249600D01*
Y45300D02*Y42100D01*
X238000Y46900D02*Y40500D01*
X234800Y43700D02*X241200D01*
X236400Y45300D02*X239600D01*
X236400D02*Y42100D01*
X239600D01*
Y45300D02*Y42100D01*
X228000Y46900D02*Y40500D01*
X224800Y43700D02*X231200D01*
X226400Y45300D02*X229600D01*
X226400D02*Y42100D01*
X229600D01*
Y45300D02*Y42100D01*
X308000Y133500D02*Y127100D01*
X304800Y130300D02*X311200D01*
X306400Y131900D02*X309600D01*
X306400D02*Y128700D01*
X309600D01*
Y131900D02*Y128700D01*
X298000Y133500D02*Y127100D01*
X294800Y130300D02*X301200D01*
X296400Y131900D02*X299600D01*
X296400D02*Y128700D01*
X299600D01*
Y131900D02*Y128700D01*
X288000Y133500D02*Y127100D01*
X284800Y130300D02*X291200D01*
X286400Y131900D02*X289600D01*
X286400D02*Y128700D01*
X289600D01*
Y131900D02*Y128700D01*
X278000Y133500D02*Y127100D01*
X274800Y130300D02*X281200D01*
X276400Y131900D02*X279600D01*
X276400D02*Y128700D01*
X279600D01*
Y131900D02*Y128700D01*
X268000Y133500D02*Y127100D01*
X264800Y130300D02*X271200D01*
X266400Y131900D02*X269600D01*
X266400D02*Y128700D01*
X269600D01*
Y131900D02*Y128700D01*
X258000Y133500D02*Y127100D01*
X254800Y130300D02*X261200D01*
X256400Y131900D02*X259600D01*
X256400D02*Y128700D01*
X259600D01*
Y131900D02*Y128700D01*
X248000Y133500D02*Y127100D01*
X244800Y130300D02*X251200D01*
X246400Y131900D02*X249600D01*
X246400D02*Y128700D01*
X249600D01*
Y131900D02*Y128700D01*
X238000Y133500D02*Y127100D01*
X234800Y130300D02*X241200D01*
X236400Y131900D02*X239600D01*
X236400D02*Y128700D01*
X239600D01*
Y131900D02*Y128700D01*
X228000Y133500D02*Y127100D01*
X224800Y130300D02*X231200D01*
X226400Y131900D02*X229600D01*
X226400D02*Y128700D01*
X229600D01*
Y131900D02*Y128700D01*
X21000Y123200D02*Y116800D01*
X17800Y120000D02*X24200D01*
X19400Y121600D02*X22600D01*
X19400D02*Y118400D01*
X22600D01*
Y121600D02*Y118400D01*
X21000Y103200D02*Y96800D01*
X17800Y100000D02*X24200D01*
X19400Y101600D02*X22600D01*
X19400D02*Y98400D01*
X22600D01*
Y101600D02*Y98400D01*
X21000Y83200D02*Y76800D01*
X17800Y80000D02*X24200D01*
X19400Y81600D02*X22600D01*
X19400D02*Y78400D01*
X22600D01*
Y81600D02*Y78400D01*
X21000Y63200D02*Y56800D01*
X17800Y60000D02*X24200D01*
X19400Y61600D02*X22600D01*
X19400D02*Y58400D01*
X22600D01*
Y61600D02*Y58400D01*
X124000Y46900D02*Y40500D01*
X120800Y43700D02*X127200D01*
X122400Y45300D02*X125600D01*
X122400D02*Y42100D01*
X125600D01*
Y45300D02*Y42100D01*
X114000Y46900D02*Y40500D01*
X110800Y43700D02*X117200D01*
X112400Y45300D02*X115600D01*
X112400D02*Y42100D01*
X115600D01*
Y45300D02*Y42100D01*
X104000Y46900D02*Y40500D01*
X100800Y43700D02*X107200D01*
X102400Y45300D02*X105600D01*
X102400D02*Y42100D01*
X105600D01*
Y45300D02*Y42100D01*
X94000Y46900D02*Y40500D01*
X90800Y43700D02*X97200D01*
X92400Y45300D02*X95600D01*
X92400D02*Y42100D01*
X95600D01*
Y45300D02*Y42100D01*
X84000Y46900D02*Y40500D01*
X80800Y43700D02*X87200D01*
X82400Y45300D02*X85600D01*
X82400D02*Y42100D01*
X85600D01*
Y45300D02*Y42100D01*
X74000Y46900D02*Y40500D01*
X70800Y43700D02*X77200D01*
X72400Y45300D02*X75600D01*
X72400D02*Y42100D01*
X75600D01*
Y45300D02*Y42100D01*
X64000Y46900D02*Y40500D01*
X60800Y43700D02*X67200D01*
X62400Y45300D02*X65600D01*
X62400D02*Y42100D01*
X65600D01*
Y45300D02*Y42100D01*
X54000Y46900D02*Y40500D01*
X50800Y43700D02*X57200D01*
X52400Y45300D02*X55600D01*
X52400D02*Y42100D01*
X55600D01*
Y45300D02*Y42100D01*
X44000Y46900D02*Y40500D01*
X40800Y43700D02*X47200D01*
X42400Y45300D02*X45600D01*
X42400D02*Y42100D01*
X45600D01*
Y45300D02*Y42100D01*
X124000Y133500D02*Y127100D01*
X120800Y130300D02*X127200D01*
X122400Y131900D02*X125600D01*
X122400D02*Y128700D01*
X125600D01*
Y131900D02*Y128700D01*
X114000Y133500D02*Y127100D01*
X110800Y130300D02*X117200D01*
X112400Y131900D02*X115600D01*
X112400D02*Y128700D01*
X115600D01*
Y131900D02*Y128700D01*
X104000Y133500D02*Y127100D01*
X100800Y130300D02*X107200D01*
X102400Y131900D02*X105600D01*
X102400D02*Y128700D01*
X105600D01*
Y131900D02*Y128700D01*
X94000Y133500D02*Y127100D01*
X90800Y130300D02*X97200D01*
X92400Y131900D02*X95600D01*
X92400D02*Y128700D01*
X95600D01*
Y131900D02*Y128700D01*
X84000Y133500D02*Y127100D01*
X80800Y130300D02*X87200D01*
X82400Y131900D02*X85600D01*
X82400D02*Y128700D01*
X85600D01*
Y131900D02*Y128700D01*
X74000Y133500D02*Y127100D01*
X70800Y130300D02*X77200D01*
X72400Y131900D02*X75600D01*
X72400D02*Y128700D01*
X75600D01*
Y131900D02*Y128700D01*
X64000Y133500D02*Y127100D01*
X60800Y130300D02*X67200D01*
X62400Y131900D02*X65600D01*
X62400D02*Y128700D01*
X65600D01*
Y131900D02*Y128700D01*
X54000Y133500D02*Y127100D01*
X50800Y130300D02*X57200D01*
X52400Y131900D02*X55600D01*
X52400D02*Y128700D01*
X55600D01*
Y131900D02*Y128700D01*
X44000Y133500D02*Y127100D01*
X40800Y130300D02*X47200D01*
X42400Y131900D02*X45600D01*
X42400D02*Y128700D01*
X45600D01*
Y131900D02*Y128700D01*
X15000Y204450D02*Y198050D01*
X11800Y201250D02*X18200D01*
X13400Y202850D02*X16600D01*
X13400D02*Y199650D01*
X16600D01*
Y202850D02*Y199650D01*
X135000Y203500D02*Y202750D01*
X136500Y201250D01*
X138000Y202750D01*
Y203500D02*Y202750D01*
X136500Y201250D02*Y197500D01*
X139800Y200500D02*X142050D01*
X139800Y197500D02*X142800D01*
X139800Y203500D02*Y197500D01*
Y203500D02*X142800D01*
X147600D02*X148350Y202750D01*
X145350Y203500D02*X147600D01*
X144600Y202750D02*X145350Y203500D01*
X144600Y202750D02*Y201250D01*
X145350Y200500D01*
X147600D01*
X148350Y199750D01*
Y198250D01*
X147600Y197500D02*X148350Y198250D01*
X145350Y197500D02*X147600D01*
X144600Y198250D02*X145350Y197500D01*
X98000Y200500D02*X101000Y203500D01*
X98000Y200500D02*X101750D01*
X101000Y203500D02*Y197500D01*
X103550Y198250D02*X104300Y197500D01*
X103550Y202750D02*Y198250D01*
Y202750D02*X104300Y203500D01*
X105800D01*
X106550Y202750D01*
Y198250D01*
X105800Y197500D02*X106550Y198250D01*
X104300Y197500D02*X105800D01*
X103550Y199000D02*X106550Y202000D01*
X45000Y198250D02*X45750Y197500D01*
X45000Y202750D02*Y198250D01*
Y202750D02*X45750Y203500D01*
X47250D01*
X48000Y202750D01*
Y198250D01*
X47250Y197500D02*X48000Y198250D01*
X45750Y197500D02*X47250D01*
X45000Y199000D02*X48000Y202000D01*
X49800Y197500D02*X50550D01*
X52350Y198250D02*X53100Y197500D01*
X52350Y202750D02*Y198250D01*
Y202750D02*X53100Y203500D01*
X54600D01*
X55350Y202750D01*
Y198250D01*
X54600Y197500D02*X55350Y198250D01*
X53100Y197500D02*X54600D01*
X52350Y199000D02*X55350Y202000D01*
X57150Y200500D02*X60150Y203500D01*
X57150Y200500D02*X60900D01*
X60150Y203500D02*Y197500D01*
X62700Y198250D02*X63450Y197500D01*
X62700Y199750D02*Y198250D01*
Y199750D02*X63450Y200500D01*
X64950D01*
X65700Y199750D01*
Y198250D01*
X64950Y197500D02*X65700Y198250D01*
X63450Y197500D02*X64950D01*
X62700Y201250D02*X63450Y200500D01*
X62700Y202750D02*Y201250D01*
Y202750D02*X63450Y203500D01*
X64950D01*
X65700Y202750D01*
Y201250D01*
X64950Y200500D02*X65700Y201250D01*
X79500Y59000D02*Y55800D01*
Y59000D02*X82273Y60600D01*
X79500Y59000D02*X76727Y60600D01*
X77900Y59000D02*G75*G03X81100Y59000I1600J0D01*G01*
G75*G03X77900Y59000I-1600J0D01*G01*
X69500D02*Y55800D01*
Y59000D02*X72273Y60600D01*
X69500Y59000D02*X66727Y60600D01*
X67900Y59000D02*G75*G03X71100Y59000I1600J0D01*G01*
G75*G03X67900Y59000I-1600J0D01*G01*
X59500D02*Y55800D01*
Y59000D02*X62273Y60600D01*
X59500Y59000D02*X56727Y60600D01*
X57900Y59000D02*G75*G03X61100Y59000I1600J0D01*G01*
G75*G03X57900Y59000I-1600J0D01*G01*
X15000Y216250D02*Y213050D01*
Y216250D02*X17773Y217850D01*
X15000Y216250D02*X12227Y217850D01*
X13400Y216250D02*G75*G03X16600Y216250I1600J0D01*G01*
G75*G03X13400Y216250I-1600J0D01*G01*
X135000Y218500D02*Y217750D01*
X136500Y216250D01*
X138000Y217750D01*
Y218500D02*Y217750D01*
X136500Y216250D02*Y212500D01*
X139800Y215500D02*X142050D01*
X139800Y212500D02*X142800D01*
X139800Y218500D02*Y212500D01*
Y218500D02*X142800D01*
X147600D02*X148350Y217750D01*
X145350Y218500D02*X147600D01*
X144600Y217750D02*X145350Y218500D01*
X144600Y217750D02*Y216250D01*
X145350Y215500D01*
X147600D01*
X148350Y214750D01*
Y213250D01*
X147600Y212500D02*X148350Y213250D01*
X145350Y212500D02*X147600D01*
X144600Y213250D02*X145350Y212500D01*
X98000Y217750D02*X98750Y218500D01*
X100250D01*
X101000Y217750D01*
Y213250D01*
X100250Y212500D02*X101000Y213250D01*
X98750Y212500D02*X100250D01*
X98000Y213250D02*X98750Y212500D01*
Y215500D02*X101000D01*
X45000Y213250D02*X45750Y212500D01*
X45000Y217750D02*Y213250D01*
Y217750D02*X45750Y218500D01*
X47250D01*
X48000Y217750D01*
Y213250D01*
X47250Y212500D02*X48000Y213250D01*
X45750Y212500D02*X47250D01*
X45000Y214000D02*X48000Y217000D01*
X49800Y212500D02*X50550D01*
X52350Y213250D02*X53100Y212500D01*
X52350Y217750D02*Y213250D01*
Y217750D02*X53100Y218500D01*
X54600D01*
X55350Y217750D01*
Y213250D01*
X54600Y212500D02*X55350Y213250D01*
X53100Y212500D02*X54600D01*
X52350Y214000D02*X55350Y217000D01*
X57150Y215500D02*X60150Y218500D01*
X57150Y215500D02*X60900D01*
X60150Y218500D02*Y212500D01*
X62700Y218500D02*X65700D01*
X62700D02*Y215500D01*
X63450Y216250D01*
X64950D01*
X65700Y215500D01*
Y213250D01*
X64950Y212500D02*X65700Y213250D01*
X63450Y212500D02*X64950D01*
X62700Y213250D02*X63450Y212500D01*
X171400Y123600D02*X174600D01*
X171400D02*Y120400D01*
X174600D01*
Y123600D02*Y120400D01*
X181400Y123600D02*X184600D01*
X181400D02*Y120400D01*
X184600D01*
Y123600D02*Y120400D01*
X180400Y59600D02*X183600D01*
X180400D02*Y56400D01*
X183600D01*
Y59600D02*Y56400D01*
X170400Y59600D02*X173600D01*
X170400D02*Y56400D01*
X173600D01*
Y59600D02*Y56400D01*
X13400Y232850D02*X16600D01*
X13400D02*Y229650D01*
X16600D01*
Y232850D02*Y229650D01*
X135000Y233500D02*Y232750D01*
X136500Y231250D01*
X138000Y232750D01*
Y233500D02*Y232750D01*
X136500Y231250D02*Y227500D01*
X139800Y230500D02*X142050D01*
X139800Y227500D02*X142800D01*
X139800Y233500D02*Y227500D01*
Y233500D02*X142800D01*
X147600D02*X148350Y232750D01*
X145350Y233500D02*X147600D01*
X144600Y232750D02*X145350Y233500D01*
X144600Y232750D02*Y231250D01*
X145350Y230500D01*
X147600D01*
X148350Y229750D01*
Y228250D01*
X147600Y227500D02*X148350Y228250D01*
X145350Y227500D02*X147600D01*
X144600Y228250D02*X145350Y227500D01*
X98000Y230500D02*X101000Y233500D01*
X98000Y230500D02*X101750D01*
X101000Y233500D02*Y227500D01*
X45000Y228250D02*X45750Y227500D01*
X45000Y232750D02*Y228250D01*
Y232750D02*X45750Y233500D01*
X47250D01*
X48000Y232750D01*
Y228250D01*
X47250Y227500D02*X48000Y228250D01*
X45750Y227500D02*X47250D01*
X45000Y229000D02*X48000Y232000D01*
X49800Y227500D02*X50550D01*
X52350Y228250D02*X53100Y227500D01*
X52350Y232750D02*Y228250D01*
Y232750D02*X53100Y233500D01*
X54600D01*
X55350Y232750D01*
Y228250D01*
X54600Y227500D02*X55350Y228250D01*
X53100Y227500D02*X54600D01*
X52350Y229000D02*X55350Y232000D01*
X57150Y230500D02*X60150Y233500D01*
X57150Y230500D02*X60900D01*
X60150Y233500D02*Y227500D01*
X62700Y232750D02*X63450Y233500D01*
X64950D01*
X65700Y232750D01*
Y228250D01*
X64950Y227500D02*X65700Y228250D01*
X63450Y227500D02*X64950D01*
X62700Y228250D02*X63450Y227500D01*
Y230500D02*X65700D01*
X194200Y119000D02*G75*G03X195800Y119000I800J0D01*G01*
G75*G03X194200Y119000I-800J0D01*G01*
X204200D02*G75*G03X205800Y119000I800J0D01*G01*
G75*G03X204200Y119000I-800J0D01*G01*
X214200D02*G75*G03X215800Y119000I800J0D01*G01*
G75*G03X214200Y119000I-800J0D01*G01*
X194200Y129000D02*G75*G03X195800Y129000I800J0D01*G01*
G75*G03X194200Y129000I-800J0D01*G01*
X204200D02*G75*G03X205800Y129000I800J0D01*G01*
G75*G03X204200Y129000I-800J0D01*G01*
X214200D02*G75*G03X215800Y129000I800J0D01*G01*
G75*G03X214200Y129000I-800J0D01*G01*
X14200Y246250D02*G75*G03X15800Y246250I800J0D01*G01*
G75*G03X14200Y246250I-800J0D01*G01*
X135000Y248500D02*Y247750D01*
X136500Y246250D01*
X138000Y247750D01*
Y248500D02*Y247750D01*
X136500Y246250D02*Y242500D01*
X139800Y245500D02*X142050D01*
X139800Y242500D02*X142800D01*
X139800Y248500D02*Y242500D01*
Y248500D02*X142800D01*
X147600D02*X148350Y247750D01*
X145350Y248500D02*X147600D01*
X144600Y247750D02*X145350Y248500D01*
X144600Y247750D02*Y246250D01*
X145350Y245500D01*
X147600D01*
X148350Y244750D01*
Y243250D01*
X147600Y242500D02*X148350Y243250D01*
X145350Y242500D02*X147600D01*
X144600Y243250D02*X145350Y242500D01*
X100250Y248500D02*X101000Y247750D01*
X98750Y248500D02*X100250D01*
X98000Y247750D02*X98750Y248500D01*
X98000Y247750D02*Y243250D01*
X98750Y242500D01*
X100250Y245500D02*X101000Y244750D01*
X98000Y245500D02*X100250D01*
X98750Y242500D02*X100250D01*
X101000Y243250D01*
Y244750D02*Y243250D01*
X45000D02*X45750Y242500D01*
X45000Y247750D02*Y243250D01*
Y247750D02*X45750Y248500D01*
X47250D01*
X48000Y247750D01*
Y243250D01*
X47250Y242500D02*X48000Y243250D01*
X45750Y242500D02*X47250D01*
X45000Y244000D02*X48000Y247000D01*
X49800Y242500D02*X50550D01*
X52350Y243250D02*X53100Y242500D01*
X52350Y247750D02*Y243250D01*
Y247750D02*X53100Y248500D01*
X54600D01*
X55350Y247750D01*
Y243250D01*
X54600Y242500D02*X55350Y243250D01*
X53100Y242500D02*X54600D01*
X52350Y244000D02*X55350Y247000D01*
X57150Y247750D02*X57900Y248500D01*
X59400D01*
X60150Y247750D01*
Y243250D01*
X59400Y242500D02*X60150Y243250D01*
X57900Y242500D02*X59400D01*
X57150Y243250D02*X57900Y242500D01*
Y245500D02*X60150D01*
X61950Y243250D02*X62700Y242500D01*
X61950Y244750D02*Y243250D01*
Y244750D02*X62700Y245500D01*
X64200D01*
X64950Y244750D01*
Y243250D01*
X64200Y242500D02*X64950Y243250D01*
X62700Y242500D02*X64200D01*
X61950Y246250D02*X62700Y245500D01*
X61950Y247750D02*Y246250D01*
Y247750D02*X62700Y248500D01*
X64200D01*
X64950Y247750D01*
Y246250D01*
X64200Y245500D02*X64950Y246250D01*
X306800Y144200D02*X309200Y141800D01*
X306800D02*X309200Y144200D01*
X295300Y104700D02*X297700Y102300D01*
X295300D02*X297700Y104700D01*
X311300D02*X313700Y102300D01*
X311300D02*X313700Y104700D01*
X326800D02*X329200Y102300D01*
X326800D02*X329200Y104700D01*
X260800Y65700D02*X263200Y63300D01*
X260800D02*X263200Y65700D01*
X280300D02*X282700Y63300D01*
X280300D02*X282700Y65700D01*
X13800Y262450D02*X16200Y260050D01*
X13800D02*X16200Y262450D01*
X135000Y263500D02*Y262750D01*
X136500Y261250D01*
X138000Y262750D01*
Y263500D02*Y262750D01*
X136500Y261250D02*Y257500D01*
X139800Y260500D02*X142050D01*
X139800Y257500D02*X142800D01*
X139800Y263500D02*Y257500D01*
Y263500D02*X142800D01*
X147600D02*X148350Y262750D01*
X145350Y263500D02*X147600D01*
X144600Y262750D02*X145350Y263500D01*
X144600Y262750D02*Y261250D01*
X145350Y260500D01*
X147600D01*
X148350Y259750D01*
Y258250D01*
X147600Y257500D02*X148350Y258250D01*
X145350Y257500D02*X147600D01*
X144600Y258250D02*X145350Y257500D01*
X100250Y263500D02*X101000Y262750D01*
X98750Y263500D02*X100250D01*
X98000Y262750D02*X98750Y263500D01*
X98000Y262750D02*Y258250D01*
X98750Y257500D01*
X100250Y260500D02*X101000Y259750D01*
X98000Y260500D02*X100250D01*
X98750Y257500D02*X100250D01*
X101000Y258250D01*
Y259750D02*Y258250D01*
X45000D02*X45750Y257500D01*
X45000Y262750D02*Y258250D01*
Y262750D02*X45750Y263500D01*
X47250D01*
X48000Y262750D01*
Y258250D01*
X47250Y257500D02*X48000Y258250D01*
X45750Y257500D02*X47250D01*
X45000Y259000D02*X48000Y262000D01*
X49800Y257500D02*X50550D01*
X52350Y258250D02*X53100Y257500D01*
X52350Y262750D02*Y258250D01*
Y262750D02*X53100Y263500D01*
X54600D01*
X55350Y262750D01*
Y258250D01*
X54600Y257500D02*X55350Y258250D01*
X53100Y257500D02*X54600D01*
X52350Y259000D02*X55350Y262000D01*
X57150Y262750D02*X57900Y263500D01*
X59400D01*
X60150Y262750D01*
Y258250D01*
X59400Y257500D02*X60150Y258250D01*
X57900Y257500D02*X59400D01*
X57150Y258250D02*X57900Y257500D01*
Y260500D02*X60150D01*
X61950Y263500D02*X64950D01*
X61950D02*Y260500D01*
X62700Y261250D01*
X64200D01*
X64950Y260500D01*
Y258250D01*
X64200Y257500D02*X64950Y258250D01*
X62700Y257500D02*X64200D01*
X61950Y258250D02*X62700Y257500D01*
X191000Y45600D02*Y42400D01*
X189400Y44000D02*X192600D01*
X181000Y45600D02*Y42400D01*
X179400Y44000D02*X182600D01*
X171000Y45600D02*Y42400D01*
X169400Y44000D02*X172600D01*
X161000Y45600D02*Y42400D01*
X159400Y44000D02*X162600D01*
X161000Y15600D02*Y12400D01*
X159400Y14000D02*X162600D01*
X171000Y15600D02*Y12400D01*
X169400Y14000D02*X172600D01*
X181000Y15600D02*Y12400D01*
X179400Y14000D02*X182600D01*
X191000Y15600D02*Y12400D01*
X189400Y14000D02*X192600D01*
X15000Y277850D02*Y274650D01*
X13400Y276250D02*X16600D01*
X135000Y278500D02*Y277750D01*
X136500Y276250D01*
X138000Y277750D01*
Y278500D02*Y277750D01*
X136500Y276250D02*Y272500D01*
X139800Y275500D02*X142050D01*
X139800Y272500D02*X142800D01*
X139800Y278500D02*Y272500D01*
Y278500D02*X142800D01*
X147600D02*X148350Y277750D01*
X145350Y278500D02*X147600D01*
X144600Y277750D02*X145350Y278500D01*
X144600Y277750D02*Y276250D01*
X145350Y275500D01*
X147600D01*
X148350Y274750D01*
Y273250D01*
X147600Y272500D02*X148350Y273250D01*
X145350Y272500D02*X147600D01*
X144600Y273250D02*X145350Y272500D01*
X98000Y273250D02*X98750Y272500D01*
X98000Y274750D02*Y273250D01*
Y274750D02*X98750Y275500D01*
X100250D01*
X101000Y274750D01*
Y273250D01*
X100250Y272500D02*X101000Y273250D01*
X98750Y272500D02*X100250D01*
X98000Y276250D02*X98750Y275500D01*
X98000Y277750D02*Y276250D01*
Y277750D02*X98750Y278500D01*
X100250D01*
X101000Y277750D01*
Y276250D01*
X100250Y275500D02*X101000Y276250D01*
X45000Y273250D02*X45750Y272500D01*
X45000Y277750D02*Y273250D01*
Y277750D02*X45750Y278500D01*
X47250D01*
X48000Y277750D01*
Y273250D01*
X47250Y272500D02*X48000Y273250D01*
X45750Y272500D02*X47250D01*
X45000Y274000D02*X48000Y277000D01*
X49800Y272500D02*X50550D01*
X52350Y273250D02*X53100Y272500D01*
X52350Y277750D02*Y273250D01*
Y277750D02*X53100Y278500D01*
X54600D01*
X55350Y277750D01*
Y273250D01*
X54600Y272500D02*X55350Y273250D01*
X53100Y272500D02*X54600D01*
X52350Y274000D02*X55350Y277000D01*
X57150Y277750D02*X57900Y278500D01*
X60150D01*
X60900Y277750D01*
Y276250D01*
X57150Y272500D02*X60900Y276250D01*
X57150Y272500D02*X60900D01*
X62700Y273250D02*X63450Y272500D01*
X62700Y274750D02*Y273250D01*
Y274750D02*X63450Y275500D01*
X64950D01*
X65700Y274750D01*
Y273250D01*
X64950Y272500D02*X65700Y273250D01*
X63450Y272500D02*X64950D01*
X62700Y276250D02*X63450Y275500D01*
X62700Y277750D02*Y276250D01*
Y277750D02*X63450Y278500D01*
X64950D01*
X65700Y277750D01*
Y276250D01*
X64950Y275500D02*X65700Y276250D01*
X210000Y43394D02*Y41794D01*
Y43394D02*X211387Y44194D01*
X210000Y43394D02*X208613Y44194D01*
X210000Y62606D02*Y61006D01*
Y62606D02*X211387Y63406D01*
X210000Y62606D02*X208613Y63406D01*
X270500Y106000D02*Y104400D01*
Y106000D02*X271887Y106800D01*
X270500Y106000D02*X269113Y106800D01*
X255500Y106000D02*Y104400D01*
Y106000D02*X256887Y106800D01*
X255500Y106000D02*X254113Y106800D01*
X263000Y106000D02*Y104400D01*
Y106000D02*X264387Y106800D01*
X263000Y106000D02*X261613Y106800D01*
X270500Y101500D02*Y99900D01*
Y101500D02*X271887Y102300D01*
X270500Y101500D02*X269113Y102300D01*
X255500Y101500D02*Y99900D01*
Y101500D02*X256887Y102300D01*
X255500Y101500D02*X254113Y102300D01*
X263000Y101500D02*Y99900D01*
Y101500D02*X264387Y102300D01*
X263000Y101500D02*X261613Y102300D01*
X35000Y120000D02*Y118400D01*
Y120000D02*X36387Y120800D01*
X35000Y120000D02*X33613Y120800D01*
X35000Y109000D02*Y107400D01*
Y109000D02*X36387Y109800D01*
X35000Y109000D02*X33613Y109800D01*
X45000Y120000D02*Y118400D01*
Y120000D02*X46387Y120800D01*
X45000Y120000D02*X43613Y120800D01*
X45000Y109000D02*Y107400D01*
Y109000D02*X46387Y109800D01*
X45000Y109000D02*X43613Y109800D01*
X40000Y114000D02*Y112400D01*
Y114000D02*X41387Y114800D01*
X40000Y114000D02*X38613Y114800D01*
X90500Y106500D02*Y104900D01*
Y106500D02*X91887Y107300D01*
X90500Y106500D02*X89113Y107300D01*
X75500Y106500D02*Y104900D01*
Y106500D02*X76887Y107300D01*
X75500Y106500D02*X74113Y107300D01*
X83000Y106500D02*Y104900D01*
Y106500D02*X84387Y107300D01*
X83000Y106500D02*X81613Y107300D01*
X90500Y101500D02*Y99900D01*
Y101500D02*X91887Y102300D01*
X90500Y101500D02*X89113Y102300D01*
X75500Y101500D02*Y99900D01*
Y101500D02*X76887Y102300D01*
X75500Y101500D02*X74113Y102300D01*
X83000Y101500D02*Y99900D01*
Y101500D02*X84387Y102300D01*
X83000Y101500D02*X81613Y102300D01*
X84000Y81000D02*Y79400D01*
Y81000D02*X85387Y81800D01*
X84000Y81000D02*X82613Y81800D01*
X84000Y75000D02*Y73400D01*
Y75000D02*X85387Y75800D01*
X84000Y75000D02*X82613Y75800D01*
X78000Y75000D02*Y73400D01*
Y75000D02*X79387Y75800D01*
X78000Y75000D02*X76613Y75800D01*
X72000Y75000D02*Y73400D01*
Y75000D02*X73387Y75800D01*
X72000Y75000D02*X70613Y75800D01*
X72000Y81000D02*Y79400D01*
Y81000D02*X73387Y81800D01*
X72000Y81000D02*X70613Y81800D01*
X78000Y81000D02*Y79400D01*
Y81000D02*X79387Y81800D01*
X78000Y81000D02*X76613Y81800D01*
X150500Y77500D02*Y75900D01*
Y77500D02*X151887Y78300D01*
X150500Y77500D02*X149113Y78300D01*
X165500Y101000D02*Y99400D01*
Y101000D02*X166887Y101800D01*
X165500Y101000D02*X164113Y101800D01*
X165500Y96000D02*Y94400D01*
Y96000D02*X166887Y96800D01*
X165500Y96000D02*X164113Y96800D01*
X160500Y79000D02*Y77400D01*
Y79000D02*X161887Y79800D01*
X160500Y79000D02*X159113Y79800D01*
X188000Y53000D02*Y51400D01*
Y53000D02*X189387Y53800D01*
X188000Y53000D02*X186613Y53800D01*
X253000Y116500D02*Y114900D01*
Y116500D02*X254387Y117300D01*
X253000Y116500D02*X251613Y117300D01*
X146000Y134000D02*Y132400D01*
Y134000D02*X147387Y134800D01*
X146000Y134000D02*X144613Y134800D01*
X141000Y132000D02*Y130400D01*
Y132000D02*X142387Y132800D01*
X141000Y132000D02*X139613Y132800D01*
X140000Y50000D02*Y48400D01*
Y50000D02*X141387Y50800D01*
X140000Y50000D02*X138613Y50800D01*
X140000Y45500D02*Y43900D01*
Y45500D02*X141387Y46300D01*
X140000Y45500D02*X138613Y46300D01*
X134000Y62000D02*Y60400D01*
Y62000D02*X135387Y62800D01*
X134000Y62000D02*X132613Y62800D01*
X134000Y57000D02*Y55400D01*
Y57000D02*X135387Y57800D01*
X134000Y57000D02*X132613Y57800D01*
X95000Y61500D02*Y59900D01*
Y61500D02*X96387Y62300D01*
X95000Y61500D02*X93613Y62300D01*
X100500Y61500D02*Y59900D01*
Y61500D02*X101887Y62300D01*
X100500Y61500D02*X99113Y62300D01*
X105500Y61500D02*Y59900D01*
Y61500D02*X106887Y62300D01*
X105500Y61500D02*X104113Y62300D01*
X69000Y113000D02*Y111400D01*
Y113000D02*X70387Y113800D01*
X69000Y113000D02*X67613Y113800D01*
X133000Y127000D02*Y125400D01*
Y127000D02*X134387Y127800D01*
X133000Y127000D02*X131613Y127800D01*
X117000Y68000D02*Y66400D01*
Y68000D02*X118387Y68800D01*
X117000Y68000D02*X115613Y68800D01*
X122000Y88000D02*Y86400D01*
Y88000D02*X123387Y88800D01*
X122000Y88000D02*X120613Y88800D01*
X158000Y118000D02*Y116400D01*
Y118000D02*X159387Y118800D01*
X158000Y118000D02*X156613Y118800D01*
X150000Y131000D02*Y129400D01*
Y131000D02*X151387Y131800D01*
X150000Y131000D02*X148613Y131800D01*
X167000Y159500D02*Y157900D01*
Y159500D02*X168387Y160300D01*
X167000Y159500D02*X165613Y160300D01*
X215000Y169000D02*Y167400D01*
Y169000D02*X216387Y169800D01*
X215000Y169000D02*X213613Y169800D01*
X210000Y169000D02*Y167400D01*
Y169000D02*X211387Y169800D01*
X210000Y169000D02*X208613Y169800D01*
X205000Y169000D02*Y167400D01*
Y169000D02*X206387Y169800D01*
X205000Y169000D02*X203613Y169800D01*
X183000Y132000D02*Y130400D01*
Y132000D02*X184387Y132800D01*
X183000Y132000D02*X181613Y132800D01*
X210000Y132500D02*Y130900D01*
Y132500D02*X211387Y133300D01*
X210000Y132500D02*X208613Y133300D01*
X128000Y51000D02*Y49400D01*
Y51000D02*X129387Y51800D01*
X128000Y51000D02*X126613Y51800D01*
X134000Y132000D02*Y130400D01*
Y132000D02*X135387Y132800D01*
X134000Y132000D02*X132613Y132800D01*
X183000Y76000D02*Y74400D01*
Y76000D02*X184387Y76800D01*
X183000Y76000D02*X181613Y76800D01*
X273000Y116500D02*Y114900D01*
Y116500D02*X274387Y117300D01*
X273000Y116500D02*X271613Y117300D01*
X226500Y82000D02*Y80400D01*
Y82000D02*X227887Y82800D01*
X226500Y82000D02*X225113Y82800D01*
X222000Y119500D02*Y117900D01*
Y119500D02*X223387Y120300D01*
X222000Y119500D02*X220613Y120300D01*
X227000Y118500D02*Y116900D01*
Y118500D02*X228387Y119300D01*
X227000Y118500D02*X225613Y119300D01*
X231000Y122500D02*Y120900D01*
Y122500D02*X232387Y123300D01*
X231000Y122500D02*X229613Y123300D01*
X341500Y124000D02*Y122400D01*
Y124000D02*X342887Y124800D01*
X341500Y124000D02*X340113Y124800D01*
X335500Y120000D02*Y118400D01*
Y120000D02*X336887Y120800D01*
X335500Y120000D02*X334113Y120800D01*
X321500Y64000D02*Y62400D01*
Y64000D02*X322887Y64800D01*
X321500Y64000D02*X320113Y64800D01*
X204500Y91000D02*Y89400D01*
Y91000D02*X205887Y91800D01*
X204500Y91000D02*X203113Y91800D01*
X280500Y83000D02*Y81400D01*
Y83000D02*X281887Y83800D01*
X280500Y83000D02*X279113Y83800D01*
X261500Y89000D02*Y87400D01*
Y89000D02*X262887Y89800D01*
X261500Y89000D02*X260113Y89800D01*
X286500Y88000D02*Y86400D01*
Y88000D02*X287887Y88800D01*
X286500Y88000D02*X285113Y88800D01*
X146500Y86500D02*Y84900D01*
Y86500D02*X147887Y87300D01*
X146500Y86500D02*X145113Y87300D01*
X147500Y46500D02*Y44900D01*
Y46500D02*X148887Y47300D01*
X147500Y46500D02*X146113Y47300D01*
X147500Y37500D02*Y35900D01*
Y37500D02*X148887Y38300D01*
X147500Y37500D02*X146113Y38300D01*
X293000Y83500D02*Y81900D01*
Y83500D02*X294387Y84300D01*
X293000Y83500D02*X291613Y84300D01*
X300000Y74500D02*Y72900D01*
Y74500D02*X301387Y75300D01*
X300000Y74500D02*X298613Y75300D01*
X198500Y43000D02*Y41400D01*
Y43000D02*X199887Y43800D01*
X198500Y43000D02*X197113Y43800D01*
X169500Y89500D02*Y87900D01*
Y89500D02*X170887Y90300D01*
X169500Y89500D02*X168113Y90300D01*
X228000Y14000D02*Y12400D01*
Y14000D02*X229387Y14800D01*
X228000Y14000D02*X226613Y14800D01*
X278000Y14000D02*Y12400D01*
Y14000D02*X279387Y14800D01*
X278000Y14000D02*X276613Y14800D01*
X288000Y20000D02*Y18400D01*
Y20000D02*X289387Y20800D01*
X288000Y20000D02*X286613Y20800D01*
X258000Y31000D02*Y29400D01*
Y31000D02*X259387Y31800D01*
X258000Y31000D02*X256613Y31800D01*
X219000Y62000D02*Y60400D01*
Y62000D02*X220387Y62800D01*
X219000Y62000D02*X217613Y62800D01*
X306000Y53500D02*Y51900D01*
Y53500D02*X307387Y54300D01*
X306000Y53500D02*X304613Y54300D01*
X114000Y33000D02*Y31400D01*
Y33000D02*X115387Y33800D01*
X114000Y33000D02*X112613Y33800D01*
X104000Y21000D02*Y19400D01*
Y21000D02*X105387Y21800D01*
X104000Y21000D02*X102613Y21800D01*
X94000Y15000D02*Y13400D01*
Y15000D02*X95387Y15800D01*
X94000Y15000D02*X92613Y15800D01*
X74000Y33000D02*Y31400D01*
Y33000D02*X75387Y33800D01*
X74000Y33000D02*X72613Y33800D01*
X69000Y35000D02*Y33400D01*
Y35000D02*X70387Y35800D01*
X69000Y35000D02*X67613Y35800D01*
X5000Y137000D02*Y135400D01*
Y137000D02*X6387Y137800D01*
X5000Y137000D02*X3613Y137800D01*
X47500Y159500D02*Y157900D01*
Y159500D02*X48887Y160300D01*
X47500Y159500D02*X46113Y160300D01*
X30000Y144500D02*Y142900D01*
Y144500D02*X31387Y145300D01*
X30000Y144500D02*X28613Y145300D01*
X37000Y144000D02*Y142400D01*
Y144000D02*X38387Y144800D01*
X37000Y144000D02*X35613Y144800D01*
X228000Y155000D02*Y153400D01*
Y155000D02*X229387Y155800D01*
X228000Y155000D02*X226613Y155800D01*
X238000Y149000D02*Y147400D01*
Y149000D02*X239387Y149800D01*
X238000Y149000D02*X236613Y149800D01*
X248000Y143000D02*Y141400D01*
Y143000D02*X249387Y143800D01*
X248000Y143000D02*X246613Y143800D01*
X288000Y149000D02*Y147400D01*
Y149000D02*X289387Y149800D01*
X288000Y149000D02*X286613Y149800D01*
X278000Y155000D02*Y153400D01*
Y155000D02*X279387Y155800D01*
X278000Y155000D02*X276613Y155800D01*
X94000Y155000D02*Y153400D01*
Y155000D02*X95387Y155800D01*
X94000Y155000D02*X92613Y155800D01*
X104000Y149000D02*Y147400D01*
Y149000D02*X105387Y149800D01*
X104000Y149000D02*X102613Y149800D01*
X124000Y143000D02*Y141400D01*
Y143000D02*X125387Y143800D01*
X124000Y143000D02*X122613Y143800D01*
X233500Y20000D02*Y18400D01*
Y20000D02*X234887Y20800D01*
X233500Y20000D02*X232113Y20800D01*
X248000Y26000D02*Y24400D01*
Y26000D02*X249387Y26800D01*
X248000Y26000D02*X246613Y26800D01*
X298000Y31000D02*Y29400D01*
Y31000D02*X299387Y31800D01*
X298000Y31000D02*X296613Y31800D01*
X322500Y40500D02*Y38900D01*
Y40500D02*X323887Y41300D01*
X322500Y40500D02*X321113Y41300D01*
X15000Y291250D02*Y289650D01*
Y291250D02*X16387Y292050D01*
X15000Y291250D02*X13613Y292050D01*
X135000Y293500D02*Y292750D01*
X136500Y291250D01*
X138000Y292750D01*
Y293500D02*Y292750D01*
X136500Y291250D02*Y287500D01*
X139800Y290500D02*X142050D01*
X139800Y287500D02*X142800D01*
X139800Y293500D02*Y287500D01*
Y293500D02*X142800D01*
X147600D02*X148350Y292750D01*
X145350Y293500D02*X147600D01*
X144600Y292750D02*X145350Y293500D01*
X144600Y292750D02*Y291250D01*
X145350Y290500D01*
X147600D01*
X148350Y289750D01*
Y288250D01*
X147600Y287500D02*X148350Y288250D01*
X145350Y287500D02*X147600D01*
X144600Y288250D02*X145350Y287500D01*
X98750D02*X100250D01*
X99500Y293500D02*Y287500D01*
X98000Y292000D02*X99500Y293500D01*
X102050Y288250D02*X102800Y287500D01*
X102050Y292750D02*Y288250D01*
Y292750D02*X102800Y293500D01*
X104300D01*
X105050Y292750D01*
Y288250D01*
X104300Y287500D02*X105050Y288250D01*
X102800Y287500D02*X104300D01*
X102050Y289000D02*X105050Y292000D01*
X107600Y287500D02*X109100D01*
X108350Y293500D02*Y287500D01*
X106850Y292000D02*X108350Y293500D01*
X45000Y288250D02*X45750Y287500D01*
X45000Y292750D02*Y288250D01*
Y292750D02*X45750Y293500D01*
X47250D01*
X48000Y292750D01*
Y288250D01*
X47250Y287500D02*X48000Y288250D01*
X45750Y287500D02*X47250D01*
X45000Y289000D02*X48000Y292000D01*
X49800Y287500D02*X50550D01*
X52350Y288250D02*X53100Y287500D01*
X52350Y292750D02*Y288250D01*
Y292750D02*X53100Y293500D01*
X54600D01*
X55350Y292750D01*
Y288250D01*
X54600Y287500D02*X55350Y288250D01*
X53100Y287500D02*X54600D01*
X52350Y289000D02*X55350Y292000D01*
X57150Y292750D02*X57900Y293500D01*
X60150D01*
X60900Y292750D01*
Y291250D01*
X57150Y287500D02*X60900Y291250D01*
X57150Y287500D02*X60900D01*
X62700Y288250D02*X63450Y287500D01*
X62700Y292750D02*Y288250D01*
Y292750D02*X63450Y293500D01*
X64950D01*
X65700Y292750D01*
Y288250D01*
X64950Y287500D02*X65700Y288250D01*
X63450Y287500D02*X64950D01*
X62700Y289000D02*X65700Y292000D01*
X3000Y308500D02*X3750Y307750D01*
X750Y308500D02*X3000D01*
X0Y307750D02*X750Y308500D01*
X0Y307750D02*Y306250D01*
X750Y305500D01*
X3000D01*
X3750Y304750D01*
Y303250D01*
X3000Y302500D02*X3750Y303250D01*
X750Y302500D02*X3000D01*
X0Y303250D02*X750Y302500D01*
X5550Y305500D02*Y303250D01*
X6300Y302500D01*
X8550Y305500D02*Y301000D01*
X7800Y300250D02*X8550Y301000D01*
X6300Y300250D02*X7800D01*
X5550Y301000D02*X6300Y300250D01*
Y302500D02*X7800D01*
X8550Y303250D01*
X11100Y304750D02*Y302500D01*
Y304750D02*X11850Y305500D01*
X12600D01*
X13350Y304750D01*
Y302500D01*
Y304750D02*X14100Y305500D01*
X14850D01*
X15600Y304750D01*
Y302500D01*
X10350Y305500D02*X11100Y304750D01*
X17400Y308500D02*Y302500D01*
Y303250D02*X18150Y302500D01*
X19650D01*
X20400Y303250D01*
Y304750D02*Y303250D01*
X19650Y305500D02*X20400Y304750D01*
X18150Y305500D02*X19650D01*
X17400Y304750D02*X18150Y305500D01*
X22200Y304750D02*Y303250D01*
Y304750D02*X22950Y305500D01*
X24450D01*
X25200Y304750D01*
Y303250D01*
X24450Y302500D02*X25200Y303250D01*
X22950Y302500D02*X24450D01*
X22200Y303250D02*X22950Y302500D01*
X27000Y308500D02*Y303250D01*
X27750Y302500D01*
X0Y299250D02*X29250D01*
X41750Y308500D02*Y302500D01*
X44000Y308500D02*X44750Y307750D01*
Y303250D01*
X44000Y302500D02*X44750Y303250D01*
X41000Y302500D02*X44000D01*
X41000Y308500D02*X44000D01*
X46550Y307000D02*Y306250D01*
Y304750D02*Y302500D01*
X50300Y305500D02*X51050Y304750D01*
X48800Y305500D02*X50300D01*
X48050Y304750D02*X48800Y305500D01*
X48050Y304750D02*Y303250D01*
X48800Y302500D01*
X51050Y305500D02*Y303250D01*
X51800Y302500D01*
X48800D02*X50300D01*
X51050Y303250D01*
X54350Y304750D02*Y302500D01*
Y304750D02*X55100Y305500D01*
X55850D01*
X56600Y304750D01*
Y302500D01*
Y304750D02*X57350Y305500D01*
X58100D01*
X58850Y304750D01*
Y302500D01*
X53600Y305500D02*X54350Y304750D01*
X60650Y302500D02*X61400D01*
X65900Y303250D02*X66650Y302500D01*
X65900Y307750D02*X66650Y308500D01*
X65900Y307750D02*Y303250D01*
X68450Y308500D02*X69950D01*
X69200D02*Y302500D01*
X68450D02*X69950D01*
X72500Y304750D02*Y302500D01*
Y304750D02*X73250Y305500D01*
X74000D01*
X74750Y304750D01*
Y302500D01*
X71750Y305500D02*X72500Y304750D01*
X77300Y305500D02*X79550D01*
X76550Y304750D02*X77300Y305500D01*
X76550Y304750D02*Y303250D01*
X77300Y302500D01*
X79550D01*
X81350Y308500D02*Y302500D01*
Y304750D02*X82100Y305500D01*
X83600D01*
X84350Y304750D01*
Y302500D01*
X86150Y308500D02*X86900Y307750D01*
Y303250D01*
X86150Y302500D02*X86900Y303250D01*
X41000Y299250D02*X88700D01*
X95750Y302500D02*X98000D01*
X95000Y303250D02*X95750Y302500D01*
X95000Y307750D02*Y303250D01*
Y307750D02*X95750Y308500D01*
X98000D01*
X99800Y304750D02*Y303250D01*
Y304750D02*X100550Y305500D01*
X102050D01*
X102800Y304750D01*
Y303250D01*
X102050Y302500D02*X102800Y303250D01*
X100550Y302500D02*X102050D01*
X99800Y303250D02*X100550Y302500D01*
X104600Y305500D02*Y303250D01*
X105350Y302500D01*
X106850D01*
X107600Y303250D01*
Y305500D02*Y303250D01*
X110150Y304750D02*Y302500D01*
Y304750D02*X110900Y305500D01*
X111650D01*
X112400Y304750D01*
Y302500D01*
X109400Y305500D02*X110150Y304750D01*
X114950Y308500D02*Y303250D01*
X115700Y302500D01*
X114200Y306250D02*X115700D01*
X95000Y299250D02*X117200D01*
X130750Y308500D02*Y302500D01*
X130000Y308500D02*X133000D01*
X133750Y307750D01*
Y306250D01*
X133000Y305500D02*X133750Y306250D01*
X130750Y305500D02*X133000D01*
X135550Y308500D02*Y303250D01*
X136300Y302500D01*
X140050Y305500D02*X140800Y304750D01*
X138550Y305500D02*X140050D01*
X137800Y304750D02*X138550Y305500D01*
X137800Y304750D02*Y303250D01*
X138550Y302500D01*
X140800Y305500D02*Y303250D01*
X141550Y302500D01*
X138550D02*X140050D01*
X140800Y303250D01*
X144100Y308500D02*Y303250D01*
X144850Y302500D01*
X143350Y306250D02*X144850D01*
X147100Y302500D02*X149350D01*
X146350Y303250D02*X147100Y302500D01*
X146350Y304750D02*Y303250D01*
Y304750D02*X147100Y305500D01*
X148600D01*
X149350Y304750D01*
X146350Y304000D02*X149350D01*
Y304750D02*Y304000D01*
X154150Y308500D02*Y302500D01*
X153400D02*X154150Y303250D01*
X151900Y302500D02*X153400D01*
X151150Y303250D02*X151900Y302500D01*
X151150Y304750D02*Y303250D01*
Y304750D02*X151900Y305500D01*
X153400D01*
X154150Y304750D01*
X157450Y305500D02*Y304750D01*
Y303250D02*Y302500D01*
X155950Y307750D02*Y307000D01*
Y307750D02*X156700Y308500D01*
X158200D01*
X158950Y307750D01*
Y307000D01*
X157450Y305500D02*X158950Y307000D01*
X130000Y299250D02*X160750D01*
X0Y323500D02*X3000D01*
X1500D02*Y317500D01*
X4800Y323500D02*Y317500D01*
Y319750D02*X5550Y320500D01*
X7050D01*
X7800Y319750D01*
Y317500D01*
X10350D02*X12600D01*
X9600Y318250D02*X10350Y317500D01*
X9600Y319750D02*Y318250D01*
Y319750D02*X10350Y320500D01*
X11850D01*
X12600Y319750D01*
X9600Y319000D02*X12600D01*
Y319750D02*Y319000D01*
X15150Y319750D02*Y317500D01*
Y319750D02*X15900Y320500D01*
X17400D01*
X14400D02*X15150Y319750D01*
X19950Y317500D02*X22200D01*
X19200Y318250D02*X19950Y317500D01*
X19200Y319750D02*Y318250D01*
Y319750D02*X19950Y320500D01*
X21450D01*
X22200Y319750D01*
X19200Y319000D02*X22200D01*
Y319750D02*Y319000D01*
X28950Y320500D02*X29700Y319750D01*
X27450Y320500D02*X28950D01*
X26700Y319750D02*X27450Y320500D01*
X26700Y319750D02*Y318250D01*
X27450Y317500D01*
X29700Y320500D02*Y318250D01*
X30450Y317500D01*
X27450D02*X28950D01*
X29700Y318250D01*
X33000Y319750D02*Y317500D01*
Y319750D02*X33750Y320500D01*
X35250D01*
X32250D02*X33000Y319750D01*
X37800Y317500D02*X40050D01*
X37050Y318250D02*X37800Y317500D01*
X37050Y319750D02*Y318250D01*
Y319750D02*X37800Y320500D01*
X39300D01*
X40050Y319750D01*
X37050Y319000D02*X40050D01*
Y319750D02*Y319000D01*
X44550Y318250D02*X45300Y317500D01*
X44550Y319750D02*Y318250D01*
Y319750D02*X45300Y320500D01*
X46800D01*
X47550Y319750D01*
Y318250D01*
X46800Y317500D02*X47550Y318250D01*
X45300Y317500D02*X46800D01*
X44550Y321250D02*X45300Y320500D01*
X44550Y322750D02*Y321250D01*
Y322750D02*X45300Y323500D01*
X46800D01*
X47550Y322750D01*
Y321250D01*
X46800Y320500D02*X47550Y321250D01*
X55050Y323500D02*Y317500D01*
X54300D02*X55050Y318250D01*
X52800Y317500D02*X54300D01*
X52050Y318250D02*X52800Y317500D01*
X52050Y319750D02*Y318250D01*
Y319750D02*X52800Y320500D01*
X54300D01*
X55050Y319750D01*
X56850Y322000D02*Y321250D01*
Y319750D02*Y317500D01*
X59100Y322750D02*Y317500D01*
Y322750D02*X59850Y323500D01*
X60600D01*
X58350Y320500D02*X59850D01*
X62850Y322750D02*Y317500D01*
Y322750D02*X63600Y323500D01*
X64350D01*
X62100Y320500D02*X63600D01*
X66600Y317500D02*X68850D01*
X65850Y318250D02*X66600Y317500D01*
X65850Y319750D02*Y318250D01*
Y319750D02*X66600Y320500D01*
X68100D01*
X68850Y319750D01*
X65850Y319000D02*X68850D01*
Y319750D02*Y319000D01*
X71400Y319750D02*Y317500D01*
Y319750D02*X72150Y320500D01*
X73650D01*
X70650D02*X71400Y319750D01*
X76200Y317500D02*X78450D01*
X75450Y318250D02*X76200Y317500D01*
X75450Y319750D02*Y318250D01*
Y319750D02*X76200Y320500D01*
X77700D01*
X78450Y319750D01*
X75450Y319000D02*X78450D01*
Y319750D02*Y319000D01*
X81000Y319750D02*Y317500D01*
Y319750D02*X81750Y320500D01*
X82500D01*
X83250Y319750D01*
Y317500D01*
X80250Y320500D02*X81000Y319750D01*
X85800Y323500D02*Y318250D01*
X86550Y317500D01*
X85050Y321250D02*X86550D01*
X93750Y323500D02*Y317500D01*
X93000D02*X93750Y318250D01*
X91500Y317500D02*X93000D01*
X90750Y318250D02*X91500Y317500D01*
X90750Y319750D02*Y318250D01*
Y319750D02*X91500Y320500D01*
X93000D01*
X93750Y319750D01*
X96300D02*Y317500D01*
Y319750D02*X97050Y320500D01*
X98550D01*
X95550D02*X96300Y319750D01*
X100350Y322000D02*Y321250D01*
Y319750D02*Y317500D01*
X101850Y323500D02*Y318250D01*
X102600Y317500D01*
X104100Y323500D02*Y318250D01*
X104850Y317500D01*
X109800D02*X112050D01*
X112800Y318250D01*
X112050Y319000D02*X112800Y318250D01*
X109800Y319000D02*X112050D01*
X109050Y319750D02*X109800Y319000D01*
X109050Y319750D02*X109800Y320500D01*
X112050D01*
X112800Y319750D01*
X109050Y318250D02*X109800Y317500D01*
X114600Y322000D02*Y321250D01*
Y319750D02*Y317500D01*
X116100Y320500D02*X119100D01*
X116100Y317500D02*X119100Y320500D01*
X116100Y317500D02*X119100D01*
X121650D02*X123900D01*
X120900Y318250D02*X121650Y317500D01*
X120900Y319750D02*Y318250D01*
Y319750D02*X121650Y320500D01*
X123150D01*
X123900Y319750D01*
X120900Y319000D02*X123900D01*
Y319750D02*Y319000D01*
X126450Y317500D02*X128700D01*
X129450Y318250D01*
X128700Y319000D02*X129450Y318250D01*
X126450Y319000D02*X128700D01*
X125700Y319750D02*X126450Y319000D01*
X125700Y319750D02*X126450Y320500D01*
X128700D01*
X129450Y319750D01*
X125700Y318250D02*X126450Y317500D01*
X133950Y320500D02*Y318250D01*
X134700Y317500D01*
X136200D01*
X136950Y318250D01*
Y320500D02*Y318250D01*
X139500Y317500D02*X141750D01*
X142500Y318250D01*
X141750Y319000D02*X142500Y318250D01*
X139500Y319000D02*X141750D01*
X138750Y319750D02*X139500Y319000D01*
X138750Y319750D02*X139500Y320500D01*
X141750D01*
X142500Y319750D01*
X138750Y318250D02*X139500Y317500D01*
X145050D02*X147300D01*
X144300Y318250D02*X145050Y317500D01*
X144300Y319750D02*Y318250D01*
Y319750D02*X145050Y320500D01*
X146550D01*
X147300Y319750D01*
X144300Y319000D02*X147300D01*
Y319750D02*Y319000D01*
X152100Y323500D02*Y317500D01*
X151350D02*X152100Y318250D01*
X149850Y317500D02*X151350D01*
X149100Y318250D02*X149850Y317500D01*
X149100Y319750D02*Y318250D01*
Y319750D02*X149850Y320500D01*
X151350D01*
X152100Y319750D01*
X156600Y322000D02*Y321250D01*
Y319750D02*Y317500D01*
X158850Y319750D02*Y317500D01*
Y319750D02*X159600Y320500D01*
X160350D01*
X161100Y319750D01*
Y317500D01*
X158100Y320500D02*X158850Y319750D01*
X166350Y323500D02*Y318250D01*
X167100Y317500D01*
X165600Y321250D02*X167100D01*
X168600Y323500D02*Y317500D01*
Y319750D02*X169350Y320500D01*
X170850D01*
X171600Y319750D01*
Y317500D01*
X173400Y322000D02*Y321250D01*
Y319750D02*Y317500D01*
X175650D02*X177900D01*
X178650Y318250D01*
X177900Y319000D02*X178650Y318250D01*
X175650Y319000D02*X177900D01*
X174900Y319750D02*X175650Y319000D01*
X174900Y319750D02*X175650Y320500D01*
X177900D01*
X178650Y319750D01*
X174900Y318250D02*X175650Y317500D01*
X183150Y323500D02*Y318250D01*
X183900Y317500D01*
X187650Y320500D02*X188400Y319750D01*
X186150Y320500D02*X187650D01*
X185400Y319750D02*X186150Y320500D01*
X185400Y319750D02*Y318250D01*
X186150Y317500D01*
X188400Y320500D02*Y318250D01*
X189150Y317500D01*
X186150D02*X187650D01*
X188400Y318250D01*
X190950Y320500D02*Y318250D01*
X191700Y317500D01*
X193950Y320500D02*Y316000D01*
X193200Y315250D02*X193950Y316000D01*
X191700Y315250D02*X193200D01*
X190950Y316000D02*X191700Y315250D01*
Y317500D02*X193200D01*
X193950Y318250D01*
X195750Y319750D02*Y318250D01*
Y319750D02*X196500Y320500D01*
X198000D01*
X198750Y319750D01*
Y318250D01*
X198000Y317500D02*X198750Y318250D01*
X196500Y317500D02*X198000D01*
X195750Y318250D02*X196500Y317500D01*
X200550Y320500D02*Y318250D01*
X201300Y317500D01*
X202800D01*
X203550Y318250D01*
Y320500D02*Y318250D01*
X206100Y323500D02*Y318250D01*
X206850Y317500D01*
X205350Y321250D02*X206850D01*
X208350Y316000D02*X209850Y317500D01*
X215100D02*X216600D01*
X215850Y323500D02*Y317500D01*
X214350Y322000D02*X215850Y323500D01*
X218400Y317500D02*X222150Y321250D01*
Y323500D02*Y321250D01*
X218400Y323500D02*X222150D01*
X223950Y322750D02*X224700Y323500D01*
X226950D01*
X227700Y322750D01*
Y321250D01*
X223950Y317500D02*X227700Y321250D01*
X223950Y317500D02*X227700D01*
X232200Y323500D02*Y317500D01*
Y319750D02*X232950Y320500D01*
X234450D01*
X235200Y319750D01*
Y317500D01*
X237000Y319750D02*Y318250D01*
Y319750D02*X237750Y320500D01*
X239250D01*
X240000Y319750D01*
Y318250D01*
X239250Y317500D02*X240000Y318250D01*
X237750Y317500D02*X239250D01*
X237000Y318250D02*X237750Y317500D01*
X241800Y323500D02*Y318250D01*
X242550Y317500D01*
X244800D02*X247050D01*
X244050Y318250D02*X244800Y317500D01*
X244050Y319750D02*Y318250D01*
Y319750D02*X244800Y320500D01*
X246300D01*
X247050Y319750D01*
X244050Y319000D02*X247050D01*
Y319750D02*Y319000D01*
X249600Y317500D02*X251850D01*
X252600Y318250D01*
X251850Y319000D02*X252600Y318250D01*
X249600Y319000D02*X251850D01*
X248850Y319750D02*X249600Y319000D01*
X248850Y319750D02*X249600Y320500D01*
X251850D01*
X252600Y319750D01*
X248850Y318250D02*X249600Y317500D01*
X257850Y323500D02*Y318250D01*
X258600Y317500D01*
X257100Y321250D02*X258600D01*
X260100Y319750D02*Y318250D01*
Y319750D02*X260850Y320500D01*
X262350D01*
X263100Y319750D01*
Y318250D01*
X262350Y317500D02*X263100Y318250D01*
X260850Y317500D02*X262350D01*
X260100Y318250D02*X260850Y317500D01*
X265650Y323500D02*Y318250D01*
X266400Y317500D01*
X264900Y321250D02*X266400D01*
X270150Y320500D02*X270900Y319750D01*
X268650Y320500D02*X270150D01*
X267900Y319750D02*X268650Y320500D01*
X267900Y319750D02*Y318250D01*
X268650Y317500D01*
X270900Y320500D02*Y318250D01*
X271650Y317500D01*
X268650D02*X270150D01*
X270900Y318250D01*
X273450Y323500D02*Y318250D01*
X274200Y317500D01*
G54D93*X0Y175000D02*X350000D01*
X0D02*Y0D01*
X350000Y175000D02*Y0D01*
X0D02*X350000D01*
G54D92*X200000Y188500D02*Y182500D01*
Y188500D02*X202250Y186250D01*
X204500Y188500D01*
Y182500D01*
X208550Y185500D02*X209300Y184750D01*
X207050Y185500D02*X208550D01*
X206300Y184750D02*X207050Y185500D01*
X206300Y184750D02*Y183250D01*
X207050Y182500D01*
X209300Y185500D02*Y183250D01*
X210050Y182500D01*
X207050D02*X208550D01*
X209300Y183250D01*
X211850Y185500D02*X214850Y182500D01*
X211850D02*X214850Y185500D01*
X216650Y187000D02*Y186250D01*
Y184750D02*Y182500D01*
X218900Y184750D02*Y182500D01*
Y184750D02*X219650Y185500D01*
X220400D01*
X221150Y184750D01*
Y182500D01*
Y184750D02*X221900Y185500D01*
X222650D01*
X223400Y184750D01*
Y182500D01*
X218150Y185500D02*X218900Y184750D01*
X225200Y185500D02*Y183250D01*
X225950Y182500D01*
X227450D01*
X228200Y183250D01*
Y185500D02*Y183250D01*
X230750Y184750D02*Y182500D01*
Y184750D02*X231500Y185500D01*
X232250D01*
X233000Y184750D01*
Y182500D01*
Y184750D02*X233750Y185500D01*
X234500D01*
X235250Y184750D01*
Y182500D01*
X230000Y185500D02*X230750Y184750D01*
X240500Y188500D02*Y182500D01*
X242750Y188500D02*X243500Y187750D01*
Y183250D01*
X242750Y182500D02*X243500Y183250D01*
X239750Y182500D02*X242750D01*
X239750Y188500D02*X242750D01*
X245300Y187000D02*Y186250D01*
Y184750D02*Y182500D01*
X247550Y184750D02*Y182500D01*
Y184750D02*X248300Y185500D01*
X249050D01*
X249800Y184750D01*
Y182500D01*
Y184750D02*X250550Y185500D01*
X251300D01*
X252050Y184750D01*
Y182500D01*
X246800Y185500D02*X247550Y184750D01*
X254600Y182500D02*X256850D01*
X253850Y183250D02*X254600Y182500D01*
X253850Y184750D02*Y183250D01*
Y184750D02*X254600Y185500D01*
X256100D01*
X256850Y184750D01*
X253850Y184000D02*X256850D01*
Y184750D02*Y184000D01*
X259400Y184750D02*Y182500D01*
Y184750D02*X260150Y185500D01*
X260900D01*
X261650Y184750D01*
Y182500D01*
X258650Y185500D02*X259400Y184750D01*
X264200Y182500D02*X266450D01*
X267200Y183250D01*
X266450Y184000D02*X267200Y183250D01*
X264200Y184000D02*X266450D01*
X263450Y184750D02*X264200Y184000D01*
X263450Y184750D02*X264200Y185500D01*
X266450D01*
X267200Y184750D01*
X263450Y183250D02*X264200Y182500D01*
X269000Y187000D02*Y186250D01*
Y184750D02*Y182500D01*
X270500Y184750D02*Y183250D01*
Y184750D02*X271250Y185500D01*
X272750D01*
X273500Y184750D01*
Y183250D01*
X272750Y182500D02*X273500Y183250D01*
X271250Y182500D02*X272750D01*
X270500Y183250D02*X271250Y182500D01*
X276050Y184750D02*Y182500D01*
Y184750D02*X276800Y185500D01*
X277550D01*
X278300Y184750D01*
Y182500D01*
X275300Y185500D02*X276050Y184750D01*
X280850Y182500D02*X283100D01*
X283850Y183250D01*
X283100Y184000D02*X283850Y183250D01*
X280850Y184000D02*X283100D01*
X280100Y184750D02*X280850Y184000D01*
X280100Y184750D02*X280850Y185500D01*
X283100D01*
X283850Y184750D01*
X280100Y183250D02*X280850Y182500D01*
X285650Y186250D02*X286400D01*
X285650Y184750D02*X286400D01*
X290900Y187750D02*X291650Y188500D01*
X293150D01*
X293900Y187750D01*
Y183250D01*
X293150Y182500D02*X293900Y183250D01*
X291650Y182500D02*X293150D01*
X290900Y183250D02*X291650Y182500D01*
Y185500D02*X293900D01*
X295700Y188500D02*X298700D01*
X295700D02*Y185500D01*
X296450Y186250D01*
X297950D01*
X298700Y185500D01*
Y183250D01*
X297950Y182500D02*X298700Y183250D01*
X296450Y182500D02*X297950D01*
X295700Y183250D02*X296450Y182500D01*
X300500Y183250D02*X301250Y182500D01*
X300500Y187750D02*Y183250D01*
Y187750D02*X301250Y188500D01*
X302750D01*
X303500Y187750D01*
Y183250D01*
X302750Y182500D02*X303500Y183250D01*
X301250Y182500D02*X302750D01*
X300500Y184000D02*X303500Y187000D01*
X305300Y183250D02*X306050Y182500D01*
X305300Y187750D02*Y183250D01*
Y187750D02*X306050Y188500D01*
X307550D01*
X308300Y187750D01*
Y183250D01*
X307550Y182500D02*X308300Y183250D01*
X306050Y182500D02*X307550D01*
X305300Y184000D02*X308300Y187000D01*
X310100Y182500D02*X310850D01*
X312650Y183250D02*X313400Y182500D01*
X312650Y187750D02*Y183250D01*
Y187750D02*X313400Y188500D01*
X314900D01*
X315650Y187750D01*
Y183250D01*
X314900Y182500D02*X315650Y183250D01*
X313400Y182500D02*X314900D01*
X312650Y184000D02*X315650Y187000D01*
X317450Y183250D02*X318200Y182500D01*
X317450Y187750D02*Y183250D01*
Y187750D02*X318200Y188500D01*
X319700D01*
X320450Y187750D01*
Y183250D01*
X319700Y182500D02*X320450Y183250D01*
X318200Y182500D02*X319700D01*
X317450Y184000D02*X320450Y187000D01*
X322250Y183250D02*X323000Y182500D01*
X322250Y187750D02*Y183250D01*
Y187750D02*X323000Y188500D01*
X324500D01*
X325250Y187750D01*
Y183250D01*
X324500Y182500D02*X325250Y183250D01*
X323000Y182500D02*X324500D01*
X322250Y184000D02*X325250Y187000D01*
X327050Y183250D02*X327800Y182500D01*
X327050Y187750D02*Y183250D01*
Y187750D02*X327800Y188500D01*
X329300D01*
X330050Y187750D01*
Y183250D01*
X329300Y182500D02*X330050Y183250D01*
X327800Y182500D02*X329300D01*
X327050Y184000D02*X330050Y187000D01*
X331850Y183250D02*X332600Y182500D01*
X331850Y187750D02*Y183250D01*
Y187750D02*X332600Y188500D01*
X334100D01*
X334850Y187750D01*
Y183250D01*
X334100Y182500D02*X334850Y183250D01*
X332600Y182500D02*X334100D01*
X331850Y184000D02*X334850Y187000D01*
X336650Y183250D02*X337400Y182500D01*
X336650Y187750D02*Y183250D01*
Y187750D02*X337400Y188500D01*
X338900D01*
X339650Y187750D01*
Y183250D01*
X338900Y182500D02*X339650Y183250D01*
X337400Y182500D02*X338900D01*
X336650Y184000D02*X339650Y187000D01*
X344900Y184750D02*Y182500D01*
Y184750D02*X345650Y185500D01*
X346400D01*
X347150Y184750D01*
Y182500D01*
Y184750D02*X347900Y185500D01*
X348650D01*
X349400Y184750D01*
Y182500D01*
X344150Y185500D02*X344900Y184750D01*
X351200Y187000D02*Y186250D01*
Y184750D02*Y182500D01*
X352700Y188500D02*Y183250D01*
X353450Y182500D01*
X355700D02*X357950D01*
X358700Y183250D01*
X357950Y184000D02*X358700Y183250D01*
X355700Y184000D02*X357950D01*
X354950Y184750D02*X355700Y184000D01*
X354950Y184750D02*X355700Y185500D01*
X357950D01*
X358700Y184750D01*
X354950Y183250D02*X355700Y182500D01*
X363200Y185500D02*Y183250D01*
X363950Y182500D01*
X364700D01*
X365450Y183250D01*
Y185500D02*Y183250D01*
X366200Y182500D01*
X366950D01*
X367700Y183250D01*
Y185500D02*Y183250D01*
X369500Y187000D02*Y186250D01*
Y184750D02*Y182500D01*
X374000Y188500D02*Y182500D01*
X373250D02*X374000Y183250D01*
X371750Y182500D02*X373250D01*
X371000Y183250D02*X371750Y182500D01*
X371000Y184750D02*Y183250D01*
Y184750D02*X371750Y185500D01*
X373250D01*
X374000Y184750D01*
X376550Y182500D02*X378800D01*
X375800Y183250D02*X376550Y182500D01*
X375800Y184750D02*Y183250D01*
Y184750D02*X376550Y185500D01*
X378050D01*
X378800Y184750D01*
X375800Y184000D02*X378800D01*
Y184750D02*Y184000D01*
X380600Y181000D02*X382100Y182500D01*
X387350D02*X388850D01*
X388100Y188500D02*Y182500D01*
X386600Y187000D02*X388100Y188500D01*
X390650Y182500D02*X394400Y186250D01*
Y188500D02*Y186250D01*
X390650Y188500D02*X394400D01*
X396200D02*X399200D01*
X396200D02*Y185500D01*
X396950Y186250D01*
X398450D01*
X399200Y185500D01*
Y183250D01*
X398450Y182500D02*X399200Y183250D01*
X396950Y182500D02*X398450D01*
X396200Y183250D02*X396950Y182500D01*
X401000Y183250D02*X401750Y182500D01*
X401000Y187750D02*Y183250D01*
Y187750D02*X401750Y188500D01*
X403250D01*
X404000Y187750D01*
Y183250D01*
X403250Y182500D02*X404000Y183250D01*
X401750Y182500D02*X403250D01*
X401000Y184000D02*X404000Y187000D01*
X405800Y182500D02*X406550D01*
X408350Y183250D02*X409100Y182500D01*
X408350Y187750D02*Y183250D01*
Y187750D02*X409100Y188500D01*
X410600D01*
X411350Y187750D01*
Y183250D01*
X410600Y182500D02*X411350Y183250D01*
X409100Y182500D02*X410600D01*
X408350Y184000D02*X411350Y187000D01*
X413150Y183250D02*X413900Y182500D01*
X413150Y187750D02*Y183250D01*
Y187750D02*X413900Y188500D01*
X415400D01*
X416150Y187750D01*
Y183250D01*
X415400Y182500D02*X416150Y183250D01*
X413900Y182500D02*X415400D01*
X413150Y184000D02*X416150Y187000D01*
X417950Y183250D02*X418700Y182500D01*
X417950Y187750D02*Y183250D01*
Y187750D02*X418700Y188500D01*
X420200D01*
X420950Y187750D01*
Y183250D01*
X420200Y182500D02*X420950Y183250D01*
X418700Y182500D02*X420200D01*
X417950Y184000D02*X420950Y187000D01*
X422750Y183250D02*X423500Y182500D01*
X422750Y187750D02*Y183250D01*
Y187750D02*X423500Y188500D01*
X425000D01*
X425750Y187750D01*
Y183250D01*
X425000Y182500D02*X425750Y183250D01*
X423500Y182500D02*X425000D01*
X422750Y184000D02*X425750Y187000D01*
X427550Y183250D02*X428300Y182500D01*
X427550Y187750D02*Y183250D01*
Y187750D02*X428300Y188500D01*
X429800D01*
X430550Y187750D01*
Y183250D01*
X429800Y182500D02*X430550Y183250D01*
X428300Y182500D02*X429800D01*
X427550Y184000D02*X430550Y187000D01*
X432350Y183250D02*X433100Y182500D01*
X432350Y187750D02*Y183250D01*
Y187750D02*X433100Y188500D01*
X434600D01*
X435350Y187750D01*
Y183250D01*
X434600Y182500D02*X435350Y183250D01*
X433100Y182500D02*X434600D01*
X432350Y184000D02*X435350Y187000D01*
X440600Y184750D02*Y182500D01*
Y184750D02*X441350Y185500D01*
X442100D01*
X442850Y184750D01*
Y182500D01*
Y184750D02*X443600Y185500D01*
X444350D01*
X445100Y184750D01*
Y182500D01*
X439850Y185500D02*X440600Y184750D01*
X446900Y187000D02*Y186250D01*
Y184750D02*Y182500D01*
X448400Y188500D02*Y183250D01*
X449150Y182500D01*
X451400D02*X453650D01*
X454400Y183250D01*
X453650Y184000D02*X454400Y183250D01*
X451400Y184000D02*X453650D01*
X450650Y184750D02*X451400Y184000D01*
X450650Y184750D02*X451400Y185500D01*
X453650D01*
X454400Y184750D01*
X450650Y183250D02*X451400Y182500D01*
X458900Y188500D02*Y182500D01*
Y184750D02*X459650Y185500D01*
X461150D01*
X461900Y184750D01*
Y182500D01*
X463700Y187000D02*Y186250D01*
Y184750D02*Y182500D01*
X467450Y185500D02*X468200Y184750D01*
X465950Y185500D02*X467450D01*
X465200Y184750D02*X465950Y185500D01*
X465200Y184750D02*Y183250D01*
X465950Y182500D01*
X467450D01*
X468200Y183250D01*
X465200Y181000D02*X465950Y180250D01*
X467450D01*
X468200Y181000D01*
Y185500D02*Y181000D01*
X470000Y188500D02*Y182500D01*
Y184750D02*X470750Y185500D01*
X472250D01*
X473000Y184750D01*
Y182500D01*
X0Y-9500D02*X3000D01*
X3750Y-8750D01*
Y-7250D02*Y-8750D01*
X3000Y-6500D02*X3750Y-7250D01*
X750Y-6500D02*X3000D01*
X750Y-3500D02*Y-9500D01*
X0Y-3500D02*X3000D01*
X3750Y-4250D01*
Y-5750D01*
X3000Y-6500D02*X3750Y-5750D01*
X5550Y-7250D02*Y-8750D01*
Y-7250D02*X6300Y-6500D01*
X7800D01*
X8550Y-7250D01*
Y-8750D01*
X7800Y-9500D02*X8550Y-8750D01*
X6300Y-9500D02*X7800D01*
X5550Y-8750D02*X6300Y-9500D01*
X12600Y-6500D02*X13350Y-7250D01*
X11100Y-6500D02*X12600D01*
X10350Y-7250D02*X11100Y-6500D01*
X10350Y-7250D02*Y-8750D01*
X11100Y-9500D01*
X13350Y-6500D02*Y-8750D01*
X14100Y-9500D01*
X11100D02*X12600D01*
X13350Y-8750D01*
X16650Y-7250D02*Y-9500D01*
Y-7250D02*X17400Y-6500D01*
X18900D01*
X15900D02*X16650Y-7250D01*
X23700Y-3500D02*Y-9500D01*
X22950D02*X23700Y-8750D01*
X21450Y-9500D02*X22950D01*
X20700Y-8750D02*X21450Y-9500D01*
X20700Y-7250D02*Y-8750D01*
Y-7250D02*X21450Y-6500D01*
X22950D01*
X23700Y-7250D01*
X28200D02*Y-8750D01*
Y-7250D02*X28950Y-6500D01*
X30450D01*
X31200Y-7250D01*
Y-8750D01*
X30450Y-9500D02*X31200Y-8750D01*
X28950Y-9500D02*X30450D01*
X28200Y-8750D02*X28950Y-9500D01*
X33000Y-6500D02*Y-8750D01*
X33750Y-9500D01*
X35250D01*
X36000Y-8750D01*
Y-6500D02*Y-8750D01*
X38550Y-3500D02*Y-8750D01*
X39300Y-9500D01*
X37800Y-5750D02*X39300D01*
X40800Y-3500D02*Y-8750D01*
X41550Y-9500D01*
X43050Y-5000D02*Y-5750D01*
Y-7250D02*Y-9500D01*
X45300Y-7250D02*Y-9500D01*
Y-7250D02*X46050Y-6500D01*
X46800D01*
X47550Y-7250D01*
Y-9500D01*
X44550Y-6500D02*X45300Y-7250D01*
X50100Y-9500D02*X52350D01*
X49350Y-8750D02*X50100Y-9500D01*
X49350Y-7250D02*Y-8750D01*
Y-7250D02*X50100Y-6500D01*
X51600D01*
X52350Y-7250D01*
X49350Y-8000D02*X52350D01*
Y-7250D02*Y-8000D01*
X56850Y-5000D02*Y-5750D01*
Y-7250D02*Y-9500D01*
X59100D02*X61350D01*
X62100Y-8750D01*
X61350Y-8000D02*X62100Y-8750D01*
X59100Y-8000D02*X61350D01*
X58350Y-7250D02*X59100Y-8000D01*
X58350Y-7250D02*X59100Y-6500D01*
X61350D01*
X62100Y-7250D01*
X58350Y-8750D02*X59100Y-9500D01*
X67350Y-3500D02*Y-8750D01*
X68100Y-9500D01*
X66600Y-5750D02*X68100D01*
X69600Y-3500D02*Y-9500D01*
Y-7250D02*X70350Y-6500D01*
X71850D01*
X72600Y-7250D01*
Y-9500D01*
X75150D02*X77400D01*
X74400Y-8750D02*X75150Y-9500D01*
X74400Y-7250D02*Y-8750D01*
Y-7250D02*X75150Y-6500D01*
X76650D01*
X77400Y-7250D01*
X74400Y-8000D02*X77400D01*
Y-7250D02*Y-8000D01*
X82650Y-6500D02*X84900D01*
X81900Y-7250D02*X82650Y-6500D01*
X81900Y-7250D02*Y-8750D01*
X82650Y-9500D01*
X84900D01*
X87450D02*X89700D01*
X86700Y-8750D02*X87450Y-9500D01*
X86700Y-7250D02*Y-8750D01*
Y-7250D02*X87450Y-6500D01*
X88950D01*
X89700Y-7250D01*
X86700Y-8000D02*X89700D01*
Y-7250D02*Y-8000D01*
X92250Y-7250D02*Y-9500D01*
Y-7250D02*X93000Y-6500D01*
X93750D01*
X94500Y-7250D01*
Y-9500D01*
X91500Y-6500D02*X92250Y-7250D01*
X97050Y-3500D02*Y-8750D01*
X97800Y-9500D01*
X96300Y-5750D02*X97800D01*
X100050Y-9500D02*X102300D01*
X99300Y-8750D02*X100050Y-9500D01*
X99300Y-7250D02*Y-8750D01*
Y-7250D02*X100050Y-6500D01*
X101550D01*
X102300Y-7250D01*
X99300Y-8000D02*X102300D01*
Y-7250D02*Y-8000D01*
X104850Y-7250D02*Y-9500D01*
Y-7250D02*X105600Y-6500D01*
X107100D01*
X104100D02*X104850Y-7250D01*
X108900Y-3500D02*Y-8750D01*
X109650Y-9500D01*
X111150Y-5000D02*Y-5750D01*
Y-7250D02*Y-9500D01*
X113400Y-7250D02*Y-9500D01*
Y-7250D02*X114150Y-6500D01*
X114900D01*
X115650Y-7250D01*
Y-9500D01*
X112650Y-6500D02*X113400Y-7250D01*
X118200Y-9500D02*X120450D01*
X117450Y-8750D02*X118200Y-9500D01*
X117450Y-7250D02*Y-8750D01*
Y-7250D02*X118200Y-6500D01*
X119700D01*
X120450Y-7250D01*
X117450Y-8000D02*X120450D01*
Y-7250D02*Y-8000D01*
X124950Y-7250D02*Y-8750D01*
Y-7250D02*X125700Y-6500D01*
X127200D01*
X127950Y-7250D01*
Y-8750D01*
X127200Y-9500D02*X127950Y-8750D01*
X125700Y-9500D02*X127200D01*
X124950Y-8750D02*X125700Y-9500D01*
X130500Y-4250D02*Y-9500D01*
Y-4250D02*X131250Y-3500D01*
X132000D01*
X129750Y-6500D02*X131250D01*
X136950Y-3500D02*Y-8750D01*
X137700Y-9500D01*
X136200Y-5750D02*X137700D01*
X139200Y-3500D02*Y-9500D01*
Y-7250D02*X139950Y-6500D01*
X141450D01*
X142200Y-7250D01*
Y-9500D01*
X144000Y-5000D02*Y-5750D01*
Y-7250D02*Y-9500D01*
X146250D02*X148500D01*
X149250Y-8750D01*
X148500Y-8000D02*X149250Y-8750D01*
X146250Y-8000D02*X148500D01*
X145500Y-7250D02*X146250Y-8000D01*
X145500Y-7250D02*X146250Y-6500D01*
X148500D01*
X149250Y-7250D01*
X145500Y-8750D02*X146250Y-9500D01*
X153750Y-8750D02*X154500Y-9500D01*
X153750Y-7250D02*Y-8750D01*
Y-7250D02*X154500Y-6500D01*
X156000D01*
X156750Y-7250D01*
Y-8750D01*
X156000Y-9500D02*X156750Y-8750D01*
X154500Y-9500D02*X156000D01*
X153750Y-5750D02*X154500Y-6500D01*
X153750Y-4250D02*Y-5750D01*
Y-4250D02*X154500Y-3500D01*
X156000D01*
X156750Y-4250D01*
Y-5750D01*
X156000Y-6500D02*X156750Y-5750D01*
X158550Y-9500D02*X159300D01*
X161100Y-8750D02*X161850Y-9500D01*
X161100Y-4250D02*Y-8750D01*
Y-4250D02*X161850Y-3500D01*
X163350D01*
X164100Y-4250D01*
Y-8750D01*
X163350Y-9500D02*X164100Y-8750D01*
X161850Y-9500D02*X163350D01*
X161100Y-8000D02*X164100Y-5000D01*
X165900Y-8750D02*X166650Y-9500D01*
X165900Y-4250D02*Y-8750D01*
Y-4250D02*X166650Y-3500D01*
X168150D01*
X168900Y-4250D01*
Y-8750D01*
X168150Y-9500D02*X168900Y-8750D01*
X166650Y-9500D02*X168150D01*
X165900Y-8000D02*X168900Y-5000D01*
X170700Y-8750D02*X171450Y-9500D01*
X170700Y-4250D02*Y-8750D01*
Y-4250D02*X171450Y-3500D01*
X172950D01*
X173700Y-4250D01*
Y-8750D01*
X172950Y-9500D02*X173700Y-8750D01*
X171450Y-9500D02*X172950D01*
X170700Y-8000D02*X173700Y-5000D01*
X175500Y-8750D02*X176250Y-9500D01*
X175500Y-4250D02*Y-8750D01*
Y-4250D02*X176250Y-3500D01*
X177750D01*
X178500Y-4250D01*
Y-8750D01*
X177750Y-9500D02*X178500Y-8750D01*
X176250Y-9500D02*X177750D01*
X175500Y-8000D02*X178500Y-5000D01*
X180300Y-8750D02*X181050Y-9500D01*
X180300Y-4250D02*Y-8750D01*
Y-4250D02*X181050Y-3500D01*
X182550D01*
X183300Y-4250D01*
Y-8750D01*
X182550Y-9500D02*X183300Y-8750D01*
X181050Y-9500D02*X182550D01*
X180300Y-8000D02*X183300Y-5000D01*
X185100Y-8750D02*X185850Y-9500D01*
X185100Y-4250D02*Y-8750D01*
Y-4250D02*X185850Y-3500D01*
X187350D01*
X188100Y-4250D01*
Y-8750D01*
X187350Y-9500D02*X188100Y-8750D01*
X185850Y-9500D02*X187350D01*
X185100Y-8000D02*X188100Y-5000D01*
X193350Y-7250D02*Y-9500D01*
Y-7250D02*X194100Y-6500D01*
X194850D01*
X195600Y-7250D01*
Y-9500D01*
Y-7250D02*X196350Y-6500D01*
X197100D01*
X197850Y-7250D01*
Y-9500D01*
X192600Y-6500D02*X193350Y-7250D01*
X199650Y-5000D02*Y-5750D01*
Y-7250D02*Y-9500D01*
X201150Y-3500D02*Y-8750D01*
X201900Y-9500D01*
X206850Y-7250D02*Y-9500D01*
Y-7250D02*X207600Y-6500D01*
X209100D01*
X206100D02*X206850Y-7250D01*
X211650Y-9500D02*X213900D01*
X210900Y-8750D02*X211650Y-9500D01*
X210900Y-7250D02*Y-8750D01*
Y-7250D02*X211650Y-6500D01*
X213150D01*
X213900Y-7250D01*
X210900Y-8000D02*X213900D01*
Y-7250D02*Y-8000D01*
X216450Y-6500D02*X218700D01*
X215700Y-7250D02*X216450Y-6500D01*
X215700Y-7250D02*Y-8750D01*
X216450Y-9500D01*
X218700D01*
X221250Y-3500D02*Y-8750D01*
X222000Y-9500D01*
X220500Y-5750D02*X222000D01*
X225750Y-6500D02*X226500Y-7250D01*
X224250Y-6500D02*X225750D01*
X223500Y-7250D02*X224250Y-6500D01*
X223500Y-7250D02*Y-8750D01*
X224250Y-9500D01*
X226500Y-6500D02*Y-8750D01*
X227250Y-9500D01*
X224250D02*X225750D01*
X226500Y-8750D01*
X229800Y-7250D02*Y-9500D01*
Y-7250D02*X230550Y-6500D01*
X231300D01*
X232050Y-7250D01*
Y-9500D01*
X229050Y-6500D02*X229800Y-7250D01*
X236100Y-6500D02*X236850Y-7250D01*
X234600Y-6500D02*X236100D01*
X233850Y-7250D02*X234600Y-6500D01*
X233850Y-7250D02*Y-8750D01*
X234600Y-9500D01*
X236100D01*
X236850Y-8750D01*
X233850Y-11000D02*X234600Y-11750D01*
X236100D01*
X236850Y-11000D01*
Y-6500D02*Y-11000D01*
X238650Y-3500D02*Y-8750D01*
X239400Y-9500D01*
X241650D02*X243900D01*
X240900Y-8750D02*X241650Y-9500D01*
X240900Y-7250D02*Y-8750D01*
Y-7250D02*X241650Y-6500D01*
X243150D01*
X243900Y-7250D01*
X240900Y-8000D02*X243900D01*
Y-7250D02*Y-8000D01*
X248400Y-6500D02*X251400D01*
X255900Y-8750D02*X256650Y-9500D01*
X255900Y-4250D02*Y-8750D01*
Y-4250D02*X256650Y-3500D01*
X258150D01*
X258900Y-4250D01*
Y-8750D01*
X258150Y-9500D02*X258900Y-8750D01*
X256650Y-9500D02*X258150D01*
X255900Y-8000D02*X258900Y-5000D01*
X260700Y-11000D02*X262200Y-9500D01*
X264000Y-8750D02*X264750Y-9500D01*
X264000Y-4250D02*Y-8750D01*
Y-4250D02*X264750Y-3500D01*
X266250D01*
X267000Y-4250D01*
Y-8750D01*
X266250Y-9500D02*X267000Y-8750D01*
X264750Y-9500D02*X266250D01*
X264000Y-8000D02*X267000Y-5000D01*
X272250Y-3500D02*Y-8750D01*
X273000Y-9500D01*
X271500Y-5750D02*X273000D01*
X274500Y-7250D02*Y-8750D01*
Y-7250D02*X275250Y-6500D01*
X276750D01*
X277500Y-7250D01*
Y-8750D01*
X276750Y-9500D02*X277500Y-8750D01*
X275250Y-9500D02*X276750D01*
X274500Y-8750D02*X275250Y-9500D01*
X282000Y-4250D02*X282750Y-3500D01*
X284250D01*
X285000Y-4250D01*
Y-8750D01*
X284250Y-9500D02*X285000Y-8750D01*
X282750Y-9500D02*X284250D01*
X282000Y-8750D02*X282750Y-9500D01*
Y-6500D02*X285000D01*
X286800Y-3500D02*X289800D01*
X286800D02*Y-6500D01*
X287550Y-5750D01*
X289050D01*
X289800Y-6500D01*
Y-8750D01*
X289050Y-9500D02*X289800Y-8750D01*
X287550Y-9500D02*X289050D01*
X286800Y-8750D02*X287550Y-9500D01*
X291600Y-8750D02*X292350Y-9500D01*
X291600Y-4250D02*Y-8750D01*
Y-4250D02*X292350Y-3500D01*
X293850D01*
X294600Y-4250D01*
Y-8750D01*
X293850Y-9500D02*X294600Y-8750D01*
X292350Y-9500D02*X293850D01*
X291600Y-8000D02*X294600Y-5000D01*
X296400Y-8750D02*X297150Y-9500D01*
X296400Y-4250D02*Y-8750D01*
Y-4250D02*X297150Y-3500D01*
X298650D01*
X299400Y-4250D01*
Y-8750D01*
X298650Y-9500D02*X299400Y-8750D01*
X297150Y-9500D02*X298650D01*
X296400Y-8000D02*X299400Y-5000D01*
X301200Y-9500D02*X301950D01*
X303750Y-8750D02*X304500Y-9500D01*
X303750Y-4250D02*Y-8750D01*
Y-4250D02*X304500Y-3500D01*
X306000D01*
X306750Y-4250D01*
Y-8750D01*
X306000Y-9500D02*X306750Y-8750D01*
X304500Y-9500D02*X306000D01*
X303750Y-8000D02*X306750Y-5000D01*
X308550Y-8750D02*X309300Y-9500D01*
X308550Y-4250D02*Y-8750D01*
Y-4250D02*X309300Y-3500D01*
X310800D01*
X311550Y-4250D01*
Y-8750D01*
X310800Y-9500D02*X311550Y-8750D01*
X309300Y-9500D02*X310800D01*
X308550Y-8000D02*X311550Y-5000D01*
X313350Y-8750D02*X314100Y-9500D01*
X313350Y-4250D02*Y-8750D01*
Y-4250D02*X314100Y-3500D01*
X315600D01*
X316350Y-4250D01*
Y-8750D01*
X315600Y-9500D02*X316350Y-8750D01*
X314100Y-9500D02*X315600D01*
X313350Y-8000D02*X316350Y-5000D01*
X318150Y-8750D02*X318900Y-9500D01*
X318150Y-4250D02*Y-8750D01*
Y-4250D02*X318900Y-3500D01*
X320400D01*
X321150Y-4250D01*
Y-8750D01*
X320400Y-9500D02*X321150Y-8750D01*
X318900Y-9500D02*X320400D01*
X318150Y-8000D02*X321150Y-5000D01*
X322950Y-8750D02*X323700Y-9500D01*
X322950Y-4250D02*Y-8750D01*
Y-4250D02*X323700Y-3500D01*
X325200D01*
X325950Y-4250D01*
Y-8750D01*
X325200Y-9500D02*X325950Y-8750D01*
X323700Y-9500D02*X325200D01*
X322950Y-8000D02*X325950Y-5000D01*
X327750Y-8750D02*X328500Y-9500D01*
X327750Y-4250D02*Y-8750D01*
Y-4250D02*X328500Y-3500D01*
X330000D01*
X330750Y-4250D01*
Y-8750D01*
X330000Y-9500D02*X330750Y-8750D01*
X328500Y-9500D02*X330000D01*
X327750Y-8000D02*X330750Y-5000D01*
X332550Y-11000D02*X334050Y-9500D01*
X336600D02*X338100D01*
X337350Y-3500D02*Y-9500D01*
X335850Y-5000D02*X337350Y-3500D01*
X339900Y-9500D02*X343650Y-5750D01*
Y-3500D02*Y-5750D01*
X339900Y-3500D02*X343650D01*
X345450D02*X348450D01*
X345450D02*Y-6500D01*
X346200Y-5750D01*
X347700D01*
X348450Y-6500D01*
Y-8750D01*
X347700Y-9500D02*X348450Y-8750D01*
X346200Y-9500D02*X347700D01*
X345450Y-8750D02*X346200Y-9500D01*
X350250Y-8750D02*X351000Y-9500D01*
X350250Y-4250D02*Y-8750D01*
Y-4250D02*X351000Y-3500D01*
X352500D01*
X353250Y-4250D01*
Y-8750D01*
X352500Y-9500D02*X353250Y-8750D01*
X351000Y-9500D02*X352500D01*
X350250Y-8000D02*X353250Y-5000D01*
X355050Y-9500D02*X355800D01*
X357600Y-8750D02*X358350Y-9500D01*
X357600Y-4250D02*Y-8750D01*
Y-4250D02*X358350Y-3500D01*
X359850D01*
X360600Y-4250D01*
Y-8750D01*
X359850Y-9500D02*X360600Y-8750D01*
X358350Y-9500D02*X359850D01*
X357600Y-8000D02*X360600Y-5000D01*
X362400Y-8750D02*X363150Y-9500D01*
X362400Y-4250D02*Y-8750D01*
Y-4250D02*X363150Y-3500D01*
X364650D01*
X365400Y-4250D01*
Y-8750D01*
X364650Y-9500D02*X365400Y-8750D01*
X363150Y-9500D02*X364650D01*
X362400Y-8000D02*X365400Y-5000D01*
X367200Y-8750D02*X367950Y-9500D01*
X367200Y-4250D02*Y-8750D01*
Y-4250D02*X367950Y-3500D01*
X369450D01*
X370200Y-4250D01*
Y-8750D01*
X369450Y-9500D02*X370200Y-8750D01*
X367950Y-9500D02*X369450D01*
X367200Y-8000D02*X370200Y-5000D01*
X372000Y-8750D02*X372750Y-9500D01*
X372000Y-4250D02*Y-8750D01*
Y-4250D02*X372750Y-3500D01*
X374250D01*
X375000Y-4250D01*
Y-8750D01*
X374250Y-9500D02*X375000Y-8750D01*
X372750Y-9500D02*X374250D01*
X372000Y-8000D02*X375000Y-5000D01*
X376800Y-8750D02*X377550Y-9500D01*
X376800Y-4250D02*Y-8750D01*
Y-4250D02*X377550Y-3500D01*
X379050D01*
X379800Y-4250D01*
Y-8750D01*
X379050Y-9500D02*X379800Y-8750D01*
X377550Y-9500D02*X379050D01*
X376800Y-8000D02*X379800Y-5000D01*
X381600Y-8750D02*X382350Y-9500D01*
X381600Y-4250D02*Y-8750D01*
Y-4250D02*X382350Y-3500D01*
X383850D01*
X384600Y-4250D01*
Y-8750D01*
X383850Y-9500D02*X384600Y-8750D01*
X382350Y-9500D02*X383850D01*
X381600Y-8000D02*X384600Y-5000D01*
X389850Y-7250D02*Y-9500D01*
Y-7250D02*X390600Y-6500D01*
X391350D01*
X392100Y-7250D01*
Y-9500D01*
Y-7250D02*X392850Y-6500D01*
X393600D01*
X394350Y-7250D01*
Y-9500D01*
X389100Y-6500D02*X389850Y-7250D01*
X396150Y-5000D02*Y-5750D01*
Y-7250D02*Y-9500D01*
X397650Y-3500D02*Y-8750D01*
X398400Y-9500D01*
X400650D02*X402900D01*
X403650Y-8750D01*
X402900Y-8000D02*X403650Y-8750D01*
X400650Y-8000D02*X402900D01*
X399900Y-7250D02*X400650Y-8000D01*
X399900Y-7250D02*X400650Y-6500D01*
X402900D01*
X403650Y-7250D01*
X399900Y-8750D02*X400650Y-9500D01*
X200750Y203500D02*Y197500D01*
X203000Y203500D02*X203750Y202750D01*
Y198250D01*
X203000Y197500D02*X203750Y198250D01*
X200000Y197500D02*X203000D01*
X200000Y203500D02*X203000D01*
X207800Y200500D02*X208550Y199750D01*
X206300Y200500D02*X207800D01*
X205550Y199750D02*X206300Y200500D01*
X205550Y199750D02*Y198250D01*
X206300Y197500D01*
X208550Y200500D02*Y198250D01*
X209300Y197500D01*
X206300D02*X207800D01*
X208550Y198250D01*
X211850Y203500D02*Y198250D01*
X212600Y197500D01*
X211100Y201250D02*X212600D01*
X214850Y197500D02*X217100D01*
X214100Y198250D02*X214850Y197500D01*
X214100Y199750D02*Y198250D01*
Y199750D02*X214850Y200500D01*
X216350D01*
X217100Y199750D01*
X214100Y199000D02*X217100D01*
Y199750D02*Y199000D01*
X218900Y201250D02*X219650D01*
X218900Y199750D02*X219650D01*
X227150Y203500D02*X227900Y202750D01*
X224900Y203500D02*X227150D01*
X224150Y202750D02*X224900Y203500D01*
X224150Y202750D02*Y201250D01*
X224900Y200500D01*
X227150D01*
X227900Y199750D01*
Y198250D01*
X227150Y197500D02*X227900Y198250D01*
X224900Y197500D02*X227150D01*
X224150Y198250D02*X224900Y197500D01*
X229700Y200500D02*Y198250D01*
X230450Y197500D01*
X231950D01*
X232700Y198250D01*
Y200500D02*Y198250D01*
X235250Y199750D02*Y197500D01*
Y199750D02*X236000Y200500D01*
X236750D01*
X237500Y199750D01*
Y197500D01*
X234500Y200500D02*X235250Y199750D01*
X242000Y198250D02*X242750Y197500D01*
X242000Y202750D02*Y198250D01*
Y202750D02*X242750Y203500D01*
X244250D01*
X245000Y202750D01*
Y198250D01*
X244250Y197500D02*X245000Y198250D01*
X242750Y197500D02*X244250D01*
X242000Y199000D02*X245000Y202000D01*
X246800Y202750D02*X247550Y203500D01*
X249050D01*
X249800Y202750D01*
Y198250D01*
X249050Y197500D02*X249800Y198250D01*
X247550Y197500D02*X249050D01*
X246800Y198250D02*X247550Y197500D01*
Y200500D02*X249800D01*
X254300Y203500D02*Y197500D01*
Y203500D02*X257300D01*
X254300Y200500D02*X256550D01*
X259850Y197500D02*X262100D01*
X259100Y198250D02*X259850Y197500D01*
X259100Y199750D02*Y198250D01*
Y199750D02*X259850Y200500D01*
X261350D01*
X262100Y199750D01*
X259100Y199000D02*X262100D01*
Y199750D02*Y199000D01*
X263900Y203500D02*Y197500D01*
Y198250D02*X264650Y197500D01*
X266150D01*
X266900Y198250D01*
Y199750D02*Y198250D01*
X266150Y200500D02*X266900Y199750D01*
X264650Y200500D02*X266150D01*
X263900Y199750D02*X264650Y200500D01*
X271400Y202750D02*X272150Y203500D01*
X274400D01*
X275150Y202750D01*
Y201250D01*
X271400Y197500D02*X275150Y201250D01*
X271400Y197500D02*X275150D01*
X276950Y198250D02*X277700Y197500D01*
X276950Y202750D02*Y198250D01*
Y202750D02*X277700Y203500D01*
X279200D01*
X279950Y202750D01*
Y198250D01*
X279200Y197500D02*X279950Y198250D01*
X277700Y197500D02*X279200D01*
X276950Y199000D02*X279950Y202000D01*
X282500Y197500D02*X284000D01*
X283250Y203500D02*Y197500D01*
X281750Y202000D02*X283250Y203500D01*
X285800Y202750D02*X286550Y203500D01*
X288050D01*
X288800Y202750D01*
Y198250D01*
X288050Y197500D02*X288800Y198250D01*
X286550Y197500D02*X288050D01*
X285800Y198250D02*X286550Y197500D01*
Y200500D02*X288800D01*
X294050Y197500D02*X295550D01*
X294800Y203500D02*Y197500D01*
X293300Y202000D02*X294800Y203500D01*
X297350Y202750D02*X298100Y203500D01*
X300350D01*
X301100Y202750D01*
Y201250D01*
X297350Y197500D02*X301100Y201250D01*
X297350Y197500D02*X301100D01*
X302900Y201250D02*X303650D01*
X302900Y199750D02*X303650D01*
X305450Y200500D02*X308450Y203500D01*
X305450Y200500D02*X309200D01*
X308450Y203500D02*Y197500D01*
X311000Y200500D02*X314000Y203500D01*
X311000Y200500D02*X314750D01*
X314000Y203500D02*Y197500D01*
X316550Y201250D02*X317300D01*
X316550Y199750D02*X317300D01*
X319100Y203500D02*X322100D01*
X319100D02*Y200500D01*
X319850Y201250D01*
X321350D01*
X322100Y200500D01*
Y198250D01*
X321350Y197500D02*X322100Y198250D01*
X319850Y197500D02*X321350D01*
X319100Y198250D02*X319850Y197500D01*
X324650D02*X326150D01*
X325400Y203500D02*Y197500D01*
X323900Y202000D02*X325400Y203500D01*
X330650Y202750D02*Y197500D01*
Y202750D02*X331400Y203500D01*
X333650D01*
X334400Y202750D01*
Y197500D01*
X330650Y200500D02*X334400D01*
X336200Y203500D02*Y197500D01*
Y203500D02*X338450Y201250D01*
X340700Y203500D01*
Y197500D01*
X348200Y203500D02*X348950Y202750D01*
X345950Y203500D02*X348200D01*
X345200Y202750D02*X345950Y203500D01*
X345200Y202750D02*Y198250D01*
X345950Y197500D01*
X348200D01*
X348950Y198250D01*
Y199750D02*Y198250D01*
X348200Y200500D02*X348950Y199750D01*
X346700Y200500D02*X348200D01*
X350750Y203500D02*Y197500D01*
Y203500D02*X353000Y201250D01*
X355250Y203500D01*
Y197500D01*
X357050Y203500D02*X360050D01*
X358550D02*Y197500D01*
X364550Y203500D02*Y198250D01*
X365300Y197500D01*
X366800D01*
X367550Y198250D01*
Y203500D02*Y198250D01*
X369350Y203500D02*X372350D01*
X370850D02*Y197500D01*
X374900D02*X377150D01*
X374150Y198250D02*X374900Y197500D01*
X374150Y202750D02*Y198250D01*
Y202750D02*X374900Y203500D01*
X377150D01*
X200000Y217750D02*Y212500D01*
Y217750D02*X200750Y218500D01*
X203000D01*
X203750Y217750D01*
Y212500D01*
X200000Y215500D02*X203750D01*
X205550D02*Y213250D01*
X206300Y212500D01*
X207800D01*
X208550Y213250D01*
Y215500D02*Y213250D01*
X211100Y218500D02*Y213250D01*
X211850Y212500D01*
X210350Y216250D02*X211850D01*
X213350Y218500D02*Y212500D01*
Y214750D02*X214100Y215500D01*
X215600D01*
X216350Y214750D01*
Y212500D01*
X218150Y214750D02*Y213250D01*
Y214750D02*X218900Y215500D01*
X220400D01*
X221150Y214750D01*
Y213250D01*
X220400Y212500D02*X221150Y213250D01*
X218900Y212500D02*X220400D01*
X218150Y213250D02*X218900Y212500D01*
X223700Y214750D02*Y212500D01*
Y214750D02*X224450Y215500D01*
X225950D01*
X222950D02*X223700Y214750D01*
X227750Y216250D02*X228500D01*
X227750Y214750D02*X228500D01*
X233000Y218500D02*Y212500D01*
Y218500D02*X235250Y216250D01*
X237500Y218500D01*
Y212500D01*
X239300Y217000D02*Y216250D01*
Y214750D02*Y212500D01*
X241550Y215500D02*X243800D01*
X240800Y214750D02*X241550Y215500D01*
X240800Y214750D02*Y213250D01*
X241550Y212500D01*
X243800D01*
X245600Y218500D02*Y212500D01*
Y214750D02*X246350Y215500D01*
X247850D01*
X248600Y214750D01*
Y212500D01*
X252650Y215500D02*X253400Y214750D01*
X251150Y215500D02*X252650D01*
X250400Y214750D02*X251150Y215500D01*
X250400Y214750D02*Y213250D01*
X251150Y212500D01*
X253400Y215500D02*Y213250D01*
X254150Y212500D01*
X251150D02*X252650D01*
X253400Y213250D01*
X256700Y212500D02*X258950D01*
X255950Y213250D02*X256700Y212500D01*
X255950Y214750D02*Y213250D01*
Y214750D02*X256700Y215500D01*
X258200D01*
X258950Y214750D01*
X255950Y214000D02*X258950D01*
Y214750D02*Y214000D01*
X260750Y218500D02*Y213250D01*
X261500Y212500D01*
X266450Y218500D02*Y212500D01*
X265700Y218500D02*X268700D01*
X269450Y217750D01*
Y216250D01*
X268700Y215500D02*X269450Y216250D01*
X266450Y215500D02*X268700D01*
X272000Y212500D02*X274250D01*
X271250Y213250D02*X272000Y212500D01*
X271250Y214750D02*Y213250D01*
Y214750D02*X272000Y215500D01*
X273500D01*
X274250Y214750D01*
X271250Y214000D02*X274250D01*
Y214750D02*Y214000D01*
X276800Y218500D02*Y213250D01*
X277550Y212500D01*
X276050Y216250D02*X277550D01*
X279800Y212500D02*X282050D01*
X279050Y213250D02*X279800Y212500D01*
X279050Y214750D02*Y213250D01*
Y214750D02*X279800Y215500D01*
X281300D01*
X282050Y214750D01*
X279050Y214000D02*X282050D01*
Y214750D02*Y214000D01*
X284600Y214750D02*Y212500D01*
Y214750D02*X285350Y215500D01*
X286850D01*
X283850D02*X284600Y214750D01*
X289400Y212500D02*X291650D01*
X292400Y213250D01*
X291650Y214000D02*X292400Y213250D01*
X289400Y214000D02*X291650D01*
X288650Y214750D02*X289400Y214000D01*
X288650Y214750D02*X289400Y215500D01*
X291650D01*
X292400Y214750D01*
X288650Y213250D02*X289400Y212500D01*
X294950D02*X297200D01*
X294200Y213250D02*X294950Y212500D01*
X294200Y214750D02*Y213250D01*
Y214750D02*X294950Y215500D01*
X296450D01*
X297200Y214750D01*
X294200Y214000D02*X297200D01*
Y214750D02*Y214000D01*
X299750Y214750D02*Y212500D01*
Y214750D02*X300500Y215500D01*
X301250D01*
X302000Y214750D01*
Y212500D01*
X299000Y215500D02*X299750Y214750D01*
X200000Y233500D02*X203000D01*
X201500D02*Y227500D01*
X204800Y232000D02*Y231250D01*
Y229750D02*Y227500D01*
X207050Y233500D02*Y228250D01*
X207800Y227500D01*
X206300Y231250D02*X207800D01*
X209300Y233500D02*Y228250D01*
X210050Y227500D01*
X212300D02*X214550D01*
X211550Y228250D02*X212300Y227500D01*
X211550Y229750D02*Y228250D01*
Y229750D02*X212300Y230500D01*
X213800D01*
X214550Y229750D01*
X211550Y229000D02*X214550D01*
Y229750D02*Y229000D01*
X216350Y231250D02*X217100D01*
X216350Y229750D02*X217100D01*
X221600Y228250D02*X222350Y227500D01*
X221600Y232750D02*X222350Y233500D01*
X221600Y232750D02*Y228250D01*
X224150Y230500D02*Y228250D01*
X224900Y227500D01*
X226400D01*
X227150Y228250D01*
Y230500D02*Y228250D01*
X229700Y229750D02*Y227500D01*
Y229750D02*X230450Y230500D01*
X231200D01*
X231950Y229750D01*
Y227500D01*
X228950Y230500D02*X229700Y229750D01*
X233750Y233500D02*Y227500D01*
Y229750D02*X236000Y227500D01*
X233750Y229750D02*X235250Y231250D01*
X238550Y229750D02*Y227500D01*
Y229750D02*X239300Y230500D01*
X240050D01*
X240800Y229750D01*
Y227500D01*
X237800Y230500D02*X238550Y229750D01*
X242600D02*Y228250D01*
Y229750D02*X243350Y230500D01*
X244850D01*
X245600Y229750D01*
Y228250D01*
X244850Y227500D02*X245600Y228250D01*
X243350Y227500D02*X244850D01*
X242600Y228250D02*X243350Y227500D01*
X247400Y230500D02*Y228250D01*
X248150Y227500D01*
X248900D01*
X249650Y228250D01*
Y230500D02*Y228250D01*
X250400Y227500D01*
X251150D01*
X251900Y228250D01*
Y230500D02*Y228250D01*
X254450Y229750D02*Y227500D01*
Y229750D02*X255200Y230500D01*
X255950D01*
X256700Y229750D01*
Y227500D01*
X253700Y230500D02*X254450Y229750D01*
X258500Y233500D02*X259250Y232750D01*
Y228250D01*
X258500Y227500D02*X259250Y228250D01*
X263750Y230500D02*X266750D01*
X271250Y233500D02*Y227500D01*
Y233500D02*X274250D01*
X271250Y230500D02*X273500D01*
X278300D02*X279050Y229750D01*
X276800Y230500D02*X278300D01*
X276050Y229750D02*X276800Y230500D01*
X276050Y229750D02*Y228250D01*
X276800Y227500D01*
X279050Y230500D02*Y228250D01*
X279800Y227500D01*
X276800D02*X278300D01*
X279050Y228250D01*
X281600Y233500D02*Y227500D01*
Y228250D02*X282350Y227500D01*
X283850D01*
X284600Y228250D01*
Y229750D02*Y228250D01*
X283850Y230500D02*X284600Y229750D01*
X282350Y230500D02*X283850D01*
X281600Y229750D02*X282350Y230500D01*
X287150Y229750D02*Y227500D01*
Y229750D02*X287900Y230500D01*
X289400D01*
X286400D02*X287150Y229750D01*
X291200Y232000D02*Y231250D01*
Y229750D02*Y227500D01*
X293450Y230500D02*X295700D01*
X292700Y229750D02*X293450Y230500D01*
X292700Y229750D02*Y228250D01*
X293450Y227500D01*
X295700D01*
X299750Y230500D02*X300500Y229750D01*
X298250Y230500D02*X299750D01*
X297500Y229750D02*X298250Y230500D01*
X297500Y229750D02*Y228250D01*
X298250Y227500D01*
X300500Y230500D02*Y228250D01*
X301250Y227500D01*
X298250D02*X299750D01*
X300500Y228250D01*
X303800Y233500D02*Y228250D01*
X304550Y227500D01*
X303050Y231250D02*X304550D01*
X306050Y232000D02*Y231250D01*
Y229750D02*Y227500D01*
X307550Y229750D02*Y228250D01*
Y229750D02*X308300Y230500D01*
X309800D01*
X310550Y229750D01*
Y228250D01*
X309800Y227500D02*X310550Y228250D01*
X308300Y227500D02*X309800D01*
X307550Y228250D02*X308300Y227500D01*
X313100Y229750D02*Y227500D01*
Y229750D02*X313850Y230500D01*
X314600D01*
X315350Y229750D01*
Y227500D01*
X312350Y230500D02*X313100Y229750D01*
X320600Y233500D02*Y227500D01*
X322850Y233500D02*X323600Y232750D01*
Y228250D01*
X322850Y227500D02*X323600Y228250D01*
X319850Y227500D02*X322850D01*
X319850Y233500D02*X322850D01*
X326150Y229750D02*Y227500D01*
Y229750D02*X326900Y230500D01*
X328400D01*
X325400D02*X326150Y229750D01*
X332450Y230500D02*X333200Y229750D01*
X330950Y230500D02*X332450D01*
X330200Y229750D02*X330950Y230500D01*
X330200Y229750D02*Y228250D01*
X330950Y227500D01*
X333200Y230500D02*Y228250D01*
X333950Y227500D01*
X330950D02*X332450D01*
X333200Y228250D01*
X335750Y230500D02*Y228250D01*
X336500Y227500D01*
X337250D01*
X338000Y228250D01*
Y230500D02*Y228250D01*
X338750Y227500D01*
X339500D01*
X340250Y228250D01*
Y230500D02*Y228250D01*
X342050Y232000D02*Y231250D01*
Y229750D02*Y227500D01*
X344300Y229750D02*Y227500D01*
Y229750D02*X345050Y230500D01*
X345800D01*
X346550Y229750D01*
Y227500D01*
X343550Y230500D02*X344300Y229750D01*
X350600Y230500D02*X351350Y229750D01*
X349100Y230500D02*X350600D01*
X348350Y229750D02*X349100Y230500D01*
X348350Y229750D02*Y228250D01*
X349100Y227500D01*
X350600D01*
X351350Y228250D01*
X348350Y226000D02*X349100Y225250D01*
X350600D01*
X351350Y226000D01*
Y230500D02*Y226000D01*
M02*
