G04 start of page 9 for group -4015 idx -4015 *
G04 Title: (unknown), toppaste *
G04 Creator: pcb 20110918 *
G04 CreationDate: Sun 03 Feb 2013 12:44:51 AM GMT UTC *
G04 For: petersen *
G04 Format: Gerber/RS-274X *
G04 PCB-Dimensions: 350000 175000 *
G04 PCB-Coordinate-Origin: lower left *
%MOIN*%
%FSLAX25Y25*%
%LNTOPPASTE*%
%ADD89R,0.0157X0.0157*%
%ADD88R,0.0340X0.0340*%
%ADD87R,0.0630X0.0630*%
%ADD86R,0.0360X0.0360*%
%ADD85R,0.0240X0.0240*%
%ADD84R,0.0512X0.0512*%
G54D84*X114607Y60543D02*X115393D01*
X114607Y53457D02*X115393D01*
X273607Y61043D02*X274393D01*
X273607Y53957D02*X274393D01*
X247107Y59043D02*X247893D01*
X247107Y51957D02*X247893D01*
G54D85*X75000Y113800D02*Y112200D01*
X78900Y113800D02*Y112200D01*
X82800Y113800D02*Y112200D01*
Y122000D02*Y120400D01*
X78900Y122000D02*Y120400D01*
X75000Y122000D02*Y120400D01*
X258900Y113500D02*Y111900D01*
X262800Y113500D02*Y111900D01*
X266700Y113500D02*Y111900D01*
Y121700D02*Y120100D01*
X262800Y121700D02*Y120100D01*
X258900Y121700D02*Y120100D01*
G54D86*X35400Y136600D02*Y135400D01*
X22500Y136600D02*Y135400D01*
G54D87*X55000Y115992D02*Y109693D01*
Y96307D02*Y90008D01*
G54D84*X320607Y113457D02*X321393D01*
X320607Y120543D02*X321393D01*
X193607Y64543D02*X194393D01*
X193607Y57457D02*X194393D01*
X247043Y110393D02*Y109607D01*
X239957Y110393D02*Y109607D01*
X247043Y119893D02*Y119107D01*
X239957Y119893D02*Y119107D01*
X278107Y112543D02*X278893D01*
X278107Y105457D02*X278893D01*
X124607Y24457D02*X125393D01*
X124607Y31543D02*X125393D01*
G54D88*X277500Y77800D02*Y77200D01*
X269700Y77800D02*Y77200D01*
X273600Y69600D02*Y69000D01*
G54D84*X314607Y60543D02*X315393D01*
X314607Y53457D02*X315393D01*
X259607Y82043D02*X260393D01*
X259607Y74957D02*X260393D01*
X222457Y75893D02*Y75107D01*
X229543Y75893D02*Y75107D01*
X331607Y47543D02*X332393D01*
X331607Y40457D02*X332393D01*
X289107Y61043D02*X289893D01*
X289107Y53957D02*X289893D01*
X287607Y113457D02*X288393D01*
X287607Y120543D02*X288393D01*
X163607Y54457D02*X164393D01*
X163607Y61543D02*X164393D01*
G54D88*X285000Y97800D02*Y97200D01*
X292800Y97800D02*Y97200D01*
X288900Y106000D02*Y105400D01*
G54D84*X334107Y88457D02*X334893D01*
X334107Y95543D02*X334893D01*
X204107Y12457D02*X204893D01*
X204107Y19543D02*X204893D01*
X214607D02*X215393D01*
X214607Y12457D02*X215393D01*
X123607Y104457D02*X124393D01*
X123607Y111543D02*X124393D01*
X114543Y104393D02*Y103607D01*
X107457Y104393D02*Y103607D01*
X133607Y120543D02*X134393D01*
X133607Y113457D02*X134393D01*
X123543Y121393D02*Y120607D01*
X116457Y121393D02*Y120607D01*
X80543Y92393D02*Y91607D01*
X73457Y92393D02*Y91607D01*
G54D88*X113700Y81000D02*X114300D01*
X113700Y73200D02*X114300D01*
X121900Y77100D02*X122500D01*
G54D84*X121543Y94393D02*Y93607D01*
X114457Y94393D02*Y93607D01*
X154543Y62393D02*Y61607D01*
X147457Y62393D02*Y61607D01*
X161043Y124893D02*Y124107D01*
X153957Y124893D02*Y124107D01*
X161343Y138193D02*Y137407D01*
X154257Y138193D02*Y137407D01*
X227107Y61543D02*X227893D01*
X227107Y54457D02*X227893D01*
X40457Y150393D02*Y149607D01*
X47543Y150393D02*Y149607D01*
X127607Y63543D02*X128393D01*
X127607Y56457D02*X128393D01*
X139543Y139393D02*Y138607D01*
X132457Y139393D02*Y138607D01*
X188657Y106793D02*Y106007D01*
X195743Y106793D02*Y106007D01*
X188457Y97393D02*Y96607D01*
X195543Y97393D02*Y96607D01*
X188457Y88893D02*Y88107D01*
X195543Y88893D02*Y88107D01*
Y76393D02*Y75607D01*
X188457Y76393D02*Y75607D01*
G54D88*X301000Y97800D02*Y97200D01*
X308800Y97800D02*Y97200D01*
X304900Y106000D02*Y105400D01*
X316600Y97700D02*Y97100D01*
X324400Y97700D02*Y97100D01*
X320500Y105900D02*Y105300D01*
X335900Y63900D02*Y63300D01*
X328100Y63900D02*Y63300D01*
X332000Y55700D02*Y55100D01*
X293000Y77800D02*Y77200D01*
X285200Y77800D02*Y77200D01*
X289100Y69600D02*Y69000D01*
X251000Y77800D02*Y77200D01*
X243200Y77800D02*Y77200D01*
X247100Y69600D02*Y69000D01*
G54D84*X334107Y80043D02*X334893D01*
X334107Y72957D02*X334893D01*
X267457Y89393D02*Y88607D01*
X274543Y89393D02*Y88607D01*
X242457Y100893D02*Y100107D01*
X249543Y100893D02*Y100107D01*
X240095Y14681D02*Y12319D01*
X251905Y14681D02*Y12319D01*
G54D88*X315000Y77800D02*Y77200D01*
X307200Y77800D02*Y77200D01*
X311100Y69600D02*Y69000D01*
G54D84*X307457Y85893D02*Y85107D01*
X314543Y85893D02*Y85107D01*
G54D89*X145977Y73434D02*Y69008D01*
X149126Y73434D02*Y69008D01*
X152276Y73434D02*Y69008D01*
X155425Y73434D02*Y69008D01*
X158575Y73434D02*Y69008D01*
X161725Y73434D02*Y69008D01*
X164874Y73434D02*Y69008D01*
X168024Y73434D02*Y69008D01*
X173566Y78977D02*X177992D01*
X173566Y82126D02*X177992D01*
X173566Y85276D02*X177992D01*
X173566Y88425D02*X177992D01*
X173566Y91575D02*X177992D01*
X173566Y94725D02*X177992D01*
X173566Y97874D02*X177992D01*
X173566Y101024D02*X177992D01*
X168023Y110992D02*Y106566D01*
X164874Y110992D02*Y106566D01*
X161724Y110992D02*Y106566D01*
X158575Y110992D02*Y106566D01*
X155425Y110992D02*Y106566D01*
X152275Y110992D02*Y106566D01*
X149126Y110992D02*Y106566D01*
X145976Y110992D02*Y106566D01*
X136008Y101023D02*X140434D01*
X136008Y97874D02*X140434D01*
X136008Y94724D02*X140434D01*
X136008Y91575D02*X140434D01*
X136008Y88425D02*X140434D01*
X136008Y85275D02*X140434D01*
X136008Y82126D02*X140434D01*
X136008Y78976D02*X140434D01*
G54D84*X140405Y16181D02*Y13819D01*
X128595Y16181D02*Y13819D01*
X301107Y113457D02*X301893D01*
X301107Y120543D02*X301893D01*
X57107Y149543D02*X57893D01*
X57107Y142457D02*X57893D01*
M02*
