G04 start of page 11 for group -4015 idx -4015 *
G04 Title: (unknown), toppaste *
G04 Creator: pcb 20140316 *
G04 CreationDate: Thu 02 Jul 2020 08:21:27 PM GMT UTC *
G04 For: railfan *
G04 Format: Gerber/RS-274X *
G04 PCB-Dimensions (mil): 3500.00 1750.00 *
G04 PCB-Coordinate-Origin: lower left *
%MOIN*%
%FSLAX25Y25*%
%LNTOPPASTE*%
%ADD131R,0.0230X0.0230*%
%ADD130R,0.0945X0.0945*%
%ADD129R,0.0378X0.0378*%
%ADD128R,0.0787X0.0787*%
%ADD127R,0.0240X0.0240*%
%ADD126R,0.0157X0.0157*%
%ADD125R,0.0630X0.0630*%
%ADD124R,0.0550X0.0550*%
%ADD123R,0.0472X0.0472*%
%ADD122R,0.0236X0.0236*%
%ADD121R,0.0330X0.0330*%
%ADD120R,0.0167X0.0167*%
%ADD119C,0.0001*%
%ADD118R,0.0091X0.0091*%
%ADD117R,0.0200X0.0200*%
%ADD116R,0.0512X0.0512*%
G54D116*X189457Y109393D02*Y108607D01*
X196543Y109393D02*Y108607D01*
X56957Y8393D02*Y7607D01*
X64043Y8393D02*Y7607D01*
X130107Y25043D02*X130893D01*
X130107Y17957D02*X130893D01*
X111107Y25000D02*X111893D01*
X111107Y17914D02*X111893D01*
G54D117*X67500Y17000D02*X74000D01*
X67500Y22000D02*X74000D01*
X67500Y27000D02*X74000D01*
X67500Y32000D02*X74000D01*
X47000D02*X53500D01*
X47000Y27000D02*X53500D01*
X47000Y22000D02*X53500D01*
X47000Y17000D02*X53500D01*
G54D118*X106610Y66280D02*Y64626D01*
X108579Y66280D02*Y64626D01*
X110547Y66280D02*Y64626D01*
X112516Y66280D02*Y64626D01*
X114484Y66280D02*Y64626D01*
X116453Y66280D02*Y64626D01*
X118421Y66280D02*Y64626D01*
X120390Y66280D02*Y64626D01*
X122220Y68110D02*X123874D01*
X122220Y70079D02*X123874D01*
X122220Y72047D02*X123874D01*
X122220Y74016D02*X123874D01*
X122220Y75984D02*X123874D01*
X122220Y77953D02*X123874D01*
X122220Y79921D02*X123874D01*
X122220Y81890D02*X123874D01*
X120390Y85374D02*Y83720D01*
X118421Y85374D02*Y83720D01*
X116453Y85374D02*Y83720D01*
X114484Y85374D02*Y83720D01*
X112516Y85374D02*Y83720D01*
X110547Y85374D02*Y83720D01*
X108579Y85374D02*Y83720D01*
X106610Y85374D02*Y83720D01*
X103126Y81890D02*X104780D01*
X103126Y79921D02*X104780D01*
X103126Y77953D02*X104780D01*
X103126Y75984D02*X104780D01*
X103126Y74016D02*X104780D01*
X103126Y72047D02*X104780D01*
X103126Y70079D02*X104780D01*
X103126Y68110D02*X104780D01*
G54D119*G36*
X109563Y78937D02*Y71063D01*
X117437D01*
Y78937D01*
X109563D01*
G37*
G54D116*X102107Y25043D02*X102893D01*
X102107Y17957D02*X102893D01*
X120607Y25086D02*X121393D01*
X120607Y18000D02*X121393D01*
X203543Y119393D02*Y118607D01*
X196457Y119393D02*Y118607D01*
G54D120*X216913Y109925D02*X218783D01*
X216913Y113075D02*X218783D01*
X210217D02*X212087D01*
X210217Y109925D02*X212087D01*
G54D116*X207107Y78543D02*X207893D01*
X207107Y71457D02*X207893D01*
X207957Y63893D02*Y63107D01*
X215043Y63893D02*Y63107D01*
G54D121*X334646Y110500D02*Y108098D01*
X329724Y110500D02*Y108098D01*
X324803Y110500D02*Y108098D01*
X319882Y110500D02*Y108098D01*
X314961Y110500D02*Y108098D01*
X310039Y110500D02*Y108098D01*
X305118Y110500D02*Y108098D01*
X300197Y110500D02*Y108098D01*
X295276Y110500D02*Y108098D01*
X290354Y110500D02*Y108098D01*
X285433Y110500D02*Y108098D01*
X280512Y110500D02*Y108098D01*
X273252Y100724D02*X275650D01*
X273252Y95803D02*X275650D01*
X273252Y90882D02*X275650D01*
X273252Y85961D02*X275650D01*
X273252Y81039D02*X275650D01*
X273252Y76118D02*X275650D01*
X273252Y71197D02*X275650D01*
X273252Y66276D02*X275650D01*
X280512Y58902D02*Y56500D01*
X285433Y58902D02*Y56500D01*
X290354Y58902D02*Y56500D01*
X295276Y58902D02*Y56500D01*
X300197Y58902D02*Y56500D01*
X305118Y58902D02*Y56500D01*
X310039Y58902D02*Y56500D01*
X314961Y58902D02*Y56500D01*
X319882Y58902D02*Y56500D01*
X324803Y58902D02*Y56500D01*
X329724Y58902D02*Y56500D01*
X334646Y58902D02*Y56500D01*
X339567Y58902D02*Y56500D01*
X344488Y58902D02*Y56500D01*
G54D118*X227110Y62280D02*Y60626D01*
X229079Y62280D02*Y60626D01*
X231047Y62280D02*Y60626D01*
X233016Y62280D02*Y60626D01*
X234984Y62280D02*Y60626D01*
X236953Y62280D02*Y60626D01*
X238921Y62280D02*Y60626D01*
X240890Y62280D02*Y60626D01*
X242720Y64110D02*X244374D01*
X242720Y66079D02*X244374D01*
X242720Y68047D02*X244374D01*
X242720Y70016D02*X244374D01*
X242720Y71984D02*X244374D01*
X242720Y73953D02*X244374D01*
X242720Y75921D02*X244374D01*
X242720Y77890D02*X244374D01*
X240890Y81374D02*Y79720D01*
X238921Y81374D02*Y79720D01*
X236953Y81374D02*Y79720D01*
X234984Y81374D02*Y79720D01*
X233016Y81374D02*Y79720D01*
X231047Y81374D02*Y79720D01*
X229079Y81374D02*Y79720D01*
X227110Y81374D02*Y79720D01*
X223626Y77890D02*X225280D01*
X223626Y75921D02*X225280D01*
X223626Y73953D02*X225280D01*
X223626Y71984D02*X225280D01*
X223626Y70016D02*X225280D01*
X223626Y68047D02*X225280D01*
X223626Y66079D02*X225280D01*
X223626Y64110D02*X225280D01*
G54D119*G36*
X230063Y74937D02*Y67063D01*
X237937D01*
Y74937D01*
X230063D01*
G37*
G54D122*X230406Y156870D02*Y153130D01*
X226469Y156870D02*Y153130D01*
X222531Y156870D02*Y153130D01*
X218594Y156870D02*Y153130D01*
G54D123*X235524Y171437D02*Y169075D01*
X213476Y171437D02*Y169075D01*
G54D116*X161107Y164043D02*X161893D01*
X161107Y156957D02*X161893D01*
X226543Y13893D02*Y13107D01*
X219457Y13893D02*Y13107D01*
G54D124*X20000Y137000D02*Y135000D01*
X33000Y137000D02*Y135000D01*
G54D125*X57008Y104500D02*X63307D01*
X76693D02*X82992D01*
G54D116*X99957Y112893D02*Y112107D01*
X107043Y112893D02*Y112107D01*
X101107Y96957D02*X101893D01*
X101107Y104043D02*X101893D01*
X91607Y96957D02*X92393D01*
X91607Y104043D02*X92393D01*
G54D120*X88913Y6425D02*X90783D01*
X88913Y9575D02*X90783D01*
X82217D02*X84087D01*
X82217Y6425D02*X84087D01*
X252717Y18224D02*X254587D01*
X252717Y15075D02*X254587D01*
X252717Y11925D02*X254587D01*
X252717Y8776D02*X254587D01*
X259413D02*X261283D01*
X259413Y11925D02*X261283D01*
X259413Y15075D02*X261283D01*
X259413Y18224D02*X261283D01*
G54D116*X168107Y16043D02*X168893D01*
X168107Y8957D02*X168893D01*
G54D120*X144217Y14575D02*X146087D01*
X144217Y11425D02*X146087D01*
X150913D02*X152783D01*
X150913Y14575D02*X152783D01*
G54D126*X181566Y78977D02*X185992D01*
X181566Y82126D02*X185992D01*
X181566Y85276D02*X185992D01*
X181566Y88425D02*X185992D01*
X181566Y91575D02*X185992D01*
X181566Y94725D02*X185992D01*
X181566Y97874D02*X185992D01*
X181566Y101024D02*X185992D01*
X176023Y110992D02*Y106566D01*
X172874Y110992D02*Y106566D01*
X169724Y110992D02*Y106566D01*
X166575Y110992D02*Y106566D01*
X163425Y110992D02*Y106566D01*
X160275Y110992D02*Y106566D01*
X157126Y110992D02*Y106566D01*
X153976Y110992D02*Y106566D01*
X144008Y101023D02*X148434D01*
X144008Y97874D02*X148434D01*
X144008Y94724D02*X148434D01*
X144008Y91575D02*X148434D01*
X144008Y88425D02*X148434D01*
X144008Y85275D02*X148434D01*
X144008Y82126D02*X148434D01*
X144008Y78976D02*X148434D01*
X153977Y73434D02*Y69008D01*
X157126Y73434D02*Y69008D01*
X160276Y73434D02*Y69008D01*
X163425Y73434D02*Y69008D01*
X166575Y73434D02*Y69008D01*
X169725Y73434D02*Y69008D01*
X172874Y73434D02*Y69008D01*
X176024Y73434D02*Y69008D01*
G54D127*X145800Y65500D02*Y63900D01*
X138000Y65500D02*Y63900D01*
Y57300D02*Y55700D01*
X141900Y57300D02*Y55700D01*
X145800Y57300D02*Y55700D01*
G54D116*X134107Y95543D02*X134893D01*
X134107Y88457D02*X134893D01*
G54D128*X185843Y139000D02*X201591D01*
X150409D02*X166157D01*
G54D116*X140957Y148893D02*Y148107D01*
X148043Y148893D02*Y148107D01*
G54D129*X148390Y157594D02*X152484D01*
X140674Y163500D02*X152484D01*
G54D130*X137050D02*X138940D01*
G54D119*G36*
X142245Y160195D02*X145085Y163035D01*
X146505Y161615D01*
X143665Y158775D01*
X142245Y160195D01*
G37*
G36*
X143665Y168225D02*X146505Y165385D01*
X145085Y163965D01*
X142245Y166805D01*
X143665Y168225D01*
G37*
G54D129*X148390Y169406D02*X152484D01*
G54D116*X229957Y27893D02*Y27107D01*
X237043Y27893D02*Y27107D01*
X324543Y124893D02*Y124107D01*
X317457Y124893D02*Y124107D01*
X324543Y134893D02*Y134107D01*
X317457Y134893D02*Y134107D01*
X160043Y62893D02*Y62107D01*
X152957Y62893D02*Y62107D01*
G54D127*X62950Y77350D02*Y75750D01*
X59050Y77350D02*Y75750D01*
X55150Y77350D02*Y75750D01*
Y69150D02*Y67550D01*
X59050Y69150D02*Y67550D01*
X62950Y69150D02*Y67550D01*
G54D131*X69850Y85750D02*Y64350D01*
X75450D01*
X69850Y85750D02*X75450D01*
X91250D02*Y64350D01*
X85650D02*X91250D01*
X85650Y85750D02*X91250D01*
G54D119*G36*
X71000Y71094D02*X76594Y65500D01*
X74473Y63379D01*
X68879Y68973D01*
X71000Y71094D01*
G37*
G36*
X68879Y81127D02*X74473Y86721D01*
X76594Y84600D01*
X71000Y79006D01*
X68879Y81127D01*
G37*
G36*
X84506Y65500D02*X90100Y71094D01*
X92221Y68973D01*
X86627Y63379D01*
X84506Y65500D01*
G37*
G36*
X86627Y86721D02*X92221Y81127D01*
X90100Y79006D01*
X84506Y84600D01*
X86627Y86721D01*
G37*
G36*
X69200Y67300D02*Y63700D01*
X72800D01*
Y67300D01*
X69200D01*
G37*
G36*
Y86400D02*Y82800D01*
X72800D01*
Y86400D01*
X69200D01*
G37*
G36*
X88300Y67300D02*Y63700D01*
X91900D01*
Y67300D01*
X88300D01*
G37*
G36*
Y86400D02*Y82800D01*
X91900D01*
Y86400D01*
X88300D01*
G37*
G54D116*X55457Y85893D02*Y85107D01*
X62543Y85893D02*Y85107D01*
X62593Y60943D02*Y60157D01*
X55507Y60943D02*Y60157D01*
X67043Y147393D02*Y146607D01*
X59957Y147393D02*Y146607D01*
M02*
