G04 start of page 10 for group -4078 idx -4078 *
G04 Title: (unknown), bottomsilk *
G04 Creator: pcb 20140316 *
G04 CreationDate: Thu 02 Jul 2020 08:21:27 PM GMT UTC *
G04 For: railfan *
G04 Format: Gerber/RS-274X *
G04 PCB-Dimensions (mil): 3500.00 1750.00 *
G04 PCB-Coordinate-Origin: lower left *
%MOIN*%
%FSLAX25Y25*%
%LNBOTTOMSILK*%
%ADD115C,0.0080*%
%ADD114C,0.0100*%
G54D114*X192000Y52500D02*X189000D01*
X190500Y54000D02*Y51000D01*
X192000Y122000D02*X189000D01*
X190500Y123500D02*Y120500D01*
X197400Y137900D02*X338600D01*
X197400Y36100D02*X338600D01*
Y137900D02*Y36100D01*
X197400Y137900D02*Y36100D01*
X13400Y137900D02*X154600D01*
X13400Y36100D02*X154600D01*
Y137900D02*Y36100D01*
X13400Y137900D02*Y36100D01*
G54D115*X64500Y89500D02*X68500D01*
X64500D02*X66000Y88000D01*
X64500Y86500D01*
X68500D01*
X65000Y85300D02*X64500Y84800D01*
Y83300D02*Y84800D01*
Y83300D02*X65000Y82800D01*
X66000D01*
X68500Y85300D02*X66000Y82800D01*
X68500D02*Y85300D01*
X269000Y89500D02*X273000D01*
X269000D02*X270500Y88000D01*
X269000Y86500D01*
X273000D01*
Y83800D02*Y84800D01*
X269000Y84300D02*X273000D01*
X270000Y85300D02*X269000Y84300D01*
M02*
