M48
INCH
T75C0.012
T74C0.020
T73C0.128
T72C0.030
T71C0.043
T70C0.048
T69C0.129
%
T75
X004550Y006750
X004550Y006400
X004900Y006750
X004900Y006400
X005750Y014200
X005750Y013900
X006050Y014200
X006050Y013900
X006650Y014200
X006650Y013900
X006950Y014200
X006950Y013900
X008000Y016000
X008400Y016000
X014000Y009650
X014000Y009300
X015250Y008100
X015250Y007750
X015900Y008650
X015950Y009100
X016028Y008100
X016150Y008400
X016600Y010250
X016650Y000450
X017050Y000450
X024800Y001507
X031550Y012950
X031900Y012950
X033250Y004550
X033465Y012000
X033465Y011685
T74
X006200Y002950
X006200Y002450
X006200Y001950
X006300Y009150
X006800Y009350
X007300Y009800
X007300Y009350
X007800Y009800
X007800Y009350
X007850Y011500
X007850Y011050
X008500Y008050
X008550Y009700
X008550Y009150
X008650Y007600
X008650Y007100
X008800Y014800
X009200Y016800
X009200Y015250
X009450Y011500
X009450Y011050
X009650Y008400
X009900Y015250
X009950Y007400
X010750Y010650
X010800Y009800
X011050Y010250
X011050Y007800
X011050Y007200
X011250Y010800
X011650Y007800
X011650Y007200
X012000Y006050
X012550Y015700
X012550Y015100
X013050Y015700
X013050Y015100
X013500Y015400
X013500Y014800
X013500Y008350
X013500Y007900
X013700Y002510
X013800Y005100
X013800Y004650
X014050Y003700
X014550Y003700
X014550Y002800
X014850Y004650
X014900Y004150
X014900Y002450
X015250Y003500
X015250Y002800
X015450Y002100
X015550Y015200
X015550Y014700
X015600Y004050
X015950Y004500
X015950Y002050
X016050Y015200
X016050Y014700
X016300Y004050
X016300Y002400
X016650Y002750
X017550Y009300
X017550Y008800
X017550Y008300
X017700Y000600
X018050Y001000
X019300Y017000
X019300Y016500
X019300Y016000
X019300Y015500
X019575Y003700
X019650Y011400
X019800Y017000
X019800Y016500
X019800Y016000
X019800Y015500
X020150Y007150
X020150Y006650
X020150Y006150
X020300Y017000
X020300Y016500
X020300Y016000
X020300Y015500
X021050Y001350
X021150Y003800
X021400Y004500
X021650Y014700
X021750Y003400
X021750Y002050
X021900Y009500
X022100Y003050
X022250Y009850
X022350Y014700
X022600Y010200
X022650Y011450
X022650Y011000
X023100Y007400
X023100Y006800
X023200Y001600
X023200Y001100
X023700Y007400
X023700Y006800
X024650Y005850
X025750Y009900
X025750Y006250
X026100Y010250
X026100Y005900
X026450Y009900
X026450Y006250
X026700Y000878
X026800Y010250
X026800Y005900
X027300Y005700
X028051Y011450
X029035Y011450
X029200Y016950
X029200Y016450
X029200Y014950
X029528Y011450
X029700Y016950
X029700Y016450
X029700Y014950
X030200Y016950
X030200Y016450
X030200Y014950
X030512Y011500
X030700Y016950
X030700Y016450
X030700Y014950
X031000Y011500
X031200Y016950
X031200Y016450
X031200Y015950
X031200Y014950
X031400Y011850
X032350Y005200
X032800Y005200
X032972Y011500
T72
X003600Y009750
X003600Y008750
X003600Y007750
X004600Y010250
X004600Y009250
X004600Y008250
T71
X017300Y012200
X017300Y005250
X018300Y012200
X018300Y005250
T70
X002100Y012000
X002100Y010000
X002100Y008000
X002100Y006000
X004400Y013030
X004400Y004370
X005400Y013030
X005400Y004370
X006400Y013030
X006400Y004370
X007400Y013030
X007400Y004370
X008400Y013030
X008400Y004370
X009400Y013030
X009400Y004370
X010400Y013030
X010400Y004370
X011400Y013030
X011400Y004370
X012400Y013030
X012400Y004370
X022800Y013030
X022800Y004370
X023800Y013030
X023800Y004370
X024800Y013030
X024800Y004370
X025800Y013030
X025800Y004370
X026800Y013030
X026800Y004370
X027800Y013030
X027800Y004370
X028800Y013030
X028800Y004370
X029800Y013030
X029800Y004370
X030800Y013030
X030800Y004370
T73
X001100Y011000
X001100Y007000
T69
X001700Y015800
X001700Y001700
X033300Y015800
X033300Y001700
M30
