G04 start of page 3 for group 1 idx 1 *
G04 Title: (unknown), solder *
G04 Creator: pcb 20140316 *
G04 CreationDate: Tue 08 Nov 2016 05:00:26 PM GMT UTC *
G04 For: ndholmes *
G04 Format: Gerber/RS-274X *
G04 PCB-Dimensions (mil): 3500.00 1750.00 *
G04 PCB-Coordinate-Origin: lower left *
%MOIN*%
%FSLAX25Y25*%
%LNBOTTOM*%
%ADD55C,0.0390*%
%ADD54C,0.0450*%
%ADD53C,0.0430*%
%ADD52C,0.0480*%
%ADD51C,0.1285*%
%ADD50C,0.0200*%
%ADD49C,0.0787*%
%ADD48C,0.0650*%
%ADD47C,0.2937*%
%ADD46C,0.0400*%
%ADD45C,0.0800*%
%ADD44C,0.0250*%
%ADD43C,0.0100*%
%ADD42C,0.0001*%
G54D42*G36*
X292490Y173000D02*X314000D01*
Y119500D01*
X292490D01*
Y127100D01*
X292916Y127795D01*
X293000Y127999D01*
X293084Y127795D01*
X293537Y127057D01*
X294099Y126399D01*
X294757Y125837D01*
X295495Y125384D01*
X296295Y125053D01*
X297137Y124851D01*
X298000Y124783D01*
X298863Y124851D01*
X299705Y125053D01*
X300505Y125384D01*
X301243Y125837D01*
X301901Y126399D01*
X302463Y127057D01*
X302916Y127795D01*
X303000Y127999D01*
X303084Y127795D01*
X303537Y127057D01*
X304099Y126399D01*
X304757Y125837D01*
X305495Y125384D01*
X306295Y125053D01*
X307137Y124851D01*
X308000Y124783D01*
X308863Y124851D01*
X309705Y125053D01*
X310505Y125384D01*
X311243Y125837D01*
X311901Y126399D01*
X312463Y127057D01*
X312916Y127795D01*
X313247Y128595D01*
X313449Y129437D01*
X313500Y130300D01*
X313449Y131163D01*
X313247Y132005D01*
X312916Y132805D01*
X312463Y133543D01*
X311901Y134201D01*
X311243Y134763D01*
X310505Y135216D01*
X309705Y135547D01*
X308863Y135749D01*
X308000Y135817D01*
X307137Y135749D01*
X306295Y135547D01*
X305495Y135216D01*
X304757Y134763D01*
X304099Y134201D01*
X303537Y133543D01*
X303084Y132805D01*
X303000Y132601D01*
X302916Y132805D01*
X302463Y133543D01*
X301901Y134201D01*
X301243Y134763D01*
X300505Y135216D01*
X299705Y135547D01*
X298863Y135749D01*
X298000Y135817D01*
X297137Y135749D01*
X296295Y135547D01*
X295495Y135216D01*
X294757Y134763D01*
X294099Y134201D01*
X293537Y133543D01*
X293084Y132805D01*
X293000Y132601D01*
X292916Y132805D01*
X292490Y133500D01*
Y173000D01*
G37*
G36*
X268002D02*X292490D01*
Y133500D01*
X292463Y133543D01*
X291901Y134201D01*
X291243Y134763D01*
X290505Y135216D01*
X289705Y135547D01*
X288863Y135749D01*
X288000Y135817D01*
X287137Y135749D01*
X286295Y135547D01*
X285495Y135216D01*
X284757Y134763D01*
X284099Y134201D01*
X283537Y133543D01*
X283084Y132805D01*
X283000Y132601D01*
X282916Y132805D01*
X282463Y133543D01*
X281901Y134201D01*
X281243Y134763D01*
X280505Y135216D01*
X279705Y135547D01*
X278863Y135749D01*
X278000Y135817D01*
X277137Y135749D01*
X276295Y135547D01*
X275495Y135216D01*
X274757Y134763D01*
X274099Y134201D01*
X273537Y133543D01*
X273084Y132805D01*
X272998Y132596D01*
X272910Y132792D01*
X272849Y132893D01*
X272772Y132984D01*
X272682Y133061D01*
X272580Y133123D01*
X272471Y133169D01*
X272355Y133197D01*
X272237Y133206D01*
X272119Y133197D01*
X272003Y133170D01*
X271893Y133124D01*
X271792Y133062D01*
X271702Y132986D01*
X271624Y132895D01*
X271562Y132794D01*
X271516Y132685D01*
X271489Y132569D01*
X271479Y132451D01*
X271488Y132332D01*
X271516Y132217D01*
X271563Y132108D01*
X271721Y131768D01*
X271842Y131412D01*
X271930Y131047D01*
X271982Y130675D01*
X272000Y130300D01*
X271982Y129925D01*
X271930Y129553D01*
X271842Y129188D01*
X271721Y128832D01*
X271567Y128490D01*
X271520Y128382D01*
X271493Y128267D01*
X271483Y128149D01*
X271493Y128032D01*
X271521Y127917D01*
X271566Y127808D01*
X271628Y127707D01*
X271705Y127618D01*
X271795Y127541D01*
X271895Y127480D01*
X272004Y127435D01*
X272119Y127407D01*
X272237Y127398D01*
X272355Y127408D01*
X272469Y127435D01*
X272578Y127481D01*
X272679Y127543D01*
X272769Y127619D01*
X272845Y127709D01*
X272905Y127811D01*
X272996Y128008D01*
X273084Y127795D01*
X273537Y127057D01*
X274099Y126399D01*
X274757Y125837D01*
X275495Y125384D01*
X276295Y125053D01*
X277137Y124851D01*
X278000Y124783D01*
X278863Y124851D01*
X279705Y125053D01*
X280505Y125384D01*
X281243Y125837D01*
X281901Y126399D01*
X282463Y127057D01*
X282916Y127795D01*
X283000Y127999D01*
X283084Y127795D01*
X283537Y127057D01*
X284099Y126399D01*
X284757Y125837D01*
X285495Y125384D01*
X286295Y125053D01*
X287137Y124851D01*
X288000Y124783D01*
X288863Y124851D01*
X289705Y125053D01*
X290505Y125384D01*
X291243Y125837D01*
X291901Y126399D01*
X292463Y127057D01*
X292490Y127100D01*
Y119500D01*
X268002D01*
Y124794D01*
X268516Y124818D01*
X269028Y124891D01*
X269531Y125011D01*
X270020Y125178D01*
X270492Y125390D01*
X270593Y125451D01*
X270684Y125528D01*
X270761Y125618D01*
X270823Y125720D01*
X270869Y125829D01*
X270897Y125945D01*
X270906Y126063D01*
X270897Y126181D01*
X270870Y126297D01*
X270824Y126407D01*
X270762Y126508D01*
X270686Y126598D01*
X270595Y126676D01*
X270494Y126738D01*
X270385Y126784D01*
X270269Y126811D01*
X270151Y126821D01*
X270032Y126812D01*
X269917Y126784D01*
X269808Y126737D01*
X269468Y126579D01*
X269112Y126458D01*
X268747Y126370D01*
X268375Y126318D01*
X268002Y126300D01*
Y134300D01*
X268375Y134282D01*
X268747Y134230D01*
X269112Y134142D01*
X269468Y134021D01*
X269810Y133867D01*
X269918Y133820D01*
X270033Y133793D01*
X270151Y133783D01*
X270268Y133793D01*
X270383Y133821D01*
X270492Y133866D01*
X270593Y133928D01*
X270682Y134005D01*
X270759Y134095D01*
X270820Y134195D01*
X270865Y134304D01*
X270893Y134419D01*
X270902Y134537D01*
X270892Y134655D01*
X270865Y134769D01*
X270819Y134878D01*
X270757Y134979D01*
X270681Y135069D01*
X270591Y135145D01*
X270489Y135205D01*
X270020Y135422D01*
X269531Y135589D01*
X269028Y135709D01*
X268516Y135782D01*
X268002Y135806D01*
Y173000D01*
G37*
G36*
X263000D02*X268002D01*
Y135806D01*
X268000Y135806D01*
X267484Y135782D01*
X266972Y135709D01*
X266469Y135589D01*
X265980Y135422D01*
X265508Y135210D01*
X265407Y135149D01*
X265316Y135072D01*
X265239Y134982D01*
X265177Y134880D01*
X265131Y134771D01*
X265103Y134655D01*
X265094Y134537D01*
X265103Y134419D01*
X265130Y134303D01*
X265176Y134193D01*
X265238Y134092D01*
X265314Y134002D01*
X265405Y133924D01*
X265506Y133862D01*
X265615Y133816D01*
X265731Y133789D01*
X265849Y133779D01*
X265968Y133788D01*
X266083Y133816D01*
X266192Y133863D01*
X266532Y134021D01*
X266888Y134142D01*
X267253Y134230D01*
X267625Y134282D01*
X268000Y134300D01*
X268002Y134300D01*
Y126300D01*
X268000Y126300D01*
X267625Y126318D01*
X267253Y126370D01*
X266888Y126458D01*
X266532Y126579D01*
X266190Y126733D01*
X266082Y126780D01*
X265967Y126807D01*
X265849Y126817D01*
X265732Y126807D01*
X265617Y126779D01*
X265508Y126734D01*
X265407Y126672D01*
X265318Y126595D01*
X265241Y126505D01*
X265180Y126405D01*
X265135Y126296D01*
X265107Y126181D01*
X265098Y126063D01*
X265108Y125945D01*
X265135Y125831D01*
X265181Y125722D01*
X265243Y125621D01*
X265319Y125531D01*
X265409Y125455D01*
X265511Y125395D01*
X265980Y125178D01*
X266469Y125011D01*
X266972Y124891D01*
X267484Y124818D01*
X268000Y124794D01*
X268002Y124794D01*
Y119500D01*
X263000D01*
Y128008D01*
X263090Y127808D01*
X263151Y127707D01*
X263228Y127616D01*
X263318Y127539D01*
X263420Y127477D01*
X263529Y127431D01*
X263645Y127403D01*
X263763Y127394D01*
X263881Y127403D01*
X263997Y127430D01*
X264107Y127476D01*
X264208Y127538D01*
X264298Y127614D01*
X264376Y127705D01*
X264438Y127806D01*
X264484Y127915D01*
X264511Y128031D01*
X264521Y128149D01*
X264512Y128268D01*
X264484Y128383D01*
X264437Y128492D01*
X264279Y128832D01*
X264158Y129188D01*
X264070Y129553D01*
X264018Y129925D01*
X264000Y130300D01*
X264018Y130675D01*
X264070Y131047D01*
X264158Y131412D01*
X264279Y131768D01*
X264433Y132110D01*
X264480Y132218D01*
X264507Y132333D01*
X264517Y132451D01*
X264507Y132568D01*
X264479Y132683D01*
X264434Y132792D01*
X264372Y132893D01*
X264295Y132982D01*
X264205Y133059D01*
X264105Y133120D01*
X263996Y133165D01*
X263881Y133193D01*
X263763Y133202D01*
X263645Y133192D01*
X263531Y133165D01*
X263422Y133119D01*
X263321Y133057D01*
X263231Y132981D01*
X263155Y132891D01*
X263095Y132789D01*
X263002Y132587D01*
X263000Y132592D01*
Y173000D01*
G37*
G36*
X258002D02*X263000D01*
Y132592D01*
X262910Y132792D01*
X262849Y132893D01*
X262772Y132984D01*
X262682Y133061D01*
X262580Y133123D01*
X262471Y133169D01*
X262355Y133197D01*
X262237Y133206D01*
X262119Y133197D01*
X262003Y133170D01*
X261893Y133124D01*
X261792Y133062D01*
X261702Y132986D01*
X261624Y132895D01*
X261562Y132794D01*
X261516Y132685D01*
X261489Y132569D01*
X261479Y132451D01*
X261488Y132332D01*
X261516Y132217D01*
X261563Y132108D01*
X261721Y131768D01*
X261842Y131412D01*
X261930Y131047D01*
X261982Y130675D01*
X262000Y130300D01*
X261982Y129925D01*
X261930Y129553D01*
X261842Y129188D01*
X261721Y128832D01*
X261567Y128490D01*
X261520Y128382D01*
X261493Y128267D01*
X261483Y128149D01*
X261493Y128032D01*
X261521Y127917D01*
X261566Y127808D01*
X261628Y127707D01*
X261705Y127618D01*
X261795Y127541D01*
X261895Y127480D01*
X262004Y127435D01*
X262119Y127407D01*
X262237Y127398D01*
X262355Y127408D01*
X262469Y127435D01*
X262578Y127481D01*
X262679Y127543D01*
X262769Y127619D01*
X262845Y127709D01*
X262905Y127811D01*
X262998Y128013D01*
X263000Y128008D01*
Y119500D01*
X258002D01*
Y124794D01*
X258516Y124818D01*
X259028Y124891D01*
X259531Y125011D01*
X260020Y125178D01*
X260492Y125390D01*
X260593Y125451D01*
X260684Y125528D01*
X260761Y125618D01*
X260823Y125720D01*
X260869Y125829D01*
X260897Y125945D01*
X260906Y126063D01*
X260897Y126181D01*
X260870Y126297D01*
X260824Y126407D01*
X260762Y126508D01*
X260686Y126598D01*
X260595Y126676D01*
X260494Y126738D01*
X260385Y126784D01*
X260269Y126811D01*
X260151Y126821D01*
X260032Y126812D01*
X259917Y126784D01*
X259808Y126737D01*
X259468Y126579D01*
X259112Y126458D01*
X258747Y126370D01*
X258375Y126318D01*
X258002Y126300D01*
Y134300D01*
X258375Y134282D01*
X258747Y134230D01*
X259112Y134142D01*
X259468Y134021D01*
X259810Y133867D01*
X259918Y133820D01*
X260033Y133793D01*
X260151Y133783D01*
X260268Y133793D01*
X260383Y133821D01*
X260492Y133866D01*
X260593Y133928D01*
X260682Y134005D01*
X260759Y134095D01*
X260820Y134195D01*
X260865Y134304D01*
X260893Y134419D01*
X260902Y134537D01*
X260892Y134655D01*
X260865Y134769D01*
X260819Y134878D01*
X260757Y134979D01*
X260681Y135069D01*
X260591Y135145D01*
X260489Y135205D01*
X260020Y135422D01*
X259531Y135589D01*
X259028Y135709D01*
X258516Y135782D01*
X258002Y135806D01*
Y173000D01*
G37*
G36*
X238502D02*X258002D01*
Y135806D01*
X258000Y135806D01*
X257484Y135782D01*
X256972Y135709D01*
X256469Y135589D01*
X255980Y135422D01*
X255508Y135210D01*
X255407Y135149D01*
X255316Y135072D01*
X255239Y134982D01*
X255177Y134880D01*
X255131Y134771D01*
X255103Y134655D01*
X255094Y134537D01*
X255103Y134419D01*
X255130Y134303D01*
X255176Y134193D01*
X255238Y134092D01*
X255314Y134002D01*
X255405Y133924D01*
X255506Y133862D01*
X255615Y133816D01*
X255731Y133789D01*
X255849Y133779D01*
X255968Y133788D01*
X256083Y133816D01*
X256192Y133863D01*
X256532Y134021D01*
X256888Y134142D01*
X257253Y134230D01*
X257625Y134282D01*
X258000Y134300D01*
X258002Y134300D01*
Y126300D01*
X258000Y126300D01*
X257625Y126318D01*
X257253Y126370D01*
X256888Y126458D01*
X256532Y126579D01*
X256190Y126733D01*
X256082Y126780D01*
X255967Y126807D01*
X255849Y126817D01*
X255732Y126807D01*
X255617Y126779D01*
X255508Y126734D01*
X255407Y126672D01*
X255318Y126595D01*
X255241Y126505D01*
X255180Y126405D01*
X255135Y126296D01*
X255107Y126181D01*
X255098Y126063D01*
X255108Y125945D01*
X255135Y125831D01*
X255181Y125722D01*
X255243Y125621D01*
X255319Y125531D01*
X255409Y125455D01*
X255511Y125395D01*
X255980Y125178D01*
X256469Y125011D01*
X256972Y124891D01*
X257484Y124818D01*
X258000Y124794D01*
X258002Y124794D01*
Y119500D01*
X238502D01*
Y124823D01*
X238863Y124851D01*
X239705Y125053D01*
X240505Y125384D01*
X241243Y125837D01*
X241901Y126399D01*
X242463Y127057D01*
X242916Y127795D01*
X243000Y127999D01*
X243084Y127795D01*
X243537Y127057D01*
X244099Y126399D01*
X244757Y125837D01*
X245495Y125384D01*
X246295Y125053D01*
X247137Y124851D01*
X248000Y124783D01*
X248863Y124851D01*
X249705Y125053D01*
X250505Y125384D01*
X251243Y125837D01*
X251901Y126399D01*
X252463Y127057D01*
X252916Y127795D01*
X253002Y128004D01*
X253090Y127808D01*
X253151Y127707D01*
X253228Y127616D01*
X253318Y127539D01*
X253420Y127477D01*
X253529Y127431D01*
X253645Y127403D01*
X253763Y127394D01*
X253881Y127403D01*
X253997Y127430D01*
X254107Y127476D01*
X254208Y127538D01*
X254298Y127614D01*
X254376Y127705D01*
X254438Y127806D01*
X254484Y127915D01*
X254511Y128031D01*
X254521Y128149D01*
X254512Y128268D01*
X254484Y128383D01*
X254437Y128492D01*
X254279Y128832D01*
X254158Y129188D01*
X254070Y129553D01*
X254018Y129925D01*
X254000Y130300D01*
X254018Y130675D01*
X254070Y131047D01*
X254158Y131412D01*
X254279Y131768D01*
X254433Y132110D01*
X254480Y132218D01*
X254507Y132333D01*
X254517Y132451D01*
X254507Y132568D01*
X254479Y132683D01*
X254434Y132792D01*
X254372Y132893D01*
X254295Y132982D01*
X254205Y133059D01*
X254105Y133120D01*
X253996Y133165D01*
X253881Y133193D01*
X253763Y133202D01*
X253645Y133192D01*
X253531Y133165D01*
X253422Y133119D01*
X253321Y133057D01*
X253231Y132981D01*
X253155Y132891D01*
X253095Y132789D01*
X253004Y132592D01*
X252916Y132805D01*
X252463Y133543D01*
X251901Y134201D01*
X251243Y134763D01*
X250505Y135216D01*
X249705Y135547D01*
X248863Y135749D01*
X248000Y135817D01*
X247137Y135749D01*
X246295Y135547D01*
X245495Y135216D01*
X244757Y134763D01*
X244099Y134201D01*
X243537Y133543D01*
X243084Y132805D01*
X243000Y132601D01*
X242916Y132805D01*
X242463Y133543D01*
X241901Y134201D01*
X241243Y134763D01*
X240505Y135216D01*
X239705Y135547D01*
X238863Y135749D01*
X238502Y135777D01*
Y173000D01*
G37*
G36*
X186832D02*X238502D01*
Y135777D01*
X238000Y135817D01*
X237137Y135749D01*
X236295Y135547D01*
X235495Y135216D01*
X234757Y134763D01*
X234099Y134201D01*
X233537Y133543D01*
X233084Y132805D01*
X233000Y132601D01*
X232916Y132805D01*
X232463Y133543D01*
X231901Y134201D01*
X231243Y134763D01*
X230505Y135216D01*
X229705Y135547D01*
X228863Y135749D01*
X228000Y135817D01*
X227137Y135749D01*
X226295Y135547D01*
X225495Y135216D01*
X224757Y134763D01*
X224099Y134201D01*
X223537Y133543D01*
X223084Y132805D01*
X222753Y132005D01*
X222551Y131163D01*
X222483Y130300D01*
X222551Y129437D01*
X222753Y128595D01*
X223084Y127795D01*
X223537Y127057D01*
X224099Y126399D01*
X224757Y125837D01*
X225495Y125384D01*
X226295Y125053D01*
X227137Y124851D01*
X228000Y124783D01*
X228863Y124851D01*
X229705Y125053D01*
X230505Y125384D01*
X231243Y125837D01*
X231901Y126399D01*
X232463Y127057D01*
X232916Y127795D01*
X233000Y127999D01*
X233084Y127795D01*
X233537Y127057D01*
X234099Y126399D01*
X234757Y125837D01*
X235495Y125384D01*
X236295Y125053D01*
X237137Y124851D01*
X238000Y124783D01*
X238502Y124823D01*
Y119500D01*
X186832D01*
Y119670D01*
X186943Y119704D01*
X187050Y119756D01*
X187146Y119823D01*
X187231Y119905D01*
X187302Y120000D01*
X187356Y120105D01*
X187515Y120508D01*
X187632Y120925D01*
X187711Y121352D01*
X187750Y121783D01*
Y122217D01*
X187711Y122648D01*
X187632Y123075D01*
X187515Y123492D01*
X187360Y123897D01*
X187305Y124002D01*
X187234Y124097D01*
X187148Y124179D01*
X187051Y124247D01*
X186945Y124299D01*
X186832Y124334D01*
Y173000D01*
G37*
G36*
X182998D02*X186832D01*
Y124334D01*
X186831Y124334D01*
X186714Y124350D01*
X186595Y124348D01*
X186478Y124327D01*
X186366Y124289D01*
X186262Y124233D01*
X186167Y124162D01*
X186085Y124076D01*
X186017Y123979D01*
X185965Y123873D01*
X185930Y123759D01*
X185914Y123642D01*
X185916Y123523D01*
X185936Y123407D01*
X185977Y123295D01*
X186086Y123020D01*
X186166Y122735D01*
X186220Y122443D01*
X186247Y122148D01*
Y121852D01*
X186220Y121557D01*
X186166Y121265D01*
X186086Y120980D01*
X185980Y120703D01*
X185940Y120593D01*
X185919Y120476D01*
X185917Y120358D01*
X185933Y120241D01*
X185968Y120129D01*
X186020Y120022D01*
X186087Y119926D01*
X186169Y119841D01*
X186263Y119770D01*
X186368Y119714D01*
X186479Y119676D01*
X186596Y119655D01*
X186714Y119653D01*
X186830Y119670D01*
X186832Y119670D01*
Y119500D01*
X182998D01*
Y125247D01*
X183148D01*
X183443Y125220D01*
X183735Y125166D01*
X184020Y125086D01*
X184297Y124980D01*
X184407Y124940D01*
X184524Y124919D01*
X184642Y124917D01*
X184759Y124933D01*
X184871Y124968D01*
X184978Y125020D01*
X185074Y125087D01*
X185159Y125169D01*
X185230Y125263D01*
X185286Y125368D01*
X185324Y125479D01*
X185345Y125596D01*
X185347Y125714D01*
X185330Y125830D01*
X185296Y125943D01*
X185244Y126050D01*
X185177Y126146D01*
X185095Y126231D01*
X185000Y126302D01*
X184895Y126356D01*
X184492Y126515D01*
X184075Y126632D01*
X183648Y126711D01*
X183217Y126750D01*
X182998D01*
Y173000D01*
G37*
G36*
X179168D02*X182998D01*
Y126750D01*
X182783D01*
X182352Y126711D01*
X181925Y126632D01*
X181508Y126515D01*
X181103Y126360D01*
X180998Y126305D01*
X180903Y126234D01*
X180821Y126148D01*
X180753Y126051D01*
X180701Y125945D01*
X180666Y125831D01*
X180650Y125714D01*
X180652Y125595D01*
X180673Y125478D01*
X180711Y125366D01*
X180767Y125262D01*
X180838Y125167D01*
X180924Y125085D01*
X181021Y125017D01*
X181127Y124965D01*
X181241Y124930D01*
X181358Y124914D01*
X181477Y124916D01*
X181593Y124936D01*
X181705Y124977D01*
X181980Y125086D01*
X182265Y125166D01*
X182557Y125220D01*
X182852Y125247D01*
X182998D01*
Y119500D01*
X179168D01*
Y119666D01*
X179169Y119666D01*
X179286Y119650D01*
X179405Y119652D01*
X179522Y119673D01*
X179634Y119711D01*
X179738Y119767D01*
X179833Y119838D01*
X179915Y119924D01*
X179983Y120021D01*
X180035Y120127D01*
X180070Y120241D01*
X180086Y120358D01*
X180084Y120477D01*
X180064Y120594D01*
X180023Y120705D01*
X179914Y120980D01*
X179834Y121265D01*
X179780Y121557D01*
X179753Y121852D01*
Y122148D01*
X179780Y122443D01*
X179834Y122735D01*
X179914Y123020D01*
X180020Y123297D01*
X180060Y123407D01*
X180081Y123524D01*
X180083Y123642D01*
X180067Y123759D01*
X180032Y123871D01*
X179980Y123978D01*
X179913Y124074D01*
X179831Y124159D01*
X179737Y124230D01*
X179632Y124286D01*
X179521Y124324D01*
X179404Y124345D01*
X179286Y124347D01*
X179170Y124330D01*
X179168Y124330D01*
Y173000D01*
G37*
G36*
X101995D02*X179168D01*
Y124330D01*
X179057Y124296D01*
X178950Y124244D01*
X178854Y124177D01*
X178769Y124095D01*
X178698Y124000D01*
X178644Y123895D01*
X178485Y123492D01*
X178368Y123075D01*
X178289Y122648D01*
X178250Y122217D01*
Y121783D01*
X178289Y121352D01*
X178368Y120925D01*
X178485Y120508D01*
X178640Y120103D01*
X178695Y119998D01*
X178766Y119903D01*
X178852Y119821D01*
X178949Y119753D01*
X179055Y119701D01*
X179168Y119666D01*
Y119500D01*
X177748D01*
X177736Y125485D01*
X177681Y125715D01*
X177591Y125933D01*
X177467Y126134D01*
X177314Y126314D01*
X177134Y126467D01*
X176933Y126591D01*
X176715Y126681D01*
X176485Y126736D01*
X176250Y126750D01*
X169515Y126736D01*
X169285Y126681D01*
X169067Y126591D01*
X168866Y126467D01*
X168686Y126314D01*
X168533Y126134D01*
X168409Y125933D01*
X168319Y125715D01*
X168264Y125485D01*
X168250Y125250D01*
X168262Y119500D01*
X101995D01*
Y125177D01*
X102295Y125053D01*
X103137Y124851D01*
X104000Y124783D01*
X104863Y124851D01*
X105705Y125053D01*
X106505Y125384D01*
X107243Y125837D01*
X107901Y126399D01*
X108463Y127057D01*
X108916Y127795D01*
X109000Y127999D01*
X109084Y127795D01*
X109537Y127057D01*
X110099Y126399D01*
X110757Y125837D01*
X111495Y125384D01*
X112295Y125053D01*
X113137Y124851D01*
X114000Y124783D01*
X114863Y124851D01*
X115705Y125053D01*
X116505Y125384D01*
X117243Y125837D01*
X117901Y126399D01*
X118463Y127057D01*
X118916Y127795D01*
X119000Y127999D01*
X119084Y127795D01*
X119537Y127057D01*
X120099Y126399D01*
X120757Y125837D01*
X121495Y125384D01*
X122295Y125053D01*
X123137Y124851D01*
X124000Y124783D01*
X124863Y124851D01*
X125705Y125053D01*
X126505Y125384D01*
X127243Y125837D01*
X127901Y126399D01*
X128463Y127057D01*
X128916Y127795D01*
X129247Y128595D01*
X129449Y129437D01*
X129500Y130300D01*
X129449Y131163D01*
X129247Y132005D01*
X128916Y132805D01*
X128463Y133543D01*
X127901Y134201D01*
X127243Y134763D01*
X126505Y135216D01*
X125705Y135547D01*
X124863Y135749D01*
X124000Y135817D01*
X123137Y135749D01*
X122295Y135547D01*
X121495Y135216D01*
X120757Y134763D01*
X120099Y134201D01*
X119537Y133543D01*
X119084Y132805D01*
X119000Y132601D01*
X118916Y132805D01*
X118463Y133543D01*
X117901Y134201D01*
X117243Y134763D01*
X116505Y135216D01*
X115705Y135547D01*
X114863Y135749D01*
X114000Y135817D01*
X113137Y135749D01*
X112295Y135547D01*
X111495Y135216D01*
X110757Y134763D01*
X110099Y134201D01*
X109537Y133543D01*
X109084Y132805D01*
X109000Y132601D01*
X108916Y132805D01*
X108463Y133543D01*
X107901Y134201D01*
X107243Y134763D01*
X106505Y135216D01*
X105705Y135547D01*
X104863Y135749D01*
X104000Y135817D01*
X103137Y135749D01*
X102295Y135547D01*
X101995Y135423D01*
Y157041D01*
X102000Y157041D01*
X102463Y157077D01*
X102914Y157186D01*
X103343Y157363D01*
X103739Y157606D01*
X104092Y157908D01*
X104394Y158261D01*
X104637Y158657D01*
X104814Y159086D01*
X104923Y159537D01*
X104950Y160000D01*
X104923Y160463D01*
X104814Y160914D01*
X104637Y161343D01*
X104394Y161739D01*
X104092Y162092D01*
X103739Y162394D01*
X103343Y162637D01*
X102914Y162814D01*
X102463Y162923D01*
X102000Y162959D01*
X101995Y162959D01*
Y173000D01*
G37*
G36*
X82995D02*X101995D01*
Y162959D01*
X101537Y162923D01*
X101086Y162814D01*
X100657Y162637D01*
X100261Y162394D01*
X99908Y162092D01*
X99606Y161739D01*
X99363Y161343D01*
X99186Y160914D01*
X99077Y160463D01*
X99041Y160000D01*
X99077Y159537D01*
X99186Y159086D01*
X99363Y158657D01*
X99606Y158261D01*
X99908Y157908D01*
X100261Y157606D01*
X100657Y157363D01*
X101086Y157186D01*
X101537Y157077D01*
X101995Y157041D01*
Y135423D01*
X101495Y135216D01*
X100757Y134763D01*
X100099Y134201D01*
X99537Y133543D01*
X99084Y132805D01*
X99000Y132601D01*
X98916Y132805D01*
X98463Y133543D01*
X97901Y134201D01*
X97243Y134763D01*
X96505Y135216D01*
X95705Y135547D01*
X94863Y135749D01*
X94000Y135817D01*
X93137Y135749D01*
X92295Y135547D01*
X91495Y135216D01*
X90757Y134763D01*
X90099Y134201D01*
X89537Y133543D01*
X89084Y132805D01*
X88998Y132596D01*
X88910Y132792D01*
X88849Y132893D01*
X88772Y132984D01*
X88682Y133061D01*
X88580Y133123D01*
X88471Y133169D01*
X88355Y133197D01*
X88237Y133206D01*
X88119Y133197D01*
X88003Y133170D01*
X87893Y133124D01*
X87792Y133062D01*
X87702Y132986D01*
X87624Y132895D01*
X87562Y132794D01*
X87516Y132685D01*
X87489Y132569D01*
X87479Y132451D01*
X87488Y132332D01*
X87516Y132217D01*
X87563Y132108D01*
X87721Y131768D01*
X87842Y131412D01*
X87930Y131047D01*
X87982Y130675D01*
X88000Y130300D01*
X87982Y129925D01*
X87930Y129553D01*
X87842Y129188D01*
X87721Y128832D01*
X87567Y128490D01*
X87520Y128382D01*
X87493Y128267D01*
X87483Y128149D01*
X87493Y128032D01*
X87521Y127917D01*
X87566Y127808D01*
X87628Y127707D01*
X87705Y127618D01*
X87795Y127541D01*
X87895Y127480D01*
X88004Y127435D01*
X88119Y127407D01*
X88237Y127398D01*
X88355Y127408D01*
X88469Y127435D01*
X88578Y127481D01*
X88679Y127543D01*
X88769Y127619D01*
X88845Y127709D01*
X88905Y127811D01*
X88996Y128008D01*
X89084Y127795D01*
X89537Y127057D01*
X90099Y126399D01*
X90757Y125837D01*
X91495Y125384D01*
X92295Y125053D01*
X93137Y124851D01*
X94000Y124783D01*
X94863Y124851D01*
X95705Y125053D01*
X96505Y125384D01*
X97243Y125837D01*
X97901Y126399D01*
X98463Y127057D01*
X98916Y127795D01*
X99000Y127999D01*
X99084Y127795D01*
X99537Y127057D01*
X100099Y126399D01*
X100757Y125837D01*
X101495Y125384D01*
X101995Y125177D01*
Y119500D01*
X82995D01*
Y124887D01*
X83484Y124818D01*
X84000Y124794D01*
X84516Y124818D01*
X85028Y124891D01*
X85531Y125011D01*
X86020Y125178D01*
X86492Y125390D01*
X86593Y125451D01*
X86684Y125528D01*
X86761Y125618D01*
X86823Y125720D01*
X86869Y125829D01*
X86897Y125945D01*
X86906Y126063D01*
X86897Y126181D01*
X86870Y126297D01*
X86824Y126407D01*
X86762Y126508D01*
X86686Y126598D01*
X86595Y126676D01*
X86494Y126738D01*
X86385Y126784D01*
X86269Y126811D01*
X86151Y126821D01*
X86032Y126812D01*
X85917Y126784D01*
X85808Y126737D01*
X85468Y126579D01*
X85112Y126458D01*
X84747Y126370D01*
X84375Y126318D01*
X84000Y126300D01*
X83625Y126318D01*
X83253Y126370D01*
X82995Y126432D01*
Y134168D01*
X83253Y134230D01*
X83625Y134282D01*
X84000Y134300D01*
X84375Y134282D01*
X84747Y134230D01*
X85112Y134142D01*
X85468Y134021D01*
X85810Y133867D01*
X85918Y133820D01*
X86033Y133793D01*
X86151Y133783D01*
X86268Y133793D01*
X86383Y133821D01*
X86492Y133866D01*
X86593Y133928D01*
X86682Y134005D01*
X86759Y134095D01*
X86820Y134195D01*
X86865Y134304D01*
X86893Y134419D01*
X86902Y134537D01*
X86892Y134655D01*
X86865Y134769D01*
X86819Y134878D01*
X86757Y134979D01*
X86681Y135069D01*
X86591Y135145D01*
X86489Y135205D01*
X86020Y135422D01*
X85531Y135589D01*
X85028Y135709D01*
X84516Y135782D01*
X84000Y135806D01*
X83484Y135782D01*
X82995Y135713D01*
Y153219D01*
X83343Y153363D01*
X83739Y153606D01*
X84092Y153908D01*
X84394Y154261D01*
X84637Y154657D01*
X84814Y155086D01*
X84923Y155537D01*
X84950Y156000D01*
X84923Y156463D01*
X84814Y156914D01*
X84637Y157343D01*
X84394Y157739D01*
X84092Y158092D01*
X83739Y158394D01*
X83343Y158637D01*
X82995Y158781D01*
Y161219D01*
X83343Y161363D01*
X83739Y161606D01*
X84092Y161908D01*
X84394Y162261D01*
X84637Y162657D01*
X84814Y163086D01*
X84923Y163537D01*
X84950Y164000D01*
X84923Y164463D01*
X84814Y164914D01*
X84637Y165343D01*
X84394Y165739D01*
X84092Y166092D01*
X83739Y166394D01*
X83566Y166500D01*
X84401D01*
X84565Y166231D01*
X84872Y165872D01*
X85231Y165565D01*
X85634Y165319D01*
X86070Y165138D01*
X86529Y165028D01*
X87000Y164991D01*
X87471Y165028D01*
X87930Y165138D01*
X88366Y165319D01*
X88769Y165565D01*
X89128Y165872D01*
X89435Y166231D01*
X89500Y166338D01*
X89565Y166231D01*
X89872Y165872D01*
X90231Y165565D01*
X90500Y165401D01*
Y153599D01*
X90231Y153435D01*
X89872Y153128D01*
X89565Y152769D01*
X89319Y152366D01*
X89138Y151930D01*
X89028Y151471D01*
X88991Y151000D01*
X89028Y150529D01*
X89138Y150070D01*
X89319Y149634D01*
X89565Y149231D01*
X89872Y148872D01*
X90231Y148565D01*
X90634Y148319D01*
X91070Y148138D01*
X91529Y148028D01*
X92000Y147991D01*
X92471Y148028D01*
X92930Y148138D01*
X93366Y148319D01*
X93769Y148565D01*
X94128Y148872D01*
X94435Y149231D01*
X94681Y149634D01*
X94862Y150070D01*
X94972Y150529D01*
X95000Y151000D01*
X94972Y151471D01*
X94862Y151930D01*
X94681Y152366D01*
X94435Y152769D01*
X94128Y153128D01*
X93769Y153435D01*
X93500Y153599D01*
Y165401D01*
X93769Y165565D01*
X94128Y165872D01*
X94435Y166231D01*
X94681Y166634D01*
X94862Y167070D01*
X94972Y167529D01*
X95000Y168000D01*
X94972Y168471D01*
X94862Y168930D01*
X94681Y169366D01*
X94435Y169769D01*
X94128Y170128D01*
X93769Y170435D01*
X93366Y170681D01*
X92930Y170862D01*
X92471Y170972D01*
X92000Y171009D01*
X91529Y170972D01*
X91070Y170862D01*
X90634Y170681D01*
X90231Y170435D01*
X89872Y170128D01*
X89565Y169769D01*
X89500Y169662D01*
X89435Y169769D01*
X89128Y170128D01*
X88769Y170435D01*
X88366Y170681D01*
X87930Y170862D01*
X87471Y170972D01*
X87000Y171009D01*
X86529Y170972D01*
X86070Y170862D01*
X85634Y170681D01*
X85231Y170435D01*
X84872Y170128D01*
X84565Y169769D01*
X84401Y169500D01*
X82995D01*
Y173000D01*
G37*
G36*
X79000Y166500D02*X80434D01*
X80261Y166394D01*
X79908Y166092D01*
X79606Y165739D01*
X79363Y165343D01*
X79186Y164914D01*
X79077Y164463D01*
X79041Y164000D01*
X79077Y163537D01*
X79186Y163086D01*
X79363Y162657D01*
X79606Y162261D01*
X79908Y161908D01*
X80261Y161606D01*
X80657Y161363D01*
X81086Y161186D01*
X81537Y161077D01*
X82000Y161041D01*
X82463Y161077D01*
X82914Y161186D01*
X82995Y161219D01*
Y158781D01*
X82914Y158814D01*
X82463Y158923D01*
X82000Y158959D01*
X81537Y158923D01*
X81086Y158814D01*
X80657Y158637D01*
X80261Y158394D01*
X79908Y158092D01*
X79606Y157739D01*
X79363Y157343D01*
X79186Y156914D01*
X79077Y156463D01*
X79041Y156000D01*
X79077Y155537D01*
X79186Y155086D01*
X79363Y154657D01*
X79606Y154261D01*
X79908Y153908D01*
X80261Y153606D01*
X80657Y153363D01*
X81086Y153186D01*
X81537Y153077D01*
X82000Y153041D01*
X82463Y153077D01*
X82914Y153186D01*
X82995Y153219D01*
Y135713D01*
X82972Y135709D01*
X82469Y135589D01*
X81980Y135422D01*
X81508Y135210D01*
X81407Y135149D01*
X81316Y135072D01*
X81239Y134982D01*
X81177Y134880D01*
X81131Y134771D01*
X81103Y134655D01*
X81094Y134537D01*
X81103Y134419D01*
X81130Y134303D01*
X81176Y134193D01*
X81238Y134092D01*
X81314Y134002D01*
X81405Y133924D01*
X81506Y133862D01*
X81615Y133816D01*
X81731Y133789D01*
X81849Y133779D01*
X81968Y133788D01*
X82083Y133816D01*
X82192Y133863D01*
X82532Y134021D01*
X82888Y134142D01*
X82995Y134168D01*
Y126432D01*
X82888Y126458D01*
X82532Y126579D01*
X82190Y126733D01*
X82082Y126780D01*
X81967Y126807D01*
X81849Y126817D01*
X81732Y126807D01*
X81617Y126779D01*
X81508Y126734D01*
X81407Y126672D01*
X81318Y126595D01*
X81241Y126505D01*
X81180Y126405D01*
X81135Y126296D01*
X81107Y126181D01*
X81098Y126063D01*
X81108Y125945D01*
X81135Y125831D01*
X81181Y125722D01*
X81243Y125621D01*
X81319Y125531D01*
X81409Y125455D01*
X81511Y125395D01*
X81980Y125178D01*
X82469Y125011D01*
X82972Y124891D01*
X82995Y124887D01*
Y119500D01*
X79000D01*
Y128008D01*
X79090Y127808D01*
X79151Y127707D01*
X79228Y127616D01*
X79318Y127539D01*
X79420Y127477D01*
X79529Y127431D01*
X79645Y127403D01*
X79763Y127394D01*
X79881Y127403D01*
X79997Y127430D01*
X80107Y127476D01*
X80208Y127538D01*
X80298Y127614D01*
X80376Y127705D01*
X80438Y127806D01*
X80484Y127915D01*
X80511Y128031D01*
X80521Y128149D01*
X80512Y128268D01*
X80484Y128383D01*
X80437Y128492D01*
X80279Y128832D01*
X80158Y129188D01*
X80070Y129553D01*
X80018Y129925D01*
X80000Y130300D01*
X80018Y130675D01*
X80070Y131047D01*
X80158Y131412D01*
X80279Y131768D01*
X80433Y132110D01*
X80480Y132218D01*
X80507Y132333D01*
X80517Y132451D01*
X80507Y132568D01*
X80479Y132683D01*
X80434Y132792D01*
X80372Y132893D01*
X80295Y132982D01*
X80205Y133059D01*
X80105Y133120D01*
X79996Y133165D01*
X79881Y133193D01*
X79763Y133202D01*
X79645Y133192D01*
X79531Y133165D01*
X79422Y133119D01*
X79321Y133057D01*
X79231Y132981D01*
X79155Y132891D01*
X79095Y132789D01*
X79002Y132587D01*
X79000Y132592D01*
Y166500D01*
G37*
G36*
Y173000D02*X82995D01*
Y169500D01*
X79000D01*
Y173000D01*
G37*
G36*
X74002Y138491D02*X74471Y138528D01*
X74930Y138638D01*
X75366Y138819D01*
X75769Y139065D01*
X76128Y139372D01*
X76435Y139731D01*
X76681Y140134D01*
X76862Y140570D01*
X76972Y141029D01*
X77000Y141500D01*
X76972Y141971D01*
X76862Y142430D01*
X76681Y142866D01*
X76435Y143269D01*
X76128Y143628D01*
X75769Y143935D01*
X75500Y144099D01*
Y148401D01*
X75769Y148565D01*
X76128Y148872D01*
X76435Y149231D01*
X76681Y149634D01*
X76862Y150070D01*
X76972Y150529D01*
X77000Y151000D01*
X76972Y151471D01*
X76862Y151930D01*
X76681Y152366D01*
X76435Y152769D01*
X76128Y153128D01*
X75769Y153435D01*
X75500Y153599D01*
Y164379D01*
X77621Y166500D01*
X79000D01*
Y132592D01*
X78910Y132792D01*
X78849Y132893D01*
X78772Y132984D01*
X78682Y133061D01*
X78580Y133123D01*
X78471Y133169D01*
X78355Y133197D01*
X78237Y133206D01*
X78119Y133197D01*
X78003Y133170D01*
X77893Y133124D01*
X77792Y133062D01*
X77702Y132986D01*
X77624Y132895D01*
X77562Y132794D01*
X77516Y132685D01*
X77489Y132569D01*
X77479Y132451D01*
X77488Y132332D01*
X77516Y132217D01*
X77563Y132108D01*
X77721Y131768D01*
X77842Y131412D01*
X77930Y131047D01*
X77982Y130675D01*
X78000Y130300D01*
X77982Y129925D01*
X77930Y129553D01*
X77842Y129188D01*
X77721Y128832D01*
X77567Y128490D01*
X77520Y128382D01*
X77493Y128267D01*
X77483Y128149D01*
X77493Y128032D01*
X77521Y127917D01*
X77566Y127808D01*
X77628Y127707D01*
X77705Y127618D01*
X77795Y127541D01*
X77895Y127480D01*
X78004Y127435D01*
X78119Y127407D01*
X78237Y127398D01*
X78355Y127408D01*
X78469Y127435D01*
X78578Y127481D01*
X78679Y127543D01*
X78769Y127619D01*
X78845Y127709D01*
X78905Y127811D01*
X78998Y128013D01*
X79000Y128008D01*
Y119500D01*
X74002D01*
Y124794D01*
X74516Y124818D01*
X75028Y124891D01*
X75531Y125011D01*
X76020Y125178D01*
X76492Y125390D01*
X76593Y125451D01*
X76684Y125528D01*
X76761Y125618D01*
X76823Y125720D01*
X76869Y125829D01*
X76897Y125945D01*
X76906Y126063D01*
X76897Y126181D01*
X76870Y126297D01*
X76824Y126407D01*
X76762Y126508D01*
X76686Y126598D01*
X76595Y126676D01*
X76494Y126738D01*
X76385Y126784D01*
X76269Y126811D01*
X76151Y126821D01*
X76032Y126812D01*
X75917Y126784D01*
X75808Y126737D01*
X75468Y126579D01*
X75112Y126458D01*
X74747Y126370D01*
X74375Y126318D01*
X74002Y126300D01*
Y134300D01*
X74375Y134282D01*
X74747Y134230D01*
X75112Y134142D01*
X75468Y134021D01*
X75810Y133867D01*
X75918Y133820D01*
X76033Y133793D01*
X76151Y133783D01*
X76268Y133793D01*
X76383Y133821D01*
X76492Y133866D01*
X76593Y133928D01*
X76682Y134005D01*
X76759Y134095D01*
X76820Y134195D01*
X76865Y134304D01*
X76893Y134419D01*
X76902Y134537D01*
X76892Y134655D01*
X76865Y134769D01*
X76819Y134878D01*
X76757Y134979D01*
X76681Y135069D01*
X76591Y135145D01*
X76489Y135205D01*
X76020Y135422D01*
X75531Y135589D01*
X75028Y135709D01*
X74516Y135782D01*
X74002Y135806D01*
Y138491D01*
G37*
G36*
Y173000D02*X79000D01*
Y169500D01*
X77059D01*
X77000Y169505D01*
X76765Y169486D01*
X76535Y169431D01*
X76317Y169341D01*
X76116Y169217D01*
X76115Y169217D01*
X75936Y169064D01*
X75898Y169019D01*
X74002Y167124D01*
Y173000D01*
G37*
G36*
X66000D02*X74002D01*
Y167124D01*
X72981Y166102D01*
X72936Y166064D01*
X72783Y165884D01*
X72659Y165683D01*
X72569Y165465D01*
X72514Y165235D01*
X72514Y165235D01*
X72495Y165000D01*
X72500Y164941D01*
Y153599D01*
X72231Y153435D01*
X71872Y153128D01*
X71565Y152769D01*
X71319Y152366D01*
X71138Y151930D01*
X71028Y151471D01*
X70991Y151000D01*
X71028Y150529D01*
X71138Y150070D01*
X71319Y149634D01*
X71565Y149231D01*
X71872Y148872D01*
X72231Y148565D01*
X72500Y148401D01*
Y144099D01*
X72231Y143935D01*
X71872Y143628D01*
X71565Y143269D01*
X71319Y142866D01*
X71138Y142430D01*
X71028Y141971D01*
X70991Y141500D01*
X71028Y141029D01*
X71138Y140570D01*
X71319Y140134D01*
X71565Y139731D01*
X71872Y139372D01*
X72231Y139065D01*
X72634Y138819D01*
X73070Y138638D01*
X73529Y138528D01*
X74000Y138491D01*
X74002Y138491D01*
Y135806D01*
X74000Y135806D01*
X73484Y135782D01*
X72972Y135709D01*
X72469Y135589D01*
X71980Y135422D01*
X71508Y135210D01*
X71407Y135149D01*
X71316Y135072D01*
X71239Y134982D01*
X71177Y134880D01*
X71131Y134771D01*
X71103Y134655D01*
X71094Y134537D01*
X71103Y134419D01*
X71130Y134303D01*
X71176Y134193D01*
X71238Y134092D01*
X71314Y134002D01*
X71405Y133924D01*
X71506Y133862D01*
X71615Y133816D01*
X71731Y133789D01*
X71849Y133779D01*
X71968Y133788D01*
X72083Y133816D01*
X72192Y133863D01*
X72532Y134021D01*
X72888Y134142D01*
X73253Y134230D01*
X73625Y134282D01*
X74000Y134300D01*
X74002Y134300D01*
Y126300D01*
X74000Y126300D01*
X73625Y126318D01*
X73253Y126370D01*
X72888Y126458D01*
X72532Y126579D01*
X72190Y126733D01*
X72082Y126780D01*
X71967Y126807D01*
X71849Y126817D01*
X71732Y126807D01*
X71617Y126779D01*
X71508Y126734D01*
X71407Y126672D01*
X71318Y126595D01*
X71241Y126505D01*
X71180Y126405D01*
X71135Y126296D01*
X71107Y126181D01*
X71098Y126063D01*
X71108Y125945D01*
X71135Y125831D01*
X71181Y125722D01*
X71243Y125621D01*
X71319Y125531D01*
X71409Y125455D01*
X71511Y125395D01*
X71980Y125178D01*
X72469Y125011D01*
X72972Y124891D01*
X73484Y124818D01*
X74000Y124794D01*
X74002Y124794D01*
Y119500D01*
X66000D01*
Y125175D01*
X66505Y125384D01*
X67243Y125837D01*
X67901Y126399D01*
X68463Y127057D01*
X68916Y127795D01*
X69002Y128004D01*
X69090Y127808D01*
X69151Y127707D01*
X69228Y127616D01*
X69318Y127539D01*
X69420Y127477D01*
X69529Y127431D01*
X69645Y127403D01*
X69763Y127394D01*
X69881Y127403D01*
X69997Y127430D01*
X70107Y127476D01*
X70208Y127538D01*
X70298Y127614D01*
X70376Y127705D01*
X70438Y127806D01*
X70484Y127915D01*
X70511Y128031D01*
X70521Y128149D01*
X70512Y128268D01*
X70484Y128383D01*
X70437Y128492D01*
X70279Y128832D01*
X70158Y129188D01*
X70070Y129553D01*
X70018Y129925D01*
X70000Y130300D01*
X70018Y130675D01*
X70070Y131047D01*
X70158Y131412D01*
X70279Y131768D01*
X70433Y132110D01*
X70480Y132218D01*
X70507Y132333D01*
X70517Y132451D01*
X70507Y132568D01*
X70479Y132683D01*
X70434Y132792D01*
X70372Y132893D01*
X70295Y132982D01*
X70205Y133059D01*
X70105Y133120D01*
X69996Y133165D01*
X69881Y133193D01*
X69763Y133202D01*
X69645Y133192D01*
X69531Y133165D01*
X69422Y133119D01*
X69321Y133057D01*
X69231Y132981D01*
X69155Y132891D01*
X69095Y132789D01*
X69004Y132592D01*
X68916Y132805D01*
X68463Y133543D01*
X67901Y134201D01*
X67243Y134763D01*
X66505Y135216D01*
X66000Y135425D01*
Y173000D01*
G37*
G36*
X88000Y74000D02*X94882D01*
X95000Y73991D01*
X95118Y74000D01*
X138500D01*
Y50000D01*
X88000D01*
Y74000D01*
G37*
G36*
X83992Y57500D02*X138500D01*
Y2000D01*
X83992D01*
Y38184D01*
X84000Y38183D01*
X84863Y38251D01*
X85705Y38453D01*
X86505Y38784D01*
X87243Y39237D01*
X87901Y39799D01*
X88463Y40457D01*
X88916Y41195D01*
X89000Y41399D01*
X89084Y41195D01*
X89537Y40457D01*
X90099Y39799D01*
X90757Y39237D01*
X91495Y38784D01*
X92295Y38453D01*
X93137Y38251D01*
X94000Y38183D01*
X94863Y38251D01*
X95705Y38453D01*
X96505Y38784D01*
X97243Y39237D01*
X97901Y39799D01*
X98463Y40457D01*
X98916Y41195D01*
X99000Y41399D01*
X99084Y41195D01*
X99537Y40457D01*
X100099Y39799D01*
X100757Y39237D01*
X101495Y38784D01*
X102295Y38453D01*
X103137Y38251D01*
X104000Y38183D01*
X104863Y38251D01*
X105705Y38453D01*
X106505Y38784D01*
X107243Y39237D01*
X107901Y39799D01*
X108463Y40457D01*
X108916Y41195D01*
X109000Y41399D01*
X109084Y41195D01*
X109537Y40457D01*
X110099Y39799D01*
X110757Y39237D01*
X111495Y38784D01*
X112295Y38453D01*
X113137Y38251D01*
X114000Y38183D01*
X114863Y38251D01*
X115705Y38453D01*
X116505Y38784D01*
X117243Y39237D01*
X117901Y39799D01*
X118463Y40457D01*
X118512Y40537D01*
X118514Y39465D01*
X118569Y39235D01*
X118659Y39017D01*
X118783Y38816D01*
X118936Y38636D01*
X119116Y38483D01*
X119317Y38359D01*
X119535Y38269D01*
X119765Y38214D01*
X120000Y38200D01*
X128235Y38214D01*
X128465Y38269D01*
X128683Y38359D01*
X128884Y38483D01*
X129064Y38636D01*
X129217Y38816D01*
X129341Y39017D01*
X129431Y39235D01*
X129486Y39465D01*
X129500Y39700D01*
X129486Y47935D01*
X129431Y48165D01*
X129341Y48383D01*
X129217Y48584D01*
X129064Y48764D01*
X128884Y48917D01*
X128683Y49041D01*
X128465Y49131D01*
X128235Y49186D01*
X128000Y49200D01*
X119765Y49186D01*
X119535Y49131D01*
X119317Y49041D01*
X119116Y48917D01*
X118936Y48764D01*
X118783Y48584D01*
X118659Y48383D01*
X118569Y48165D01*
X118514Y47935D01*
X118500Y47700D01*
X118501Y46881D01*
X118463Y46943D01*
X117901Y47601D01*
X117243Y48163D01*
X116505Y48616D01*
X115705Y48947D01*
X114863Y49149D01*
X114000Y49217D01*
X113137Y49149D01*
X112295Y48947D01*
X111495Y48616D01*
X110757Y48163D01*
X110099Y47601D01*
X109537Y46943D01*
X109084Y46205D01*
X109000Y46001D01*
X108916Y46205D01*
X108463Y46943D01*
X107901Y47601D01*
X107243Y48163D01*
X106505Y48616D01*
X105705Y48947D01*
X104863Y49149D01*
X104000Y49217D01*
X103137Y49149D01*
X102295Y48947D01*
X101495Y48616D01*
X100757Y48163D01*
X100099Y47601D01*
X99537Y46943D01*
X99084Y46205D01*
X99000Y46001D01*
X98916Y46205D01*
X98463Y46943D01*
X97901Y47601D01*
X97243Y48163D01*
X96505Y48616D01*
X95705Y48947D01*
X94863Y49149D01*
X94000Y49217D01*
X93137Y49149D01*
X92295Y48947D01*
X91495Y48616D01*
X90757Y48163D01*
X90099Y47601D01*
X89537Y46943D01*
X89084Y46205D01*
X89000Y46001D01*
X88916Y46205D01*
X88463Y46943D01*
X87901Y47601D01*
X87243Y48163D01*
X86505Y48616D01*
X85705Y48947D01*
X84863Y49149D01*
X84000Y49217D01*
X83992Y49216D01*
Y57500D01*
G37*
G36*
X38000D02*X50314D01*
X50384Y57440D01*
X50652Y57275D01*
X50943Y57155D01*
X51249Y57082D01*
X51563Y57063D01*
X59751Y57082D01*
X60057Y57155D01*
X60348Y57275D01*
X60616Y57440D01*
X60686Y57500D01*
X63269D01*
X63296Y57487D01*
X63828Y57296D01*
X64377Y57163D01*
X64936Y57083D01*
X65500Y57056D01*
X66064Y57083D01*
X66623Y57163D01*
X67172Y57296D01*
X67706Y57481D01*
X67745Y57500D01*
X73264D01*
X73660Y57336D01*
X74568Y57118D01*
X75500Y57045D01*
X76432Y57118D01*
X77340Y57336D01*
X77736Y57500D01*
X83992D01*
Y49216D01*
X83137Y49149D01*
X82295Y48947D01*
X81495Y48616D01*
X80757Y48163D01*
X80099Y47601D01*
X79537Y46943D01*
X79084Y46205D01*
X79000Y46001D01*
X78916Y46205D01*
X78463Y46943D01*
X77901Y47601D01*
X77243Y48163D01*
X76505Y48616D01*
X75705Y48947D01*
X74863Y49149D01*
X74000Y49217D01*
X73137Y49149D01*
X72295Y48947D01*
X71495Y48616D01*
X70757Y48163D01*
X70099Y47601D01*
X69537Y46943D01*
X69084Y46205D01*
X69000Y46001D01*
X68916Y46205D01*
X68463Y46943D01*
X67901Y47601D01*
X67243Y48163D01*
X66505Y48616D01*
X65705Y48947D01*
X64863Y49149D01*
X64000Y49217D01*
X63137Y49149D01*
X62295Y48947D01*
X61495Y48616D01*
X60757Y48163D01*
X60099Y47601D01*
X59537Y46943D01*
X59084Y46205D01*
X59000Y46001D01*
X58916Y46205D01*
X58463Y46943D01*
X57901Y47601D01*
X57243Y48163D01*
X56505Y48616D01*
X55705Y48947D01*
X54863Y49149D01*
X54000Y49217D01*
X53137Y49149D01*
X52295Y48947D01*
X51495Y48616D01*
X50757Y48163D01*
X50099Y47601D01*
X49537Y46943D01*
X49084Y46205D01*
X49000Y46001D01*
X48916Y46205D01*
X48463Y46943D01*
X47901Y47601D01*
X47243Y48163D01*
X46505Y48616D01*
X45705Y48947D01*
X44863Y49149D01*
X44000Y49217D01*
X43137Y49149D01*
X42295Y48947D01*
X41495Y48616D01*
X40757Y48163D01*
X40099Y47601D01*
X39537Y46943D01*
X39084Y46205D01*
X38753Y45405D01*
X38551Y44563D01*
X38483Y43700D01*
X38551Y42837D01*
X38753Y41995D01*
X39084Y41195D01*
X39537Y40457D01*
X40099Y39799D01*
X40757Y39237D01*
X41495Y38784D01*
X42295Y38453D01*
X43137Y38251D01*
X44000Y38183D01*
X44863Y38251D01*
X45705Y38453D01*
X46505Y38784D01*
X47243Y39237D01*
X47901Y39799D01*
X48463Y40457D01*
X48916Y41195D01*
X49000Y41399D01*
X49084Y41195D01*
X49537Y40457D01*
X50099Y39799D01*
X50757Y39237D01*
X51495Y38784D01*
X52295Y38453D01*
X53137Y38251D01*
X54000Y38183D01*
X54863Y38251D01*
X55705Y38453D01*
X56505Y38784D01*
X57243Y39237D01*
X57901Y39799D01*
X58463Y40457D01*
X58916Y41195D01*
X59000Y41399D01*
X59084Y41195D01*
X59537Y40457D01*
X60099Y39799D01*
X60757Y39237D01*
X61495Y38784D01*
X62295Y38453D01*
X63137Y38251D01*
X64000Y38183D01*
X64863Y38251D01*
X65705Y38453D01*
X66505Y38784D01*
X67243Y39237D01*
X67901Y39799D01*
X68463Y40457D01*
X68916Y41195D01*
X69000Y41399D01*
X69084Y41195D01*
X69537Y40457D01*
X70099Y39799D01*
X70757Y39237D01*
X71495Y38784D01*
X72295Y38453D01*
X73137Y38251D01*
X74000Y38183D01*
X74863Y38251D01*
X75705Y38453D01*
X76505Y38784D01*
X77243Y39237D01*
X77901Y39799D01*
X78463Y40457D01*
X78916Y41195D01*
X79000Y41399D01*
X79084Y41195D01*
X79537Y40457D01*
X80099Y39799D01*
X80757Y39237D01*
X81495Y38784D01*
X82295Y38453D01*
X83137Y38251D01*
X83992Y38184D01*
Y2000D01*
X38000D01*
Y57500D01*
G37*
G36*
X40000Y2000D02*X25493D01*
Y2989D01*
X26660Y3704D01*
X28621Y5379D01*
X30296Y7340D01*
X31643Y9539D01*
X32630Y11921D01*
X33232Y14429D01*
X33384Y17000D01*
X33232Y19571D01*
X32630Y22079D01*
X31643Y24461D01*
X30296Y26660D01*
X28621Y28621D01*
X26660Y30296D01*
X25493Y31011D01*
Y56805D01*
X25916Y57495D01*
X26247Y58295D01*
X26449Y59137D01*
X26500Y60000D01*
X26449Y60863D01*
X26247Y61705D01*
X25916Y62505D01*
X25493Y63195D01*
Y74580D01*
X25683Y74659D01*
X25884Y74783D01*
X26064Y74936D01*
X26217Y75116D01*
X26341Y75317D01*
X26431Y75535D01*
X26486Y75765D01*
X26500Y76000D01*
X26486Y84235D01*
X26431Y84465D01*
X26341Y84683D01*
X26217Y84884D01*
X26064Y85064D01*
X25884Y85217D01*
X25683Y85341D01*
X25493Y85420D01*
Y97145D01*
X25578Y97181D01*
X25679Y97243D01*
X25769Y97319D01*
X25845Y97409D01*
X25905Y97511D01*
X26122Y97980D01*
X26289Y98469D01*
X26409Y98972D01*
X26482Y99484D01*
X26506Y100000D01*
X26482Y100516D01*
X26409Y101028D01*
X26289Y101531D01*
X26122Y102020D01*
X25910Y102492D01*
X25849Y102593D01*
X25772Y102684D01*
X25682Y102761D01*
X25580Y102823D01*
X25493Y102860D01*
Y114580D01*
X25683Y114659D01*
X25884Y114783D01*
X26064Y114936D01*
X26217Y115116D01*
X26341Y115317D01*
X26431Y115535D01*
X26486Y115765D01*
X26500Y116000D01*
X26486Y124235D01*
X26431Y124465D01*
X26341Y124683D01*
X26217Y124884D01*
X26064Y125064D01*
X25884Y125217D01*
X25683Y125341D01*
X25493Y125420D01*
Y144106D01*
X26601Y144785D01*
X28550Y146450D01*
X30215Y148399D01*
X31554Y150584D01*
X32535Y152952D01*
X33133Y155445D01*
X33284Y158000D01*
X33133Y160555D01*
X32535Y163048D01*
X31554Y165416D01*
X30215Y167601D01*
X28550Y169550D01*
X26601Y171215D01*
X25493Y171894D01*
Y173000D01*
X40000D01*
Y134085D01*
X39537Y133543D01*
X39084Y132805D01*
X38753Y132005D01*
X38551Y131163D01*
X38483Y130300D01*
X38551Y129437D01*
X38753Y128595D01*
X39084Y127795D01*
X39537Y127057D01*
X40000Y126515D01*
Y47485D01*
X39537Y46943D01*
X39084Y46205D01*
X38753Y45405D01*
X38551Y44563D01*
X38483Y43700D01*
X38551Y42837D01*
X38753Y41995D01*
X39084Y41195D01*
X39537Y40457D01*
X40000Y39915D01*
Y2000D01*
G37*
G36*
X25493Y171894D02*X24416Y172554D01*
X23339Y173000D01*
X25493D01*
Y171894D01*
G37*
G36*
Y125420D02*X25465Y125431D01*
X25235Y125486D01*
X25000Y125500D01*
X21000Y125493D01*
Y142214D01*
X22048Y142465D01*
X24416Y143446D01*
X25493Y144106D01*
Y125420D01*
G37*
G36*
Y85420D02*X25465Y85431D01*
X25235Y85486D01*
X25000Y85500D01*
X21000Y85493D01*
Y94494D01*
X21516Y94518D01*
X22028Y94591D01*
X22531Y94711D01*
X23020Y94878D01*
X23492Y95090D01*
X23593Y95151D01*
X23684Y95228D01*
X23761Y95318D01*
X23823Y95420D01*
X23869Y95529D01*
X23897Y95645D01*
X23906Y95763D01*
X23897Y95881D01*
X23870Y95997D01*
X23824Y96107D01*
X23762Y96208D01*
X23686Y96298D01*
X23595Y96376D01*
X23494Y96438D01*
X23385Y96484D01*
X23269Y96511D01*
X23151Y96521D01*
X23032Y96512D01*
X22917Y96484D01*
X22808Y96437D01*
X22468Y96279D01*
X22112Y96158D01*
X21747Y96070D01*
X21375Y96018D01*
X21000Y96000D01*
Y104000D01*
X21375Y103982D01*
X21747Y103930D01*
X22112Y103842D01*
X22468Y103721D01*
X22810Y103567D01*
X22918Y103520D01*
X23033Y103493D01*
X23151Y103483D01*
X23268Y103493D01*
X23383Y103521D01*
X23492Y103566D01*
X23593Y103628D01*
X23682Y103705D01*
X23759Y103795D01*
X23820Y103895D01*
X23865Y104004D01*
X23893Y104119D01*
X23902Y104237D01*
X23892Y104355D01*
X23865Y104469D01*
X23819Y104578D01*
X23757Y104679D01*
X23681Y104769D01*
X23591Y104845D01*
X23489Y104905D01*
X23020Y105122D01*
X22531Y105289D01*
X22028Y105409D01*
X21516Y105482D01*
X21000Y105506D01*
Y114507D01*
X25235Y114514D01*
X25465Y114569D01*
X25493Y114580D01*
Y102860D01*
X25471Y102869D01*
X25355Y102897D01*
X25237Y102906D01*
X25119Y102897D01*
X25003Y102870D01*
X24893Y102824D01*
X24792Y102762D01*
X24702Y102686D01*
X24624Y102595D01*
X24562Y102494D01*
X24516Y102385D01*
X24489Y102269D01*
X24479Y102151D01*
X24488Y102032D01*
X24516Y101917D01*
X24563Y101808D01*
X24721Y101468D01*
X24842Y101112D01*
X24930Y100747D01*
X24982Y100375D01*
X25000Y100000D01*
X24982Y99625D01*
X24930Y99253D01*
X24842Y98888D01*
X24721Y98532D01*
X24567Y98190D01*
X24520Y98082D01*
X24493Y97967D01*
X24483Y97849D01*
X24493Y97732D01*
X24521Y97617D01*
X24566Y97508D01*
X24628Y97407D01*
X24705Y97318D01*
X24795Y97241D01*
X24895Y97180D01*
X25004Y97135D01*
X25119Y97107D01*
X25237Y97098D01*
X25355Y97108D01*
X25469Y97135D01*
X25493Y97145D01*
Y85420D01*
G37*
G36*
Y63195D02*X25463Y63243D01*
X24901Y63901D01*
X24243Y64463D01*
X23505Y64916D01*
X22705Y65247D01*
X21863Y65449D01*
X21000Y65517D01*
Y74507D01*
X25235Y74514D01*
X25465Y74569D01*
X25493Y74580D01*
Y63195D01*
G37*
G36*
Y31011D02*X24461Y31643D01*
X22079Y32630D01*
X21000Y32889D01*
Y54483D01*
X21863Y54551D01*
X22705Y54753D01*
X23505Y55084D01*
X24243Y55537D01*
X24901Y56099D01*
X25463Y56757D01*
X25493Y56805D01*
Y31011D01*
G37*
G36*
Y2000D02*X23600D01*
X24461Y2357D01*
X25493Y2989D01*
Y2000D01*
G37*
G36*
X16507Y74580D02*X16535Y74569D01*
X16765Y74514D01*
X17000Y74500D01*
X21000Y74507D01*
Y65517D01*
X20137Y65449D01*
X19295Y65247D01*
X18495Y64916D01*
X17757Y64463D01*
X17099Y63901D01*
X16537Y63243D01*
X16507Y63195D01*
Y74580D01*
G37*
G36*
Y114580D02*X16535Y114569D01*
X16765Y114514D01*
X17000Y114500D01*
X21000Y114507D01*
Y105506D01*
X21000D01*
X20484Y105482D01*
X19972Y105409D01*
X19469Y105289D01*
X18980Y105122D01*
X18508Y104910D01*
X18407Y104849D01*
X18316Y104772D01*
X18239Y104682D01*
X18177Y104580D01*
X18131Y104471D01*
X18103Y104355D01*
X18094Y104237D01*
X18103Y104119D01*
X18130Y104003D01*
X18176Y103893D01*
X18238Y103792D01*
X18314Y103702D01*
X18405Y103624D01*
X18506Y103562D01*
X18615Y103516D01*
X18731Y103489D01*
X18849Y103479D01*
X18968Y103488D01*
X19083Y103516D01*
X19192Y103563D01*
X19532Y103721D01*
X19888Y103842D01*
X20253Y103930D01*
X20625Y103982D01*
X21000Y104000D01*
Y96000D01*
X20625Y96018D01*
X20253Y96070D01*
X19888Y96158D01*
X19532Y96279D01*
X19190Y96433D01*
X19082Y96480D01*
X18967Y96507D01*
X18849Y96517D01*
X18732Y96507D01*
X18617Y96479D01*
X18508Y96434D01*
X18407Y96372D01*
X18318Y96295D01*
X18241Y96205D01*
X18180Y96105D01*
X18135Y95996D01*
X18107Y95881D01*
X18098Y95763D01*
X18108Y95645D01*
X18135Y95531D01*
X18181Y95422D01*
X18243Y95321D01*
X18319Y95231D01*
X18409Y95155D01*
X18511Y95095D01*
X18980Y94878D01*
X19469Y94711D01*
X19972Y94591D01*
X20484Y94518D01*
X21000Y94494D01*
X21000D01*
Y85493D01*
X16765Y85486D01*
X16535Y85431D01*
X16507Y85420D01*
Y97140D01*
X16529Y97131D01*
X16645Y97103D01*
X16763Y97094D01*
X16881Y97103D01*
X16997Y97130D01*
X17107Y97176D01*
X17208Y97238D01*
X17298Y97314D01*
X17376Y97405D01*
X17438Y97506D01*
X17484Y97615D01*
X17511Y97731D01*
X17521Y97849D01*
X17512Y97968D01*
X17484Y98083D01*
X17437Y98192D01*
X17279Y98532D01*
X17158Y98888D01*
X17070Y99253D01*
X17018Y99625D01*
X17000Y100000D01*
X17018Y100375D01*
X17070Y100747D01*
X17158Y101112D01*
X17279Y101468D01*
X17433Y101810D01*
X17480Y101918D01*
X17507Y102033D01*
X17517Y102151D01*
X17507Y102268D01*
X17479Y102383D01*
X17434Y102492D01*
X17372Y102593D01*
X17295Y102682D01*
X17205Y102759D01*
X17105Y102820D01*
X16996Y102865D01*
X16881Y102893D01*
X16763Y102902D01*
X16645Y102892D01*
X16531Y102865D01*
X16507Y102855D01*
Y114580D01*
G37*
G36*
Y141705D02*X17000Y141666D01*
X19555Y141867D01*
X21000Y142214D01*
Y125493D01*
X16765Y125486D01*
X16535Y125431D01*
X16507Y125420D01*
Y141705D01*
G37*
G36*
X21000Y32889D02*X19571Y33232D01*
X17000Y33435D01*
X16507Y33396D01*
Y56805D01*
X16537Y56757D01*
X17099Y56099D01*
X17757Y55537D01*
X18495Y55084D01*
X19295Y54753D01*
X20137Y54551D01*
X21000Y54483D01*
Y32889D01*
G37*
G36*
X16507Y33396D02*X14429Y33232D01*
X11921Y32630D01*
X9539Y31643D01*
X7340Y30296D01*
X5379Y28621D01*
X3704Y26660D01*
X2357Y24461D01*
X2000Y23600D01*
Y151661D01*
X2446Y150584D01*
X3785Y148399D01*
X5450Y146450D01*
X7399Y144785D01*
X9584Y143446D01*
X11952Y142465D01*
X14445Y141867D01*
X16507Y141705D01*
Y125420D01*
X16317Y125341D01*
X16116Y125217D01*
X15936Y125064D01*
X15783Y124884D01*
X15659Y124683D01*
X15569Y124465D01*
X15514Y124235D01*
X15500Y124000D01*
X15514Y115765D01*
X15569Y115535D01*
X15659Y115317D01*
X15783Y115116D01*
X15936Y114936D01*
X16116Y114783D01*
X16317Y114659D01*
X16507Y114580D01*
Y102855D01*
X16422Y102819D01*
X16321Y102757D01*
X16231Y102681D01*
X16155Y102591D01*
X16095Y102489D01*
X15878Y102020D01*
X15711Y101531D01*
X15591Y101028D01*
X15518Y100516D01*
X15494Y100000D01*
X15518Y99484D01*
X15591Y98972D01*
X15711Y98469D01*
X15878Y97980D01*
X16090Y97508D01*
X16151Y97407D01*
X16228Y97316D01*
X16318Y97239D01*
X16420Y97177D01*
X16507Y97140D01*
Y85420D01*
X16317Y85341D01*
X16116Y85217D01*
X15936Y85064D01*
X15783Y84884D01*
X15659Y84683D01*
X15569Y84465D01*
X15514Y84235D01*
X15500Y84000D01*
X15514Y75765D01*
X15569Y75535D01*
X15659Y75317D01*
X15783Y75116D01*
X15936Y74936D01*
X16116Y74783D01*
X16317Y74659D01*
X16507Y74580D01*
Y63195D01*
X16084Y62505D01*
X15753Y61705D01*
X15551Y60863D01*
X15483Y60000D01*
X15551Y59137D01*
X15753Y58295D01*
X16084Y57495D01*
X16507Y56805D01*
Y33396D01*
G37*
G36*
X36000Y173000D02*X62157D01*
Y135490D01*
X61495Y135216D01*
X60757Y134763D01*
X60099Y134201D01*
X59537Y133543D01*
X59084Y132805D01*
X59000Y132601D01*
X58916Y132805D01*
X58463Y133543D01*
X57901Y134201D01*
X57243Y134763D01*
X56505Y135216D01*
X55705Y135547D01*
X54863Y135749D01*
X54000Y135817D01*
X53137Y135749D01*
X52295Y135547D01*
X51495Y135216D01*
X50757Y134763D01*
X50099Y134201D01*
X49537Y133543D01*
X49084Y132805D01*
X49000Y132601D01*
X48916Y132805D01*
X48463Y133543D01*
X47901Y134201D01*
X47243Y134763D01*
X46505Y135216D01*
X45705Y135547D01*
X44863Y135749D01*
X44000Y135817D01*
X43137Y135749D01*
X42295Y135547D01*
X41495Y135216D01*
X40757Y134763D01*
X40099Y134201D01*
X39537Y133543D01*
X39084Y132805D01*
X38753Y132005D01*
X38551Y131163D01*
X38483Y130300D01*
X38551Y129437D01*
X38753Y128595D01*
X39084Y127795D01*
X39537Y127057D01*
X40099Y126399D01*
X40757Y125837D01*
X41495Y125384D01*
X42295Y125053D01*
X43137Y124851D01*
X44000Y124783D01*
X44863Y124851D01*
X45705Y125053D01*
X46505Y125384D01*
X47243Y125837D01*
X47901Y126399D01*
X48463Y127057D01*
X48916Y127795D01*
X49000Y127999D01*
X49084Y127795D01*
X49537Y127057D01*
X50099Y126399D01*
X50757Y125837D01*
X51495Y125384D01*
X52295Y125053D01*
X53137Y124851D01*
X54000Y124783D01*
X54863Y124851D01*
X55705Y125053D01*
X56505Y125384D01*
X57243Y125837D01*
X57901Y126399D01*
X58463Y127057D01*
X58916Y127795D01*
X59000Y127999D01*
X59084Y127795D01*
X59537Y127057D01*
X60099Y126399D01*
X60757Y125837D01*
X61495Y125384D01*
X62157Y125110D01*
Y104500D01*
X36000D01*
Y173000D01*
G37*
G36*
X69500Y53500D02*X65502D01*
Y57056D01*
X66064Y57083D01*
X66623Y57163D01*
X67172Y57296D01*
X67706Y57481D01*
X67848Y57550D01*
X67977Y57642D01*
X68091Y57752D01*
X68185Y57879D01*
X68259Y58019D01*
X68309Y58168D01*
X68336Y58324D01*
X68338Y58482D01*
X68315Y58639D01*
X68268Y58790D01*
X68198Y58931D01*
X68107Y59061D01*
X67996Y59174D01*
X67870Y59268D01*
X67730Y59342D01*
X67580Y59392D01*
X67424Y59419D01*
X67266Y59421D01*
X67110Y59398D01*
X66960Y59348D01*
X66608Y59222D01*
X66244Y59134D01*
X65874Y59081D01*
X65502Y59063D01*
Y66937D01*
X65874Y66919D01*
X66244Y66866D01*
X66608Y66778D01*
X66961Y66656D01*
X67111Y66606D01*
X67266Y66583D01*
X67424Y66585D01*
X67579Y66612D01*
X67728Y66662D01*
X67867Y66736D01*
X67993Y66830D01*
X68103Y66942D01*
X68194Y67071D01*
X68264Y67212D01*
X68311Y67362D01*
X68333Y67518D01*
X68332Y67675D01*
X68305Y67831D01*
X68254Y67980D01*
X68181Y68119D01*
X68087Y68245D01*
X67975Y68355D01*
X67846Y68446D01*
X67704Y68513D01*
X67172Y68704D01*
X66623Y68837D01*
X66064Y68917D01*
X65502Y68944D01*
Y110000D01*
X69500D01*
Y65650D01*
X69439Y65607D01*
X69326Y65496D01*
X69232Y65370D01*
X69158Y65230D01*
X69108Y65080D01*
X69081Y64924D01*
X69079Y64766D01*
X69102Y64610D01*
X69152Y64460D01*
X69278Y64108D01*
X69366Y63744D01*
X69419Y63374D01*
X69437Y63000D01*
X69419Y62626D01*
X69366Y62256D01*
X69278Y61892D01*
X69156Y61539D01*
X69106Y61389D01*
X69083Y61234D01*
X69085Y61076D01*
X69112Y60921D01*
X69162Y60772D01*
X69236Y60633D01*
X69330Y60507D01*
X69442Y60397D01*
X69500Y60356D01*
Y53500D01*
G37*
G36*
X65502D02*X55742D01*
Y57072D01*
X59751Y57082D01*
X60057Y57155D01*
X60348Y57275D01*
X60616Y57440D01*
X60856Y57644D01*
X61060Y57884D01*
X61225Y58152D01*
X61345Y58443D01*
X61418Y58749D01*
X61437Y59063D01*
X61434Y60304D01*
X61561Y60393D01*
X61674Y60504D01*
X61768Y60630D01*
X61842Y60770D01*
X61892Y60920D01*
X61919Y61076D01*
X61921Y61234D01*
X61898Y61390D01*
X61848Y61540D01*
X61722Y61892D01*
X61634Y62256D01*
X61581Y62626D01*
X61563Y63000D01*
X61581Y63374D01*
X61634Y63744D01*
X61722Y64108D01*
X61844Y64461D01*
X61894Y64611D01*
X61917Y64766D01*
X61915Y64924D01*
X61888Y65079D01*
X61838Y65228D01*
X61764Y65367D01*
X61670Y65493D01*
X61558Y65603D01*
X61429Y65694D01*
X61422Y65698D01*
X61418Y67251D01*
X61345Y67557D01*
X61225Y67848D01*
X61060Y68116D01*
X60856Y68356D01*
X60616Y68560D01*
X60348Y68725D01*
X60057Y68845D01*
X59751Y68918D01*
X59437Y68937D01*
X55742Y68929D01*
Y110000D01*
X65502D01*
Y68944D01*
X65500Y68944D01*
X64936Y68917D01*
X64377Y68837D01*
X63828Y68704D01*
X63294Y68519D01*
X63152Y68450D01*
X63023Y68358D01*
X62909Y68248D01*
X62815Y68121D01*
X62741Y67981D01*
X62691Y67832D01*
X62664Y67676D01*
X62662Y67518D01*
X62685Y67361D01*
X62732Y67210D01*
X62802Y67069D01*
X62893Y66939D01*
X63004Y66826D01*
X63130Y66732D01*
X63270Y66658D01*
X63420Y66608D01*
X63576Y66581D01*
X63734Y66579D01*
X63890Y66602D01*
X64040Y66652D01*
X64392Y66778D01*
X64756Y66866D01*
X65126Y66919D01*
X65500Y66937D01*
X65502Y66937D01*
Y59063D01*
X65500Y59063D01*
X65126Y59081D01*
X64756Y59134D01*
X64392Y59222D01*
X64039Y59344D01*
X63889Y59394D01*
X63734Y59417D01*
X63576Y59415D01*
X63421Y59388D01*
X63272Y59338D01*
X63133Y59264D01*
X63007Y59170D01*
X62897Y59058D01*
X62806Y58929D01*
X62736Y58788D01*
X62689Y58638D01*
X62667Y58482D01*
X62668Y58325D01*
X62695Y58169D01*
X62746Y58020D01*
X62819Y57881D01*
X62913Y57755D01*
X63025Y57645D01*
X63154Y57554D01*
X63296Y57487D01*
X63828Y57296D01*
X64377Y57163D01*
X64936Y57083D01*
X65500Y57056D01*
X65502Y57056D01*
Y53500D01*
G37*
G36*
X55742D02*X31500D01*
Y110000D01*
X55742D01*
Y68929D01*
X51249Y68918D01*
X50943Y68845D01*
X50652Y68725D01*
X50384Y68560D01*
X50144Y68356D01*
X49940Y68116D01*
X49775Y67848D01*
X49655Y67557D01*
X49582Y67251D01*
X49563Y66937D01*
X49582Y58749D01*
X49655Y58443D01*
X49775Y58152D01*
X49940Y57884D01*
X50144Y57644D01*
X50384Y57440D01*
X50652Y57275D01*
X50943Y57155D01*
X51249Y57082D01*
X51563Y57063D01*
X55742Y57072D01*
Y53500D01*
G37*
G36*
X84500Y105000D02*X98535D01*
X98528Y104971D01*
X98491Y104500D01*
X98528Y104029D01*
X98638Y103570D01*
X98819Y103134D01*
X99065Y102731D01*
X99372Y102372D01*
X99731Y102065D01*
X100134Y101819D01*
X100570Y101638D01*
X101029Y101528D01*
X101500Y101491D01*
X101971Y101528D01*
X102430Y101638D01*
X102578Y101699D01*
X98981Y98102D01*
X98936Y98064D01*
X98783Y97884D01*
X98659Y97683D01*
X98569Y97465D01*
X98514Y97235D01*
X98514Y97235D01*
X98495Y97000D01*
X98500Y96941D01*
Y94599D01*
X98231Y94435D01*
X97872Y94128D01*
X97565Y93769D01*
X97319Y93366D01*
X97138Y92930D01*
X97028Y92471D01*
X96991Y92000D01*
X97028Y91529D01*
X97138Y91070D01*
X97319Y90634D01*
X97565Y90231D01*
X97872Y89872D01*
X98231Y89565D01*
X98634Y89319D01*
X99070Y89138D01*
X99529Y89028D01*
X100000Y88991D01*
X100471Y89028D01*
X100930Y89138D01*
X101366Y89319D01*
X101769Y89565D01*
X102128Y89872D01*
X102435Y90231D01*
X102681Y90634D01*
X102862Y91070D01*
X102972Y91529D01*
X103000Y92000D01*
X102972Y92471D01*
X102862Y92930D01*
X102681Y93366D01*
X102435Y93769D01*
X102128Y94128D01*
X101769Y94435D01*
X101500Y94599D01*
Y96379D01*
X105621Y100500D01*
X109441D01*
X109500Y100495D01*
X109735Y100514D01*
X109735Y100514D01*
X109965Y100569D01*
X110183Y100659D01*
X110384Y100783D01*
X110564Y100936D01*
X110602Y100981D01*
X112621Y103000D01*
X138500D01*
Y43500D01*
X129494D01*
X129486Y47935D01*
X129431Y48165D01*
X129341Y48383D01*
X129217Y48584D01*
X129064Y48764D01*
X128884Y48917D01*
X128683Y49041D01*
X128465Y49131D01*
X128235Y49186D01*
X128000Y49200D01*
X119765Y49186D01*
X119535Y49131D01*
X119317Y49041D01*
X119116Y48917D01*
X118936Y48764D01*
X118783Y48584D01*
X118659Y48383D01*
X118569Y48165D01*
X118514Y47935D01*
X118500Y47700D01*
X118501Y46881D01*
X118463Y46943D01*
X117901Y47601D01*
X117243Y48163D01*
X116505Y48616D01*
X115705Y48947D01*
X114863Y49149D01*
X114000Y49217D01*
X113137Y49149D01*
X112295Y48947D01*
X111495Y48616D01*
X110757Y48163D01*
X110099Y47601D01*
X109537Y46943D01*
X109084Y46205D01*
X109000Y46001D01*
X108916Y46205D01*
X108463Y46943D01*
X107901Y47601D01*
X107243Y48163D01*
X106505Y48616D01*
X105705Y48947D01*
X104863Y49149D01*
X104000Y49217D01*
X103137Y49149D01*
X102295Y48947D01*
X101495Y48616D01*
X100757Y48163D01*
X100099Y47601D01*
X99537Y46943D01*
X99084Y46205D01*
X99000Y46001D01*
X98916Y46205D01*
X98463Y46943D01*
X97901Y47601D01*
X97243Y48163D01*
X96505Y48616D01*
X95705Y48947D01*
X94863Y49149D01*
X94000Y49217D01*
X93137Y49149D01*
X92295Y48947D01*
X91495Y48616D01*
X90757Y48163D01*
X90099Y47601D01*
X89537Y46943D01*
X89084Y46205D01*
X89000Y46001D01*
X88916Y46205D01*
X88463Y46943D01*
X87901Y47601D01*
X87243Y48163D01*
X86505Y48616D01*
X85705Y48947D01*
X84863Y49149D01*
X84000Y49217D01*
X83137Y49149D01*
X82500Y48996D01*
Y77879D01*
X84398Y75981D01*
X84436Y75936D01*
X84616Y75783D01*
X84817Y75659D01*
X85035Y75569D01*
X85265Y75514D01*
X85500Y75495D01*
X85559Y75500D01*
X92401D01*
X92565Y75231D01*
X92872Y74872D01*
X93231Y74565D01*
X93634Y74319D01*
X94070Y74138D01*
X94529Y74028D01*
X95000Y73991D01*
X95471Y74028D01*
X95930Y74138D01*
X96366Y74319D01*
X96769Y74565D01*
X97128Y74872D01*
X97435Y75231D01*
X97681Y75634D01*
X97862Y76070D01*
X97972Y76529D01*
X98000Y77000D01*
X97972Y77471D01*
X97862Y77930D01*
X97681Y78366D01*
X97435Y78769D01*
X97128Y79128D01*
X96769Y79435D01*
X96366Y79681D01*
X95930Y79862D01*
X95471Y79972D01*
X95000Y80009D01*
X94529Y79972D01*
X94070Y79862D01*
X93634Y79681D01*
X93231Y79435D01*
X92872Y79128D01*
X92565Y78769D01*
X92401Y78500D01*
X86121D01*
X84500Y80121D01*
Y105000D01*
G37*
G36*
X83500Y117500D02*X168919D01*
X169067Y117409D01*
X169285Y117319D01*
X169515Y117264D01*
X169750Y117250D01*
X176485Y117264D01*
X176715Y117319D01*
X176933Y117409D01*
X177081Y117500D01*
X181471D01*
X181508Y117485D01*
X181925Y117368D01*
X182352Y117289D01*
X182783Y117250D01*
X183217D01*
X183648Y117289D01*
X184075Y117368D01*
X184492Y117485D01*
X184531Y117500D01*
X211000D01*
Y100000D01*
X200121D01*
X196852Y103269D01*
X196814Y103314D01*
X196634Y103467D01*
X196433Y103591D01*
X196215Y103681D01*
X195985Y103736D01*
X195750Y103755D01*
X195691Y103750D01*
X158946D01*
X158935Y103769D01*
X158628Y104128D01*
X158269Y104435D01*
X157866Y104681D01*
X157430Y104862D01*
X156971Y104972D01*
X156500Y105009D01*
X156029Y104972D01*
X155723Y104899D01*
X150102Y110519D01*
X150064Y110564D01*
X149884Y110717D01*
X149683Y110841D01*
X149465Y110931D01*
X149235Y110986D01*
X149235Y110986D01*
X149000Y111005D01*
X148941Y111000D01*
X106099D01*
X105935Y111269D01*
X105628Y111628D01*
X105269Y111935D01*
X104866Y112181D01*
X104430Y112362D01*
X103971Y112472D01*
X103500Y112509D01*
X103029Y112472D01*
X102570Y112362D01*
X102134Y112181D01*
X101731Y111935D01*
X101372Y111628D01*
X101065Y111269D01*
X100819Y110866D01*
X100638Y110430D01*
X100528Y109971D01*
X100491Y109500D01*
X100528Y109029D01*
X100638Y108570D01*
X100819Y108134D01*
X101065Y107731D01*
X101270Y107491D01*
X101029Y107472D01*
X100570Y107362D01*
X100134Y107181D01*
X99731Y106935D01*
X99372Y106628D01*
X99065Y106269D01*
X98819Y105866D01*
X98638Y105430D01*
X98528Y104971D01*
X98491Y104500D01*
X98528Y104029D01*
X98638Y103570D01*
X98819Y103134D01*
X99065Y102731D01*
X99372Y102372D01*
X99731Y102065D01*
X100134Y101819D01*
X100570Y101638D01*
X101029Y101528D01*
X101500Y101491D01*
X101971Y101528D01*
X102430Y101638D01*
X102578Y101699D01*
X98981Y98102D01*
X98936Y98064D01*
X98783Y97884D01*
X98659Y97683D01*
X98569Y97465D01*
X98514Y97235D01*
X98514Y97235D01*
X98495Y97000D01*
X98500Y96941D01*
Y94599D01*
X98231Y94435D01*
X97872Y94128D01*
X97565Y93769D01*
X97319Y93366D01*
X97138Y92930D01*
X97028Y92471D01*
X96991Y92000D01*
X97028Y91529D01*
X97138Y91070D01*
X97319Y90634D01*
X97565Y90231D01*
X97872Y89872D01*
X98231Y89565D01*
X98634Y89319D01*
X99070Y89138D01*
X99529Y89028D01*
X100000Y88991D01*
X100471Y89028D01*
X100930Y89138D01*
X101366Y89319D01*
X101769Y89565D01*
X102128Y89872D01*
X102435Y90231D01*
X102681Y90634D01*
X102862Y91070D01*
X102972Y91529D01*
X103000Y92000D01*
X102972Y92471D01*
X102862Y92930D01*
X102681Y93366D01*
X102435Y93769D01*
X102128Y94128D01*
X101769Y94435D01*
X101500Y94599D01*
Y96379D01*
X105621Y100500D01*
X109441D01*
X109500Y100495D01*
X109735Y100514D01*
X109735Y100514D01*
X109965Y100569D01*
X110183Y100659D01*
X110384Y100783D01*
X110564Y100936D01*
X110602Y100981D01*
X112621Y103000D01*
X141879D01*
X151898Y92981D01*
X151936Y92936D01*
X152116Y92783D01*
X152317Y92659D01*
X152535Y92569D01*
X152765Y92514D01*
X153000Y92495D01*
X153059Y92500D01*
X153401D01*
X153565Y92231D01*
X153872Y91872D01*
X154231Y91565D01*
X154634Y91319D01*
X155070Y91138D01*
X155529Y91028D01*
X156000Y90991D01*
X156471Y91028D01*
X156930Y91138D01*
X157366Y91319D01*
X157769Y91565D01*
X158128Y91872D01*
X158435Y92231D01*
X158599Y92500D01*
X162441D01*
X162500Y92495D01*
X162735Y92514D01*
X162735Y92514D01*
X162965Y92569D01*
X163183Y92659D01*
X163384Y92783D01*
X163564Y92936D01*
X163602Y92981D01*
X166621Y96000D01*
X193379D01*
X196398Y92981D01*
X196436Y92936D01*
X196616Y92783D01*
X196817Y92659D01*
X197035Y92569D01*
X197265Y92514D01*
X197500Y92495D01*
X197559Y92500D01*
X207379D01*
X211000Y88879D01*
Y85500D01*
X84500D01*
Y110901D01*
X84769Y111065D01*
X85128Y111372D01*
X85435Y111731D01*
X85681Y112134D01*
X85862Y112570D01*
X85972Y113029D01*
X86000Y113500D01*
X85972Y113971D01*
X85862Y114430D01*
X85681Y114866D01*
X85435Y115269D01*
X85128Y115628D01*
X84769Y115935D01*
X84366Y116181D01*
X83930Y116362D01*
X83500Y116465D01*
Y117500D01*
G37*
G36*
X300000Y173000D02*X326661D01*
X325584Y172554D01*
X323399Y171215D01*
X321450Y169550D01*
X319785Y167601D01*
X318446Y165416D01*
X317465Y163048D01*
X316867Y160555D01*
X316666Y158000D01*
X316867Y155445D01*
X317465Y152952D01*
X318446Y150584D01*
X319785Y148399D01*
X321450Y146450D01*
X323399Y144785D01*
X325584Y143446D01*
X327952Y142465D01*
X330445Y141867D01*
X333000Y141666D01*
X335555Y141867D01*
X338048Y142465D01*
X340416Y143446D01*
X342601Y144785D01*
X344550Y146450D01*
X346215Y148399D01*
X347554Y150584D01*
X348000Y151661D01*
Y119500D01*
X300000D01*
Y125175D01*
X300505Y125384D01*
X301243Y125837D01*
X301901Y126399D01*
X302463Y127057D01*
X302916Y127795D01*
X303000Y127999D01*
X303084Y127795D01*
X303537Y127057D01*
X304099Y126399D01*
X304757Y125837D01*
X305495Y125384D01*
X306295Y125053D01*
X307137Y124851D01*
X308000Y124783D01*
X308863Y124851D01*
X309705Y125053D01*
X310505Y125384D01*
X311243Y125837D01*
X311901Y126399D01*
X312463Y127057D01*
X312916Y127795D01*
X313247Y128595D01*
X313449Y129437D01*
X313500Y130300D01*
X313449Y131163D01*
X313247Y132005D01*
X312916Y132805D01*
X312463Y133543D01*
X311901Y134201D01*
X311243Y134763D01*
X310505Y135216D01*
X309705Y135547D01*
X308863Y135749D01*
X308000Y135817D01*
X307137Y135749D01*
X306295Y135547D01*
X305495Y135216D01*
X304757Y134763D01*
X304099Y134201D01*
X303537Y133543D01*
X303084Y132805D01*
X303000Y132601D01*
X302916Y132805D01*
X302463Y133543D01*
X301901Y134201D01*
X301243Y134763D01*
X300505Y135216D01*
X300000Y135425D01*
Y173000D01*
G37*
G36*
X191500Y117500D02*X340500D01*
Y101500D01*
X268618D01*
X268500Y101509D01*
X268382Y101500D01*
X217618D01*
X217500Y101509D01*
X217382Y101500D01*
X198621D01*
X196852Y103269D01*
X196814Y103314D01*
X196634Y103467D01*
X196433Y103591D01*
X196215Y103681D01*
X195985Y103736D01*
X195750Y103755D01*
X195691Y103750D01*
X191500D01*
Y117500D01*
G37*
G36*
X196500Y107000D02*X240500D01*
Y51000D01*
X196500D01*
Y92881D01*
X196616Y92783D01*
X196817Y92659D01*
X197035Y92569D01*
X197265Y92514D01*
X197500Y92495D01*
X197559Y92500D01*
X207379D01*
X213398Y86481D01*
X213436Y86436D01*
X213616Y86283D01*
X213817Y86159D01*
X214035Y86069D01*
X214265Y86014D01*
X214500Y85995D01*
X214559Y86000D01*
X214901D01*
X215065Y85731D01*
X215372Y85372D01*
X215731Y85065D01*
X216134Y84819D01*
X216570Y84638D01*
X217029Y84528D01*
X217500Y84491D01*
X217971Y84528D01*
X218430Y84638D01*
X218866Y84819D01*
X219269Y85065D01*
X219628Y85372D01*
X219935Y85731D01*
X220181Y86134D01*
X220362Y86570D01*
X220472Y87029D01*
X220500Y87500D01*
X220472Y87971D01*
X220362Y88430D01*
X220181Y88866D01*
X219935Y89269D01*
X219628Y89628D01*
X219269Y89935D01*
X218866Y90181D01*
X218700Y90250D01*
X218866Y90319D01*
X219269Y90565D01*
X219628Y90872D01*
X219935Y91231D01*
X220181Y91634D01*
X220362Y92070D01*
X220472Y92529D01*
X220500Y93000D01*
X220472Y93471D01*
X220362Y93930D01*
X220181Y94366D01*
X219935Y94769D01*
X219628Y95128D01*
X219269Y95435D01*
X218866Y95681D01*
X218700Y95750D01*
X218866Y95819D01*
X219269Y96065D01*
X219628Y96372D01*
X219935Y96731D01*
X220181Y97134D01*
X220362Y97570D01*
X220472Y98029D01*
X220500Y98500D01*
X220472Y98971D01*
X220362Y99430D01*
X220181Y99866D01*
X219935Y100269D01*
X219628Y100628D01*
X219269Y100935D01*
X218866Y101181D01*
X218430Y101362D01*
X217971Y101472D01*
X217500Y101509D01*
X217029Y101472D01*
X216570Y101362D01*
X216134Y101181D01*
X215731Y100935D01*
X215372Y100628D01*
X215065Y100269D01*
X214901Y100000D01*
X200121D01*
X196852Y103269D01*
X196814Y103314D01*
X196634Y103467D01*
X196500Y103550D01*
Y107000D01*
G37*
G36*
X207495Y92383D02*X211000Y88879D01*
Y51000D01*
X207495D01*
Y92383D01*
G37*
G36*
Y3150D02*X211000D01*
Y2000D01*
X207495D01*
Y3150D01*
G37*
G36*
Y48000D02*X211000D01*
Y7650D01*
X207495D01*
Y9491D01*
X207500Y9491D01*
X207971Y9528D01*
X208430Y9638D01*
X208866Y9819D01*
X209269Y10065D01*
X209628Y10372D01*
X209935Y10731D01*
X210181Y11134D01*
X210362Y11570D01*
X210472Y12029D01*
X210500Y12500D01*
X210472Y12971D01*
X210362Y13430D01*
X210181Y13866D01*
X209935Y14269D01*
X209750Y14485D01*
Y40515D01*
X209935Y40731D01*
X210181Y41134D01*
X210362Y41570D01*
X210472Y42029D01*
X210500Y42500D01*
X210472Y42971D01*
X210362Y43430D01*
X210181Y43866D01*
X209935Y44269D01*
X209628Y44628D01*
X209269Y44935D01*
X208866Y45181D01*
X208430Y45362D01*
X207971Y45472D01*
X207500Y45509D01*
X207495Y45509D01*
Y48000D01*
G37*
G36*
X177081Y57000D02*X181452D01*
X180837Y56745D01*
X180199Y56355D01*
X179631Y55869D01*
X179145Y55301D01*
X178755Y54663D01*
X178469Y53972D01*
X178294Y53245D01*
X178235Y52500D01*
X178294Y51755D01*
X178469Y51028D01*
X178755Y50337D01*
X179145Y49699D01*
X179631Y49131D01*
X180199Y48645D01*
X180837Y48255D01*
X181528Y47969D01*
X182255Y47794D01*
X183000Y47735D01*
X183745Y47794D01*
X184472Y47969D01*
X185163Y48255D01*
X185801Y48645D01*
X186369Y49131D01*
X186855Y49699D01*
X187196Y50257D01*
X187283Y50116D01*
X187436Y49936D01*
X187481Y49898D01*
X188898Y48481D01*
X188936Y48436D01*
X189116Y48283D01*
X189317Y48159D01*
X189535Y48069D01*
X189765Y48014D01*
X190000Y47995D01*
X190059Y48000D01*
X207495D01*
Y45509D01*
X207029Y45472D01*
X206570Y45362D01*
X206134Y45181D01*
X205731Y44935D01*
X205372Y44628D01*
X205065Y44269D01*
X204819Y43866D01*
X204638Y43430D01*
X204528Y42971D01*
X204491Y42500D01*
X204528Y42029D01*
X204638Y41570D01*
X204819Y41134D01*
X205065Y40731D01*
X205250Y40515D01*
Y14485D01*
X205065Y14269D01*
X204819Y13866D01*
X204638Y13430D01*
X204528Y12971D01*
X204491Y12500D01*
X204528Y12029D01*
X204638Y11570D01*
X204819Y11134D01*
X205065Y10731D01*
X205372Y10372D01*
X205731Y10065D01*
X206134Y9819D01*
X206570Y9638D01*
X207029Y9528D01*
X207495Y9491D01*
Y7650D01*
X182750D01*
Y12015D01*
X182935Y12231D01*
X183181Y12634D01*
X183362Y13070D01*
X183472Y13529D01*
X183500Y14000D01*
X183472Y14471D01*
X183362Y14930D01*
X183181Y15366D01*
X182935Y15769D01*
X182628Y16128D01*
X182269Y16435D01*
X181866Y16681D01*
X181430Y16862D01*
X180971Y16972D01*
X180500Y17009D01*
X180029Y16972D01*
X179570Y16862D01*
X179134Y16681D01*
X178731Y16435D01*
X178372Y16128D01*
X178065Y15769D01*
X177819Y15366D01*
X177638Y14930D01*
X177528Y14471D01*
X177491Y14000D01*
X177528Y13529D01*
X177638Y13070D01*
X177819Y12634D01*
X178065Y12231D01*
X178250Y12015D01*
Y7650D01*
X172232D01*
X171750Y8132D01*
Y34015D01*
X171935Y34231D01*
X172181Y34634D01*
X172362Y35070D01*
X172472Y35529D01*
X172500Y36000D01*
X172472Y36471D01*
X172362Y36930D01*
X172181Y37366D01*
X171935Y37769D01*
X171628Y38128D01*
X171269Y38435D01*
X170866Y38681D01*
X170430Y38862D01*
X169971Y38972D01*
X169500Y39009D01*
X169029Y38972D01*
X168570Y38862D01*
X168134Y38681D01*
X167731Y38435D01*
X167372Y38128D01*
X167065Y37769D01*
X166819Y37366D01*
X166638Y36930D01*
X166528Y36471D01*
X166491Y36000D01*
X166528Y35529D01*
X166638Y35070D01*
X166819Y34634D01*
X167065Y34231D01*
X167250Y34015D01*
Y7288D01*
X167243Y7200D01*
X167271Y6847D01*
Y6847D01*
X167354Y6503D01*
X167489Y6175D01*
X167559Y6061D01*
X167674Y5873D01*
X167674Y5873D01*
X167904Y5604D01*
X167971Y5547D01*
X169647Y3871D01*
X169704Y3804D01*
X169973Y3574D01*
X169973Y3574D01*
X170161Y3459D01*
X170275Y3389D01*
X170603Y3254D01*
X170947Y3171D01*
X170947D01*
X171300Y3143D01*
X171388Y3150D01*
X180412D01*
X180500Y3143D01*
X180588Y3150D01*
X207495D01*
Y2000D01*
X155745D01*
Y25557D01*
X156134Y25319D01*
X156570Y25138D01*
X157029Y25028D01*
X157500Y24991D01*
X157971Y25028D01*
X158430Y25138D01*
X158866Y25319D01*
X159269Y25565D01*
X159628Y25872D01*
X159935Y26231D01*
X160181Y26634D01*
X160362Y27070D01*
X160472Y27529D01*
X160500Y28000D01*
X160472Y28471D01*
X160362Y28930D01*
X160181Y29366D01*
X159935Y29769D01*
X159628Y30128D01*
X159269Y30435D01*
X159000Y30599D01*
Y32535D01*
X159029Y32528D01*
X159500Y32491D01*
X159971Y32528D01*
X160430Y32638D01*
X160866Y32819D01*
X161269Y33065D01*
X161628Y33372D01*
X161935Y33731D01*
X162181Y34134D01*
X162362Y34570D01*
X162472Y35029D01*
X162500Y35500D01*
X162472Y35971D01*
X162362Y36430D01*
X162181Y36866D01*
X161935Y37269D01*
X161628Y37628D01*
X161269Y37935D01*
X160866Y38181D01*
X160430Y38362D01*
X159971Y38472D01*
X159500Y38509D01*
X159029Y38472D01*
X158570Y38362D01*
X158134Y38181D01*
X157731Y37935D01*
X157372Y37628D01*
X157065Y37269D01*
X156819Y36866D01*
X156638Y36430D01*
X156528Y35971D01*
X156491Y35500D01*
X156528Y35029D01*
X156601Y34723D01*
X156481Y34602D01*
X156436Y34564D01*
X156283Y34384D01*
X156159Y34183D01*
X156069Y33965D01*
X156014Y33735D01*
X156014Y33735D01*
X155995Y33500D01*
X156000Y33441D01*
Y30599D01*
X155745Y30443D01*
Y39500D01*
X161401D01*
X161565Y39231D01*
X161872Y38872D01*
X162231Y38565D01*
X162634Y38319D01*
X163070Y38138D01*
X163529Y38028D01*
X164000Y37991D01*
X164471Y38028D01*
X164930Y38138D01*
X165366Y38319D01*
X165769Y38565D01*
X166128Y38872D01*
X166435Y39231D01*
X166681Y39634D01*
X166862Y40070D01*
X166972Y40529D01*
X167000Y41000D01*
X166972Y41471D01*
X166862Y41930D01*
X166681Y42366D01*
X166435Y42769D01*
X166128Y43128D01*
X165769Y43435D01*
X165366Y43681D01*
X164930Y43862D01*
X164471Y43972D01*
X164000Y44009D01*
X163529Y43972D01*
X163070Y43862D01*
X162634Y43681D01*
X162231Y43435D01*
X161872Y43128D01*
X161565Y42769D01*
X161401Y42500D01*
X155745D01*
Y91011D01*
X156000Y90991D01*
X156471Y91028D01*
X156930Y91138D01*
X157366Y91319D01*
X157769Y91565D01*
X158128Y91872D01*
X158435Y92231D01*
X158599Y92500D01*
X162441D01*
X162500Y92495D01*
X162735Y92514D01*
X162735Y92514D01*
X162965Y92569D01*
X163183Y92659D01*
X163384Y92783D01*
X163564Y92936D01*
X163602Y92981D01*
X163621Y93000D01*
X196379D01*
X196398Y92981D01*
X196436Y92936D01*
X196616Y92783D01*
X196817Y92659D01*
X197035Y92569D01*
X197265Y92514D01*
X197500Y92495D01*
X197559Y92500D01*
X207379D01*
X207495Y92383D01*
Y51000D01*
X190621D01*
X190000Y51621D01*
Y56441D01*
X190005Y56500D01*
X189986Y56735D01*
X189986Y56735D01*
X189931Y56965D01*
X189841Y57183D01*
X189717Y57384D01*
X189564Y57564D01*
X189519Y57602D01*
X187602Y59519D01*
X187564Y59564D01*
X187384Y59717D01*
X187183Y59841D01*
X186965Y59931D01*
X186735Y59986D01*
X186735Y59986D01*
X186500Y60005D01*
X186441Y60000D01*
X175059D01*
X175000Y60005D01*
X174765Y59986D01*
X174535Y59931D01*
X174317Y59841D01*
X174116Y59717D01*
X174115Y59717D01*
X173936Y59564D01*
X173898Y59519D01*
X171981Y57602D01*
X171936Y57564D01*
X171783Y57384D01*
X171695Y57241D01*
X169515Y57236D01*
X169285Y57181D01*
X169067Y57091D01*
X168866Y56967D01*
X168686Y56814D01*
X168533Y56634D01*
X168409Y56433D01*
X168319Y56215D01*
X168264Y55985D01*
X168250Y55750D01*
X168264Y49015D01*
X168319Y48785D01*
X168409Y48567D01*
X168533Y48366D01*
X168686Y48186D01*
X168866Y48033D01*
X169067Y47909D01*
X169285Y47819D01*
X169515Y47764D01*
X169750Y47750D01*
X176485Y47764D01*
X176715Y47819D01*
X176933Y47909D01*
X177134Y48033D01*
X177314Y48186D01*
X177467Y48366D01*
X177591Y48567D01*
X177681Y48785D01*
X177736Y49015D01*
X177750Y49250D01*
X177736Y55985D01*
X177681Y56215D01*
X177591Y56433D01*
X177467Y56634D01*
X177314Y56814D01*
X177134Y56967D01*
X177081Y57000D01*
G37*
G36*
X150099Y39500D02*X155745D01*
Y30443D01*
X155731Y30435D01*
X155372Y30128D01*
X155065Y29769D01*
X155000Y29662D01*
X154935Y29769D01*
X154628Y30128D01*
X154269Y30435D01*
X154000Y30599D01*
Y32901D01*
X154269Y33065D01*
X154628Y33372D01*
X154935Y33731D01*
X155181Y34134D01*
X155362Y34570D01*
X155472Y35029D01*
X155500Y35500D01*
X155472Y35971D01*
X155362Y36430D01*
X155181Y36866D01*
X154935Y37269D01*
X154628Y37628D01*
X154269Y37935D01*
X153866Y38181D01*
X153430Y38362D01*
X152971Y38472D01*
X152500Y38509D01*
X152029Y38472D01*
X151570Y38362D01*
X151134Y38181D01*
X150731Y37935D01*
X150372Y37628D01*
X150065Y37269D01*
X149819Y36866D01*
X149638Y36430D01*
X149528Y35971D01*
X149491Y35500D01*
X149528Y35029D01*
X149638Y34570D01*
X149819Y34134D01*
X150065Y33731D01*
X150372Y33372D01*
X150731Y33065D01*
X151000Y32901D01*
Y30599D01*
X150731Y30435D01*
X150372Y30128D01*
X150065Y29769D01*
X150000Y29662D01*
X149935Y29769D01*
X149628Y30128D01*
X149269Y30435D01*
X149000Y30599D01*
Y38401D01*
X149269Y38565D01*
X149628Y38872D01*
X149935Y39231D01*
X150099Y39500D01*
G37*
G36*
X155745Y2000D02*X136500D01*
Y93000D01*
X151879D01*
X151898Y92981D01*
X151936Y92936D01*
X152116Y92783D01*
X152317Y92659D01*
X152535Y92569D01*
X152765Y92514D01*
X153000Y92495D01*
X153059Y92500D01*
X153401D01*
X153565Y92231D01*
X153872Y91872D01*
X154231Y91565D01*
X154634Y91319D01*
X155070Y91138D01*
X155529Y91028D01*
X155745Y91011D01*
Y42500D01*
X150099D01*
X149935Y42769D01*
X149628Y43128D01*
X149269Y43435D01*
X148866Y43681D01*
X148430Y43862D01*
X147971Y43972D01*
X147500Y44009D01*
X147029Y43972D01*
X146570Y43862D01*
X146134Y43681D01*
X145731Y43435D01*
X145372Y43128D01*
X145065Y42769D01*
X144819Y42366D01*
X144638Y41930D01*
X144528Y41471D01*
X144491Y41000D01*
X144528Y40529D01*
X144638Y40070D01*
X144819Y39634D01*
X145065Y39231D01*
X145372Y38872D01*
X145731Y38565D01*
X146000Y38401D01*
Y30599D01*
X145731Y30435D01*
X145372Y30128D01*
X145065Y29769D01*
X144819Y29366D01*
X144638Y28930D01*
X144528Y28471D01*
X144491Y28000D01*
X144528Y27529D01*
X144638Y27070D01*
X144819Y26634D01*
X145065Y26231D01*
X145372Y25872D01*
X145731Y25565D01*
X146134Y25319D01*
X146570Y25138D01*
X147029Y25028D01*
X147500Y24991D01*
X147971Y25028D01*
X148430Y25138D01*
X148866Y25319D01*
X149269Y25565D01*
X149628Y25872D01*
X149935Y26231D01*
X150000Y26338D01*
X150065Y26231D01*
X150372Y25872D01*
X150731Y25565D01*
X151134Y25319D01*
X151570Y25138D01*
X152029Y25028D01*
X152500Y24991D01*
X152971Y25028D01*
X153430Y25138D01*
X153866Y25319D01*
X154269Y25565D01*
X154628Y25872D01*
X154935Y26231D01*
X155000Y26338D01*
X155065Y26231D01*
X155372Y25872D01*
X155731Y25565D01*
X155745Y25557D01*
Y2000D01*
G37*
G54D43*X152500Y35500D02*Y28000D01*
X147500Y41000D02*Y28000D01*
X157500D02*Y33500D01*
X159500Y35500D01*
X164000Y41000D02*X147500D01*
X173000Y52500D02*Y56500D01*
G54D44*X191900Y5400D02*X171300D01*
X169500Y7200D01*
Y36000D01*
X180500Y5400D02*Y14000D01*
G54D43*X173000Y56500D02*X175000Y58500D01*
X186500D01*
X188500Y56500D01*
Y51000D01*
X74000Y165000D02*X77000Y168000D01*
X87000D01*
X74000Y165000D02*Y141500D01*
G54D45*X75500Y63000D02*Y121000D01*
G54D43*X83000Y113500D02*Y79500D01*
X85500Y77000D01*
X95000D01*
X100000Y92000D02*Y97000D01*
X105000Y102000D01*
X109500D01*
X92000Y168000D02*Y151000D01*
X103500Y109500D02*X149000D01*
X101500Y104500D02*X108500D01*
X111000Y107000D01*
X146000D01*
X109500Y102000D02*X112000Y104500D01*
X142500D01*
X149000Y109500D02*X156500Y102000D01*
X146000Y107000D02*X155000Y98000D01*
X142500Y104500D02*X153000Y94000D01*
X156250Y102250D02*X195750D01*
X165000Y100000D02*X195000D01*
X166000Y97500D02*X194000D01*
X195750Y102250D02*X199500Y98500D01*
X195000Y100000D02*X198500Y96500D01*
X194000Y97500D02*X197500Y94000D01*
X199500Y98500D02*X217500D01*
X198500Y96500D02*X211000D01*
X197500Y94000D02*X208000D01*
X155000Y98000D02*X163000D01*
X165000Y100000D01*
X153000Y94000D02*X162500D01*
X166000Y97500D01*
X211000Y96500D02*X214500Y93000D01*
X218000D01*
X208000Y94000D02*X214500Y87500D01*
X217500D01*
G54D44*X344000Y105500D02*Y55000D01*
X324250Y35250D01*
G54D43*X268500Y98500D02*X290000D01*
X289000D02*X297000D01*
X298000Y97500D01*
Y91000D01*
G54D46*X254500Y89500D02*X241500D01*
X248500D02*X235500D01*
G54D43*X261500Y54000D02*Y52500D01*
X258500Y49500D01*
X223500D01*
X188500Y51000D02*X190000Y49500D01*
X228000D01*
G54D44*X303500Y14500D02*X325000Y36000D01*
X188900Y5400D02*X294400D01*
X304850Y15850D01*
G54D43*X221000Y24000D02*Y35000D01*
X214500Y22500D02*Y33500D01*
G54D44*X207500Y13000D02*Y42500D01*
G54D47*X333000Y17000D03*
G54D42*G36*
X304000Y47700D02*Y39700D01*
X312000D01*
Y47700D01*
X304000D01*
G37*
G54D45*X298000Y43700D03*
X288000D03*
X278000D03*
X268000D03*
X258000D03*
X248000D03*
X238000D03*
X228000D03*
G54D47*X333000Y158000D03*
G54D45*X308000Y130300D03*
X298000D03*
X288000D03*
X278000D03*
X268000D03*
X258000D03*
X248000D03*
X238000D03*
X228000D03*
G54D42*G36*
X169750Y125250D02*Y118750D01*
X176250D01*
Y125250D01*
X169750D01*
G37*
G54D48*X183000Y122000D03*
G54D47*X17000Y17000D03*
Y158000D03*
G54D42*G36*
Y124000D02*Y116000D01*
X25000D01*
Y124000D01*
X17000D01*
G37*
G54D45*X21000Y100000D03*
G54D42*G36*
X17000Y84000D02*Y76000D01*
X25000D01*
Y84000D01*
X17000D01*
G37*
G54D45*X21000Y60000D03*
G54D42*G36*
X169750Y55750D02*Y49250D01*
X176250D01*
Y55750D01*
X169750D01*
G37*
G54D48*X183000Y52500D03*
G54D42*G36*
X120000Y47700D02*Y39700D01*
X128000D01*
Y47700D01*
X120000D01*
G37*
G54D45*X114000Y43700D03*
X104000D03*
X94000D03*
X84000D03*
X74000D03*
G54D49*X75500Y63000D03*
G54D45*X64000Y43700D03*
X54000D03*
X44000D03*
G54D49*X65500Y63000D03*
G54D42*G36*
X51563Y66937D02*Y59063D01*
X59437D01*
Y66937D01*
X51563D01*
G37*
G54D45*X124000Y130300D03*
X114000D03*
X104000D03*
X94000D03*
X84000D03*
X74000D03*
X64000D03*
X54000D03*
X44000D03*
G54D46*X317500Y128000D03*
Y133000D03*
X342500D03*
Y128000D03*
Y122500D03*
X344000Y100500D03*
Y105500D03*
X318500Y109500D03*
X298000Y91000D03*
X313500Y109500D03*
X257000Y150000D03*
X262500D03*
Y144500D03*
X268000Y150000D03*
Y144500D03*
X268500Y98500D03*
X257000Y144500D03*
X232000Y114500D03*
Y107500D03*
Y90000D03*
X236000Y86000D03*
X254500Y89500D03*
X232000Y63000D03*
X185500Y72700D03*
X205000Y67000D03*
X211500D03*
X232000Y57500D03*
X261500Y54000D03*
X207500Y42500D03*
X211500Y60000D03*
X205000D03*
X214500Y33500D03*
X221000Y35500D03*
Y24000D03*
X191000Y39000D03*
X120000Y60500D03*
X86000Y62500D03*
X83000Y113500D03*
X86000Y67500D03*
X95000Y77000D03*
X100000Y92000D03*
X171500Y93000D03*
Y83000D03*
X65500Y87000D03*
Y81500D03*
Y76000D03*
X63000Y31000D03*
X139700Y25100D03*
X214500Y22500D03*
X169500Y36000D03*
X180500Y14000D03*
X179500Y30000D03*
X184500D03*
X186500Y14000D03*
X207500Y12500D03*
X157500Y28000D03*
X164000Y41000D03*
X159500Y35500D03*
X152500Y28000D03*
X147500D03*
Y41000D03*
X152500Y35500D03*
X149500Y58000D03*
X133000Y38500D03*
X134000Y88500D03*
Y83500D03*
X57500Y160000D03*
X48500D03*
X74000Y151000D03*
X87000Y168000D03*
X74000Y141500D03*
X117000Y96000D03*
Y101000D03*
X109500Y157000D03*
X115000D03*
X103500Y109500D03*
X101500Y104500D03*
X92000Y168000D03*
Y151000D03*
X138500Y124000D03*
X211000Y133000D03*
Y127500D03*
Y122000D03*
X138500Y129000D03*
X156500Y102000D03*
X159500Y98000D03*
X156000Y94000D03*
X171500Y88000D03*
X201500Y104043D03*
X217500Y98500D03*
Y93000D03*
Y87500D03*
X138500Y134000D03*
G54D50*G54D51*G54D52*G54D51*G54D52*G54D53*G54D51*G54D52*G54D53*G54D52*G54D54*G54D52*G54D54*G54D55*G54D52*M02*
